<svg width="50" height="50" viewBox="0 0 50 50" fill="none" xmlns="http://www.w3.org/2000/svg">
<path d="M33.8613 8.14879C37.4795 13.1546 41.4541 22.2191 35.7744 27.4232C32.5371 30.392 28.0635 29.9408 25.0557 26.9955C24.9571 26.8998 24.9727 26.8275 25.1006 26.7796C29.0117 25.2689 30.2959 21.4671 29.6553 17.5345C28.5635 10.8109 23.9971 4.68004 18.792 0.427107C18.7725 0.410505 18.7578 0.389021 18.751 0.364607C18.7461 0.348982 18.7442 0.333357 18.7451 0.317732L18.751 0.289412C18.7559 0.27281 18.7637 0.258162 18.7744 0.245466L18.792 0.226912C18.8115 0.21031 18.836 0.200544 18.8613 0.197615C30.3203 -1.04457 43.9151 3.5316 48.7246 14.9984C50.5 19.2289 50.2197 24.2738 46.502 27.2543C43.8154 29.4086 39.7842 30.1429 36.2676 29.974C36.1738 29.9691 36.1319 29.9496 36.1416 29.9134C36.1475 29.891 36.1758 29.8617 36.2256 29.8265C44.5977 23.8402 40.2442 13.3265 33.9297 8.08238C33.7334 7.91832 33.711 7.94078 33.8613 8.14879Z" fill="white"/>
<path d="M5.82424 24.4681C5.82033 24.4857 5.82326 24.5033 5.83303 24.5189C5.84182 24.5336 5.85646 24.5453 5.87307 24.5502C5.88967 24.555 5.90725 24.5541 5.92189 24.5453C5.93654 24.5375 5.94826 24.5238 5.95314 24.5072C8.24807 19.0443 13.5645 11.8275 20.4776 12.7875C25.2754 13.4554 27.9258 17.9408 26.7041 22.5462C26.6983 22.5687 26.6865 22.5882 26.6709 22.6048C26.6553 22.6214 26.6358 22.6341 26.6143 22.641C26.5928 22.6488 26.5694 22.6507 26.5469 22.6459C26.5362 22.6439 26.5264 22.641 26.5166 22.6361L26.4844 22.6185C23.0283 19.9046 19.1201 20.8402 15.9707 23.4759C10.8203 27.7836 7.85744 34.7689 6.77443 41.3031C6.76174 41.3744 6.74123 41.4125 6.71193 41.4164C6.68557 41.4203 6.65236 41.3959 6.61232 41.3421C-0.565411 31.7728 -3.37596 16.1351 5.80275 6.63218C9.18361 3.13023 14.0274 2.15855 18.2061 4.91734C20.4404 6.3939 22.2676 8.58336 23.6875 11.4877C23.7119 11.5384 23.7129 11.5668 23.6914 11.5716C23.6778 11.5746 23.6543 11.5677 23.6211 11.5511C14.3252 6.84898 7.18361 16.6195 5.82424 24.4681Z" fill="white"/>
<path d="M33.9336 40.4125C29.3906 40.8636 24.4815 40.4691 20.4951 38.057C14.3887 34.3627 14.5059 25.2201 22.0713 23.4242C22.166 23.4027 22.2071 23.4398 22.1953 23.5355C21.4795 29.1224 26.1446 32.1 30.9795 33.0062C36.836 34.1009 42.7481 33.2611 48.2949 31.2074C48.3477 31.1878 48.3779 31.1898 48.3858 31.2123C48.3916 31.2279 48.3877 31.2533 48.3731 31.2884C45.5498 37.9867 41.0684 43.1332 34.9287 46.7269C29.9141 49.6625 21.8487 51.3959 16.3379 48.5472C9.22365 44.8675 10.0713 37.3587 13.8858 31.5765C13.9365 31.5003 13.9658 31.5082 13.9766 31.598C14.5762 36.5619 17.2207 39.7191 21.9092 41.0716C25.8565 42.2084 29.8692 42.0082 33.9483 40.4691C33.9551 40.4662 33.96 40.4613 33.9629 40.4554C33.9658 40.4486 33.9668 40.4418 33.9649 40.4349C33.9629 40.4281 33.959 40.4222 33.9531 40.4183C33.9473 40.4134 33.9404 40.4115 33.9336 40.4125Z" fill="white"/>
</svg>
