<svg width="598" height="600" viewBox="0 0 598 600" fill="none" xmlns="http://www.w3.org/2000/svg">
<g opacity="0.03">
<path d="M429.288 329.072C497.444 266.62 449.756 157.852 406.328 97.783C404.523 95.2803 404.8 95.0152 407.159 96.9891C482.932 159.91 535.168 286.077 434.703 357.915C433.187 358.998 433.356 359.588 435.209 359.684C477.408 361.705 525.781 352.897 558.018 327.05C602.637 291.276 605.994 230.737 584.695 179.982C526.973 42.3705 363.839 -12.5367 226.338 2.37239C226.032 2.40315 225.743 2.52327 225.506 2.71809C225.27 2.91292 225.096 3.17366 225.006 3.46736C224.958 3.62849 224.936 3.79548 224.94 3.96174C224.945 4.0987 224.967 4.23493 225.008 4.3675C225.096 4.66046 225.27 4.92121 225.507 5.11603C287.959 56.1604 342.757 129.731 355.862 210.413C363.551 257.595 348.136 303.225 301.207 321.347C299.668 321.924 299.486 322.791 300.667 323.946C336.765 359.287 390.445 364.702 429.288 329.072Z" fill="url(#paint0_linear_211_5429)"/>
<path d="M69.9916 294.231C69.8817 294.048 69.8451 293.832 69.8861 293.628C86.2029 199.444 171.903 82.1935 283.449 138.617C284.017 138.901 284.35 138.946 284.446 138.751C284.523 138.599 284.455 138.302 284.244 137.859C267.205 103.011 245.281 76.7304 218.47 59.0176C168.329 25.9145 110.209 37.5746 69.6327 79.5941C-40.5068 193.632 -6.78925 381.277 79.3431 496.109C80.3538 497.457 81.0042 497.3 81.2928 495.64C94.2888 417.231 129.846 333.409 191.649 281.715C229.445 250.091 276.339 238.865 317.817 271.426C317.941 271.525 318.078 271.606 318.224 271.665C318.331 271.708 318.442 271.74 318.557 271.761C318.611 271.77 318.665 271.778 318.721 271.782C318.797 271.788 318.873 271.789 318.949 271.784C319.091 271.775 319.232 271.748 319.367 271.704C319.629 271.617 319.865 271.468 320.054 271.269C320.243 271.069 320.379 270.826 320.452 270.56C335.108 215.292 303.305 161.467 245.726 153.453C162.77 141.938 98.9821 228.54 71.4374 294.097C71.3758 294.295 71.2411 294.459 71.0624 294.555C70.8822 294.65 70.6713 294.67 70.472 294.609C70.3636 294.577 70.264 294.522 70.1776 294.45C70.1044 294.389 70.0414 294.315 69.9916 294.231Z" fill="url(#paint1_linear_211_5429)"/>
<path d="M407.198 484.95C352.687 490.366 293.773 485.636 245.942 456.685C172.66 412.354 174.068 302.648 264.859 281.097C265.99 280.833 266.482 281.278 266.338 282.433C257.747 349.47 313.736 385.208 371.748 396.074C442.034 409.214 512.97 399.142 579.536 374.486C580.595 374.102 580.909 374.426 580.475 375.461C546.589 455.842 492.813 517.596 419.147 560.723C358.969 595.956 262.187 616.749 196.052 582.563C110.677 538.414 120.858 448.309 166.631 378.927C166.87 378.563 167.072 378.358 167.235 378.309C167.482 378.237 167.642 378.527 167.715 379.179C174.91 438.743 206.642 476.636 262.909 492.856C310.272 506.501 358.428 504.095 407.378 485.636C407.455 485.6 407.515 485.538 407.55 485.462C407.585 485.386 407.594 485.3 407.572 485.219C407.551 485.138 407.501 485.066 407.433 485.017C407.39 484.987 407.343 484.965 407.293 484.956L407.247 484.951L407.198 484.95Z" fill="url(#paint2_linear_211_5429)"/>
</g>
<defs>
<linearGradient id="paint0_linear_211_5429" x1="298.692" y1="0" x2="298.692" y2="600" gradientUnits="userSpaceOnUse">
<stop stop-color="#002133"/>
<stop offset="1" stop-color="#002133" stop-opacity="0"/>
</linearGradient>
<linearGradient id="paint1_linear_211_5429" x1="298.692" y1="0" x2="298.692" y2="600" gradientUnits="userSpaceOnUse">
<stop stop-color="#002133"/>
<stop offset="1" stop-color="#002133" stop-opacity="0"/>
</linearGradient>
<linearGradient id="paint2_linear_211_5429" x1="298.692" y1="0" x2="298.692" y2="600" gradientUnits="userSpaceOnUse">
<stop stop-color="#002133"/>
<stop offset="1" stop-color="#002133" stop-opacity="0"/>
</linearGradient>
</defs>
</svg>
