<svg width="220" height="50" viewBox="0 0 220 50" fill="none" xmlns="http://www.w3.org/2000/svg">
<path d="M33.8609 8.14863C37.4799 13.1544 41.4538 22.2184 35.7742 27.4228C32.5372 30.392 28.0639 29.9407 25.0556 26.9956C24.9573 26.8994 24.9724 26.8272 25.1007 26.779C29.0115 25.2689 30.2961 21.4664 29.6553 17.5345C28.5633 10.811 23.9967 4.68006 18.7923 0.426329C18.7726 0.410103 18.7581 0.388395 18.7507 0.363944C18.7433 0.339492 18.7433 0.313392 18.7507 0.288936C18.7581 0.26448 18.7725 0.242764 18.7923 0.226526C18.812 0.210289 18.8361 0.200259 18.8615 0.197699C30.3201 -1.04473 43.9146 3.53089 48.7249 14.9985C50.4998 19.2282 50.22 24.2731 46.5018 27.2543C43.8154 29.4083 39.7842 30.1423 36.2675 29.9738C36.1131 29.9658 36.0991 29.9167 36.2254 29.8264C44.5975 23.8399 40.2445 13.3259 33.9301 8.08245C33.7335 7.91799 33.7105 7.94006 33.8609 8.14863Z" fill="url(#paint0_linear_260_1095)"/>
<path d="M5.82381 24.4681C5.82039 24.4852 5.82354 24.5032 5.83263 24.5184C5.84172 24.5336 5.85604 24.5449 5.87264 24.55C5.88925 24.555 5.90686 24.5533 5.92184 24.5454C5.93683 24.5374 5.94804 24.5238 5.95317 24.5072C8.2485 19.0442 13.5642 11.8272 20.4772 12.7869C25.2755 13.4547 27.9258 17.9401 26.7044 22.5458C26.6984 22.5679 26.687 22.5882 26.6713 22.6048C26.6555 22.6215 26.6358 22.6339 26.6141 22.6411C26.5923 22.6482 26.5691 22.6499 26.5465 22.6459C26.524 22.6418 26.5028 22.6323 26.4848 22.618C23.0283 19.9045 19.1205 20.8401 15.9708 23.4754C10.8206 27.7833 7.85742 34.7685 6.77444 41.3025C6.75037 41.4409 6.69622 41.454 6.61199 41.3417C-0.565812 31.7723 -3.37556 16.1351 5.80276 6.63191C9.18408 3.13026 14.0274 2.15857 18.206 4.91718C20.4401 6.39326 22.2672 8.5833 23.6871 11.4873C23.7272 11.5715 23.7051 11.5926 23.6209 11.5505C14.3253 6.84851 7.18356 16.6195 5.82381 24.4681Z" fill="#002133"/>
<path fill-rule="evenodd" clip-rule="evenodd" d="M130.662 17.9733C130.639 17.9746 130.617 17.9835 130.6 17.9986C130.583 18.0138 130.571 18.0343 130.567 18.0569C130.563 18.0794 130.567 18.1028 130.577 18.1231C130.588 18.1434 130.605 18.1595 130.626 18.1689C131.505 18.578 132.043 19.1135 132.593 19.9949C134.986 23.8235 136.773 26.4607 137.954 27.9067C138.893 29.0579 140.183 29.5553 141.826 29.3988C141.948 29.3868 142.009 29.443 142.009 29.5673V30.6232C142.009 30.7043 141.983 30.7831 141.933 30.8474C141.884 30.9116 141.814 30.9576 141.736 30.9782C138.675 31.7563 136.29 30.91 134.579 28.4392C132.852 25.9443 131.155 23.4314 129.486 20.9004C128.117 18.8247 126.002 18.7194 123.704 18.8367C123.584 18.8427 123.523 18.9049 123.523 19.0232L123.499 30.6262C123.499 30.7245 123.451 30.7736 123.355 30.7736H120.199C120.099 30.7736 120.049 30.7235 120.049 30.6232V3.85237C120.049 3.7561 120.097 3.70797 120.193 3.70797C122.887 3.68591 125.57 3.68892 128.243 3.717C132.551 3.75911 137.232 5.22716 137.548 10.2931C137.81 14.5228 134.907 17.6514 130.662 17.9733ZM123.517 5.57613L123.56 16.9114C123.56 16.9577 123.578 17.002 123.611 17.0348C123.643 17.0675 123.688 17.0859 123.734 17.0859L127.645 17.0708C129.306 17.0649 130.896 16.4467 132.067 15.3522C133.238 14.2578 133.892 12.7767 133.887 11.2347V11.1806C133.885 10.4168 133.72 9.66107 133.403 8.95651C133.086 8.25196 132.622 7.61239 132.038 7.07435C131.455 6.53631 130.763 6.11033 130.002 5.82074C129.241 5.53116 128.425 5.38363 127.603 5.3866L123.692 5.40164C123.669 5.40164 123.646 5.40616 123.625 5.41493C123.604 5.42369 123.585 5.43655 123.569 5.45275C123.552 5.46895 123.54 5.48819 123.531 5.50935C123.522 5.53052 123.517 5.55321 123.517 5.57613Z" fill="#002133"/>
<path fill-rule="evenodd" clip-rule="evenodd" d="M79.509 3.6987H77.7311C77.7099 3.6988 77.6892 3.70513 77.6716 3.71689C77.6539 3.72866 77.6401 3.74535 77.6319 3.76489L66.2605 30.623C66.2536 30.6394 66.2508 30.6573 66.2524 30.675C66.2541 30.6928 66.2601 30.7099 66.2699 30.7247C66.2797 30.7396 66.2931 30.7519 66.3087 30.7603C66.3244 30.7688 66.3419 30.7733 66.3598 30.7734H67.885C67.9062 30.7733 67.9269 30.767 67.9446 30.7552C67.9622 30.7434 67.976 30.7267 67.9843 30.7072L71.3475 22.8676C71.3558 22.848 71.3696 22.8314 71.3872 22.8196C71.4049 22.8078 71.4256 22.8015 71.4468 22.8014H84.6683C84.6892 22.8012 84.7096 22.8071 84.7272 22.8183C84.7449 22.8295 84.7589 22.8456 84.7676 22.8646L88.4287 30.7102C88.4374 30.7292 88.4513 30.7453 88.469 30.7565C88.4866 30.7677 88.507 30.7735 88.5279 30.7734H92.0296C92.0475 30.773 92.0651 30.7682 92.0808 30.7593C92.0964 30.7505 92.1096 30.7379 92.1191 30.7227C92.1287 30.7074 92.1343 30.6901 92.1355 30.6722C92.1366 30.6542 92.1333 30.6363 92.1258 30.62L79.6083 3.76188C79.5996 3.7429 79.5856 3.72684 79.568 3.71563C79.5504 3.70442 79.5299 3.69855 79.509 3.6987ZM72.1457 21.064C72.1445 21.0481 72.1473 21.0321 72.1538 21.0175L77.7251 8.0848C77.7326 8.06806 77.7447 8.05379 77.7599 8.04368C77.7752 8.03357 77.7931 8.02802 77.8114 8.02771C77.8297 8.02739 77.8478 8.03231 77.8634 8.04189C77.879 8.05148 77.8916 8.06532 77.8996 8.08179L83.832 20.855C83.8385 20.8696 83.8412 20.8856 83.84 20.9015C83.8388 20.9175 83.8336 20.9329 83.8249 20.9463C83.8163 20.9597 83.8044 20.9708 83.7904 20.9785C83.7764 20.9862 83.7607 20.9903 83.7447 20.9904L72.241 21.1528C72.225 21.1527 72.2093 21.1486 72.1953 21.1409C72.1813 21.1332 72.1695 21.1222 72.1608 21.1087C72.1521 21.0953 72.147 21.0799 72.1457 21.064Z" fill="#002133"/>
<path d="M100.17 5.80451H89.99C89.9636 5.80451 89.9384 5.79405 89.9198 5.77543C89.9012 5.75682 89.8907 5.73156 89.8907 5.70523V3.79797C89.8907 3.77165 89.9012 3.74639 89.9198 3.72778C89.9384 3.70916 89.9636 3.6987 89.99 3.6987H114.083C114.11 3.6987 114.135 3.70916 114.154 3.72778C114.172 3.74639 114.183 3.77165 114.183 3.79797V5.70523C114.183 5.73156 114.172 5.75682 114.154 5.77543C114.135 5.79405 114.11 5.80451 114.083 5.80451H103.903C103.877 5.80451 103.852 5.81497 103.833 5.83358C103.815 5.8522 103.804 5.87745 103.804 5.90378V30.6741C103.804 30.6871 103.801 30.7001 103.797 30.7121C103.792 30.7241 103.784 30.7351 103.775 30.7443C103.766 30.7535 103.755 30.7608 103.743 30.7658C103.731 30.7708 103.718 30.7734 103.705 30.7734H100.369C100.356 30.7734 100.343 30.7708 100.331 30.7658C100.319 30.7608 100.308 30.7535 100.298 30.7443C100.289 30.7351 100.282 30.7241 100.277 30.7121C100.272 30.7001 100.269 30.6871 100.269 30.6741V5.90378C100.269 5.87745 100.259 5.8522 100.24 5.83358C100.222 5.81497 100.196 5.80451 100.17 5.80451Z" fill="#002133"/>
<path d="M20.4952 38.0563C24.4812 40.4689 29.3908 40.863 33.9333 40.4118C33.9403 40.4113 33.9472 40.4133 33.9529 40.4173C33.9586 40.4214 33.9627 40.4274 33.9645 40.4341C33.9663 40.4409 33.9656 40.4481 33.9627 40.4544C33.9597 40.4608 33.9547 40.4659 33.9484 40.4689C29.8691 42.0072 25.856 42.2077 21.9091 41.0706C17.2202 39.7189 14.5759 36.5612 13.9763 31.5975C13.9662 31.5072 13.9362 31.5002 13.886 31.5764C10.0715 37.3583 9.22315 44.8671 16.3378 48.5462C21.849 51.3951 29.9142 49.6623 34.9291 46.7262C41.068 43.1323 45.5494 37.9861 48.3732 31.2876C48.4093 31.2014 48.3832 31.1743 48.2949 31.2064C42.7476 33.261 36.8363 34.1004 30.9792 33.0053C26.1448 32.0998 21.479 29.1216 22.1949 23.5352C22.207 23.439 22.1659 23.4018 22.0716 23.4239C14.5057 25.2199 14.3884 34.3621 20.4952 38.0563Z" fill="#002133"/>
<path d="M121.929 46.0418V40.5787C121.928 40.5592 121.934 40.54 121.945 40.5241C121.956 40.5082 121.973 40.4965 121.991 40.491C122.01 40.4854 122.03 40.4863 122.048 40.4935C122.066 40.5007 122.082 40.5137 122.091 40.5306L125.831 46.1922C125.88 46.2656 125.951 46.3214 126.034 46.3513C126.117 46.3813 126.207 46.3838 126.292 46.3585C126.376 46.3333 126.45 46.2816 126.503 46.211C126.556 46.1405 126.585 46.0548 126.586 45.9666L126.595 39.3122C126.595 39.1678 126.524 39.1037 126.381 39.1197L125.978 39.1588C125.904 39.1668 125.868 39.2079 125.87 39.2821L125.918 44.8926C125.918 44.9114 125.912 44.9296 125.901 44.9445C125.89 44.9595 125.875 44.9705 125.856 44.9759C125.838 44.9813 125.819 44.9808 125.801 44.9744C125.792 44.9713 125.783 44.9669 125.776 44.9614L125.774 44.9596L125.772 44.9583L125.77 44.9565L125.767 44.9539C125.766 44.9529 125.765 44.9519 125.764 44.9509C125.761 44.9477 125.758 44.9443 125.755 44.9408L121.953 39.2009C121.908 39.1323 121.842 39.0802 121.764 39.0522C121.687 39.0242 121.603 39.0218 121.524 39.0455C121.446 39.0691 121.377 39.1175 121.328 39.1834C121.278 39.2493 121.252 39.3293 121.252 39.4115V46.0418C121.252 46.1016 121.276 46.159 121.318 46.2013C121.36 46.2436 121.418 46.2674 121.478 46.2674H121.703C121.854 46.2674 121.929 46.1922 121.929 46.0418Z" fill="url(#paint1_linear_260_1095)"/>
<path fill-rule="evenodd" clip-rule="evenodd" d="M116.326 46.3457C115.389 46.3522 114.488 45.975 113.821 45.297C113.154 44.619 112.776 43.6958 112.769 42.7304C112.762 41.7651 113.128 40.8366 113.785 40.1494C114.443 39.4621 115.338 39.0724 116.275 39.0658C117.212 39.0593 118.113 39.4365 118.78 40.1145C119.447 40.7925 119.825 41.7157 119.832 42.6811C119.839 43.6465 119.473 44.5749 118.816 45.2621C118.158 45.9494 117.263 46.3392 116.326 46.3457ZM116.288 45.717C116.654 45.719 117.016 45.6432 117.355 45.4941C117.694 45.345 118.002 45.1255 118.262 44.848C118.522 44.5706 118.729 44.2407 118.871 43.8772C119.013 43.5137 119.087 43.1236 119.089 42.7294C119.091 42.3351 119.021 41.9443 118.883 41.5793C118.745 41.2144 118.542 40.8823 118.284 40.6022C118.027 40.3221 117.721 40.0993 117.384 39.9466C117.047 39.794 116.685 39.7144 116.319 39.7125C115.953 39.7106 115.591 39.7864 115.252 39.9355C114.913 40.0846 114.605 40.3041 114.345 40.5815C114.085 40.859 113.878 41.1889 113.736 41.5524C113.594 41.9159 113.52 42.3059 113.518 42.7002C113.516 43.0944 113.586 43.4852 113.724 43.8502C113.862 44.2152 114.065 44.5472 114.323 44.8274C114.58 45.1075 114.886 45.3303 115.223 45.4829C115.56 45.6356 115.922 45.7151 116.288 45.717Z" fill="url(#paint2_linear_260_1095)"/>
<path d="M94.6918 42.0741C92.7996 39.8299 97.4053 37.5406 98.8162 40.4706C98.8623 40.5629 98.8483 40.6451 98.7741 40.7173C98.6437 40.8457 98.5043 40.8898 98.3559 40.8497C98.2617 40.8236 98.1684 40.7384 98.0761 40.594C97.1315 39.1229 94.5053 39.6704 95.1009 41.3671C95.3152 41.9773 96.0951 42.2142 96.8985 42.4584C98.0915 42.8209 99.3365 43.1992 98.8583 44.8387C98.2326 46.9746 94.3789 46.6798 94.3248 44.6672C94.322 44.5864 94.3482 44.5076 94.3985 44.4446C94.4488 44.3817 94.5201 44.3388 94.5996 44.3237C94.6791 44.3085 94.7617 44.322 94.8325 44.3618C94.9034 44.4016 94.958 44.465 94.9866 44.5409C95.6966 46.4722 98.6778 45.8164 98.1664 44.0866C97.9641 43.3993 97.2108 43.1766 96.4239 42.944C95.7713 42.7511 95.0955 42.5514 94.6918 42.0741Z" fill="url(#paint3_linear_260_1095)"/>
<path d="M87.1921 39.1168H86.8732C86.7536 39.1168 86.6566 39.2138 86.6566 39.3334V46.048C86.6566 46.1676 86.7536 46.2646 86.8732 46.2646H87.1921C87.3117 46.2646 87.4087 46.1676 87.4087 46.048V39.3334C87.4087 39.2138 87.3117 39.1168 87.1921 39.1168Z" fill="url(#paint4_linear_260_1095)"/>
<path d="M72.5116 43.7075C72.5327 47.1911 77.71 47.3295 77.716 43.4819C77.718 42.088 77.712 40.6902 77.6979 39.2883C77.6979 39.174 77.6398 39.1178 77.5235 39.1198L77.1625 39.1289C77.0221 39.1329 76.9519 39.2051 76.9519 39.3455C76.9532 39.6073 76.9674 39.9629 76.9837 40.37C77.0443 41.885 77.1336 44.1144 76.6902 44.8897C75.8659 46.3367 73.2757 45.7591 73.2727 43.9301C73.2707 42.4219 73.2697 40.9128 73.2697 39.4026C73.2697 39.2602 73.1995 39.18 73.0591 39.1619L72.7493 39.1228C72.6029 39.1048 72.5287 39.169 72.5267 39.3154C72.5086 40.7834 72.5036 42.2475 72.5116 43.7075Z" fill="url(#paint5_linear_260_1095)"/>
<path fill-rule="evenodd" clip-rule="evenodd" d="M79.3799 39.2441C79.3717 39.2639 79.3675 39.285 79.3675 39.3063L79.3555 46.1051C79.3555 46.1482 79.3726 46.1895 79.4031 46.2199C79.4335 46.2504 79.4748 46.2675 79.5179 46.2675L81.7922 46.2735C82.2426 46.2744 82.6887 46.1901 83.1051 46.0256C83.5215 45.8611 83.9 45.6196 84.219 45.3148C84.5381 45.0101 84.7913 44.648 84.9644 44.2494C85.1375 43.8507 85.2269 43.4233 85.2277 42.9915V42.444C85.2292 41.572 84.8694 40.735 84.2274 40.1173C83.5854 39.4995 82.7137 39.1515 81.8042 39.1499L79.53 39.1439C79.5086 39.1439 79.4875 39.1481 79.4678 39.1562C79.4481 39.1644 79.4302 39.1764 79.4151 39.1914C79.4 39.2065 79.388 39.2244 79.3799 39.2441ZM80.1196 45.5937L80.1076 39.8237C80.1076 39.8046 80.1152 39.7862 80.1287 39.7727C80.1422 39.7591 80.1606 39.7515 80.1798 39.7515L81.6929 39.7485C82.0594 39.7477 82.4225 39.8166 82.7613 39.9512C83.1002 40.0858 83.4082 40.2835 83.6678 40.533C83.9273 40.7825 84.1333 41.0789 84.274 41.4053C84.4147 41.7316 84.4873 42.0815 84.4876 42.4349V42.9704C84.4884 43.6832 84.1957 44.3671 83.674 44.8719C83.1522 45.3767 82.444 45.6612 81.705 45.6629L80.1918 45.6659C80.1726 45.6659 80.1543 45.6583 80.1407 45.6447C80.1272 45.6312 80.1196 45.6128 80.1196 45.5937Z" fill="url(#paint6_linear_260_1095)"/>
<path d="M91.2744 46.066L91.3165 39.8839C91.3165 39.7776 91.3706 39.7245 91.4789 39.7245H93.1245C93.2247 39.7245 93.2749 39.6743 93.2749 39.5741V39.3665C93.2749 39.3122 93.253 39.2602 93.2141 39.2218C93.1752 39.1835 93.1224 39.1619 93.0673 39.1619L88.7715 39.1439C88.6571 39.1439 88.5829 39.198 88.5489 39.3063C88.4927 39.4888 88.5529 39.6132 88.7294 39.6793C88.8076 39.7094 88.8878 39.7245 88.97 39.7245H90.3779C90.5042 39.7245 90.5674 39.7866 90.5674 39.911V46.078C90.5674 46.2043 90.6306 46.2675 90.7569 46.2675H91.0698C91.2042 46.2675 91.2724 46.2003 91.2744 46.066Z" fill="url(#paint7_linear_260_1095)"/>
<path d="M108.849 39.1348C103.807 38.5031 103.425 46.3457 108.419 46.3247C109.662 46.3207 110.684 45.72 111.484 44.5227C111.572 44.3903 111.54 44.3011 111.388 44.255L111.06 44.1557C111.004 44.1393 110.945 44.1409 110.89 44.1604C110.836 44.1799 110.79 44.2162 110.759 44.264C110.067 45.3329 109.177 45.8032 108.088 45.6749C103.993 45.1905 105.212 38.2053 109.619 40.0012C110.02 40.1657 110.377 40.5297 110.69 41.0932C110.714 41.1365 110.75 41.1721 110.793 41.196C110.836 41.22 110.885 41.2312 110.934 41.2286L111.391 41.2076C111.523 41.2015 111.559 41.1394 111.499 41.021C110.946 39.916 110.062 39.2873 108.849 39.1348Z" fill="url(#paint8_linear_260_1095)"/>
<path d="M128.147 40.8283C128.526 38.533 132.163 38.53 132.575 40.5546C132.588 40.6226 132.576 40.693 132.543 40.7535C132.509 40.814 132.456 40.8609 132.391 40.8862C132.327 40.9115 132.256 40.9135 132.19 40.892C132.124 40.8705 132.068 40.8267 132.031 40.7682C130.328 37.9765 127.181 41.2646 129.859 42.1309C129.963 42.1648 130.069 42.1984 130.175 42.2321L130.177 42.2326C131.146 42.5408 132.148 42.8593 132.476 43.4365C133.938 45.9906 129.435 47.6813 128.096 44.8324C128.062 44.7609 128.057 44.6788 128.083 44.6039C128.109 44.529 128.163 44.4673 128.234 44.4323C128.365 44.3661 128.487 44.3601 128.601 44.4142C128.674 44.4503 128.746 44.5366 128.818 44.673C130.277 47.4436 133.83 44.2006 131.035 43.229C130.873 43.1728 130.69 43.1183 130.498 43.0608C129.372 42.7239 127.906 42.2854 128.147 40.8283Z" fill="url(#paint9_linear_260_1095)"/>
<path d="M137.518 45.6628C136.71 45.6748 135.899 45.6738 135.087 45.6597C134.989 45.6577 134.94 45.6076 134.94 45.5093V43.1629C134.94 43.1405 134.944 43.1183 134.953 43.0977C134.962 43.0771 134.974 43.0583 134.99 43.0427C135.006 43.027 135.025 43.0146 135.046 43.0063C135.057 43.0019 135.069 42.9987 135.08 42.9967C135.085 42.9959 135.089 42.9954 135.094 42.995C135.097 42.9947 135.101 42.9945 135.104 42.9944C135.106 42.9944 135.109 42.9943 135.111 42.9944L137.416 43.0335C137.499 43.0387 137.58 43.0107 137.643 42.9557C137.705 42.9007 137.743 42.8232 137.748 42.7402C137.753 42.6572 137.725 42.5756 137.67 42.5132C137.615 42.4509 137.538 42.413 137.455 42.4078C136.671 42.3195 135.891 42.3235 135.117 42.4198C134.999 42.4359 134.94 42.3847 134.94 42.2664V39.8748C134.94 39.7745 134.99 39.7244 135.09 39.7244H137.798C137.898 39.7244 137.948 39.6742 137.948 39.574V39.2852C137.948 39.2429 137.931 39.2023 137.901 39.1724C137.872 39.1425 137.831 39.1257 137.789 39.1257L134.41 39.1227C134.38 39.1227 134.351 39.1286 134.323 39.1402C134.296 39.1517 134.271 39.1686 134.25 39.1899C134.229 39.2111 134.212 39.2364 134.201 39.2641C134.19 39.2918 134.184 39.3215 134.185 39.3513L134.251 46.0749C134.251 46.2032 134.316 46.2674 134.446 46.2674H137.726C137.828 46.2674 137.898 46.2193 137.936 46.123C137.986 45.9887 137.968 45.8743 137.882 45.7801C137.812 45.6999 137.69 45.6608 137.518 45.6628Z" fill="url(#paint10_linear_260_1095)"/>
<path d="M139.988 39.1319L139.651 39.1313C139.545 39.1311 139.458 39.2171 139.458 39.3235L139.446 46.0741C139.446 46.1804 139.532 46.2668 139.639 46.267L139.976 46.2675C140.082 46.2677 140.168 46.1817 140.168 46.0753L140.18 39.3247C140.18 39.2184 140.094 39.1321 139.988 39.1319Z" fill="url(#paint11_linear_260_1095)"/>
<path d="M144.972 45.6689L142.737 45.6659C142.704 45.6659 142.672 45.6526 142.648 45.6289C142.624 45.6052 142.611 45.573 142.611 45.5395V39.2582C142.611 39.2252 142.598 39.1935 142.575 39.1699C142.552 39.1463 142.521 39.1326 142.488 39.1318L141.988 39.1198C141.971 39.1194 141.955 39.1224 141.939 39.1286C141.923 39.1347 141.909 39.144 141.897 39.1557C141.889 39.1634 141.882 39.172 141.877 39.1813C141.874 39.1864 141.871 39.1916 141.869 39.1971C141.862 39.2126 141.859 39.2293 141.859 39.2462V46.1412C141.859 46.1747 141.872 46.2068 141.896 46.2305C141.92 46.2542 141.952 46.2675 141.985 46.2675H145.063C145.082 46.2673 145.101 46.2626 145.118 46.2539C145.135 46.2452 145.15 46.2327 145.162 46.2173C145.174 46.2019 145.182 46.1841 145.185 46.1651C145.189 46.1462 145.188 46.1267 145.183 46.1081L145.093 45.7621C145.086 45.7356 145.07 45.7122 145.048 45.6953C145.027 45.6785 145 45.6692 144.972 45.6689Z" fill="url(#paint12_linear_260_1095)"/>
<path d="M146.269 41.8212C144.957 39.4627 149.238 37.8262 150.586 40.4404C150.606 40.477 150.614 40.5186 150.609 40.5599C150.605 40.6012 150.589 40.6403 150.562 40.6721C150.301 40.9789 150.08 40.9929 149.897 40.7142C148.089 37.9375 145.192 41.4572 147.894 42.2093C148.722 42.4379 149.308 42.6224 149.653 42.7628C151.6 43.542 150.646 46.0028 148.835 46.3006C147.912 46.454 146.113 45.9727 146.071 44.7182C146.067 44.6305 146.096 44.5445 146.15 44.4759C146.205 44.4072 146.283 44.3605 146.369 44.3441C146.455 44.3277 146.544 44.3428 146.62 44.3866C146.697 44.4304 146.754 44.5 146.783 44.5828C147.409 46.3277 150.192 45.9426 149.975 44.2339C149.881 43.4736 149.078 43.2278 148.225 42.9664C147.451 42.7293 146.635 42.4795 146.269 41.8212Z" fill="url(#paint13_linear_260_1095)"/>
<path d="M156.964 39.2999C156.94 41.3787 156.93 43.4424 156.988 45.5121C156.992 45.5963 156.975 45.6946 156.937 45.8069C156.826 46.1298 156.965 46.2752 157.352 46.2431C157.434 46.2363 157.51 46.1988 157.566 46.138C157.622 46.0772 157.653 45.9977 157.652 45.9152V43.1445C157.652 43.0202 157.715 42.958 157.839 42.958H160.098C160.223 42.958 160.285 42.8959 160.285 42.7715V42.6211C160.285 42.4948 160.222 42.4316 160.095 42.4316H157.878C157.728 42.4316 157.652 42.3564 157.652 42.206V39.8745C157.652 39.7743 157.703 39.7241 157.803 39.7241H160.134C160.205 39.7241 160.27 39.7244 160.323 39.725C160.375 39.7255 160.414 39.7262 160.435 39.7271C160.66 39.7392 160.786 39.6409 160.814 39.4323C160.836 39.2719 160.768 39.1906 160.61 39.1886L157.159 39.1104C157.031 39.1084 156.966 39.1716 156.964 39.2999Z" fill="url(#paint14_linear_260_1095)"/>
<path fill-rule="evenodd" clip-rule="evenodd" d="M165.084 46.3449C164.149 46.3041 163.269 45.8821 162.637 45.1718C162.006 44.4615 161.675 43.5211 161.717 42.5574C161.759 41.5938 162.171 40.6858 162.862 40.0332C163.553 39.3806 164.466 39.037 165.401 39.0778C166.336 39.1186 167.216 39.5406 167.847 40.2509C168.479 40.9612 168.81 41.9016 168.768 42.8653C168.726 43.829 168.314 44.737 167.623 45.3895C166.932 46.0421 166.019 46.3858 165.084 46.3449ZM165.331 45.7152C166.07 45.692 166.769 45.3535 167.274 44.7743C167.779 44.1951 168.049 43.4226 168.024 42.6268C167.999 41.8309 167.681 41.0769 167.141 40.5305C166.6 39.9842 165.881 39.6903 165.142 39.7136C164.403 39.7368 163.704 40.0752 163.199 40.6544C162.694 41.2336 162.424 42.0061 162.449 42.802C162.474 43.5978 162.792 44.3519 163.332 44.8982C163.873 45.4445 164.591 45.7384 165.331 45.7152Z" fill="url(#paint15_linear_260_1095)"/>
<path fill-rule="evenodd" clip-rule="evenodd" d="M174.664 46.0598L173.082 43.4065C173.069 43.3848 173.061 43.3603 173.06 43.3351C173.058 43.3099 173.062 43.2846 173.072 43.2614C173.078 43.2475 173.086 43.2345 173.096 43.2228C173.102 43.2151 173.109 43.208 173.117 43.2016C173.137 43.1855 173.16 43.1743 173.184 43.1688C175.188 42.7176 175.215 40.0672 173.326 39.3031C172.682 39.0404 171.664 39.0053 170.272 39.1978C170.18 39.2119 170.134 39.265 170.134 39.3573L170.146 46.0838C170.146 46.2062 170.207 46.2673 170.329 46.2673H170.663C170.814 46.2673 170.889 46.1921 170.889 46.0417V43.4125C170.889 43.3936 170.893 43.375 170.9 43.3577C170.902 43.3544 170.903 43.3511 170.905 43.3478C170.908 43.3422 170.912 43.3369 170.915 43.3318C170.92 43.3247 170.926 43.3182 170.933 43.3122C170.947 43.2995 170.963 43.2898 170.981 43.2837C170.991 43.2803 171.001 43.2781 171.012 43.2772C171.02 43.2764 171.028 43.2764 171.036 43.2771L172.095 43.3613C172.135 43.364 172.173 43.3764 172.207 43.3974C172.241 43.4184 172.268 43.4474 172.288 43.4817L173.885 46.132C173.911 46.1735 173.947 46.2077 173.989 46.2314C174.032 46.2551 174.08 46.2675 174.129 46.2673H174.544C174.555 46.2674 174.566 46.2661 174.576 46.2636C174.589 46.2606 174.602 46.2557 174.613 46.249C174.635 46.2369 174.652 46.2194 174.664 46.1984C174.677 46.1773 174.683 46.1534 174.683 46.1291C174.683 46.1224 174.682 46.1157 174.682 46.1091C174.68 46.0995 174.678 46.09 174.674 46.0809C174.672 46.0736 174.668 46.0666 174.664 46.0598ZM170.886 42.5521L170.874 39.977C170.874 39.9643 170.875 39.9517 170.877 39.9393C170.878 39.9371 170.878 39.9349 170.879 39.9327L170.879 39.9306L170.88 39.9267C170.881 39.924 170.882 39.9213 170.883 39.9187C170.884 39.915 170.885 39.9113 170.887 39.9077C170.895 39.8856 170.908 39.8655 170.925 39.8485C170.941 39.8314 170.961 39.8178 170.983 39.8084C171.004 39.7989 171.028 39.7939 171.051 39.7935L172.432 39.7875C172.633 39.7862 172.833 39.8212 173.019 39.8903C173.205 39.9595 173.375 40.0615 173.518 40.1906C173.661 40.3197 173.775 40.4732 173.853 40.6425C173.931 40.8118 173.971 40.9936 173.972 41.1773V41.3157C173.975 41.6866 173.816 42.0433 173.53 42.3073C173.245 42.5713 172.856 42.721 172.45 42.7236L171.069 42.7296C171.046 42.73 171.022 42.7257 171 42.717C170.978 42.7083 170.958 42.6953 170.941 42.6789C170.924 42.6624 170.91 42.6427 170.901 42.6209C170.898 42.6154 170.896 42.6098 170.895 42.6041C170.889 42.5873 170.886 42.5698 170.886 42.5521Z" fill="url(#paint16_linear_260_1095)"/>
<path d="M192.804 39.7244H191.288C191.174 39.7244 191.118 39.6673 191.12 39.553V39.3604C191.12 39.2301 191.184 39.1639 191.312 39.1619L195.548 39.1228C195.646 39.1208 195.721 39.1619 195.774 39.2461C195.88 39.4146 195.875 39.55 195.759 39.6522C195.698 39.7044 195.608 39.7285 195.488 39.7244C194.998 39.7064 194.51 39.7104 194.023 39.7365C193.892 39.7425 193.827 39.8107 193.827 39.941V46.081C193.827 46.2053 193.764 46.2675 193.638 46.2675H193.304C193.155 46.2675 193.082 46.1933 193.084 46.0449L193.132 40.0554C193.134 39.8348 193.025 39.7244 192.804 39.7244Z" fill="url(#paint17_linear_260_1095)"/>
<path d="M197.227 39.1286H197.57C197.661 39.1286 197.735 39.2027 197.735 39.2941V46.1048C197.735 46.1962 197.661 46.2703 197.57 46.2703H197.227C197.135 46.2703 197.061 46.1962 197.061 46.1048V39.2941C197.061 39.2027 197.135 39.1286 197.227 39.1286Z" fill="url(#paint18_linear_260_1095)"/>
<path fill-rule="evenodd" clip-rule="evenodd" d="M202.596 46.3453C202.133 46.3381 201.677 46.2367 201.252 46.0471C200.827 45.8575 200.442 45.5833 200.12 45.2402C199.798 44.897 199.545 44.4917 199.375 44.0474C199.205 43.603 199.121 43.1283 199.128 42.6504C199.136 42.1724 199.234 41.7005 199.419 41.2618C199.603 40.823 199.869 40.4258 200.201 40.093C200.534 39.7602 200.927 39.4982 201.357 39.322C201.788 39.1458 202.248 39.0589 202.711 39.0661C203.174 39.0734 203.631 39.1748 204.056 39.3644C204.48 39.554 204.865 39.8282 205.187 40.1713C205.509 40.5144 205.762 40.9197 205.932 41.3641C206.103 41.8085 206.186 42.2832 206.179 42.7611C206.171 43.2391 206.073 43.7109 205.889 44.1497C205.705 44.5885 205.439 44.9857 205.106 45.3185C204.773 45.6513 204.38 45.9133 203.95 46.0895C203.519 46.2657 203.059 46.3526 202.596 46.3453ZM202.63 45.723C202.995 45.7256 203.358 45.6503 203.697 45.5015C204.036 45.3526 204.345 45.1332 204.605 44.8557C204.866 44.5781 205.074 44.2479 205.216 43.8839C205.359 43.5199 205.433 43.1292 205.436 42.7342C205.439 42.3391 205.37 41.9475 205.232 41.5815C205.095 41.2156 204.892 40.8825 204.635 40.6014C204.378 40.3202 204.073 40.0965 203.736 39.943C203.399 39.7894 203.037 39.7091 202.672 39.7065C202.306 39.704 201.943 39.7792 201.604 39.9281C201.265 40.0769 200.956 40.2963 200.696 40.5739C200.435 40.8514 200.228 41.1816 200.085 41.5456C199.943 41.9096 199.868 42.3003 199.865 42.6953C199.862 43.0904 199.932 43.4821 200.069 43.848C200.206 44.214 200.409 44.547 200.666 44.8282C200.923 45.1093 201.228 45.333 201.565 45.4866C201.902 45.6401 202.264 45.7204 202.63 45.723Z" fill="url(#paint19_linear_260_1095)"/>
<path d="M212.094 44.8766C212.07 44.8676 212.05 44.851 212.037 44.8295L208.36 39.2611C208.31 39.1867 208.237 39.1303 208.153 39.1001C208.068 39.07 207.976 39.0677 207.89 39.0936C207.804 39.1194 207.729 39.1721 207.675 39.2439C207.621 39.3157 207.591 39.4029 207.59 39.4927V46.0779C207.59 46.2043 207.652 46.2674 207.777 46.2674H208.078C208.204 46.2674 208.267 46.2043 208.267 46.0779V40.5426C208.266 40.5255 208.272 40.5088 208.282 40.495C208.292 40.4813 208.306 40.4713 208.323 40.4665C208.332 40.4639 208.342 40.4629 208.351 40.4637C208.359 40.4642 208.367 40.4659 208.374 40.4686C208.377 40.4697 208.38 40.4709 208.382 40.4723C208.386 40.4743 208.39 40.4766 208.394 40.4792C208.399 40.4827 208.403 40.4866 208.407 40.491C208.41 40.494 208.412 40.4972 208.415 40.5005L212.157 46.1682C212.207 46.2439 212.28 46.3016 212.365 46.3326C212.45 46.3636 212.543 46.3663 212.63 46.3403C212.717 46.3143 212.793 46.2609 212.847 46.1882C212.901 46.1154 212.93 46.0272 212.93 45.9365V39.3483C212.93 39.1979 212.855 39.1227 212.704 39.1227H212.443C212.316 39.1227 212.253 39.1849 212.253 39.3092V44.7663C212.253 44.7918 212.245 44.8166 212.23 44.8371C212.215 44.8575 212.193 44.8724 212.169 44.8796C212.144 44.8867 212.118 44.8857 212.094 44.8766Z" fill="url(#paint20_linear_260_1095)"/>
<path d="M215.415 39.4568C216.432 38.795 218.547 39.0025 218.935 40.4555C218.956 40.5386 218.946 40.6264 218.907 40.7026C218.867 40.7788 218.802 40.8381 218.722 40.8695C218.643 40.9009 218.554 40.9021 218.474 40.873C218.393 40.8438 218.326 40.7863 218.285 40.7112C216.865 38.0248 213.378 41.2618 216.302 42.1673C216.369 42.1879 216.436 42.2086 216.504 42.2294C217.891 42.6551 219.503 43.1498 219.016 44.8446C218.396 46.9835 214.518 46.6316 214.449 44.7273C214.445 44.6451 214.47 44.564 214.52 44.4981C214.569 44.4322 214.639 44.3854 214.719 44.3659C214.799 44.3463 214.884 44.3552 214.958 44.3909C215.032 44.4267 215.092 44.4871 215.126 44.5619C216.065 46.5443 219.019 45.6689 218.267 43.9602C217.989 43.3324 217.24 43.1291 216.501 42.9289C216.047 42.8058 215.598 42.6838 215.264 42.4651C214.079 41.6829 214.299 40.1848 215.415 39.4568Z" fill="url(#paint21_linear_260_1095)"/>
<path d="M177.039 40.9336C177.053 40.9425 177.064 40.9565 177.068 40.9729L179.387 46.1261C179.415 46.1876 179.46 46.2397 179.517 46.2763C179.574 46.3129 179.64 46.3323 179.708 46.3323C179.775 46.3323 179.842 46.3129 179.898 46.2763C179.955 46.2397 180 46.1876 180.028 46.1261L182.149 41.379C182.364 40.8977 182.471 40.9197 182.471 41.4452V46.0779C182.471 46.2043 182.533 46.2675 182.657 46.2675H182.988C183.083 46.2675 183.13 46.2203 183.13 46.1261L183.22 39.6432C183.22 39.5366 183.184 39.433 183.118 39.3498C183.051 39.2666 182.958 39.2087 182.854 39.1859C182.75 39.163 182.641 39.1765 182.545 39.2241C182.45 39.2718 182.374 39.3507 182.33 39.4477L179.815 45.0611C179.744 45.2216 179.673 45.2216 179.601 45.0611L177.068 39.4507C177.027 39.3593 176.955 39.2848 176.866 39.2396C176.776 39.1945 176.674 39.1813 176.576 39.2024C176.478 39.2235 176.39 39.2776 176.326 39.3556C176.263 39.4336 176.229 39.5308 176.229 39.6312V46.0779C176.229 46.2043 176.291 46.2675 176.415 46.2675H176.722C176.848 46.2675 176.913 46.2033 176.915 46.0749L176.939 40.9999C176.936 40.9832 176.94 40.9661 176.95 40.9523C176.959 40.9384 176.974 40.9287 176.991 40.9252C177.007 40.9218 177.024 40.9248 177.039 40.9336Z" fill="url(#paint22_linear_260_1095)"/>
<path fill-rule="evenodd" clip-rule="evenodd" d="M67.8097 39.556C67.8491 39.4494 67.9203 39.3574 68.0136 39.2924C68.1069 39.2275 68.2179 39.1926 68.3316 39.1926C68.4453 39.1926 68.5563 39.2275 68.6496 39.2924C68.7429 39.3574 68.8141 39.4494 68.8535 39.556L71.2361 46.0419C71.2722 46.1362 71.2431 46.2003 71.1489 46.2344C70.5046 46.4757 70.2552 45.5815 70.1015 45.03C70.0693 44.9145 70.0413 44.8142 70.0147 44.7423C69.9968 44.6954 69.9655 44.6549 69.9248 44.6259C69.8841 44.597 69.8358 44.581 69.7861 44.5799L66.9102 44.5378C66.7778 44.5357 66.6886 44.5979 66.6424 44.7243L66.1671 46.069C66.1508 46.1158 66.1212 46.157 66.0818 46.1879C66.0424 46.2187 65.9948 46.238 65.9445 46.2435L65.6076 46.2766C65.5775 46.28 65.547 46.2756 65.5191 46.2639C65.4912 46.2522 65.4667 46.2336 65.448 46.2098C65.4293 46.1859 65.417 46.1577 65.4123 46.1278C65.4076 46.0979 65.4106 46.0673 65.4211 46.0389L67.8097 39.556ZM66.9703 43.8669C66.9646 43.8822 66.9626 43.8986 66.9644 43.9149C66.9663 43.9311 66.9721 43.9466 66.9812 43.9602C66.9903 43.9737 67.0026 43.9849 67.0169 43.9928C67.0313 44.0006 67.0473 44.0049 67.0636 44.0053L69.5695 44.0173C69.5858 44.0172 69.6017 44.0133 69.6161 44.0058C69.6305 43.9983 69.643 43.9875 69.6524 43.9743C69.6618 43.9611 69.6679 43.9458 69.6702 43.9298C69.6711 43.924 69.6714 43.9183 69.6713 43.9125C69.671 43.9022 69.6692 43.8918 69.6658 43.8819L68.4324 40.4224C68.4253 40.4026 68.4122 40.3854 68.395 40.3733C68.3777 40.3612 68.3572 40.3547 68.3361 40.3547C68.3151 40.3547 68.2945 40.3612 68.2773 40.3733C68.26 40.3854 68.247 40.4026 68.2398 40.4224L66.9703 43.8669Z" fill="url(#paint23_linear_260_1095)"/>
<path fill-rule="evenodd" clip-rule="evenodd" d="M185.628 45.0695L185.628 45.0692C185.671 44.9354 185.711 44.8127 185.75 44.7154C185.771 44.663 185.808 44.6182 185.854 44.5866C185.901 44.555 185.956 44.538 186.012 44.5379L188.833 44.5409C188.881 44.5409 188.927 44.5545 188.967 44.5802C189.006 44.6058 189.037 44.6423 189.056 44.6853C189.096 44.7822 189.135 44.9091 189.179 45.0491C189.357 45.6218 189.604 46.4122 190.196 46.2526C190.218 46.2467 190.238 46.2362 190.256 46.2218C190.273 46.2074 190.288 46.1895 190.298 46.1691C190.308 46.1487 190.314 46.1263 190.315 46.1034C190.316 46.0805 190.313 46.0576 190.305 46.036L187.928 39.5591C187.89 39.4536 187.82 39.3625 187.728 39.2981C187.636 39.2336 187.526 39.1991 187.414 39.1991C187.301 39.1991 187.192 39.2336 187.1 39.2981C187.008 39.3625 186.938 39.4536 186.899 39.5591L184.49 46.042C184.482 46.064 184.478 46.0873 184.48 46.1106C184.481 46.1338 184.488 46.1564 184.499 46.1769C184.5 46.1797 184.502 46.1825 184.503 46.1853C184.506 46.1894 184.508 46.1934 184.511 46.1973C184.514 46.2016 184.518 46.2057 184.521 46.2096C184.528 46.2168 184.535 46.2234 184.542 46.2293C184.561 46.2434 184.582 46.2534 184.604 46.2586C185.201 46.4072 185.446 45.6388 185.628 45.0695ZM186.042 43.9199C186.04 43.9031 186.042 43.886 186.048 43.87L187.302 40.4646C187.31 40.4441 187.323 40.4263 187.341 40.4138C187.359 40.4012 187.38 40.3944 187.402 40.3944C187.423 40.3944 187.445 40.4012 187.462 40.4138C187.48 40.4263 187.494 40.4441 187.501 40.4646L188.755 43.87C188.758 43.8771 188.76 43.8843 188.761 43.8917C188.762 43.901 188.762 43.9105 188.761 43.9199C188.759 43.9367 188.752 43.9528 188.743 43.9666C188.733 43.9805 188.72 43.9919 188.705 43.9997C188.69 44.0075 188.673 44.0115 188.656 44.0114H186.147C186.136 44.0115 186.125 44.0097 186.114 44.0063C186.109 44.0045 186.103 44.0023 186.098 43.9997C186.083 43.9919 186.07 43.9805 186.061 43.9666C186.055 43.9594 186.051 43.9515 186.048 43.9433C186.045 43.9358 186.043 43.9279 186.042 43.9199Z" fill="url(#paint24_linear_260_1095)"/>
<path d="M100.001 47.8077C99.9991 47.8144 99.9954 47.8206 99.9906 47.8259C99.9859 47.8312 99.9801 47.8355 99.9737 47.8386C99.972 47.8394 99.9703 47.8401 99.9685 47.8407C99.9636 47.8425 99.9584 47.8436 99.9532 47.8438C99.9461 47.8442 99.9389 47.8432 99.9322 47.8408L99.9172 47.8348C99.8458 47.8086 99.7816 47.7649 99.7284 47.7061C99.6752 47.6473 99.634 47.5746 99.6072 47.4922C99.5803 47.4097 99.5684 47.3191 99.572 47.2256C99.5757 47.1321 99.5948 47.0376 99.6284 46.9473L100.143 45.5665C100.176 45.4764 100.223 45.3923 100.282 45.3192C100.34 45.246 100.408 45.1852 100.482 45.1402C100.556 45.0952 100.635 45.0669 100.713 45.057C100.792 45.047 100.869 45.0556 100.94 45.0822L100.955 45.0882C100.962 45.0906 100.968 45.0942 100.973 45.099C100.975 45.101 100.978 45.1031 100.979 45.1055C100.981 45.1075 100.983 45.1097 100.984 45.1119C100.985 45.1132 100.985 45.1146 100.986 45.1159C100.989 45.1224 100.991 45.1293 100.991 45.1364C100.992 45.1436 100.991 45.1507 100.988 45.1574L100.001 47.8077Z" fill="url(#paint25_linear_260_1095)"/>
<path d="M152.644 45.0881C152.471 45.0119 152.318 45.0139 152.183 45.0941C152.073 45.1583 151.984 45.2997 151.916 45.5183C151.699 46.2082 151.516 46.885 151.365 47.5489C151.353 47.602 151.361 47.658 151.388 47.7054C151.415 47.7528 151.459 47.7882 151.511 47.8046C151.563 47.821 151.62 47.817 151.669 47.7936C151.718 47.7702 151.757 47.7289 151.777 47.6782L152.74 45.3287C152.786 45.2184 152.754 45.1382 152.644 45.0881Z" fill="url(#paint26_linear_260_1095)"/>
<defs>
<linearGradient id="paint0_linear_260_1095" x1="22.7033" y1="-8.41061e-07" x2="54.3131" y2="5.46699" gradientUnits="userSpaceOnUse">
<stop stop-color="#002133"/>
<stop offset="1" stop-color="#2DB8D2"/>
</linearGradient>
<linearGradient id="paint1_linear_260_1095" x1="85.011" y1="39.0293" x2="101.99" y2="88.5158" gradientUnits="userSpaceOnUse">
<stop stop-color="#002133"/>
<stop offset="1" stop-color="#2DB8D2"/>
</linearGradient>
<linearGradient id="paint2_linear_260_1095" x1="85.011" y1="39.0293" x2="101.99" y2="88.5158" gradientUnits="userSpaceOnUse">
<stop stop-color="#002133"/>
<stop offset="1" stop-color="#2DB8D2"/>
</linearGradient>
<linearGradient id="paint3_linear_260_1095" x1="85.011" y1="39.0293" x2="101.99" y2="88.5158" gradientUnits="userSpaceOnUse">
<stop stop-color="#002133"/>
<stop offset="1" stop-color="#2DB8D2"/>
</linearGradient>
<linearGradient id="paint4_linear_260_1095" x1="85.011" y1="39.0293" x2="101.99" y2="88.5158" gradientUnits="userSpaceOnUse">
<stop stop-color="#002133"/>
<stop offset="1" stop-color="#2DB8D2"/>
</linearGradient>
<linearGradient id="paint5_linear_260_1095" x1="85.011" y1="39.0293" x2="101.99" y2="88.5158" gradientUnits="userSpaceOnUse">
<stop stop-color="#002133"/>
<stop offset="1" stop-color="#2DB8D2"/>
</linearGradient>
<linearGradient id="paint6_linear_260_1095" x1="85.011" y1="39.0293" x2="101.99" y2="88.5158" gradientUnits="userSpaceOnUse">
<stop stop-color="#002133"/>
<stop offset="1" stop-color="#2DB8D2"/>
</linearGradient>
<linearGradient id="paint7_linear_260_1095" x1="85.011" y1="39.0293" x2="101.99" y2="88.5158" gradientUnits="userSpaceOnUse">
<stop stop-color="#002133"/>
<stop offset="1" stop-color="#2DB8D2"/>
</linearGradient>
<linearGradient id="paint8_linear_260_1095" x1="85.011" y1="39.0293" x2="101.99" y2="88.5158" gradientUnits="userSpaceOnUse">
<stop stop-color="#002133"/>
<stop offset="1" stop-color="#2DB8D2"/>
</linearGradient>
<linearGradient id="paint9_linear_260_1095" x1="85.011" y1="39.0293" x2="101.99" y2="88.5158" gradientUnits="userSpaceOnUse">
<stop stop-color="#002133"/>
<stop offset="1" stop-color="#2DB8D2"/>
</linearGradient>
<linearGradient id="paint10_linear_260_1095" x1="85.011" y1="39.0293" x2="101.99" y2="88.5158" gradientUnits="userSpaceOnUse">
<stop stop-color="#002133"/>
<stop offset="1" stop-color="#2DB8D2"/>
</linearGradient>
<linearGradient id="paint11_linear_260_1095" x1="85.011" y1="39.0293" x2="101.99" y2="88.5158" gradientUnits="userSpaceOnUse">
<stop stop-color="#002133"/>
<stop offset="1" stop-color="#2DB8D2"/>
</linearGradient>
<linearGradient id="paint12_linear_260_1095" x1="85.011" y1="39.0293" x2="101.99" y2="88.5158" gradientUnits="userSpaceOnUse">
<stop stop-color="#002133"/>
<stop offset="1" stop-color="#2DB8D2"/>
</linearGradient>
<linearGradient id="paint13_linear_260_1095" x1="85.011" y1="39.0293" x2="101.99" y2="88.5158" gradientUnits="userSpaceOnUse">
<stop stop-color="#002133"/>
<stop offset="1" stop-color="#2DB8D2"/>
</linearGradient>
<linearGradient id="paint14_linear_260_1095" x1="85.011" y1="39.0293" x2="101.99" y2="88.5158" gradientUnits="userSpaceOnUse">
<stop stop-color="#002133"/>
<stop offset="1" stop-color="#2DB8D2"/>
</linearGradient>
<linearGradient id="paint15_linear_260_1095" x1="85.011" y1="39.0293" x2="101.99" y2="88.5158" gradientUnits="userSpaceOnUse">
<stop stop-color="#002133"/>
<stop offset="1" stop-color="#2DB8D2"/>
</linearGradient>
<linearGradient id="paint16_linear_260_1095" x1="85.011" y1="39.0293" x2="101.99" y2="88.5158" gradientUnits="userSpaceOnUse">
<stop stop-color="#002133"/>
<stop offset="1" stop-color="#2DB8D2"/>
</linearGradient>
<linearGradient id="paint17_linear_260_1095" x1="85.011" y1="39.0293" x2="101.99" y2="88.5158" gradientUnits="userSpaceOnUse">
<stop stop-color="#002133"/>
<stop offset="1" stop-color="#2DB8D2"/>
</linearGradient>
<linearGradient id="paint18_linear_260_1095" x1="85.011" y1="39.0293" x2="101.99" y2="88.5158" gradientUnits="userSpaceOnUse">
<stop stop-color="#002133"/>
<stop offset="1" stop-color="#2DB8D2"/>
</linearGradient>
<linearGradient id="paint19_linear_260_1095" x1="85.011" y1="39.0293" x2="101.99" y2="88.5158" gradientUnits="userSpaceOnUse">
<stop stop-color="#002133"/>
<stop offset="1" stop-color="#2DB8D2"/>
</linearGradient>
<linearGradient id="paint20_linear_260_1095" x1="85.011" y1="39.0293" x2="101.99" y2="88.5158" gradientUnits="userSpaceOnUse">
<stop stop-color="#002133"/>
<stop offset="1" stop-color="#2DB8D2"/>
</linearGradient>
<linearGradient id="paint21_linear_260_1095" x1="85.011" y1="39.0293" x2="101.99" y2="88.5158" gradientUnits="userSpaceOnUse">
<stop stop-color="#002133"/>
<stop offset="1" stop-color="#2DB8D2"/>
</linearGradient>
<linearGradient id="paint22_linear_260_1095" x1="85.011" y1="39.0293" x2="101.99" y2="88.5158" gradientUnits="userSpaceOnUse">
<stop stop-color="#002133"/>
<stop offset="1" stop-color="#2DB8D2"/>
</linearGradient>
<linearGradient id="paint23_linear_260_1095" x1="85.011" y1="39.0293" x2="101.99" y2="88.5158" gradientUnits="userSpaceOnUse">
<stop stop-color="#002133"/>
<stop offset="1" stop-color="#2DB8D2"/>
</linearGradient>
<linearGradient id="paint24_linear_260_1095" x1="85.011" y1="39.0293" x2="101.99" y2="88.5158" gradientUnits="userSpaceOnUse">
<stop stop-color="#002133"/>
<stop offset="1" stop-color="#2DB8D2"/>
</linearGradient>
<linearGradient id="paint25_linear_260_1095" x1="85.011" y1="39.0293" x2="101.99" y2="88.5158" gradientUnits="userSpaceOnUse">
<stop stop-color="#002133"/>
<stop offset="1" stop-color="#2DB8D2"/>
</linearGradient>
<linearGradient id="paint26_linear_260_1095" x1="85.011" y1="39.0293" x2="101.99" y2="88.5158" gradientUnits="userSpaceOnUse">
<stop stop-color="#002133"/>
<stop offset="1" stop-color="#2DB8D2"/>
</linearGradient>
</defs>
</svg>
