<svg width="531" height="623" viewBox="0 0 531 623" fill="none" xmlns="http://www.w3.org/2000/svg">
<g opacity="0.03">
<path d="M336.89 55.4347L339.956 56.3139C360.373 64.0636 371.848 78.6991 374.381 100.22C374.425 100.572 374.613 100.795 374.946 100.89C384.697 103.773 394.477 106.592 404.287 109.347C409.328 110.764 412.853 112.253 414.861 113.817C418.414 116.579 420.43 120.191 420.909 124.651C421.187 127.202 420.582 131.057 419.096 136.215C414.036 153.787 408.999 171.365 403.985 188.95C402.232 195.09 400.501 199.216 398.793 201.328C396.116 204.631 392.616 206.524 388.291 207.006C385.753 207.287 382.028 206.723 377.114 205.314C326.886 190.912 276.654 176.508 226.419 162.103C221.366 160.654 217.832 159.119 215.819 157.496C212.441 154.777 210.501 151.263 210 146.955C209.715 144.43 210.287 140.678 211.715 135.698C216.918 117.576 222.111 99.4555 227.292 81.3352C228.792 76.0801 230.36 72.4224 231.995 70.3623C234.882 66.7297 238.644 64.7534 243.282 64.4334C245.754 64.2559 249.708 64.968 255.142 66.5697C264.563 69.3501 274.004 72.043 283.467 74.6484C283.807 74.7458 284.089 74.6538 284.314 74.3724C297.914 57.4484 315.439 51.1358 336.89 55.4347Z" fill="url(#paint0_linear_260_5296)"/>
<path d="M352.755 613.366L30.6024 520.99C16.7099 515.991 7.333 503.272 7.88217 488.579C7.99726 485.614 9.20031 480.137 11.4913 472.148C47.3111 347.179 83.2042 222.231 119.17 97.3043C124.42 79.0736 141.937 69.2461 160.235 73.9958C165.759 75.4358 176.234 78.4466 191.659 83.028C192.003 83.1339 192.125 83.36 192.026 83.7062C187.626 99.1035 183.239 114.476 178.867 129.824C172.319 152.773 181.497 176.967 202.39 188.384C205.943 190.317 212.448 192.647 221.905 195.374C268.741 208.84 315.59 222.277 362.45 235.685C371.966 238.407 378.714 239.916 382.692 240.214C406.531 242.002 427.632 226.534 434.358 203.344C438.83 187.924 443.258 172.567 447.644 157.274C447.705 157.058 447.85 156.876 448.045 156.766C448.24 156.656 448.471 156.627 448.687 156.687C458.93 159.566 469.222 162.532 479.566 165.584C494.285 169.924 504.453 183.053 503.906 198.341C503.793 201.321 502.585 206.829 500.281 214.865C464.488 339.741 428.686 464.61 392.874 589.473C387.7 607.52 371.31 617.109 352.755 613.366ZM186.8 281.425C181.959 272.904 177.156 264.361 172.392 255.796C161.553 236.303 132.638 251.844 143.743 272.105C150.167 283.826 156.595 295.544 163.028 307.26C167.573 315.535 172.028 322.087 181.716 321.093C184.523 320.802 189.152 318.869 195.603 315.293C220.579 301.415 245.562 287.553 270.551 273.707C282.193 267.254 282.376 251.126 270.754 244.54C263.351 240.353 257.627 242.862 250.114 247.052C229.316 258.648 208.477 270.182 187.599 281.654C187.258 281.838 186.992 281.761 186.8 281.425ZM397.474 331.632C398.053 329.612 398.229 327.498 397.991 325.411C397.753 323.323 397.107 321.303 396.088 319.465C395.069 317.627 393.699 316.008 392.054 314.7C390.41 313.392 388.524 312.421 386.504 311.842L321.688 293.256C317.609 292.086 313.233 292.585 309.521 294.642C305.81 296.7 303.068 300.147 301.898 304.226L301.594 305.285C300.425 309.364 300.923 313.74 302.981 317.452C305.038 321.163 308.485 323.905 312.564 325.075L377.38 343.661C379.4 344.24 381.514 344.415 383.602 344.178C385.689 343.94 387.71 343.293 389.548 342.274C391.385 341.256 393.004 339.885 394.312 338.241C395.62 336.596 396.592 334.71 397.171 332.691L397.474 331.632ZM150.154 409.263C145.306 400.739 140.5 392.195 135.736 383.631C124.897 364.137 95.979 379.688 107.077 399.937C113.57 411.793 120.073 423.641 126.586 435.481C131.101 443.671 135.603 449.944 145.191 448.922C147.95 448.625 152.278 446.836 158.176 443.555C181.419 430.621 204.69 417.727 227.989 404.874C233.699 401.72 237.453 399.046 239.249 396.852C248.099 386.041 239.037 368.981 224.873 370.356C222.197 370.619 217.989 372.353 212.25 375.556C191.846 386.934 171.41 398.245 150.943 409.489C150.602 409.672 150.339 409.597 150.154 409.263ZM360.818 459.467C361.397 457.447 361.573 455.333 361.335 453.245C361.097 451.158 360.451 449.137 359.432 447.3C358.413 445.462 357.043 443.843 355.398 442.535C353.754 441.227 351.868 440.256 349.848 439.676L285.032 421.091C280.953 419.921 276.577 420.42 272.865 422.477C269.154 424.534 266.412 427.982 265.242 432.061L264.938 433.119C264.359 435.139 264.184 437.253 264.421 439.341C264.659 441.428 265.306 443.449 266.325 445.286C267.343 447.124 268.714 448.743 270.358 450.051C272.003 451.359 273.889 452.33 275.908 452.909L340.724 471.495C342.744 472.074 344.858 472.25 346.946 472.012C349.034 471.774 351.054 471.128 352.892 470.109C354.729 469.09 356.348 467.72 357.656 466.075C358.964 464.431 359.936 462.545 360.515 460.525L360.818 459.467Z" fill="url(#paint1_linear_260_5296)"/>
</g>
<defs>
<linearGradient id="paint0_linear_260_5296" x1="409.428" y1="80.3786" x2="3.82587" y2="707.776" gradientUnits="userSpaceOnUse">
<stop stop-color="#002133"/>
<stop offset="1" stop-color="#002133" stop-opacity="0"/>
</linearGradient>
<linearGradient id="paint1_linear_260_5296" x1="409.428" y1="80.3786" x2="3.82587" y2="707.776" gradientUnits="userSpaceOnUse">
<stop stop-color="#002133"/>
<stop offset="1" stop-color="#002133" stop-opacity="0"/>
</linearGradient>
</defs>
</svg>
