<svg width="579" height="550" viewBox="0 0 579 550" fill="none" xmlns="http://www.w3.org/2000/svg">
<g opacity="0.03">
<path d="M296.498 123.035H76.2769C74.6132 123.035 73.7813 123.867 73.7813 125.53L73.64 144.365C73.64 146.217 74.5661 147.143 76.4181 147.143H283.926C286.249 147.143 286.469 147.833 284.585 149.215L253.603 171.957C252.096 173.056 250.417 173.605 248.565 173.605H76.2769C74.6132 173.605 73.7813 174.437 73.7813 176.101L73.64 194.935C73.64 196.756 74.5504 197.666 76.371 197.666L225.681 197.619C227.941 197.619 228.38 198.514 226.999 200.303C188.357 250.183 174.09 306.796 184.198 370.142C184.512 371.963 183.743 372.779 181.891 372.591L161.55 370.566C159.76 370.409 158.159 370.864 156.747 371.931C127.899 393.622 95.2682 403.919 58.855 402.82C56.6263 402.757 56.0927 401.768 57.2541 399.853C68.3664 381.647 75.7118 362.012 79.2904 340.949C79.5101 339.505 79.0392 338.359 77.8778 337.512C41.3076 310.107 17.5449 275.703 6.58955 234.299C-35.6937 74.6773 133.816 -54.9976 277.852 23.6361C316.023 44.4795 343.961 76.4823 361.665 119.644C362.23 121.12 361.775 122.062 360.3 122.47L301.442 139.703C301.142 139.79 300.825 139.807 300.517 139.751C300.209 139.696 299.918 139.569 299.667 139.382C299.416 139.195 299.212 138.952 299.071 138.673C298.929 138.394 298.855 138.086 298.852 137.773L298.947 125.483C298.978 123.851 298.162 123.035 296.498 123.035ZM186.929 226.341C186.929 225.817 186.721 225.314 186.35 224.943C185.979 224.572 185.476 224.364 184.951 224.364H75.7118C75.4521 224.364 75.195 224.415 74.955 224.514C74.7151 224.614 74.4971 224.759 74.3134 224.943C74.1298 225.127 73.9841 225.345 73.8848 225.585C73.7854 225.825 73.7342 226.082 73.7342 226.341V246.683C73.7342 246.942 73.7854 247.199 73.8848 247.439C73.9841 247.679 74.1298 247.897 74.3134 248.081C74.4971 248.265 74.7151 248.41 74.955 248.51C75.195 248.609 75.4521 248.66 75.7118 248.66H184.951C185.476 248.66 185.979 248.452 186.35 248.081C186.721 247.71 186.929 247.207 186.929 246.683V226.341Z" fill="url(#paint0_linear_211_5927)"/>
<path d="M499.863 487.339C502.656 509.03 509.939 529.01 521.711 547.28C522.809 548.975 522.338 549.854 520.298 549.917C483.697 551.047 450.878 540.703 421.841 518.887C420.523 517.882 419.047 517.49 417.415 517.71C262.973 536.779 149.213 373.25 232.508 235.806C271.448 171.533 344.432 137.678 418.686 148.037C583.676 171.157 636.177 382.526 501.558 483.431C500.239 484.404 499.674 485.707 499.863 487.339ZM342.407 331.532C342.407 328.533 341.816 325.563 340.669 322.792C339.521 320.022 337.839 317.504 335.718 315.384C333.598 313.263 331.08 311.581 328.31 310.433C325.539 309.286 322.569 308.695 319.57 308.695C313.514 308.695 307.705 311.101 303.422 315.384C299.14 319.666 296.734 325.475 296.734 331.532C296.734 337.588 299.14 343.397 303.422 347.68C307.705 351.962 313.514 354.368 319.57 354.368C322.569 354.368 325.539 353.778 328.31 352.63C331.08 351.482 333.598 349.8 335.718 347.68C337.839 345.559 339.521 343.042 340.669 340.271C341.816 337.5 342.407 334.531 342.407 331.532ZM414.731 331.484C414.731 328.486 414.141 325.516 412.993 322.745C411.845 319.975 410.163 317.457 408.042 315.337C405.922 313.216 403.404 311.534 400.634 310.386C397.863 309.238 394.893 308.648 391.894 308.648C388.895 308.648 385.926 309.238 383.155 310.386C380.385 311.534 377.867 313.216 375.746 315.337C373.626 317.457 371.944 319.975 370.796 322.745C369.648 325.516 369.058 328.486 369.058 331.484C369.058 337.541 371.464 343.35 375.746 347.633C380.029 351.915 385.838 354.321 391.894 354.321C397.951 354.321 403.76 351.915 408.042 347.633C412.325 343.35 414.731 337.541 414.731 331.484ZM486.914 331.437C486.914 325.393 484.513 319.597 480.239 315.323C475.965 311.049 470.169 308.648 464.124 308.648C458.08 308.648 452.284 311.049 448.01 315.323C443.736 319.597 441.335 325.393 441.335 331.437C441.335 334.43 441.924 337.394 443.07 340.159C444.215 342.924 445.894 345.436 448.01 347.552C450.126 349.668 452.638 351.347 455.403 352.492C458.168 353.638 461.132 354.227 464.124 354.227C467.117 354.227 470.081 353.638 472.846 352.492C475.611 351.347 478.123 349.668 480.239 347.552C482.355 345.436 484.034 342.924 485.179 340.159C486.325 337.394 486.914 334.43 486.914 331.437Z" fill="url(#paint1_linear_211_5927)"/>
</g>
<defs>
<linearGradient id="paint0_linear_211_5927" x1="289.053" y1="7.73429e-09" x2="289.3" y2="721.05" gradientUnits="userSpaceOnUse">
<stop stop-color="#002133"/>
<stop offset="1" stop-color="#002133" stop-opacity="0"/>
</linearGradient>
<linearGradient id="paint1_linear_211_5927" x1="289.053" y1="7.73429e-09" x2="289.3" y2="721.05" gradientUnits="userSpaceOnUse">
<stop stop-color="#002133"/>
<stop offset="1" stop-color="#002133" stop-opacity="0"/>
</linearGradient>
</defs>
</svg>
