<svg width="80" height="79" viewBox="0 0 80 79" fill="none" xmlns="http://www.w3.org/2000/svg">
<path d="M3.61 0H75.49C77.9967 1.12 79.25 2.95333 79.25 5.5C79.25 26.1733 79.2567 46.8567 79.27 67.55C79.31 73.14 79.81 78.51 72.22 78.55C50.5667 78.6367 28.9133 78.6667 7.25999 78.64C3.30666 78.64 0.903336 77.0367 0.0500031 73.83C0.0233364 51.1033 0.00666667 28.41 0 5.75C0 2.99 1.20333 1.07333 3.61 0ZM30.34 23.33L38.59 17.72C38.8495 17.5414 39.0481 17.287 39.1587 16.9916C39.2692 16.6963 39.2862 16.3744 39.2074 16.07C39.1285 15.7657 38.9578 15.4937 38.7184 15.2915C38.4789 15.0892 38.1826 14.9664 37.87 14.94C36.9167 14.8533 35.8633 15.1933 34.71 15.96C31.3567 18.1733 28.0567 20.4767 24.81 22.87C24.5367 23.0767 24.3733 23.01 24.32 22.67C24.2867 22.4833 24.38 22.29 24.6 22.09C27.0533 19.8433 29.51 17.58 31.97 15.3C32.2233 15.0667 32.29 14.7833 32.17 14.45C31.58 12.84 30.15 12.78 28.84 13.78C22.08 18.9533 17.8233 22.73 16.07 25.11C14.31 27.51 12.29 32.3367 10.01 39.59C9.90999 39.9167 9.96 40.22 10.16 40.5L15.94 48.33C16.0249 48.4463 16.1322 48.5445 16.2556 48.6188C16.3791 48.693 16.5161 48.7418 16.6587 48.7623C16.8012 48.7828 16.9464 48.7746 17.0858 48.7381C17.2251 48.7017 17.3558 48.6377 17.47 48.55C20.9033 45.9367 24.5533 45.4533 28.42 47.1C30.48 47.98 32.03 48.06 33.52 46.43C33.6395 46.3023 33.7193 46.1426 33.7495 45.9703C33.7796 45.798 33.759 45.6207 33.69 45.46C32.16 41.76 28.63 43.5 26.31 41.02C24.26 38.82 25.75 36.19 27.9 34.89C28.0101 34.8269 28.1318 34.7872 28.2574 34.7735C28.3831 34.7597 28.51 34.7721 28.63 34.81L32.73 36.14C33.0767 36.2533 33.29 36.4867 33.37 36.84C33.83 38.7867 34.0933 40.7567 34.16 42.75C34.1933 43.5833 34.5267 44.1933 35.16 44.58C35.2386 44.6281 35.327 44.658 35.4188 44.6677C35.5106 44.6774 35.6036 44.6666 35.6914 44.6361C35.7791 44.6056 35.8594 44.5561 35.9265 44.4911C35.9937 44.4261 36.046 44.3472 36.08 44.26C38.21 38.54 38.1 30.78 30.65 29.16C30.5793 29.1438 30.515 29.1071 30.465 29.0546C30.415 29.0021 30.3815 28.936 30.3687 28.8646C30.3559 28.7933 30.3644 28.7197 30.3931 28.6531C30.4217 28.5865 30.4694 28.5298 30.53 28.49C34.25 26.1567 38.0467 24.45 41.92 23.37C43.8667 22.83 44.17 21.7567 42.83 20.15C42.6175 19.8961 42.3299 19.7154 42.0072 19.6329C41.6845 19.5505 41.3429 19.5704 41.03 19.69L30.59 23.8C30.5295 23.8201 30.4638 23.8181 30.4046 23.7944C30.3454 23.7707 30.2965 23.7268 30.2666 23.6705C30.2367 23.6142 30.2276 23.5492 30.241 23.4868C30.2545 23.4245 30.2895 23.369 30.34 23.33ZM51.78 56.55L43.29 62C42.9033 62.2533 42.85 62.5633 43.13 62.93L44.16 64.29C44.4333 64.65 44.77 64.7267 45.17 64.52C51.07 61.53 58.86 57.78 62.92 52.46C65.4 49.2133 67.5967 45.7467 69.51 42.06C69.6433 41.8067 69.65 41.5533 69.53 41.3L65.18 32.06C65.1212 31.9331 65.0147 31.8345 64.8836 31.7858C64.7524 31.7371 64.6074 31.7422 64.48 31.8C60.0267 33.8333 55.9033 33.51 52.11 30.83C51.4833 30.3833 50.8967 30.1367 50.35 30.09C49.4567 30.01 48.8 30.1367 48.38 30.47C48.0929 30.6944 47.8638 30.9842 47.7117 31.3155C47.5596 31.6467 47.4889 32.0098 47.5056 32.3745C47.5222 32.7393 47.6256 33.0952 47.8073 33.4127C47.9889 33.7302 48.2435 34.0001 48.55 34.2C50.63 35.54 56.03 37.13 54.05 41C52.26 44.51 48.11 43.21 46.23 40.63C46.0359 40.3643 45.9404 40.0425 45.96 39.72C46.0933 37.5867 46.3 35.4667 46.58 33.36C46.62 33.08 46.5867 32.8567 46.48 32.69C46.32 32.4567 46.1067 32.32 45.84 32.28C45.6446 32.2478 45.4437 32.2743 45.2624 32.3561C45.081 32.4379 44.9272 32.5714 44.82 32.74C41.48 38 40.45 45.5 47.34 48.49C47.4046 48.517 47.4596 48.5626 47.498 48.6212C47.5363 48.6797 47.5563 48.7484 47.5552 48.8184C47.5541 48.8884 47.5321 48.9564 47.4919 49.0137C47.4518 49.0711 47.3954 49.115 47.33 49.14C43.3833 50.7667 39.2867 51.7033 35.04 51.95C34.5722 51.9765 34.1307 52.175 33.8003 52.5072C33.4699 52.8394 33.2739 53.2821 33.25 53.75C33.17 55.2233 34.09 55.87 36.01 55.69C38.1433 55.49 41.6267 54.7833 46.46 53.57C46.5467 53.55 46.63 53.5633 46.71 53.61C46.8033 53.6633 46.8933 53.7133 46.98 53.76C47.002 53.7748 47.0196 53.7952 47.0311 53.8191C47.0427 53.8429 47.0477 53.8694 47.0456 53.8958C47.0436 53.9222 47.0346 53.9476 47.0196 53.9695C47.0045 53.9913 46.984 54.0087 46.96 54.02L37.17 58.34C36.9085 58.4531 36.6858 58.6402 36.5294 58.8783C36.373 59.1164 36.2896 59.3951 36.2896 59.68C36.2896 59.9649 36.373 60.2436 36.5294 60.4817C36.6858 60.7198 36.9085 60.9069 37.17 61.02C38.13 61.4333 39.2533 61.3533 40.54 60.78C44.1733 59.1667 47.8267 57.58 51.5 56.02C51.5699 55.987 51.6498 55.9821 51.7231 56.0065C51.7964 56.031 51.8575 56.0827 51.8936 56.151C51.9297 56.2194 51.938 56.299 51.9168 56.3733C51.8957 56.4476 51.8467 56.5109 51.78 56.55Z" fill="#0B3E80"/>
</svg>
