<svg width="80" height="79" viewBox="0 0 80 79" fill="none" xmlns="http://www.w3.org/2000/svg">
<path d="M3.84788 0H75.8079C78.1479 1.18 79.3212 3.26333 79.3279 6.25C79.3879 28.69 79.4279 51.1133 79.4479 73.52C78.5412 76.88 76.4112 78.5667 73.0579 78.58C51.2779 78.64 29.4945 78.6633 7.70788 78.65C4.08788 78.65 0.477894 77.53 0.157894 73.64C-0.0421059 71.2133 -0.0521047 65.58 0.127895 56.74L0.167889 22.77C-0.0454448 13.1633 -0.0421169 7.11333 0.177883 4.62C0.377883 2.42667 1.60121 0.886667 3.84788 0ZM65.3979 45.87L68.6179 44.91C68.893 44.8287 69.1455 44.6849 69.3558 44.4899C69.5661 44.2948 69.7284 44.0537 69.8301 43.7855C69.9318 43.5173 69.97 43.2292 69.9419 42.9437C69.9138 42.6583 69.82 42.3832 69.6679 42.14C68.0279 39.49 63.1879 34.01 63.6079 31.28C64.3812 26.18 62.9646 21.6567 59.3579 17.71C50.6379 8.17 35.2079 4.09 23.8979 10.17C11.2979 16.94 5.72789 31 12.5579 44.45C16.4779 52.17 24.9079 55.14 21.2579 65.59C21.1312 65.95 21.2512 66.1667 21.6179 66.24C21.8712 66.2933 22.1012 66.2567 22.3079 66.13C22.5479 65.99 22.7279 65.7133 22.8479 65.3C25.9079 54.81 18.4079 51.99 14.1179 44.38C7.37789 32.44 12.0579 18.47 23.7779 11.92C34.0779 6.16 46.9379 9.08 55.8779 16.16C60.9779 20.1933 63.0612 25.4567 62.1279 31.95C62.0946 32.2033 62.1512 32.6733 62.2979 33.36C62.7479 35.43 66.7979 40.19 68.3079 42.39C68.3898 42.5086 68.4417 42.6454 68.459 42.7885C68.4764 42.9316 68.4588 43.0768 68.4076 43.2115C68.3564 43.3463 68.2733 43.4666 68.1654 43.5622C68.0574 43.6577 67.9279 43.7256 67.7879 43.76L65.2079 44.39C64.9033 44.4649 64.6211 44.6118 64.385 44.8183C64.149 45.0249 63.9659 45.2851 63.8513 45.5771C63.7366 45.869 63.6938 46.1843 63.7262 46.4963C63.7587 46.8082 63.8656 47.1079 64.0379 47.37L64.9579 48.78C65.012 48.8617 65.0481 48.954 65.0638 49.0507C65.0795 49.1474 65.0744 49.2464 65.0489 49.341C65.0233 49.4356 64.9779 49.5237 64.9157 49.5994C64.8534 49.6751 64.7758 49.7367 64.6879 49.78L63.5079 50.35C63.443 50.3811 63.3858 50.4263 63.3408 50.4824C63.2957 50.5385 63.2638 50.6041 63.2475 50.6742C63.2312 50.7443 63.2308 50.8171 63.2465 50.8874C63.2621 50.9576 63.2934 51.0235 63.3379 51.08L63.9279 51.81C64.0224 51.9262 64.0909 52.0621 64.1288 52.2087C64.1668 52.3553 64.1733 52.5091 64.1479 52.66C63.8279 54.6067 63.9812 56.5367 64.6079 58.45C64.6794 58.6717 64.7 58.9066 64.6683 59.1373C64.6365 59.368 64.5532 59.5886 64.4244 59.7827C64.2957 59.9768 64.1248 60.1394 63.9246 60.2584C63.7244 60.3774 63.4999 60.4497 63.2679 60.47C58.9779 60.86 54.7079 60.93 52.6879 65.52C52.6313 65.6657 52.63 65.8271 52.6842 65.9737C52.7384 66.1203 52.8445 66.242 52.9823 66.3159C53.12 66.3897 53.2801 66.4105 53.4322 66.3744C53.5843 66.3384 53.7179 66.2479 53.8079 66.12C56.5279 61.94 59.4779 62.41 63.8979 61.76C64.2396 61.7106 64.5674 61.591 64.8606 61.4087C65.1538 61.2263 65.4061 60.9852 65.6015 60.7006C65.7969 60.4159 65.9313 60.0938 65.996 59.7547C66.0608 59.4155 66.0546 59.0666 65.9779 58.73C65.4312 56.3233 65.3779 53.92 65.8179 51.52C65.8779 51.18 65.9979 50.86 66.1779 50.56L66.8579 49.46C67.0046 49.2267 66.9879 49.0033 66.8079 48.79L65.1279 46.8C65.0657 46.7269 65.0226 46.6395 65.0024 46.5457C64.9823 46.4519 64.9858 46.3545 65.0125 46.2623C65.0393 46.1701 65.0885 46.0861 65.1558 46.0176C65.223 45.9491 65.3062 45.8984 65.3979 45.87ZM50.2779 33.33C57.2479 32.16 58.9279 25.2 54.9179 19.87C48.9279 11.88 41.3679 11.2 32.2479 12.38C22.6679 13.62 16.1379 21.45 14.4279 30.69C14.0279 32.85 14.9279 35.43 14.7979 37.86C14.7779 38.2067 14.8946 38.4967 15.1479 38.73C16.3079 39.8 16.8779 40.23 17.4379 41.82C19.3512 47.2667 23.3979 49.81 29.5779 49.45C32.1679 49.3 32.6179 46.08 32.5879 44.21C32.5823 43.7962 32.6604 43.3856 32.8175 43.003C32.9746 42.6204 33.2074 42.2737 33.5019 41.9839C33.7963 41.6941 34.1463 41.4673 34.5306 41.3171C34.915 41.1669 35.3257 41.0964 35.7379 41.11C39.5645 41.2233 43.3212 40.8933 47.0079 40.12C47.3146 40.06 47.5612 39.9033 47.7479 39.65C49.0212 37.9433 49.6979 36.0267 49.7779 33.9C49.7912 33.5733 49.9579 33.3833 50.2779 33.33Z" fill="#0B3E80"/>
</svg>
