<svg width="80" height="79" viewBox="0 0 80 79" fill="none" xmlns="http://www.w3.org/2000/svg">
<path d="M3.56455 0H62.3945L52.7845 10.49C52.703 10.5796 52.642 10.686 52.606 10.8017C52.5699 10.9174 52.5596 11.0395 52.5758 11.1596C52.592 11.2797 52.6343 11.3948 52.6998 11.4968C52.7652 11.5988 52.8522 11.6852 52.9545 11.75C56.9812 14.31 59.9779 17.7533 61.9445 22.08C61.976 22.1501 62.0239 22.2117 62.0841 22.2595C62.1444 22.3073 62.2152 22.3399 62.2907 22.3546C62.3661 22.3693 62.444 22.3656 62.5178 22.344C62.5916 22.3223 62.659 22.2832 62.7145 22.23L78.6245 7.23L79.0145 35.82L79.1045 73.94C78.2545 77.54 75.9745 78.56 72.3145 78.56C51.3079 78.5667 30.2579 78.58 9.16455 78.6C9.13015 78.5992 9.09671 78.5886 9.06816 78.5694C9.03962 78.5502 9.01719 78.5232 9.00351 78.4916C8.98983 78.46 8.98548 78.4252 8.99098 78.3913C8.99648 78.3573 9.0116 78.3256 9.03455 78.3L35.3345 50.86C35.3721 50.8215 35.4002 50.7749 35.4168 50.7238C35.4335 50.6727 35.4381 50.6184 35.4303 50.5652C35.4226 50.5121 35.4027 50.4614 35.3722 50.4171C35.3417 50.3728 35.3015 50.3362 35.2545 50.31L21.9845 42.78C21.7579 42.6533 21.5545 42.6833 21.3745 42.87L1.20455 63.5C1.1519 63.5528 1.11095 63.6176 1.08455 63.69L0.614545 64.93C0.588892 64.9979 0.540215 65.0547 0.477003 65.0904C0.41379 65.1261 0.340052 65.1385 0.268643 65.1254C0.197235 65.1123 0.132686 65.0745 0.0862505 65.0187C0.039815 64.9629 0.0144386 64.8926 0.0145454 64.82C-0.0121212 44.7933 -0.00212119 24.78 0.0445455 4.78C0.0512121 2.77333 1.22455 1.18 3.56455 0ZM20.3145 31.13C24.9645 19.87 28.8245 13.99 42.5045 15.14C55.4845 16.23 60.2945 29.21 58.7845 40.53C58.4712 42.87 57.7679 44.58 56.6745 45.66C50.5745 51.68 45.5145 58.4533 41.4945 65.98C37.4545 73.56 31.8045 69.52 27.7045 65.15C27.591 65.0276 27.4362 64.9511 27.2689 64.9345C27.1016 64.918 26.933 64.9626 26.7945 65.06L25.4645 66C25.395 66.049 25.3362 66.1116 25.2916 66.1838C25.2471 66.2561 25.2178 66.3364 25.2056 66.4199C25.1934 66.5034 25.1986 66.5882 25.2208 66.6691C25.2429 66.7499 25.2817 66.8251 25.3345 66.89C29.2245 71.74 35.2945 75.94 41.2345 71.08C42.2145 70.2733 43.4712 68.5 45.0045 65.76C48.4445 59.6133 52.6312 54.0233 57.5645 48.99C59.1245 47.41 60.7645 45.15 61.1545 43.31C63.5045 32.18 60.0245 17.37 48.1945 13.32C41.8545 11.15 29.2045 11.1 24.3245 17.58C21.6579 21.12 19.4512 25.1567 17.7045 29.69C17.6492 29.8345 17.6481 29.9941 17.7014 30.1394C17.7548 30.2846 17.8589 30.4056 17.9945 30.48L19.6045 31.38C19.6658 31.4146 19.7338 31.4355 19.8041 31.4415C19.8743 31.4475 19.9453 31.4384 20.0123 31.4149C20.0793 31.3913 20.1409 31.3537 20.1929 31.3046C20.245 31.2555 20.2865 31.196 20.3145 31.13ZM28.3145 29.67C35.5745 14.59 56.9845 24.89 50.5845 40.16C50.4245 40.5467 50.5079 40.8733 50.8345 41.14L52.0645 42.17C52.1194 42.2135 52.1832 42.2443 52.2513 42.2599C52.3194 42.2755 52.3899 42.2756 52.4574 42.2602C52.5249 42.2448 52.5877 42.2142 52.6409 42.1709C52.6941 42.1275 52.7364 42.0725 52.7645 42.01C61.3345 22.98 34.7045 9.59 25.8645 28.51C25.6779 28.9167 25.7879 29.2133 26.1945 29.4L27.4345 29.99C27.594 30.0621 27.7753 30.069 27.9397 30.0092C28.1042 29.9494 28.2387 29.8277 28.3145 29.67Z" fill="#0B3E80"/>
</svg>
