<svg width="80" height="79" viewBox="0 0 80 79" fill="none" xmlns="http://www.w3.org/2000/svg">
<path d="M3.53 0H75.72C78.0533 1.21333 79.2267 3.46333 79.24 6.75C79.26 10.95 79.2867 15.12 79.32 19.26L79.44 56.06C79.3067 60.82 79.26 65.5967 79.3 70.39C79.35 75.31 78.08 78.74 72.68 78.73C50.9733 78.71 29.2667 78.68 7.56 78.64C3.54 78.63 0.94 77.68 0 73.66L0.160004 34.72C0.600004 25.0867 0.573335 15.42 0.0800018 5.72C-0.113331 3.24 1.03667 1.33333 3.53 0ZM32.44 15.8383C33.1621 15.856 33.8807 15.7253 34.5548 15.4537C35.2289 15.1821 35.8454 14.775 36.369 14.2556C36.8925 13.7361 37.313 13.1145 37.6063 12.4263C37.8996 11.7381 38.06 10.9967 38.0784 10.2444C38.0968 9.49214 37.9728 8.74378 37.7134 8.04203C37.4541 7.34028 37.0645 6.6989 36.567 6.15449C36.0694 5.61009 35.4736 5.17333 34.8135 4.86916C34.1534 4.56498 33.4421 4.39934 32.72 4.3817C31.9979 4.36405 31.2793 4.49473 30.6052 4.7663C29.9311 5.03787 29.3146 5.44499 28.791 5.96444C28.2675 6.48388 27.847 7.10546 27.5537 7.7937C27.2604 8.48194 27.1 9.22335 27.0816 9.9756C27.0632 10.7279 27.1872 11.4762 27.4466 12.178C27.7059 12.8797 28.0955 13.5211 28.593 14.0655C29.0906 14.6099 29.6864 15.0467 30.3465 15.3508C31.0066 15.655 31.7179 15.8207 32.44 15.8383ZM32.97 25.52C33.39 25.2533 33.8267 25.38 34.28 25.9C39.14 31.4933 43.9133 37.1633 48.6 42.91C49.63 44.17 51.09 44.11 52 45.83C56.5733 54.47 61.1267 63.1133 65.66 71.76C65.8667 72.1533 66.1 72.41 66.36 72.53C66.7733 72.7233 67.1667 72.68 67.54 72.4C67.638 72.3246 67.7059 72.2167 67.7316 72.0958C67.7572 71.9748 67.7389 71.8487 67.68 71.74C62.9267 62.8133 58.19 53.8633 53.47 44.89C52.7 43.45 52.91 42.36 53.02 40.8C53.04 40.4533 52.9433 40.1433 52.73 39.87C47.5433 33.3233 42.4167 26.7133 37.35 20.04C35.4567 17.5467 32.9 17.1167 29.68 18.75C29.4 18.89 29.1767 19.0933 29.01 19.36L20.62 33.19C20.4133 33.53 20.35 33.8967 20.43 34.29L22.76 45.95C22.8648 46.4839 23.1587 46.9623 23.5882 47.2981C24.0177 47.634 24.5542 47.805 25.1 47.78C29.15 47.59 26.45 40.09 26.06 37.82C25.55 34.89 26.69 33.28 28.23 31.02C28.2836 30.9437 28.3601 30.8864 28.4484 30.8564C28.5367 30.8264 28.6322 30.8252 28.7213 30.853C28.8103 30.8808 28.8881 30.9362 28.9436 31.0111C28.9991 31.0861 29.0294 31.1767 29.03 31.27C28.98 36.74 29.8 43.4 28.01 48.64C25.8233 55.02 23.65 61.4067 21.49 67.8C20.99 69.2933 20.82 70.45 20.98 71.27C21.57 74.21 26.4 75.06 27.5 72.27C30.94 63.5767 34.4333 52.49 37.98 39.01C38.2667 37.93 38.2533 35.8633 37.94 32.81C37.9072 32.4647 37.7675 32.1365 37.54 31.87L32.86 26.29C32.8125 26.2339 32.7774 26.1684 32.757 26.0978C32.7367 26.0272 32.7315 25.953 32.7419 25.8803C32.7523 25.8075 32.778 25.7378 32.8173 25.6757C32.8567 25.6136 32.9087 25.5605 32.97 25.52ZM37.54 45.28L34.31 57.52C34.2319 57.8132 34.2459 58.1238 34.35 58.41C35.7833 62.3767 37.1967 66.3533 38.59 70.34C40.82 76.71 47.53 73.43 45.83 68.92C42.8633 61.0467 40.17 53.1667 37.75 45.28C37.67 45.0333 37.6 45.0333 37.54 45.28Z" fill="#0B3E80"/>
</svg>
