<svg width="79" height="79" viewBox="0 0 79 79" fill="none" xmlns="http://www.w3.org/2000/svg">
<path d="M3.69099 0H74.931C77.231 0.393333 78.5377 1.74333 78.851 4.05V74.3C78.091 77.0467 75.921 78.4333 72.341 78.46C50.9743 78.6267 29.5943 78.69 8.201 78.65C3.801 78.64 0.731009 77.74 0.0810093 73.06C-0.0389907 51.02 -0.0256793 29 0.120987 7C0.140987 3.46 1.33099 1.12667 3.69099 0ZM62.841 14.51C62.841 13.5776 62.6574 12.6544 62.3006 11.7929C61.9437 10.9315 61.4208 10.1488 60.7615 9.48954C60.1022 8.83025 59.3195 8.30726 58.4581 7.95046C57.5966 7.59365 56.6734 7.41 55.741 7.41C53.858 7.41 52.052 8.15803 50.7205 9.48954C49.389 10.8211 48.641 12.627 48.641 14.51C48.641 16.393 49.389 18.199 50.7205 19.5305C52.052 20.862 53.858 21.61 55.741 21.61C56.6734 21.61 57.5966 21.4264 58.4581 21.0695C59.3195 20.7127 60.1022 20.1898 60.7615 19.5305C61.4208 18.8712 61.9437 18.0885 62.3006 17.2271C62.6574 16.3656 62.841 15.4424 62.841 14.51ZM51.611 47.03L55.601 47.16C55.961 47.1733 56.1177 47.3567 56.071 47.71C55.591 51.43 55.121 55.1367 54.661 58.83C53.841 65.51 60.991 66.74 61.761 60.5C62.3943 55.3933 63.051 50.2733 63.731 45.14C64.911 36.18 55.551 37.49 50.161 37.79C50.0369 37.7954 49.9138 37.7651 49.8064 37.7027C49.699 37.6403 49.6116 37.5484 49.5548 37.4379C49.498 37.3274 49.474 37.2029 49.4858 37.0793C49.4975 36.9556 49.5444 36.8378 49.621 36.74C51.881 33.94 58.211 26.91 53.501 23.83C49.4943 21.21 43.5377 17.52 35.631 12.76C33.771 11.6333 31.9943 11.9533 30.301 13.72C27.521 16.6267 24.771 19.5733 22.051 22.56C19.531 25.33 19.951 28.98 24.151 29.33C24.5596 29.3641 24.9706 29.3053 25.3533 29.1581C25.736 29.0109 26.0805 28.7791 26.361 28.48L33.701 20.69C33.831 20.5552 34.0036 20.4696 34.1896 20.4477C34.3755 20.4258 34.5633 20.469 34.721 20.57L38.261 22.85C38.561 23.0433 38.6143 23.29 38.421 23.59C36.621 26.31 32.621 30.74 32.581 33.97C32.5743 34.29 32.411 34.46 32.091 34.48C28.1443 34.7667 24.5977 36.09 21.451 38.45C21.1243 38.6967 21.101 38.9667 21.381 39.26L25.401 43.43C25.6677 43.71 25.971 43.7567 26.311 43.57C38.671 36.98 50.431 49.72 42.671 61.19C42.5971 61.2974 42.5627 61.4274 42.5736 61.5584C42.5845 61.6894 42.6401 61.8135 42.731 61.91L46.851 66.18C47.1977 66.54 47.5243 66.52 47.831 66.12C52.0577 60.56 53.1777 54.38 51.191 47.58C51.1718 47.5143 51.1683 47.4449 51.1806 47.3777C51.1929 47.3104 51.2208 47.2473 51.2619 47.1935C51.3029 47.1397 51.3561 47.0968 51.4168 47.0683C51.4775 47.0399 51.5441 47.0267 51.611 47.03ZM39.031 64.39C27.451 70.45 16.701 58.16 22.911 47.13C23.091 46.8167 23.0543 46.5267 22.801 46.26L18.691 41.91C18.6398 41.8555 18.5772 41.8129 18.5079 41.7853C18.4385 41.7578 18.3642 41.7459 18.2903 41.7507C18.2164 41.7555 18.1449 41.7768 18.0809 41.813C18.017 41.8493 17.9624 41.8995 17.921 41.96C5.02101 59.85 25.501 81.48 44.111 69.63C44.1658 69.5943 44.2121 69.5471 44.2466 69.4918C44.2812 69.4365 44.3031 69.3745 44.3107 69.3104C44.3184 69.2462 44.3116 69.1815 44.2909 69.1208C44.2702 69.0602 44.2361 69.0053 44.191 68.96L39.981 64.55C39.8633 64.4233 39.7066 64.339 39.535 64.3101C39.3634 64.2812 39.1863 64.3092 39.031 64.39Z" fill="#0B3E80"/>
</svg>
