<svg width="24" height="24" viewBox="0 0 24 24" fill="none" xmlns="http://www.w3.org/2000/svg">
<path d="M13.3516 8.30664H11.8516V13.3066L16.1316 15.8466L16.8516 14.6366L13.3516 12.5566V8.30664ZM12.8516 3.30664C10.4646 3.30664 8.17543 4.25485 6.4876 5.94268C4.79977 7.63051 3.85156 9.91969 3.85156 12.3066H0.851562L4.81156 16.3366L8.85156 12.3066H5.85156C5.85156 10.4501 6.58906 8.66965 7.90182 7.35689C9.21457 6.04414 10.995 5.30664 12.8516 5.30664C14.7081 5.30664 16.4886 6.04414 17.8013 7.35689C19.1141 8.66965 19.8516 10.4501 19.8516 12.3066C19.8516 14.1632 19.1141 15.9436 17.8013 17.2564C16.4886 18.5691 14.7081 19.3066 12.8516 19.3066C10.9216 19.3066 9.17156 18.5166 7.91156 17.2466L6.49156 18.6666C8.12156 20.3066 10.3516 21.3066 12.8516 21.3066C15.2385 21.3066 17.5277 20.3584 19.2155 18.6706C20.9034 16.9828 21.8516 14.6936 21.8516 12.3066C21.8516 9.91969 20.9034 7.63051 19.2155 5.94268C17.5277 4.25485 15.2385 3.30664 12.8516 3.30664Z" fill="#2C8596"/>
</svg>
