<svg width="213" height="200" viewBox="0 0 213 200" fill="none" xmlns="http://www.w3.org/2000/svg">
<path d="M83.8375 34.932L81.6397 39.6811C81.5995 39.7685 81.536 39.843 81.4562 39.8966C81.3764 39.9502 81.2834 39.9808 81.1874 39.985L78.9683 40.1052C78.8917 40.1101 78.8152 40.0949 78.7464 40.0609C78.6775 40.027 78.6185 39.9756 78.5751 39.9116C78.5318 39.8476 78.5055 39.7733 78.4988 39.6958C78.4922 39.6182 78.5054 39.5402 78.5372 39.4691L80.8057 34.5292C80.8376 34.4596 80.8546 34.3841 80.8556 34.3075C80.8567 34.2309 80.8418 34.155 80.8118 34.0845C80.7819 34.0141 80.7376 33.9506 80.6818 33.8982C80.626 33.8457 80.5599 33.8055 80.4877 33.7801L67.8022 29.2783C67.5572 29.1935 67.3476 29.2477 67.1732 29.4408C64.4594 32.4562 61.9341 35.634 59.5973 38.9744C58.7492 40.197 57.569 40.4726 56.2404 40.1052C56.1921 40.0917 56.1476 40.0673 56.1102 40.0338C56.0729 40.0003 56.0436 39.9586 56.0245 39.9117C56.0055 39.8648 55.9972 39.8139 56.0003 39.763C56.0034 39.7121 56.0179 39.6623 56.0425 39.6175C58.3982 35.4526 61.1591 31.5798 64.3252 27.9991C64.3643 27.9547 64.3929 27.902 64.4089 27.845C64.4249 27.788 64.428 27.7282 64.4178 27.6699C64.4076 27.6115 64.3845 27.5562 64.3501 27.508C64.3157 27.4598 64.271 27.42 64.2192 27.3914L56.7916 23.1228C56.6541 23.0439 56.4965 23.0084 56.3398 23.0211C56.1832 23.0337 56.0351 23.0939 55.9153 23.1935C50.3087 27.8201 45.3664 33.0168 41.0884 38.7836C40.099 40.1264 39.0036 40.2677 37.4912 39.8719C37.4361 39.8576 37.3851 39.8303 37.3425 39.7924C37.3 39.7546 37.267 39.7071 37.2463 39.654C37.2256 39.6009 37.2178 39.5436 37.2235 39.4869C37.2292 39.4302 37.2483 39.3757 37.2792 39.3278C69.47 -8.97612 139.329 -8.70757 171.562 39.349C171.582 39.379 171.596 39.4133 171.601 39.4492C171.607 39.4852 171.604 39.5219 171.593 39.5566C171.582 39.5913 171.563 39.6231 171.538 39.6496C171.513 39.676 171.483 39.6965 171.449 39.7094C169.889 40.3125 168.638 39.9615 167.696 38.6564C163.442 32.7671 158.474 27.5987 152.792 23.1511C152.635 23.0283 152.445 22.9553 152.246 22.9414C152.047 22.9276 151.848 22.9735 151.675 23.0733L144.912 26.9885C144.816 27.0442 144.733 27.1203 144.67 27.2113C144.607 27.3023 144.565 27.406 144.546 27.5148C144.528 27.6237 144.534 27.735 144.565 27.8408C144.595 27.9465 144.648 28.0441 144.721 28.1264C147.769 31.6411 150.478 35.3984 152.848 39.3984C152.975 39.6105 152.926 39.7659 152.7 39.8649C150.982 40.6069 149.894 39.9991 148.883 38.4938C146.664 35.177 144.222 32.0722 141.555 29.1794C141.481 29.1013 141.387 29.0464 141.283 29.0213C141.178 28.9962 141.069 29.002 140.968 29.038L128.205 33.6105C128.12 33.6415 128.042 33.6897 127.976 33.752C127.91 33.8144 127.857 33.8896 127.821 33.9731C127.786 34.0565 127.767 34.1464 127.768 34.2372C127.768 34.328 127.787 34.4177 127.823 34.5009L129.958 39.4126C129.984 39.4711 129.995 39.5352 129.99 39.599C129.984 39.6628 129.963 39.7243 129.928 39.7778C129.893 39.8313 129.845 39.8751 129.788 39.9051C129.732 39.9352 129.668 39.9505 129.604 39.9497L127.406 39.9355C127.291 39.9331 127.18 39.8995 127.084 39.8384C126.987 39.7772 126.911 39.691 126.862 39.5893L124.537 34.8119C124.443 34.6187 124.29 34.5457 124.078 34.5928C118.269 35.8743 112.386 36.6187 106.431 36.826C106.328 36.8295 106.231 36.8721 106.157 36.9454C106.084 37.0187 106.041 37.1174 106.035 37.2218L105.901 39.4691C105.894 39.5953 105.839 39.7139 105.749 39.8006C105.658 39.8874 105.538 39.9356 105.414 39.9355L103.435 39.9426C103.308 39.9427 103.186 39.8941 103.095 39.807C103.004 39.7199 102.951 39.6012 102.947 39.4762L102.876 37.1582C102.873 37.0419 102.825 36.9315 102.742 36.8499C102.659 36.7683 102.547 36.7218 102.431 36.72C96.3723 36.6258 90.3888 35.9238 84.4806 34.614C84.1791 34.548 83.9647 34.654 83.8375 34.932ZM87.6679 8.71999C97.039 15.5892 110.721 14.5574 120.283 9.13695C120.419 9.05686 120.537 8.95556 120.636 8.83306C120.754 8.6823 120.85 8.55745 120.926 8.45851C120.972 8.3988 121.002 8.32844 121.013 8.25403C121.024 8.17961 121.016 8.10356 120.99 8.03297C120.964 7.96238 120.921 7.89957 120.864 7.8504C120.807 7.80123 120.738 7.7673 120.664 7.75179C109.899 5.48089 99.1238 5.44791 88.3393 7.65285C87.9812 7.72352 87.7245 7.86251 87.569 8.06981C87.5321 8.11872 87.5053 8.17452 87.4902 8.23393C87.4752 8.29335 87.4722 8.35517 87.4814 8.41575C87.4906 8.47634 87.5119 8.53447 87.5439 8.58672C87.576 8.63897 87.6181 8.68428 87.6679 8.71999ZM148.813 20.1758C141.661 15.2854 134.481 11.4055 126.191 9.3207C125.166 9.06628 124.184 9.60338 123.809 10.5221C123.76 10.6464 123.756 10.784 123.799 10.9098C123.842 11.0356 123.928 11.1413 124.042 11.2076C130.417 14.9532 136.21 19.4479 141.421 24.6917C141.538 24.8092 141.691 24.8846 141.856 24.9063C142.021 24.928 142.188 24.8948 142.332 24.8119L148.777 21.0875C148.857 21.0423 148.923 20.9777 148.971 20.8996C149.018 20.8216 149.045 20.7327 149.049 20.6415C149.052 20.5502 149.032 20.4596 148.991 20.3781C148.95 20.2966 148.888 20.227 148.813 20.1758ZM81.0389 13.6953C81.9718 13.0592 83.6114 12.1546 84.7633 11.2288C84.9659 11.0639 84.9989 10.8684 84.8623 10.6423C84.1273 9.45026 83.0531 9.08277 81.6397 9.53978C73.9977 12.0039 66.7092 15.5139 59.7739 20.0698C59.6597 20.1458 59.567 20.25 59.5048 20.3722C59.4425 20.4944 59.4128 20.6306 59.4185 20.7677C59.4242 20.9048 59.4651 21.038 59.5372 21.1547C59.6094 21.2714 59.7104 21.3675 59.8305 21.4338L66.2262 24.9673C66.391 25.0575 66.5799 25.093 66.7655 25.0689C66.951 25.0448 67.1236 24.9621 67.258 24.8331C71.5124 20.7577 76.1061 17.0451 81.0389 13.6953ZM125.654 30.4302C125.727 30.5603 125.84 30.663 125.976 30.723C126.113 30.7829 126.265 30.7968 126.41 30.7624C130.499 29.7683 134.452 28.3831 138.269 26.6069C138.339 26.575 138.4 26.5265 138.447 26.4656C138.494 26.4046 138.526 26.3331 138.539 26.2572C138.552 26.1813 138.547 26.1033 138.523 26.03C138.499 25.9567 138.458 25.8903 138.403 25.8366C133.456 20.9132 127.878 16.7483 121.668 13.3419C119.689 12.2536 117.774 13.5822 115.951 14.4302C115.89 14.4581 115.837 14.499 115.795 14.5501C115.752 14.6012 115.722 14.6611 115.706 14.7254C115.689 14.7898 115.688 14.857 115.701 14.9221C115.714 14.9872 115.741 15.0485 115.781 15.1016C119.423 19.9827 122.714 25.0922 125.654 30.4302ZM92.1132 14.3384C91.1096 13.773 90.165 13.3867 89.2792 13.1794C88.4406 12.9862 87.5313 13.1746 86.5513 13.7447C80.7421 17.1417 75.3735 21.2241 70.4453 25.9921C70.3618 26.0737 70.3005 26.1753 70.2673 26.2873C70.2341 26.3993 70.23 26.5179 70.2555 26.6319C70.281 26.7458 70.3352 26.8514 70.4129 26.9386C70.4907 27.0257 70.5894 27.0916 70.6997 27.1299L82.0637 31.0027C82.1995 31.0487 82.3478 31.0441 82.4823 30.9898C82.6168 30.9354 82.7289 30.8349 82.7987 30.7059C85.6161 25.4291 88.8104 20.3949 92.3817 15.6034C92.7728 15.0804 92.6832 14.6587 92.1132 14.3384ZM96.4524 15.773C96.3417 15.7602 96.2298 15.7756 96.1272 15.8176C96.0246 15.8597 95.9346 15.927 95.8658 16.0133C92.1061 20.6116 88.8152 25.5186 85.993 30.7341C85.9272 30.8545 85.8905 30.9886 85.886 31.1257C85.8815 31.2628 85.9092 31.3991 85.967 31.5235C86.0247 31.648 86.1109 31.7571 86.2185 31.8422C86.3261 31.9272 86.4522 31.9859 86.5867 32.0133C91.7881 33.1016 97.0342 33.6693 102.325 33.7165C102.395 33.7174 102.465 33.7044 102.53 33.6782C102.595 33.6519 102.655 33.613 102.705 33.5637C102.755 33.5144 102.794 33.4557 102.821 33.3909C102.848 33.3261 102.862 33.2566 102.862 33.1864V17.1299C102.862 16.9695 102.803 16.8148 102.698 16.695C102.593 16.5753 102.447 16.4987 102.29 16.4797L96.4524 15.773ZM106.276 33.7447C111.696 33.6599 117.067 32.9815 122.353 31.7447C122.415 31.731 122.473 31.703 122.522 31.6629C122.57 31.6228 122.609 31.5716 122.635 31.5135C122.661 31.4553 122.674 31.3917 122.671 31.3276C122.669 31.2636 122.652 31.2007 122.622 31.144C119.724 25.8248 116.389 20.793 112.615 16.0486C112.441 15.8319 112.217 15.7424 111.944 15.7801L106.481 16.5362C106.104 16.5881 105.915 16.8048 105.915 17.1864L105.958 33.4338C105.958 33.4752 105.966 33.5162 105.982 33.5544C105.998 33.5926 106.022 33.6272 106.051 33.6562C106.081 33.6852 106.116 33.7079 106.155 33.7231C106.193 33.7383 106.234 33.7457 106.276 33.7447Z" fill="#3DB84E"/>
<path d="M108.876 52.4306L108.975 49.1727C108.985 48.8476 109.154 48.6827 109.484 48.678L123.703 48.6356C123.925 48.6356 124.035 48.7463 124.035 48.9677L124.05 72.4871C124.05 72.7651 123.908 72.9041 123.625 72.9041L109.894 72.9253C109.779 72.9255 109.666 72.8996 109.562 72.8494C109.458 72.7993 109.366 72.7262 109.293 72.6356C107.795 70.7769 106.24 68.9041 104.247 67.625C97.9482 63.5778 91.185 62.0137 83.9576 62.9324C82.8599 63.0737 81.894 63.7851 81.0601 65.0667C80.9188 65.2834 80.8764 65.5166 80.9329 65.7663C81.2297 67.1892 82.2427 68.1573 83.9718 68.6709C90.3746 70.5743 96.7892 72.4565 103.216 74.3175C109.025 75.9995 113.004 77.519 115.152 78.8758C126.099 85.7522 130.177 99.4341 122.219 110.162C111.958 123.985 88.9541 121.215 76.1202 113.696C75.7951 113.502 75.6373 113.597 75.6467 113.978L75.7244 117.618C75.7263 117.72 75.7079 117.822 75.6704 117.917C75.6329 118.012 75.577 118.099 75.5059 118.172C75.4349 118.245 75.3501 118.303 75.2565 118.342C75.163 118.382 75.0626 118.402 74.9612 118.402L60.4029 118.395C60.2979 118.395 60.1972 118.354 60.123 118.279C60.0488 118.205 60.0071 118.104 60.0071 118L60.0424 92.7698C60.0424 92.5201 60.1649 92.3953 60.4099 92.3953H73.5265C73.8281 92.3953 74.0613 92.5225 74.2262 92.7769C80.205 102.035 92.5654 105.526 103.018 102.197C103.979 101.891 104.514 101.234 104.622 100.226C104.649 99.9992 104.586 99.7686 104.445 99.5826C103.772 98.6874 102.879 98.0678 101.767 97.7239C93.0271 95.0337 84.2804 92.3599 75.5265 89.7027C72.6007 88.8169 69.5312 86.9913 66.3181 84.2257C61.788 80.3317 59.6255 75.4553 59.4276 69.3847C58.7774 50.049 78.735 44.9112 94.2827 47.3705C99.2439 48.1574 103.918 49.9453 108.304 52.7345C108.36 52.7692 108.423 52.7887 108.489 52.791C108.555 52.7933 108.62 52.7783 108.678 52.7475C108.736 52.7167 108.785 52.6712 108.819 52.6156C108.854 52.56 108.874 52.4962 108.876 52.4306Z" fill="#3DB84E"/>
<path d="M192.007 54.8121C206.445 65.2573 206.325 92.4658 197.661 106.134C194.354 111.342 188.933 114.862 182.898 117.024C169.788 121.724 153.251 121.059 141.498 113.067C129.576 104.953 126.778 90.2114 128.551 76.5435C130.297 63.0948 136.707 53.6177 150.014 49.3068C164.113 44.7414 179.958 46.0983 192.007 54.8121ZM175.717 68.6707C172.431 63.6955 164.862 63.7308 159.986 65.7025C157.07 66.8757 155.397 69.123 154.968 72.4446C154.083 79.361 154.028 85.9923 154.806 92.3386C155.121 94.9299 155.626 96.7979 156.318 97.9428C158.848 102.134 165.011 102.756 169.371 101.865C174.184 100.876 176.7 98.3598 177.152 93.4481C177.76 86.871 177.866 81.0547 177.47 75.9994C177.192 72.4517 176.608 70.0088 175.717 68.6707Z" fill="#3DB84E"/>
<path d="M20.7777 64.8191L11.23 64.9675C11.1774 64.9685 11.1252 64.9589 11.0764 64.9395C11.0275 64.92 10.9831 64.891 10.9456 64.8542C10.9081 64.8173 10.8783 64.7734 10.8579 64.7249C10.8376 64.6764 10.8271 64.6244 10.8271 64.5718L10.8837 47.9145C10.8837 47.8096 10.9254 47.7089 10.9996 47.6347C11.0738 47.5605 11.1745 47.5188 11.2794 47.5188L55.5551 47.5117C55.66 47.5117 55.7607 47.5534 55.8349 47.6276C55.9091 47.7019 55.9508 47.8025 55.9508 47.9075L55.9367 64.5294C55.9367 64.6343 55.895 64.735 55.8208 64.8092C55.7465 64.8834 55.6459 64.9251 55.5409 64.9251L45.972 64.8686C45.8671 64.8686 45.7664 64.9103 45.6922 64.9845C45.618 65.0587 45.5763 65.1594 45.5763 65.2644V100.833C45.5763 100.938 45.618 101.039 45.6922 101.113C45.7664 101.187 45.8671 101.229 45.972 101.229L55.4915 101.165C55.5964 101.165 55.6971 101.207 55.7713 101.281C55.8455 101.356 55.8872 101.456 55.8872 101.561L55.9367 117.999C55.9367 118.104 55.895 118.205 55.8208 118.279C55.7465 118.353 55.6459 118.395 55.5409 118.395H11.2582C11.1533 118.395 11.0526 118.353 10.9784 118.279C10.9042 118.205 10.8625 118.104 10.8625 117.999L10.9049 101.582C10.9049 101.477 10.9466 101.377 11.0208 101.303C11.095 101.228 11.1957 101.187 11.3006 101.187L20.7777 101.222C20.8296 101.222 20.8811 101.212 20.9291 101.192C20.9771 101.172 21.0208 101.143 21.0575 101.106C21.0943 101.069 21.1234 101.026 21.1433 100.978C21.1632 100.93 21.1734 100.878 21.1734 100.826L21.1805 65.2149C21.1805 65.1623 21.17 65.1103 21.1497 65.0618C21.1294 65.0133 21.0996 64.9694 21.0621 64.9325C21.0246 64.8957 20.9801 64.8667 20.9313 64.8472C20.8825 64.8277 20.8302 64.8182 20.7777 64.8191Z" fill="#3DB84E"/>
<path d="M125.187 131.025L127.541 126.283C127.682 125.986 127.917 125.842 128.247 125.852L130.177 125.901C130.586 125.911 130.711 126.104 130.551 126.481L128.466 131.3C128.268 131.748 128.4 132.054 128.862 132.219L141.442 136.707C141.687 136.792 141.896 136.737 142.071 136.544C144.756 133.553 147.194 130.403 149.385 127.096C150.283 125.739 151.406 125.463 152.883 125.901C153.232 126.005 153.317 126.212 153.138 126.523C150.82 130.58 148.094 134.337 144.961 137.795C144.903 137.859 144.86 137.936 144.836 138.019C144.811 138.101 144.805 138.189 144.819 138.274C144.833 138.36 144.865 138.441 144.914 138.512C144.963 138.583 145.027 138.643 145.102 138.686C147.279 139.92 149.522 141.194 151.83 142.509C152.683 142.994 153.427 142.964 154.063 142.417C159.637 137.611 164.528 132.191 168.735 126.156C168.801 126.06 168.889 125.981 168.992 125.927C169.096 125.873 169.211 125.844 169.329 125.845L171.505 125.873C172 125.882 172.111 126.092 171.837 126.502C139.774 175.456 69.7313 174.778 37.4345 126.382C37.406 126.341 37.3878 126.294 37.3814 126.245C37.3751 126.196 37.3808 126.146 37.3981 126.099C37.4154 126.052 37.4437 126.009 37.4808 125.975C37.5179 125.941 37.5626 125.915 37.6112 125.901C39.2084 125.463 40.4098 125.802 41.4062 127.223C45.6465 133.253 50.6077 138.497 56.2896 142.954C56.443 143.075 56.6297 143.146 56.8252 143.159C57.0206 143.172 57.2158 143.125 57.385 143.025L64.3108 138.919C64.4015 138.865 64.4792 138.793 64.5385 138.706C64.5978 138.618 64.6372 138.519 64.6541 138.415C64.6709 138.31 64.6647 138.203 64.636 138.101C64.6072 137.999 64.5565 137.904 64.4875 137.823C61.4157 134.247 58.643 130.457 56.1695 126.452C56.1245 126.379 56.1006 126.294 56.1005 126.207C56.1004 126.121 56.124 126.036 56.1688 125.963C56.2135 125.889 56.2776 125.83 56.3539 125.792C56.4301 125.753 56.5156 125.738 56.6006 125.746L58.6925 125.908C58.9469 125.927 59.1424 126.045 59.279 126.262C61.7054 129.97 64.4216 133.451 67.4274 136.707C67.4963 136.782 67.5868 136.835 67.6875 136.859C67.7881 136.883 67.8944 136.877 67.9928 136.841L81.2508 132.12C81.3052 132.101 81.355 132.071 81.3971 132.031C81.4392 131.991 81.4725 131.944 81.4951 131.89C81.5177 131.837 81.529 131.78 81.5283 131.722C81.5276 131.664 81.5149 131.607 81.491 131.555L79.1024 126.368C78.9092 125.948 79.0435 125.746 79.5052 125.76L81.5617 125.823C81.8303 125.833 82.0282 125.96 82.1554 126.205L84.5723 130.968C84.6211 131.064 84.7 131.142 84.7969 131.189C84.8939 131.236 85.0036 131.251 85.1094 131.23C91.0034 130.057 96.9469 129.324 102.94 129.032C102.997 129.029 103.054 129.015 103.106 128.991C103.158 128.966 103.205 128.931 103.244 128.889C103.282 128.846 103.312 128.796 103.332 128.742C103.351 128.688 103.36 128.63 103.357 128.573L103.265 126.233C103.263 126.177 103.273 126.121 103.293 126.069C103.314 126.016 103.345 125.969 103.385 125.929C103.424 125.889 103.472 125.858 103.524 125.838C103.577 125.817 103.633 125.807 103.689 125.809L105.781 125.887C105.85 125.89 105.919 125.906 105.982 125.935C106.045 125.964 106.102 126.005 106.149 126.055C106.197 126.106 106.233 126.165 106.257 126.229C106.282 126.294 106.292 126.363 106.29 126.431L106.205 128.459C106.202 128.519 106.211 128.578 106.231 128.634C106.251 128.69 106.282 128.742 106.322 128.786C106.362 128.83 106.411 128.865 106.464 128.891C106.518 128.916 106.577 128.93 106.636 128.933C112.714 129.244 118.728 130.024 124.678 131.272C124.914 131.324 125.084 131.242 125.187 131.025ZM86.3532 134.636C89.5759 140.007 92.4663 145.053 96.4946 150.064C96.5673 150.156 96.664 150.227 96.7746 150.269C96.8851 150.311 97.0056 150.323 97.1236 150.304L102.954 149.428C103.063 149.412 103.164 149.358 103.236 149.273C103.309 149.189 103.349 149.081 103.35 148.968L103.329 132.495C103.329 132.399 103.29 132.308 103.221 132.24C103.152 132.172 103.058 132.134 102.961 132.134C97.4345 132.21 91.9763 132.865 86.5865 134.099C86.5305 134.111 86.4783 134.136 86.434 134.173C86.3898 134.209 86.3549 134.255 86.3321 134.308C86.3093 134.36 86.2993 134.417 86.303 134.475C86.3067 134.532 86.3239 134.587 86.3532 134.636ZM114.056 149.237C117.844 144.078 120.806 139.484 123.47 134.629C123.621 134.351 123.543 134.179 123.237 134.113C117.823 132.888 112.341 132.229 106.791 132.134C106.735 132.133 106.678 132.144 106.625 132.165C106.573 132.187 106.525 132.218 106.484 132.259C106.444 132.299 106.412 132.347 106.391 132.399C106.37 132.452 106.359 132.509 106.36 132.565L106.396 149.074C106.398 149.199 106.446 149.318 106.529 149.409C106.613 149.5 106.726 149.557 106.848 149.569C108.596 149.748 110.36 149.984 112.141 150.276C113.194 150.445 113.512 149.986 114.056 149.237ZM88.9257 153.315L93.166 151.52C93.4675 151.392 93.5193 151.194 93.3214 150.926C89.5759 145.937 86.2331 140.69 83.2932 135.187C83.2198 135.054 83.1013 134.951 82.959 134.896C82.8166 134.842 82.6595 134.84 82.5158 134.891L71.0812 138.961C70.9505 139.007 70.8338 139.086 70.742 139.189C70.6503 139.293 70.5865 139.418 70.5568 139.553C70.527 139.689 70.5323 139.829 70.5722 139.962C70.612 140.094 70.685 140.215 70.7843 140.311C76.0187 145.376 81.8067 149.696 88.1483 153.272C88.398 153.418 88.6571 153.432 88.9257 153.315ZM121.23 153.145C127.251 149.944 133.965 145.18 138.904 139.753C138.948 139.706 138.979 139.649 138.996 139.587C139.013 139.526 139.016 139.461 139.003 139.399C138.991 139.337 138.964 139.279 138.925 139.23C138.885 139.181 138.835 139.142 138.777 139.117C134.994 137.392 131.081 136.059 127.039 135.117C126.78 135.055 126.584 135.143 126.452 135.378C123.484 140.815 120.151 146.017 116.452 150.982C116.414 151.033 116.388 151.092 116.376 151.154C116.364 151.216 116.367 151.28 116.384 151.341C116.401 151.402 116.432 151.458 116.475 151.505C116.517 151.552 116.57 151.588 116.629 151.611L120.558 153.187C120.789 153.277 121.013 153.263 121.23 153.145ZM142.912 141.004C142.738 140.91 142.539 140.875 142.346 140.903C142.152 140.931 141.974 141.021 141.837 141.159C136.669 146.445 130.914 150.985 124.572 154.778C124.505 154.817 124.447 154.871 124.402 154.934C124.356 154.998 124.324 155.07 124.307 155.147C124.291 155.224 124.29 155.303 124.305 155.381C124.321 155.458 124.351 155.532 124.396 155.597C125.654 157.435 127.208 156.672 129.3 156C136.641 153.621 143.402 150.203 149.583 145.746C149.676 145.68 149.75 145.591 149.799 145.488C149.849 145.385 149.871 145.271 149.864 145.157C149.857 145.043 149.821 144.933 149.759 144.837C149.698 144.741 149.613 144.662 149.512 144.608L142.912 141.004ZM60.2543 145.972C66.6854 150.396 75.2578 155.074 82.9964 156.679C83.9221 156.869 84.9469 156.339 85.3144 155.534C85.451 155.242 85.3803 155.013 85.1024 154.848C78.7655 151.131 73.0317 146.648 67.9009 141.399C67.7338 141.229 67.5152 141.117 67.2781 141.081C67.0411 141.045 66.7983 141.088 66.5865 141.202L60.332 144.594C60.21 144.66 60.1068 144.757 60.0323 144.874C59.9579 144.992 59.9147 145.126 59.9069 145.264C59.8991 145.403 59.9269 145.54 59.9878 145.664C60.0486 145.788 60.1404 145.894 60.2543 145.972ZM92.3744 155.088C90.9045 155.682 89.5711 156.386 88.3744 157.202C88.2853 157.263 88.2162 157.35 88.1755 157.451C88.1348 157.551 88.1243 157.662 88.1453 157.768C88.1663 157.874 88.2179 157.973 88.2937 158.05C88.3696 158.128 88.4664 158.182 88.5723 158.205C99.517 160.598 110.462 160.587 121.406 158.17C121.476 158.155 121.542 158.124 121.597 158.078C121.652 158.032 121.695 157.973 121.722 157.907C121.749 157.841 121.76 157.769 121.753 157.698C121.746 157.626 121.721 157.558 121.682 157.498C121.588 157.352 121.42 157.211 121.18 157.074C111.932 151.717 102.33 151.055 92.3744 155.088Z" fill="#3DB84E"/>
<path d="M59.3354 176.085C57.4791 177.876 55.3543 179.263 52.9608 180.248C52.9217 180.264 52.879 180.271 52.8368 180.267C52.7945 180.262 52.7539 180.248 52.7188 180.224C52.6836 180.2 52.655 180.168 52.6356 180.13C52.6162 180.092 52.6065 180.05 52.6075 180.007L52.6216 174.962C52.6216 174.721 52.7371 174.561 52.9679 174.481C56.4826 173.28 59.0951 171.049 60.8054 167.788C60.9137 167.576 61.0904 167.468 61.3354 167.463L65.0245 167.393C65.0854 167.392 65.1459 167.403 65.2024 167.426C65.259 167.448 65.3104 167.482 65.3538 167.525C65.3973 167.567 65.4317 167.618 65.4553 167.675C65.4788 167.731 65.4909 167.791 65.4909 167.852L65.4626 196.015C65.4626 196.307 65.3166 196.45 65.0245 196.446L60.2824 196.403C60.1674 196.401 60.0578 196.355 59.9772 196.274C59.8965 196.194 59.8513 196.085 59.8513 195.972L59.8654 176.311C59.8665 176.249 59.8492 176.189 59.8155 176.137C59.7819 176.085 59.7335 176.044 59.6766 176.02C59.6196 175.996 59.5568 175.989 59.496 176C59.4352 176.012 59.3793 176.042 59.3354 176.085Z" fill="#3DB84E"/>
<path d="M99.6112 194.6C98.1083 193.272 97.1307 191.474 96.6784 189.208C95.2861 182.247 94.8056 166.629 105.986 167.477C110.544 167.823 113.187 170.763 114.092 175.095C115.251 180.65 115.59 189.286 111.929 193.858C108.905 197.639 103.131 197.717 99.6112 194.6ZM107.668 173.335C105.703 170.911 102.572 172.819 102.106 175.441C101.548 178.579 100.417 190.141 104.254 191.745C105.915 192.438 107.639 191.59 108.276 189.894C109.625 186.31 109.894 176.07 107.668 173.335Z" fill="#3DB84E"/>
<path d="M124.155 195.993C117.342 193.209 117.95 180.82 119.152 175.096C120.278 169.762 123.432 167.204 128.615 167.421C139.569 167.88 139.413 189.492 133.378 194.976C130.956 197.181 127.882 197.52 124.155 195.993ZM130.982 189.244C131.802 186.085 133.272 170.912 127.385 172.403C125.609 172.851 124.626 174.224 124.438 176.523C124.127 180.368 122.968 190.304 126.862 191.767C128.89 192.53 130.473 191.216 130.982 189.244Z" fill="#3DB84E"/>
<path d="M149.314 176.035C147.496 177.825 145.401 179.204 143.032 180.169C142.706 180.301 142.544 180.191 142.544 179.837L142.558 174.961C142.558 174.73 142.666 174.577 142.883 174.502C146.426 173.286 149.076 171.06 150.834 167.823C150.951 167.616 151.128 167.51 151.364 167.505L154.947 167.441C155.001 167.441 155.055 167.45 155.106 167.47C155.156 167.49 155.202 167.519 155.241 167.557C155.28 167.594 155.311 167.639 155.332 167.688C155.353 167.738 155.364 167.791 155.364 167.844L155.47 196C155.47 196.059 155.458 196.117 155.436 196.172C155.413 196.226 155.38 196.276 155.339 196.317C155.297 196.359 155.248 196.391 155.194 196.413C155.14 196.435 155.083 196.446 155.025 196.445L150.205 196.431C149.894 196.426 149.738 196.271 149.738 195.964L149.788 176.233C149.788 175.785 149.63 175.719 149.314 176.035Z" fill="#3DB84E"/>
<path d="M83.9147 190.785L73.1444 190.82C72.857 190.825 72.6992 190.683 72.6709 190.396C72.473 188.099 72.3741 186.36 73.7592 184.353C77.4624 178.959 81.1632 173.571 84.8617 168.191C85.0031 167.979 85.2033 167.871 85.4624 167.866L89.4059 167.852C89.7592 167.847 89.9383 168.024 89.943 168.382L89.9571 185.562C89.9571 185.612 89.967 185.661 89.9863 185.707C90.0055 185.753 90.0338 185.794 90.0693 185.829C90.1048 185.864 90.147 185.892 90.1932 185.91C90.2395 185.928 90.289 185.937 90.3387 185.936L93.1868 185.887C93.4648 185.882 93.6038 186.019 93.6038 186.297V190.382C93.6038 190.437 93.5927 190.492 93.5713 190.543C93.55 190.594 93.5186 190.64 93.4791 190.679C93.4397 190.718 93.3929 190.748 93.3415 190.769C93.2901 190.789 93.2351 190.8 93.1797 190.799L90.3105 190.763C90.2607 190.763 90.2114 190.773 90.1655 190.792C90.1196 190.811 90.078 190.839 90.0431 190.873C90.0082 190.908 89.9808 190.95 89.9624 190.995C89.944 191.04 89.935 191.089 89.9359 191.138L89.9712 195.972C89.9712 196.09 89.9251 196.203 89.8429 196.287C89.7607 196.37 89.6493 196.417 89.5331 196.417L84.7981 196.431C84.4636 196.436 84.2963 196.269 84.2963 195.929V191.159C84.2963 190.909 84.1691 190.785 83.9147 190.785ZM78.2893 185.505C78.265 185.541 78.2509 185.583 78.2486 185.627C78.2463 185.67 78.2558 185.713 78.2761 185.752C78.2964 185.79 78.3267 185.823 78.3639 185.845C78.4011 185.868 78.4437 185.88 78.4871 185.88L84.0631 185.972C84.1256 185.972 84.1857 185.947 84.2306 185.904C84.2754 185.86 84.3016 185.801 84.3034 185.739L84.3387 177.329C84.3383 177.278 84.3216 177.228 84.2911 177.187C84.2605 177.146 84.2177 177.116 84.1689 177.101C84.12 177.086 84.0677 177.087 84.0194 177.104C83.9712 177.121 83.9296 177.152 83.9006 177.194L78.2893 185.505Z" fill="#3DB84E"/>
</svg>
