<svg width="213" height="200" viewBox="0 0 213 200" fill="none" xmlns="http://www.w3.org/2000/svg">
<path d="M106 37.2581L105.972 39.4489C105.967 39.7504 105.814 39.9012 105.512 39.9012L103.364 39.9224C103.257 39.9226 103.154 39.8815 103.076 39.8079C102.999 39.7342 102.952 39.6335 102.947 39.5267L102.827 37.145C102.821 37.0318 102.772 36.9249 102.69 36.8461C102.607 36.7673 102.497 36.7226 102.382 36.721C96.3086 36.6174 90.3086 35.9036 84.3816 34.5797C84.2851 34.5576 84.184 34.5695 84.0952 34.6133C84.0064 34.657 83.9353 34.73 83.894 34.8199L81.6961 39.5549C81.5736 39.8188 81.3663 39.9601 81.0742 39.979L79.2721 40.0991C78.5842 40.1415 78.384 39.8517 78.6714 39.2298L80.8551 34.4313C80.9918 34.1344 80.9046 33.9295 80.5936 33.8164L67.7385 29.1874C67.6506 29.1561 67.5554 29.1515 67.4649 29.1741C67.3744 29.1968 67.2925 29.2457 67.2297 29.3146C64.4594 32.3111 61.9623 35.4748 59.7385 38.8058C58.8834 40.085 57.7315 40.4525 56.3392 40.0708C56.0189 39.9813 55.9435 39.7929 56.1131 39.5055C58.5206 35.3453 61.3216 31.4725 64.5159 27.8871C64.5422 27.8581 64.5617 27.8236 64.5729 27.7861C64.5842 27.7486 64.5868 27.7091 64.5807 27.6704C64.5746 27.6318 64.5599 27.595 64.5377 27.5627C64.5155 27.5305 64.4863 27.5037 64.4523 27.4843L56.6078 22.9966C56.4287 22.893 56.2544 22.9071 56.0848 23.039C50.384 27.529 45.4299 32.7092 41.2226 38.5797C40.2191 39.979 39.1096 40.3182 37.5406 39.8447C37.2815 39.7646 37.2273 39.6115 37.3781 39.3853C69.6113 -9.20126 139.102 -8.45921 171.569 39.35C171.599 39.3965 171.616 39.4502 171.619 39.5056C171.621 39.561 171.609 39.6161 171.583 39.6651C171.557 39.7142 171.519 39.7554 171.471 39.7844C171.424 39.8135 171.37 39.8294 171.314 39.8305L168.806 39.8093C168.699 39.807 168.594 39.7794 168.5 39.729C168.407 39.6786 168.328 39.6068 168.269 39.5196C163.953 33.2157 158.77 27.7269 152.721 23.0532C152.567 22.9324 152.381 22.861 152.185 22.8484C151.99 22.8358 151.795 22.8825 151.625 22.9825L144.707 27.0602C144.63 27.1051 144.564 27.1663 144.514 27.2393C144.463 27.3124 144.429 27.3957 144.415 27.4833C144.4 27.5709 144.404 27.6607 144.428 27.7463C144.452 27.8319 144.494 27.9113 144.551 27.979C147.581 31.5361 150.318 35.3029 152.763 39.2793C152.919 39.529 152.857 39.7033 152.58 39.8023C151.046 40.3606 149.965 39.986 149.032 38.5938C146.803 35.2675 144.344 32.1415 141.654 29.2157C141.451 28.9896 141.206 28.9283 140.919 29.032L128.049 33.6609C127.983 33.6854 127.921 33.7236 127.87 33.7729C127.818 33.8223 127.777 33.882 127.749 33.9482C127.722 34.0143 127.707 34.0857 127.708 34.1578C127.709 34.23 127.724 34.3014 127.753 34.3676L129.958 39.4348C130.104 39.7693 129.995 39.9318 129.633 39.9224L127.435 39.8871C127.307 39.8852 127.183 39.8478 127.075 39.7792C126.968 39.7105 126.882 39.6133 126.827 39.4984L124.622 34.9684C124.476 34.6762 124.245 34.5655 123.929 34.6362C118.158 35.8941 112.32 36.6268 106.417 36.8341C106.144 36.8435 106.005 36.9848 106 37.2581ZM87.5901 8.62206C96.0777 15.4772 112.339 14.9472 120.968 8.56553C121.034 8.5171 121.084 8.4507 121.113 8.3743C121.142 8.2979 121.149 8.21475 121.131 8.13487C121.114 8.05499 121.074 7.98177 121.017 7.92401C120.959 7.86626 120.886 7.82644 120.806 7.80934C109.8 5.41123 98.7939 5.40651 87.788 7.79521C87.7005 7.81457 87.6199 7.8582 87.5558 7.92099C87.4917 7.98378 87.4466 8.06314 87.4259 8.14983C87.4052 8.23651 87.4096 8.32694 87.4387 8.41055C87.4677 8.49417 87.5203 8.56752 87.5901 8.62206ZM81.6891 9.51252C73.7809 11.9648 66.2191 15.5337 59.4982 20.3676C59.4263 20.4197 59.3687 20.489 59.3305 20.5691C59.2923 20.6493 59.2749 20.7377 59.2798 20.8264C59.2848 20.915 59.3119 21.001 59.3587 21.0764C59.4055 21.1519 59.4705 21.2143 59.5477 21.2581L66.53 25.1662C66.6149 25.2152 66.7135 25.2348 66.8106 25.222C66.9077 25.2092 66.9979 25.1648 67.0671 25.0956C72.4052 19.8282 78.2827 15.2605 84.6997 11.3924C84.7695 11.3498 84.8299 11.2933 84.8771 11.2266C84.9243 11.1599 84.9572 11.0844 84.9738 11.0047C84.9904 10.9251 84.9903 10.8431 84.9735 10.7639C84.9568 10.6846 84.9237 10.6099 84.8763 10.5443C84.0942 9.44185 83.0318 9.09792 81.6891 9.51252ZM148.975 20.2758C142.219 15.3994 134.601 11.5479 126.488 9.42772C125.244 9.10263 124.351 9.43714 123.809 10.4313C123.739 10.5564 123.721 10.7039 123.758 10.8424C123.795 10.9809 123.884 11.0996 124.007 11.1733C130.344 14.9424 136.123 19.4324 141.343 24.6433C141.483 24.7849 141.666 24.8757 141.865 24.9012C142.063 24.9268 142.265 24.8858 142.438 24.7846L148.94 21.0249C149.005 20.9876 149.059 20.9347 149.098 20.8709C149.137 20.8071 149.159 20.7346 149.163 20.66C149.166 20.5854 149.151 20.5111 149.118 20.4439C149.085 20.3768 149.036 20.319 148.975 20.2758ZM121.435 13.1804C119.71 12.2546 117.569 13.668 115.986 14.4242C115.921 14.4543 115.864 14.4983 115.819 14.5531C115.773 14.6079 115.741 14.6721 115.723 14.7411C115.706 14.81 115.704 14.8821 115.717 14.9519C115.731 15.0218 115.76 15.0877 115.802 15.145C119.406 20.0355 122.697 25.1285 125.675 30.4242C125.748 30.5567 125.863 30.6616 126.002 30.7228C126.141 30.7841 126.297 30.7983 126.445 30.7634C130.558 29.7881 134.528 28.3936 138.353 26.5797C138.415 26.5509 138.469 26.5075 138.511 26.4533C138.553 26.3991 138.581 26.3356 138.592 26.2683C138.604 26.2009 138.6 26.1318 138.579 26.0666C138.558 26.0015 138.522 25.9423 138.474 25.8941C133.272 20.721 127.592 16.4831 121.435 13.1804ZM70.3958 26.8199C73.8587 28.615 78.1696 29.8376 81.9152 30.8835C82.1179 30.9394 82.3333 30.925 82.526 30.8428C82.7187 30.7606 82.8771 30.6154 82.9753 30.4313C85.7833 25.1309 89.0059 20.0967 92.6431 15.3288C92.7002 15.2549 92.7395 15.169 92.758 15.0775C92.7765 14.986 92.7737 14.8915 92.7498 14.8013C92.7258 14.7111 92.6815 14.6276 92.6201 14.5573C92.5587 14.487 92.4819 14.4318 92.3958 14.3959L88.6078 12.8058C88.5132 12.7659 88.4105 12.7484 88.3076 12.7545C88.2047 12.7607 88.1043 12.7903 88.0141 12.8411C81.5171 16.4737 75.609 20.8977 70.2898 26.1132C70.2399 26.1612 70.2024 26.2204 70.1803 26.286C70.1581 26.3517 70.152 26.4218 70.1623 26.4907C70.1726 26.5596 70.1992 26.6254 70.2398 26.6826C70.2803 26.7398 70.3338 26.7869 70.3958 26.8199ZM87.2226 28.5726C86.5819 29.6327 86.1178 30.5749 85.8304 31.3994C85.8121 31.4523 85.8053 31.5084 85.8103 31.5641C85.8153 31.6197 85.832 31.6737 85.8594 31.7225C85.8868 31.7712 85.9242 31.8136 85.9691 31.8468C86.0141 31.8801 86.0655 31.9034 86.1201 31.9153C91.4488 33.0979 96.841 33.7104 102.297 33.7528C102.445 33.7528 102.587 33.694 102.692 33.5893C102.796 33.4846 102.855 33.3426 102.855 33.1945L102.841 17.0956C102.84 16.9471 102.786 16.8041 102.689 16.6934C102.591 16.5827 102.457 16.5121 102.311 16.4949L96.4382 15.7316C96.3241 15.7167 96.2081 15.7316 96.1016 15.775C95.9951 15.8184 95.9016 15.8886 95.8304 15.979C93.1308 19.3618 90.2615 23.5596 87.2226 28.5726ZM122.572 31.0956C119.736 25.7528 116.415 20.7304 112.608 16.0284C112.533 15.9338 112.433 15.8605 112.319 15.8159C112.205 15.7713 112.08 15.7568 111.958 15.774L106.403 16.5726C106.278 16.5899 106.163 16.652 106.081 16.7472C105.999 16.8423 105.955 16.9637 105.958 17.0885L105.993 33.3429C105.998 33.6256 106.139 33.7646 106.417 33.7599C111.769 33.6751 117.048 33.0202 122.254 31.7952C122.66 31.701 122.766 31.4678 122.572 31.0956Z" fill="#005BAE"/>
<path d="M108.898 52.467L108.982 49.0041C108.984 48.9228 109.018 48.8455 109.078 48.7887C109.137 48.7319 109.217 48.7001 109.3 48.7002H123.654C123.918 48.7002 124.049 48.8321 124.049 49.096L124.057 72.4741C124.057 72.752 123.918 72.891 123.64 72.891L110.028 72.8981C109.836 72.8981 109.647 72.852 109.476 72.7634C109.305 72.6749 109.158 72.5466 109.046 72.3893C103.951 65.1737 94.0919 62.4105 85.689 62.6437C81.8374 62.7497 78.2261 67.0182 83.9435 68.6931C92.2356 71.1289 100.532 73.5483 108.834 75.9511C124.799 80.5801 133.025 100.481 119.767 112.905C108.509 123.463 88.2403 120.842 76.1272 113.654C76.077 113.624 76.0194 113.607 75.9606 113.606C75.9017 113.606 75.8438 113.621 75.793 113.651C75.7423 113.681 75.7005 113.724 75.6722 113.775C75.644 113.827 75.6302 113.885 75.6325 113.944L75.7385 117.965C75.7432 118.253 75.6042 118.396 75.3215 118.396H60.4099C60.1555 118.396 60.0283 118.267 60.0283 118.008L60.0495 92.7638C60.0495 92.5188 60.172 92.3963 60.417 92.3963L73.8445 92.3893C74.066 92.3893 74.2356 92.4835 74.3533 92.6719C75.4488 94.4317 76.5936 96.1984 78.1908 97.4917C84.7208 102.785 95.6042 105.463 103.611 101.859C103.916 101.723 104.174 101.5 104.353 101.219C104.533 100.938 104.626 100.61 104.622 100.276C104.587 98.4882 101.23 97.4917 99.8092 97.0677C87.0035 93.2562 78.8834 90.7756 75.4488 89.626C64.3039 85.9087 57.576 76.0359 59.9364 64.1419C63.5689 45.838 86.6926 44.6295 100.601 48.9405C103.244 49.7532 105.816 51.3999 108.424 52.7497C108.735 52.9099 108.893 52.8156 108.898 52.467Z" fill="#005BAE"/>
<path d="M141.449 112.948C134.071 107.911 129.781 100.469 128.58 90.6225C127.131 78.7709 128.834 64.2055 138.24 55.8451C152.459 43.202 180.057 43.9511 194.134 56.573C202.862 64.4034 204.707 80.1772 203.039 91.1737C201.315 102.538 195.767 111.895 184.841 116.262C170.982 121.796 153.937 121.471 141.449 112.948ZM169.626 64.8415C163.428 63.5553 155.64 65.202 154.869 72.7002C154.313 78.0854 154.116 83.1831 154.276 87.9935C154.551 95.9864 156.099 101.895 165.357 102.198C172.247 102.425 176.325 100.022 177.209 92.9122C178.024 86.3916 178.045 79.8545 177.272 73.3009C176.721 68.6083 174.172 65.7885 169.626 64.8415Z" fill="#005BAE"/>
<path d="M21.2018 100.884V65.174C21.2018 65.084 21.166 64.9977 21.1024 64.9341C21.0388 64.8705 20.9525 64.8348 20.8626 64.8348L11.1735 64.9408C11.1278 64.9417 11.0823 64.9334 11.0399 64.9164C10.9974 64.8993 10.9589 64.8738 10.9265 64.8415C10.8942 64.8091 10.8687 64.7706 10.8516 64.7281C10.8346 64.6857 10.8263 64.6402 10.8272 64.5945L10.8626 47.8736C10.8626 47.7837 10.8983 47.6974 10.9619 47.6338C11.0255 47.5702 11.1118 47.5344 11.2018 47.5344L55.5905 47.5273C55.6804 47.5273 55.7667 47.5631 55.8303 47.6267C55.894 47.6903 55.9297 47.7766 55.9297 47.8666V64.6086C55.9297 64.6532 55.9209 64.6973 55.9039 64.7384C55.8868 64.7796 55.8618 64.817 55.8303 64.8485C55.7988 64.88 55.7614 64.905 55.7203 64.922C55.6791 64.9391 55.635 64.9478 55.5905 64.9478L45.9014 64.8984C45.8569 64.8984 45.8128 64.9071 45.7716 64.9242C45.7305 64.9412 45.6931 64.9662 45.6616 64.9977C45.6301 65.0292 45.6051 65.0666 45.588 65.1078C45.571 65.1489 45.5622 65.193 45.5622 65.2376V100.891C45.5622 100.936 45.571 100.98 45.588 101.021C45.6051 101.062 45.6301 101.1 45.6616 101.131C45.6931 101.163 45.7305 101.188 45.7716 101.205C45.8128 101.222 45.8569 101.231 45.9014 101.231L55.5622 101.223C55.6522 101.223 55.7385 101.259 55.8021 101.323C55.8657 101.386 55.9014 101.473 55.9014 101.563L55.9085 118.057C55.9085 118.147 55.8728 118.234 55.8091 118.297C55.7455 118.361 55.6592 118.397 55.5693 118.397L11.2159 118.382C11.1259 118.382 11.0397 118.347 10.9761 118.283C10.9124 118.219 10.8767 118.133 10.8767 118.043L10.8838 101.563C10.8838 101.473 10.9195 101.386 10.9831 101.323C11.0467 101.259 11.133 101.223 11.223 101.223H20.8626C20.9525 101.223 21.0388 101.188 21.1024 101.124C21.166 101.06 21.2018 100.974 21.2018 100.884Z" fill="#005BAE"/>
<path d="M81.5196 131.598L79.3217 126.87C78.9731 126.116 79.2134 125.753 80.0426 125.781L81.4984 125.831C81.8 125.84 82.0214 125.979 82.1627 126.248L84.5585 130.948C84.6097 131.047 84.6916 131.128 84.7922 131.178C84.8927 131.227 85.0065 131.243 85.1168 131.223C91.0108 130.092 96.9519 129.365 102.94 129.039C103.242 129.025 103.385 128.867 103.371 128.566L103.293 126.262C103.291 126.207 103.301 126.152 103.321 126.101C103.342 126.05 103.372 126.004 103.412 125.965C103.451 125.927 103.498 125.897 103.549 125.877C103.601 125.858 103.656 125.849 103.71 125.852L105.781 125.93C106.116 125.939 106.276 126.114 106.262 126.453L106.191 128.446C106.188 128.507 106.197 128.568 106.218 128.626C106.239 128.684 106.271 128.737 106.312 128.782C106.354 128.827 106.404 128.864 106.459 128.89C106.515 128.916 106.575 128.931 106.636 128.933C112.681 129.273 118.669 130.057 124.601 131.287C124.718 131.311 124.84 131.295 124.949 131.241C125.057 131.188 125.146 131.099 125.202 130.99L127.569 126.297C127.715 126.015 127.946 125.873 128.262 125.873L130.184 125.88C130.249 125.881 130.313 125.898 130.37 125.929C130.427 125.96 130.476 126.005 130.512 126.06C130.547 126.114 130.569 126.177 130.575 126.242C130.58 126.306 130.57 126.372 130.544 126.432L128.346 131.64C128.248 131.876 128.316 132.036 128.551 132.121L141.696 136.849C141.789 136.882 141.888 136.885 141.981 136.858C142.074 136.832 142.155 136.776 142.212 136.7L150.396 126.057C150.425 126.019 150.463 125.988 150.506 125.965C150.55 125.942 150.599 125.927 150.65 125.923L152.792 125.817C152.87 125.813 152.948 125.83 153.017 125.866C153.086 125.902 153.144 125.957 153.185 126.023C153.225 126.089 153.247 126.164 153.248 126.241C153.248 126.318 153.227 126.394 153.187 126.46C150.733 130.545 147.927 134.37 144.771 137.937C144.729 137.985 144.699 138.041 144.682 138.101C144.665 138.161 144.661 138.225 144.671 138.286C144.681 138.348 144.705 138.406 144.741 138.457C144.776 138.508 144.823 138.55 144.877 138.58L152.608 142.997C152.726 143.065 152.862 143.096 152.997 143.085C153.133 143.073 153.261 143.02 153.364 142.933C159.253 138.1 164.368 132.545 168.707 126.269C168.895 125.996 169.157 125.866 169.491 125.88L171.696 125.979C171.744 125.982 171.79 125.997 171.83 126.023C171.87 126.048 171.902 126.084 171.924 126.126C171.945 126.167 171.955 126.214 171.952 126.26C171.95 126.306 171.935 126.351 171.908 126.389C139.986 175.23 69.6256 174.948 37.5126 126.389C37.3665 126.163 37.423 126.017 37.6822 125.951C39.1521 125.569 40.3324 125.774 41.2793 127.103C45.5149 133.049 50.4784 138.307 56.1698 142.877C56.3546 143.026 56.5802 143.116 56.8164 143.133C57.0525 143.151 57.288 143.096 57.4914 142.976L64.6362 138.743C64.6919 138.71 64.7396 138.666 64.7759 138.613C64.8123 138.559 64.8363 138.498 64.8465 138.434C64.8566 138.37 64.8525 138.304 64.8345 138.242C64.8165 138.179 64.785 138.121 64.7422 138.071C61.5667 134.434 58.7069 130.564 56.1627 126.46C56.1199 126.389 56.0973 126.308 56.0974 126.225C56.0975 126.143 56.1202 126.061 56.1632 125.991C56.2062 125.92 56.2678 125.862 56.3412 125.824C56.4147 125.786 56.4971 125.769 56.5797 125.774L58.721 125.916C58.966 125.935 59.1569 126.048 59.2935 126.255C61.6916 129.963 64.3795 133.447 67.3571 136.707C67.4411 136.799 67.5498 136.865 67.6693 136.895C67.7888 136.925 67.9139 136.919 68.0285 136.877L81.2935 132.128C81.3448 132.11 81.3918 132.082 81.4316 132.045C81.4713 132.008 81.5028 131.963 81.5241 131.913C81.5454 131.863 81.556 131.809 81.5553 131.755C81.5545 131.701 81.5423 131.647 81.5196 131.598ZM86.3818 134.637C89.2417 140.088 92.5891 145.216 96.4242 150.022C96.5122 150.132 96.6274 150.217 96.7587 150.269C96.89 150.321 97.0329 150.338 97.1733 150.319L102.954 149.463C103.228 149.426 103.364 149.268 103.364 148.99L103.343 132.559C103.343 132.295 103.211 132.163 102.947 132.163C97.4254 132.196 91.9813 132.853 86.615 134.135C86.5626 134.147 86.5136 134.172 86.4719 134.206C86.4301 134.24 86.3967 134.283 86.3742 134.331C86.3517 134.379 86.3407 134.432 86.342 134.485C86.3433 134.538 86.3569 134.59 86.3818 134.637ZM114.071 149.237C118.007 143.774 121.039 139.251 123.456 134.693C123.486 134.636 123.503 134.574 123.505 134.51C123.508 134.445 123.495 134.382 123.469 134.324C123.443 134.266 123.404 134.214 123.356 134.174C123.307 134.134 123.249 134.106 123.187 134.092C117.816 132.867 112.372 132.217 106.855 132.142C106.493 132.137 106.311 132.319 106.311 132.686L106.396 149.089C106.396 149.395 106.549 149.565 106.855 149.598C108.749 149.819 110.653 150.017 112.566 150.191C113.074 150.239 113.576 149.92 114.071 149.237ZM92.8483 151.69C93.3618 151.473 93.4537 151.138 93.1239 150.686C89.5149 145.763 86.2428 140.625 83.3076 135.273C83.2489 135.167 83.1576 135.084 83.0478 135.035C82.938 134.987 82.8157 134.976 82.6998 135.004C78.5868 136.059 74.6056 137.482 70.7564 139.273C70.6786 139.309 70.6106 139.364 70.5584 139.432C70.5062 139.5 70.4713 139.58 70.4567 139.664C70.442 139.748 70.4482 139.835 70.4746 139.915C70.5009 139.996 70.5467 140.069 70.608 140.128C75.8706 145.315 81.7293 149.708 88.1839 153.308C88.2941 153.37 88.4169 153.406 88.543 153.413C88.6691 153.42 88.7952 153.399 88.9119 153.35L92.8483 151.69ZM116.622 151.569C117.647 152.128 119.407 152.926 120.721 153.131C120.994 153.178 121.303 153.108 121.647 152.919C128.116 149.428 133.878 145.054 138.933 139.796C138.98 139.746 139.014 139.687 139.034 139.621C139.053 139.556 139.056 139.487 139.044 139.42C139.032 139.354 139.004 139.291 138.962 139.237C138.921 139.183 138.867 139.139 138.806 139.11C135.008 137.372 131.074 136.038 127.004 135.11C126.899 135.088 126.79 135.1 126.692 135.144C126.595 135.189 126.513 135.263 126.46 135.357C123.477 140.776 120.151 145.972 116.481 150.948C116.445 150.996 116.421 151.052 116.409 151.111C116.396 151.171 116.397 151.232 116.41 151.291C116.424 151.349 116.45 151.405 116.486 151.453C116.523 151.501 116.569 151.541 116.622 151.569ZM127.251 156.615C135.202 154.467 143.039 150.516 149.71 145.725C149.796 145.663 149.864 145.58 149.91 145.485C149.955 145.39 149.976 145.285 149.971 145.18C149.965 145.075 149.933 144.973 149.878 144.884C149.822 144.796 149.745 144.723 149.654 144.672L142.94 140.941C142.754 140.835 142.538 140.794 142.326 140.823C142.114 140.853 141.918 140.951 141.767 141.103C136.589 146.375 130.853 150.941 124.558 154.799C124.449 154.864 124.368 154.968 124.332 155.092C124.297 155.215 124.309 155.348 124.368 155.463C124.919 156.552 126 156.955 127.251 156.615ZM60.0073 145.697C66.6362 150.665 74.8271 154.651 82.8836 156.707C83.9013 156.969 84.9048 156.41 85.3571 155.548C85.4205 155.428 85.4346 155.287 85.3964 155.156C85.3583 155.024 85.2708 154.912 85.1521 154.842C78.7258 151.077 72.9119 146.531 67.7104 141.202C67.5708 141.059 67.3875 140.965 67.1893 140.937C66.991 140.909 66.7891 140.948 66.615 141.047L60.0638 144.764C59.9832 144.81 59.9154 144.875 59.8664 144.954C59.8174 145.033 59.7888 145.122 59.7832 145.215C59.7776 145.308 59.7952 145.4 59.8343 145.484C59.8734 145.568 59.9328 145.641 60.0073 145.697ZM121.47 157.216C111.272 150.651 98.6998 151.223 88.3748 157.025C88.2584 157.091 88.1647 157.19 88.1062 157.31C88.0476 157.43 88.0269 157.565 88.0468 157.697C88.0668 157.828 88.1264 157.951 88.2178 158.048C88.3092 158.146 88.428 158.213 88.5585 158.241C99.4654 160.62 110.375 160.618 121.286 158.234C121.395 158.211 121.494 158.156 121.572 158.076C121.649 157.997 121.701 157.896 121.72 157.787C121.74 157.678 121.727 157.565 121.682 157.463C121.638 157.362 121.564 157.276 121.47 157.216Z" fill="#005BAE"/>
<path d="M102.077 196.169C99.2599 195.147 97.4813 192.966 96.7416 189.625C95.1727 182.537 94.8688 165.053 107.201 167.717C111.135 168.57 113.495 171.39 114.282 176.177C115.258 182.049 115.512 190.933 110.833 195.046C108.525 197.076 105.606 197.451 102.077 196.169ZM109.095 184.452C109.236 181.321 110.028 171.314 104.812 172.367C103.229 172.685 102.417 173.936 102.155 175.449C101.59 178.707 100.219 190.707 104.72 191.873C108.911 192.954 108.968 187.046 109.095 184.452Z" fill="#005BAE"/>
<path d="M129.152 167.483C139.569 168.565 139.322 189.978 133.392 194.975C129.936 197.886 123.965 197.257 121.159 193.724C120.132 192.423 119.388 190.496 118.926 187.943C117.597 180.551 117.936 166.317 129.152 167.483ZM124.276 178.445C124.028 181.335 123.025 193.752 128.806 191.794C130.883 191.095 131.399 188.706 131.534 186.749C131.774 183.349 132.177 177.929 130.919 174.756C130.12 172.734 128.368 171.469 126.339 172.713C124.438 173.893 124.459 176.31 124.276 178.445Z" fill="#005BAE"/>
<path d="M149.378 175.993C147.55 177.807 145.44 179.199 143.046 180.169C142.992 180.192 142.933 180.2 142.875 180.194C142.817 180.188 142.761 180.167 142.713 180.135C142.665 180.102 142.625 180.057 142.598 180.005C142.571 179.953 142.558 179.896 142.559 179.837L142.566 175.067C142.566 174.789 142.698 174.6 142.961 174.501C146.415 173.234 149.027 170.996 150.799 167.788C150.857 167.683 150.943 167.596 151.047 167.535C151.151 167.474 151.271 167.442 151.393 167.441L154.969 167.456C155.246 167.456 155.385 167.592 155.385 167.865V195.964C155.385 196.088 155.336 196.207 155.249 196.294C155.161 196.382 155.043 196.431 154.919 196.431L150.135 196.374C150.032 196.374 149.933 196.333 149.86 196.26C149.787 196.188 149.746 196.089 149.746 195.986L149.788 176.162C149.788 175.776 149.652 175.719 149.378 175.993Z" fill="#005BAE"/>
<path d="M67.4774 191.18L67.4915 195.901C67.4915 195.967 67.4786 196.032 67.4534 196.093C67.4281 196.154 67.3912 196.209 67.3446 196.256C67.298 196.302 67.2427 196.339 67.1818 196.365C67.1209 196.39 67.0557 196.403 66.9898 196.403L62.3325 196.396C62.0027 196.396 61.8378 196.231 61.8378 195.901V191.223C61.8378 190.912 61.6824 190.756 61.3714 190.756L50.7142 190.806C50.4739 190.806 50.3302 190.685 50.2831 190.445C49.7177 187.696 50.1347 185.972 51.7954 183.576C55.3573 178.455 58.8838 173.314 62.3749 168.155C62.4336 168.066 62.514 167.993 62.609 167.943C62.704 167.892 62.8105 167.866 62.9191 167.866L66.8696 167.852C67.0327 167.852 67.1891 167.916 67.3044 168.03C67.4197 168.144 67.4845 168.298 67.4845 168.459V185.682C67.4844 185.727 67.4936 185.771 67.5115 185.812C67.5294 185.854 67.5557 185.891 67.5887 185.922C67.6217 185.953 67.6608 185.977 67.7036 185.993C67.7464 186.009 67.7921 186.016 67.8378 186.014L70.7142 185.894C70.9639 185.885 71.0887 186.007 71.0887 186.261L71.0817 190.339C71.0817 190.645 70.9262 190.796 70.6152 190.791L67.9156 190.749C67.6235 190.749 67.4774 190.893 67.4774 191.18ZM61.8308 177.3C61.8326 177.252 61.8185 177.205 61.7909 177.166C61.7633 177.127 61.7236 177.098 61.6778 177.083C61.6321 177.069 61.5829 177.07 61.5377 177.086C61.4926 177.102 61.454 177.133 61.4279 177.173L55.746 185.555C55.7246 185.587 55.7123 185.625 55.7103 185.664C55.7083 185.703 55.7168 185.742 55.7348 185.776C55.7528 185.811 55.7797 185.84 55.8127 185.861C55.8457 185.881 55.8837 185.893 55.9226 185.894L61.6117 186.014C61.641 186.015 61.6703 186.01 61.6977 186C61.7251 185.989 61.7501 185.973 61.7712 185.952C61.7923 185.932 61.8091 185.908 61.8205 185.881C61.832 185.853 61.8379 185.824 61.8378 185.795L61.8308 177.3Z" fill="#005BAE"/>
<path d="M80.7063 177.929C80.6947 177.98 80.6973 178.032 80.7135 178.081C80.7298 178.131 80.7592 178.174 80.7985 178.208C80.8379 178.241 80.8857 178.263 80.9367 178.272C80.9877 178.28 81.04 178.274 81.0879 178.255C87.5826 175.576 93.2646 180.905 92.7204 187.633C91.7805 199.272 74.8406 200.17 73.625 188.565C73.5967 188.288 73.7216 188.13 73.9996 188.092L77.8582 187.597C78.1268 187.56 78.294 187.675 78.36 187.944C79.8724 194.368 87.936 192.587 87.1162 186.212C86.5296 181.647 81.9148 181.392 79.0455 184.064C78.9633 184.139 78.8666 184.197 78.7618 184.232C78.6571 184.267 78.5466 184.28 78.4377 184.269L74.2893 183.838C74.2363 183.832 74.185 183.815 74.1389 183.788C74.0927 183.762 74.0527 183.726 74.0214 183.683C73.9901 183.641 73.9682 183.592 73.9572 183.541C73.9461 183.489 73.9461 183.436 73.9572 183.385L76.996 168.318C77.0573 168.017 77.241 167.866 77.5473 167.866L91.1798 167.852C91.4248 167.847 91.5473 167.967 91.5473 168.212L91.5331 173.145C91.5331 173.385 91.4106 173.505 91.1656 173.505L82.1126 173.491C81.9727 173.492 81.8372 173.541 81.729 173.629C81.6208 173.718 81.5467 173.842 81.519 173.979L80.7063 177.929Z" fill="#005BAE"/>
</svg>
