<svg width="200" height="200" viewBox="0 0 200 200" fill="none" xmlns="http://www.w3.org/2000/svg">
<path d="M104.335 34.2025L99.2949 34.5127C98.8727 34.5386 98.6573 34.7626 98.6487 35.1848L98.6099 36.7615C98.5927 37.2784 98.3299 37.5843 97.8216 37.6791L96.3999 37.9505C95.7968 37.2526 95.5125 36.3522 95.547 35.2494C95.5556 34.8789 95.3789 34.6721 95.0171 34.629L76.4454 32.4578C76.0749 32.4147 75.8035 32.5569 75.6312 32.8843C74.7395 34.5773 74.2871 37.4077 72.0125 37.7695C71.8205 37.7985 71.6238 37.7739 71.4446 37.6987C71.2654 37.6234 71.1108 37.5003 70.9981 37.3433C70.8853 37.1863 70.819 37.0016 70.8064 36.8098C70.7938 36.618 70.8356 36.4267 70.9269 36.2574L72.9043 32.4837C73.1886 31.9581 73.0507 31.5962 72.4907 31.3981L59.4893 26.6938C59.0929 26.5559 58.7612 26.6464 58.4941 26.9652L53.2341 33.3496L50.2487 37.3301C49.232 38.2003 48.2972 38.3597 47.4442 37.8083C47.022 37.5326 46.9617 37.1923 47.2632 36.7873L55.6121 25.6469C55.663 25.5784 55.6992 25.5002 55.7183 25.4173C55.7375 25.3344 55.7392 25.2487 55.7234 25.1658C55.7075 25.0829 55.6745 25.0046 55.6263 24.9361C55.5782 24.8676 55.5161 24.8103 55.4441 24.7681L47.819 20.3094C47.6528 20.2114 47.4604 20.1675 47.2682 20.1837C47.076 20.1999 46.8937 20.2754 46.7463 20.3998C41.9214 24.3632 36.6872 29.9721 31.0437 37.2267C30.2941 38.1831 29.3766 38.2219 28.291 37.3431C27.9894 37.1018 27.9506 36.8218 28.1746 36.503C62.927 -12.5949 131.721 -11.8324 166.486 36.7873C166.529 36.8482 166.558 36.9177 166.57 36.9909C166.583 37.0641 166.579 37.1392 166.56 37.2109C166.54 37.2825 166.504 37.3489 166.456 37.4052C166.408 37.4616 166.347 37.5066 166.279 37.5369C164.522 38.3253 163.565 37.6015 162.519 36.1541C158.176 30.1057 153.05 24.8155 147.139 20.2835C146.855 20.0681 146.553 20.0509 146.235 20.2318L138.868 24.4579C138.532 24.6561 138.48 24.9146 138.713 25.2334L147.165 36.7098C147.527 37.2009 147.415 37.5197 146.829 37.6662C145.511 38.0151 144.438 37.7049 143.611 36.5547C141.173 33.1428 138.579 29.8515 135.831 26.6808C135.729 26.5598 135.593 26.4726 135.441 26.431C135.288 26.3895 135.127 26.3955 134.978 26.4482L121.589 31.23C121.485 31.2674 121.39 31.3266 121.311 31.4035C121.232 31.4804 121.17 31.5734 121.129 31.6762C121.089 31.779 121.071 31.8892 121.077 31.9995C121.082 32.1098 121.111 32.2176 121.162 32.3157L123.437 36.8261C123.721 37.3861 123.544 37.6791 122.907 37.7049L121.524 37.7566C120.964 37.7825 120.559 37.5412 120.309 37.0329L118.267 32.8326C118.069 32.4277 117.742 32.2553 117.285 32.3157L104.335 34.2025ZM79.3792 5.34347C86.9396 12.5162 107.282 12.3224 114.48 5.25301C114.544 5.19196 114.589 5.11468 114.611 5.02965C114.633 4.94461 114.631 4.85512 114.606 4.77099C114.581 4.68687 114.533 4.61135 114.467 4.55275C114.402 4.49415 114.321 4.45472 114.235 4.4388C102.715 2.25035 91.1873 2.23743 79.6506 4.40003C79.5518 4.42086 79.4606 4.46817 79.3867 4.5369C79.3129 4.60563 79.2591 4.69318 79.2312 4.79015C79.2033 4.88712 79.2023 4.98986 79.2284 5.08734C79.2545 5.18482 79.3066 5.27336 79.3792 5.34347ZM143.417 18.4095C143.486 18.3694 143.544 18.3127 143.585 18.2446C143.627 18.1765 143.65 18.0991 143.654 18.0194C143.658 17.9398 143.642 17.8605 143.607 17.7887C143.573 17.7169 143.521 17.6548 143.456 17.6083C136.038 12.2405 127.917 8.30305 119.094 5.79581C118.736 5.69983 118.355 5.73655 118.022 5.89923C117.688 6.0619 117.425 6.33957 117.28 6.68106C117.136 7.02255 117.119 7.40485 117.234 7.75754C117.349 8.11023 117.587 8.40953 117.905 8.6003C124.359 12.3138 130.179 16.8199 135.366 22.1187C135.71 22.472 136.094 22.528 136.516 22.2867L143.417 18.4095ZM73.3308 6.31277C65.0982 9.1431 57.1888 12.5421 50.533 17.647C50.0677 18.0089 50.0936 18.3363 50.6105 18.6292L57.4731 22.4806C57.6816 22.596 57.921 22.642 58.156 22.6117C58.3911 22.5815 58.6093 22.4766 58.7784 22.3126C64.2237 17.0224 70.1989 12.4215 76.7039 8.50983C77.1347 8.25135 77.2295 7.9024 76.9882 7.46299C76.2473 6.11029 75.0281 5.72688 73.3308 6.31277ZM62.0611 24.7293L73.0206 28.3609C73.386 28.4819 73.7813 28.4777 74.1441 28.349C74.5068 28.2203 74.8164 27.9744 75.0238 27.6501L84.9494 12.1544C85.182 11.7925 85.1044 11.5211 84.7167 11.3402L81.266 9.76345C80.8094 9.55667 80.3614 9.5782 79.922 9.82807C73.3221 13.6363 67.2738 18.1726 61.7768 23.4369C61.6796 23.53 61.6077 23.6465 61.5683 23.7751C61.5289 23.9037 61.5233 24.0399 61.5519 24.1704C61.5806 24.3008 61.6427 24.4209 61.732 24.5189C61.8212 24.6169 61.9347 24.6895 62.0611 24.7293ZM120.581 28.6065L132.225 24.3416C132.914 24.0917 132.996 23.7126 132.471 23.2043C127.025 17.8969 120.964 13.4295 114.287 9.80222C113.83 9.55236 113.36 9.53082 112.878 9.7376L109.182 11.366C108.811 11.5297 108.738 11.7882 108.962 12.1414L119.521 28.2576C119.631 28.4261 119.795 28.5523 119.987 28.6157C120.18 28.679 120.389 28.6758 120.581 28.6065ZM88.9558 12.7101C88.742 12.6829 88.5249 12.7156 88.3286 12.8046C88.1324 12.8936 87.9647 13.0354 87.8443 13.2141L77.7378 28.2188C77.6285 28.384 77.5631 28.5743 77.548 28.7718C77.5328 28.9693 77.5683 29.1674 77.6512 29.3473C77.734 29.5272 77.8614 29.683 78.0213 29.7999C78.1812 29.9168 78.3684 29.9909 78.5649 30.0152L94.2546 31.8762C94.4177 31.8963 94.5833 31.8816 94.7404 31.8331C94.8974 31.7845 95.0424 31.7032 95.1657 31.5945C95.2891 31.4858 95.388 31.3522 95.4559 31.2025C95.5238 31.0528 95.5593 30.8904 95.5599 30.726L95.534 14.5582C95.533 14.2751 95.4287 14.002 95.2408 13.7903C95.0528 13.5785 94.7941 13.4426 94.513 13.408L88.9558 12.7101ZM115.398 29.8601C115.569 29.8365 115.732 29.7698 115.87 29.6663C116.009 29.5628 116.118 29.4259 116.189 29.2683C116.26 29.1107 116.29 28.9377 116.276 28.7655C116.262 28.5932 116.205 28.4273 116.109 28.2834L106.132 13.1495C106.025 12.9853 105.873 12.8554 105.694 12.7752C105.515 12.695 105.317 12.6679 105.124 12.6972L99.5792 13.5243C99.3383 13.5613 99.1186 13.6833 98.9598 13.8682C98.801 14.0531 98.7136 14.2886 98.7133 14.5324L98.6875 30.8682C98.6881 31.0128 98.7195 31.1556 98.7795 31.2871C98.8395 31.4187 98.9268 31.536 99.0355 31.6313C99.1442 31.7266 99.272 31.7977 99.4103 31.84C99.5486 31.8822 99.6943 31.8945 99.8377 31.8762L115.398 29.8601Z" fill="#013583"/>
<path d="M181.749 115.804C169.264 121.257 156.564 121.761 143.649 117.316C123.94 110.518 118.925 90.1754 122.79 71.6296C125.4 59.1106 132.832 50.9901 145.083 47.268C159.765 42.7964 178.983 44.2568 190.446 55.5006C202.569 67.4035 202.065 90.2271 194.996 104.25C192.514 109.178 188.099 113.029 181.749 115.804ZM172.907 73.4379C172.895 72.0802 172.616 70.7381 172.085 69.4883C171.555 68.2385 170.783 67.1054 169.815 66.1537C168.846 65.2021 167.7 64.4505 166.441 63.9419C165.182 63.4332 163.836 63.1775 162.478 63.1894L159.144 63.2185C156.402 63.2424 153.781 64.3546 151.86 66.3104C149.938 68.2662 148.871 70.9054 148.895 73.6474L149.053 91.7144C149.065 93.0721 149.344 94.4142 149.874 95.664C150.405 96.9138 151.176 98.0469 152.145 98.9986C153.113 99.9502 154.26 100.702 155.519 101.21C156.777 101.719 158.124 101.975 159.482 101.963L162.816 101.934C165.558 101.91 168.178 100.798 170.1 98.8419C172.022 96.8861 173.088 94.2469 173.065 91.5049L172.907 73.4379Z" fill="#155CAA"/>
<path d="M11.7737 45.3033L17.9125 45.3679L46.358 45.3938C46.8405 45.4024 47.0775 45.6479 47.0689 46.1304L46.9784 62.7894C46.9784 63.2891 46.7285 63.5389 46.2288 63.5389L36.7168 63.5906C36.3032 63.5906 36.0965 63.8017 36.0965 64.2239V100.191C36.0965 100.648 36.3291 100.876 36.7944 100.876L46.0996 100.773C46.2127 100.771 46.325 100.792 46.43 100.834C46.535 100.876 46.6305 100.939 46.7111 101.018C46.7917 101.097 46.8557 101.192 46.8993 101.296C46.943 101.401 46.9655 101.513 46.9655 101.626L47.0689 118.194C47.0689 118.642 46.8448 118.866 46.3968 118.866L0.762515 118.84C0.573996 118.84 0.393198 118.764 0.259894 118.628C0.12659 118.493 0.0516968 118.309 0.0516968 118.117L0 101.69C0 101.461 0.0912349 101.24 0.253623 101.078C0.416011 100.916 0.636248 100.824 0.865899 100.824L10.2874 100.786C10.7958 100.777 11.0499 100.523 11.0499 100.023L11.1404 64.1464C11.1404 64.0553 11.1223 63.9652 11.0871 63.8812C11.0518 63.7973 11.0002 63.7212 10.9352 63.6574C10.8703 63.5936 10.7932 63.5434 10.7086 63.5098C10.624 63.4761 10.5335 63.4597 10.4425 63.4614L0.801286 63.6036C0.616228 63.6069 0.43737 63.5353 0.304068 63.4044C0.170765 63.2736 0.0939314 63.0942 0.0904669 62.9057L0.0516968 46.1821C0.0516968 45.6566 0.314484 45.3895 0.840056 45.3809L11.7737 45.3033Z" fill="#155CAA"/>
<path d="M102.086 50.6026L101.918 47.6947C101.892 47.1692 102.147 46.9021 102.681 46.8934L116.651 46.7513C117.212 46.7513 117.492 47.027 117.492 47.5784L117.479 70.7122C117.479 71.3584 117.151 71.6858 116.496 71.6944H103.275C103.076 71.6947 102.879 71.6535 102.696 71.5734C102.514 71.4933 102.35 71.3761 102.215 71.2292C95.5123 63.673 87.017 60.4248 76.7295 61.4845C73.1453 61.8464 72.1545 63.436 73.757 66.2535C73.9046 66.5114 74.1015 66.7378 74.3365 66.9197C74.5716 67.1015 74.8402 67.2352 75.127 67.3132C84.7768 70.0789 94.2716 72.8791 103.611 75.7137C107.463 76.8855 110.87 79.13 113.834 82.4471C125.802 95.8492 118.913 115.429 101.543 119.073C89.731 121.546 78.5863 119.879 68.1093 114.072C68.0195 114.022 67.9181 113.997 67.8153 114C67.7125 114.002 67.6121 114.033 67.5241 114.088C67.4361 114.143 67.3638 114.221 67.3145 114.314C67.2652 114.406 67.2407 114.51 67.2434 114.615L67.4114 118.182C67.4373 118.63 67.2219 118.854 66.7652 118.854H51.9286C51.5236 118.854 51.3211 118.647 51.3211 118.233L51.3987 92.5148C51.4004 92.4113 51.4222 92.3091 51.4627 92.2141C51.5032 92.1192 51.5618 92.0332 51.635 91.9612C51.7082 91.8892 51.7946 91.8325 51.8893 91.7945C51.9841 91.7564 52.0852 91.7377 52.187 91.7394L64.7232 91.9591C65.2402 91.9677 65.6624 92.1788 65.9898 92.5924C73.6493 102.328 83.6568 105.508 96.012 102.13C96.3515 102.038 96.6554 101.846 96.8837 101.579C97.112 101.311 97.2542 100.981 97.2915 100.631C97.4466 99.106 96.5376 98.0333 94.5645 97.413C85.8624 94.6645 77.1431 91.9591 68.4065 89.2968C60.6781 86.9446 53.9318 81.8397 51.3858 74.0466C47.4957 62.1695 54.5263 50.2407 66.6618 46.8159C78.9395 43.3609 90.5193 44.7653 101.401 51.0291C101.884 51.3048 102.112 51.1626 102.086 50.6026Z" fill="#155CAA"/>
<path d="M99.6177 129.529L117.931 131.946C118.336 132.006 118.642 131.86 118.848 131.507C119.908 129.762 121.046 125.497 123.747 126.751C123.837 126.792 123.919 126.852 123.986 126.925C124.053 126.999 124.104 127.086 124.137 127.18C124.17 127.274 124.183 127.374 124.176 127.474C124.169 127.573 124.141 127.67 124.096 127.759L121.899 131.959C121.623 132.493 121.769 132.864 122.338 133.071L135.197 137.671C135.585 137.809 135.925 137.736 136.218 137.452C139.044 134.669 141.504 131.584 143.598 128.198C144.373 126.945 145.614 126.26 147.01 126.647C147.134 126.684 147.248 126.75 147.342 126.84C147.435 126.931 147.505 127.042 147.546 127.165C147.587 127.289 147.597 127.42 147.575 127.548C147.554 127.677 147.502 127.798 147.423 127.901L139.049 139.041C138.859 139.291 138.898 139.494 139.165 139.649L147.087 144.224C147.224 144.304 147.383 144.339 147.543 144.326C147.702 144.312 147.855 144.249 147.979 144.146C153.726 139.382 158.77 134.005 163.113 128.017C164.043 126.738 165.142 126.079 166.576 126.983C166.635 127.02 166.686 127.068 166.725 127.125C166.764 127.182 166.792 127.246 166.805 127.314C166.818 127.382 166.818 127.452 166.803 127.52C166.788 127.587 166.759 127.651 166.719 127.707C132.47 177.051 62.6166 176.728 28.3036 127.72C28.2418 127.632 28.2021 127.53 28.188 127.423C28.1739 127.316 28.1857 127.207 28.2224 127.106C28.2592 127.004 28.3198 126.913 28.3992 126.84C28.4785 126.767 28.5743 126.714 28.6784 126.686C29.8416 126.376 30.8065 126.755 31.5734 127.823C36.0536 134.061 41.3051 139.563 47.3276 144.327C47.6809 144.603 48.047 144.629 48.4261 144.405L55.8315 140.049C56.2709 139.8 56.3356 139.472 56.0254 139.067L47.5473 128.069C47.2199 127.638 47.263 127.246 47.6766 126.893C48.7363 126.014 49.5936 126.044 50.2484 126.983C52.8504 130.714 55.6635 134.29 58.6877 137.71C58.9548 138.003 59.2736 138.081 59.6441 137.943L73.2271 132.967C73.5545 132.847 73.6407 132.627 73.4856 132.308L71.1205 127.539C71.0726 127.442 71.0493 127.335 71.0528 127.226C71.0563 127.118 71.0865 127.013 71.1405 126.92C71.1946 126.828 71.2708 126.751 71.3621 126.696C71.4535 126.642 71.5571 126.612 71.6633 126.609L73.1108 126.557C73.3529 126.549 73.592 126.612 73.7987 126.738C74.0054 126.865 74.1706 127.049 74.274 127.268L76.2901 131.378C76.3732 131.544 76.5043 131.682 76.6659 131.772C76.8275 131.862 77.0119 131.9 77.1947 131.882L95.5855 129.801C95.6942 129.788 95.7989 129.752 95.8924 129.695C95.986 129.638 96.0661 129.561 96.1274 129.471C96.1887 129.38 96.2298 129.277 96.2478 129.169C96.2658 129.061 96.2603 128.95 96.2317 128.844C95.7922 127.182 96.4083 126.402 98.0798 126.505C98.3205 126.523 98.5467 126.625 98.7175 126.794C98.8883 126.962 98.9922 127.185 99.0103 127.423L99.1654 129.051C99.1912 129.336 99.342 129.495 99.6177 129.529ZM79.1592 134.415C78.9786 134.435 78.8063 134.502 78.6588 134.608C78.5113 134.714 78.3936 134.856 78.3171 135.021C78.2405 135.186 78.2076 135.368 78.2215 135.549C78.2355 135.73 78.2958 135.905 78.3967 136.056L88.2835 151.151C88.3873 151.31 88.532 151.439 88.7026 151.523C88.8731 151.607 89.0631 151.644 89.2528 151.629L95.1331 151.177C95.396 151.154 95.641 151.035 95.8203 150.841C95.9996 150.647 96.1002 150.394 96.1024 150.13L96.3738 133.6C96.3768 133.449 96.3471 133.298 96.2868 133.159C96.2265 133.019 96.1369 132.894 96.0242 132.793C95.9114 132.691 95.7781 132.615 95.6333 132.569C95.4885 132.523 95.3355 132.509 95.1848 132.528L79.1592 134.415ZM117.155 135.914C117.238 135.786 117.286 135.64 117.296 135.489C117.306 135.338 117.278 135.186 117.213 135.049C117.148 134.912 117.05 134.794 116.927 134.705C116.804 134.617 116.66 134.561 116.509 134.544L100.044 132.567C99.9187 132.552 99.7916 132.564 99.6711 132.602C99.5507 132.64 99.4398 132.704 99.3457 132.788C99.2516 132.872 99.1765 132.976 99.1254 133.091C99.0742 133.207 99.0482 133.332 99.0491 133.458L99.0749 150.221C99.077 150.44 99.1598 150.651 99.3077 150.813C99.4555 150.975 99.6579 151.077 99.8762 151.099L106.144 151.771C106.308 151.788 106.472 151.76 106.621 151.689C106.769 151.619 106.895 151.508 106.984 151.371L117.155 135.914ZM81.4338 154.873L85.2851 153.322C85.7331 153.141 85.8279 152.848 85.5694 152.443L75.0881 136.095C74.8641 135.733 74.5497 135.625 74.1447 135.772L62.2676 139.972C61.5611 140.222 61.475 140.605 62.0092 141.122C67.4631 146.412 73.477 150.966 80.0509 154.783C80.4989 155.041 80.9599 155.071 81.4338 154.873ZM110.306 153.309L113.343 154.615C113.573 154.716 113.822 154.763 114.073 154.754C114.323 154.745 114.569 154.68 114.79 154.563C121.537 150.97 127.576 146.43 132.91 140.941C133.427 140.416 133.336 140.028 132.638 139.778L121.291 135.823C120.86 135.677 120.52 135.793 120.27 136.172L109.957 152.172C109.629 152.689 109.746 153.068 110.306 153.309ZM144.192 145.878L137.019 142.014C136.563 141.764 136.154 141.829 135.792 142.208C130.682 147.489 124.931 152.026 118.538 155.817C118.205 156.014 117.954 156.325 117.834 156.694C117.715 157.062 117.733 157.462 117.887 157.817C118.041 158.173 118.32 158.46 118.671 158.625C119.021 158.789 119.42 158.82 119.792 158.712C128.597 156.187 136.752 152.254 144.257 146.912C144.791 146.533 144.77 146.188 144.192 145.878ZM51.0626 146.925C58.3388 152.353 66.7652 156.282 75.4112 158.686C75.771 158.787 76.1563 158.754 76.4947 158.592C76.8332 158.431 77.1014 158.153 77.249 157.81C77.3966 157.467 77.4135 157.083 77.2964 156.731C77.1793 156.378 76.9363 156.08 76.6132 155.894C70.2288 152.086 64.413 147.571 59.1659 142.35C58.7437 141.919 58.2698 141.859 57.7443 142.169L51.1014 146.098C50.6706 146.348 50.6577 146.623 51.0626 146.925ZM114.803 158.531C103.831 152.405 90.5193 151.797 80.0639 158.893C79.9647 158.96 79.8876 159.054 79.8421 159.165C79.7967 159.276 79.785 159.397 79.8085 159.515C79.8319 159.632 79.8895 159.74 79.9741 159.825C80.0586 159.909 80.1663 159.967 80.2836 159.991C91.6824 162.343 103.103 162.386 114.545 160.12C114.717 160.084 114.875 159.996 114.997 159.868C115.119 159.741 115.199 159.58 115.227 159.407C115.256 159.234 115.23 159.057 115.154 158.901C115.078 158.744 114.956 158.615 114.803 158.531Z" fill="#013583"/>
<path d="M136.398 178.775L130.702 182.211C130.595 182.277 130.473 182.313 130.348 182.314C130.222 182.315 130.099 182.283 129.991 182.219C129.883 182.155 129.795 182.064 129.735 181.953C129.676 181.843 129.648 181.719 129.654 181.594L129.805 177.68C129.811 177.505 129.87 177.336 129.974 177.194C130.078 177.053 130.222 176.946 130.387 176.888C133.851 175.646 136.409 173.397 138.063 170.144C138.162 169.951 138.312 169.789 138.497 169.676C138.682 169.563 138.895 169.503 139.112 169.503L142 169.492C142.396 169.492 142.594 169.69 142.594 170.086L142.641 198.507C142.641 198.965 142.412 199.194 141.954 199.194L137.632 199.229C137.213 199.237 137.007 199.031 137.015 198.611L137.073 179.148C137.073 178.627 136.848 178.503 136.398 178.775Z" fill="#10509B"/>
<path d="M71.8915 187.639C58.6827 196.608 52.3462 169.527 68.4903 169.632C79.0201 169.713 79.1016 182.829 77.995 189.934C77.4592 193.397 76.2517 195.96 74.3725 197.622C69.9346 201.559 60.9424 200.569 59.7426 193.382C59.6883 193.025 59.8203 192.768 60.1387 192.613C62.9264 191.239 64.9299 191.771 66.149 194.209C66.3276 194.566 66.6072 194.811 66.9877 194.943C71.0179 196.375 72.8699 190.901 72.5205 187.931C72.4739 187.48 72.2642 187.383 71.8915 187.639ZM68.5468 185.36C69.0722 185.332 69.5847 185.16 70.055 184.854C70.5253 184.548 70.9442 184.115 71.2878 183.578C71.6313 183.042 71.8929 182.413 72.0574 181.728C72.2219 181.042 72.2863 180.314 72.2468 179.584C72.2072 178.854 72.0646 178.136 71.827 177.473C71.5894 176.809 71.2615 176.212 70.862 175.716C70.4625 175.22 69.9992 174.834 69.4986 174.581C68.9981 174.328 68.47 174.212 67.9446 174.241C67.4192 174.269 66.9067 174.441 66.4364 174.747C65.9661 175.053 65.5472 175.486 65.2036 176.022C64.86 176.559 64.5985 177.188 64.4339 177.873C64.2694 178.558 64.2051 179.287 64.2446 180.017C64.2841 180.747 64.4268 181.464 64.6644 182.128C64.902 182.792 65.2299 183.389 65.6294 183.885C66.0289 184.381 66.4921 184.767 66.9927 185.02C67.4933 185.273 68.0213 185.388 68.5468 185.36Z" fill="#10509B"/>
<path d="M95.1055 170.085C97.3031 170.924 99.0891 172.776 100.464 175.642C101.799 181.062 101.939 186.575 100.883 192.182C99.0426 201.978 85.4377 202.595 83.0615 193.09C80.8717 184.284 81.1047 166.509 95.1055 170.085ZM91.7406 195.629C92.2637 195.632 92.7832 195.354 93.2694 194.81C93.7555 194.267 94.1989 193.468 94.5741 192.461C94.9493 191.454 95.249 190.257 95.4561 188.94C95.6632 187.623 95.7736 186.21 95.7811 184.783C95.7886 183.356 95.6929 181.942 95.4997 180.622C95.3064 179.303 95.0192 178.103 94.6546 177.092C94.29 176.081 93.855 175.278 93.3746 174.73C92.8941 174.181 92.3776 173.897 91.8545 173.894C91.3313 173.892 90.8118 174.17 90.3257 174.714C89.8395 175.257 89.3961 176.055 89.0209 177.063C88.6457 178.07 88.346 179.266 88.1389 180.584C87.9318 181.901 87.8214 183.314 87.8139 184.741C87.8064 186.168 87.9021 187.582 88.0953 188.901C88.2886 190.221 88.5758 191.421 88.9404 192.432C89.305 193.443 89.74 194.245 90.2204 194.794C90.7009 195.343 91.2174 195.627 91.7406 195.629Z" fill="#10509B"/>
<path d="M112.857 169.794C125.507 167.861 124.878 182.165 124.307 190.132C123.927 195.482 121.485 198.67 116.981 199.695C113.611 200.464 110.866 199.78 108.746 197.645C103.504 192.345 103.096 171.297 112.857 169.794ZM118.414 177.821C118.416 177.379 118.33 176.94 118.163 176.531C117.995 176.122 117.748 175.75 117.437 175.437C117.125 175.123 116.755 174.874 116.347 174.703C115.939 174.533 115.502 174.444 115.06 174.443L114.757 174.441C113.864 174.438 113.007 174.79 112.373 175.419C111.74 176.048 111.382 176.903 111.379 177.796L111.331 191.634C111.329 192.076 111.415 192.514 111.582 192.923C111.75 193.332 111.997 193.704 112.308 194.017C112.62 194.331 112.99 194.58 113.398 194.751C113.806 194.922 114.243 195.01 114.685 195.012L114.988 195.013C115.881 195.016 116.738 194.664 117.372 194.035C118.005 193.406 118.363 192.551 118.366 191.658L118.414 177.821Z" fill="#10509B"/>
<path d="M64.2446 180.017C64.4109 183.088 66.3371 185.48 68.5468 185.36C70.7565 185.24 72.413 182.654 72.2468 179.584C72.0805 176.513 70.1543 174.121 67.9446 174.241C65.7349 174.36 64.0783 176.947 64.2446 180.017Z" fill="#EDEDED"/>
</svg>
