<svg width="56" height="83" viewBox="0 0 56 83" fill="none" xmlns="http://www.w3.org/2000/svg">
<path fill-rule="evenodd" clip-rule="evenodd" d="M27.5086 5.76686L24.9653 5.37409L16.4435 0.10142C16.3287 0.0299936 16.195 -0.00531643 16.0601 0.000648481C15.8042 0.0128366 15.5779 0.169712 15.4767 0.404842L11.6039 9.37832L6.11053 16.5082C6.07489 16.5543 6.04535 16.6049 6.02279 16.6585L3.95756 21.5904C3.90155 21.7238 3.89018 21.8718 3.92524 22.0121L5.15069 26.9001L5.97196 38.5567C5.97951 38.6658 6.01361 38.7712 6.07128 38.864L10.7595 46.4041L12.491 51.8233L8.70822 59.39C8.66441 59.4776 8.64035 59.5738 8.63777 59.6717L8.44024 67.1459L4.45422 75.9071L2.69743 77.1385L0.6103 77.3231C0.306561 77.35 0.0594547 77.5791 0.00921194 77.8798C-0.0410723 78.1806 0.118203 78.4773 0.396592 78.6017L10.0596 82.9191C10.2828 83.0191 10.5427 82.9892 10.7376 82.8419L16.2425 78.6756L16.8569 79.2901C16.9447 79.3776 17.0551 79.4394 17.1758 79.4676L21.4944 80.4936C21.6994 80.5422 21.9156 80.492 22.0776 80.3571L23.9893 78.7669L25.6226 81.0571C25.7397 81.2213 25.9247 81.3242 26.1261 81.3367L32.7097 81.7503C33.0685 81.7727 33.3809 81.508 33.4179 81.1508L33.5992 79.4041L36.6241 77.3139C36.7233 77.2455 36.8025 77.1517 36.8527 77.0422L39.118 72.1104C39.1333 72.0772 39.1462 72.0436 39.1562 72.0088L42.0135 61.5939L43.1789 59.4639L44.7696 57.6666C44.8102 57.6205 44.8442 57.5695 44.8712 57.5143L49.988 46.8833L52.4147 43.6434C52.4894 43.5434 52.5346 43.4244 52.5454 43.3003L52.7171 41.361L55.3197 39.6862C55.5014 39.5695 55.6159 39.372 55.6267 39.1561L55.8392 34.8374C55.847 34.681 55.7993 34.527 55.7051 34.402L55.1579 33.6755L52.5138 25.7554C52.4209 25.4765 52.157 25.291 51.8633 25.2978C51.5691 25.3045 51.3144 25.5021 51.2343 25.7848L50.3243 28.9809L50.2743 29.1564C50.2668 29.1082 50.254 29.0609 50.2361 29.0155L48.3836 24.2845C48.3625 24.2307 48.3347 24.1798 48.3003 24.1332L46.047 21.0539C45.9681 20.9462 45.8598 20.8659 45.7372 20.8211C45.6735 20.7977 45.6059 20.784 45.5367 20.7809C45.3338 20.7719 45.138 20.8554 45.004 21.0078L44.7372 21.3114V19.5963C44.7368 19.3858 44.6376 19.1878 44.4692 19.0615L42.0263 17.2261L36.1507 11.9661L33.9365 8.34517C33.8593 8.21847 33.7423 8.12097 33.6037 8.06795L27.6449 5.80283C27.6009 5.78607 27.5553 5.77404 27.5086 5.76686ZM45.4834 21.9771L47.4684 24.6898L49.305 29.3801M45.4834 21.9771L43.7372 23.9648V19.7623L41.3913 17.9998L35.3742 12.6132L33.1416 8.96207L27.322 6.7499L24.6119 6.33137L16.2429 1.15324L12.4724 9.8895L6.92815 17.0855L4.92208 21.8761L6.14204 26.7422L6.96379 38.4056L11.6743 45.9815L13.5674 51.9065L9.63548 59.7715L9.43453 67.3753L5.25151 76.5694L3.05219 78.111L1.96485 78.2072L10.2898 81.9267L16.3336 77.3525L17.4973 78.5162L21.5652 79.4826L24.178 77.3092L26.3455 80.3485L32.4559 80.7324L32.652 78.8431L35.9819 76.5422L38.2007 71.7116L41.0801 61.2165L42.3556 58.8853L43.9909 57.0375L49.1292 46.3618L51.5574 43.1199L51.7642 40.785L54.6363 38.9369L54.8345 34.9082L54.261 34.1468L51.9037 27.0857L51.2361 29.4303L49.2861 29.3095C49.29 29.3348 49.2965 29.3585 49.305 29.3801M26.19 80.3387C26.1893 80.3387 26.1885 80.3386 26.1878 80.3386L26.1888 80.3387L26.19 80.3387ZM26.4363 80.4758C26.4361 80.4755 26.4365 80.476 26.4363 80.4758ZM17.4034 78.4939C17.4046 78.4941 17.4057 78.4944 17.4069 78.4947L17.4034 78.4939Z" fill="white" fill-opacity="0.3"/>
<path d="M17.4437 35.6406C18.4677 35.6406 19.337 35.8593 20.0517 36.2966C20.777 36.7233 21.3317 37.3473 21.7157 38.1686C22.0997 38.99 22.2917 40.0033 22.2917 41.2086C22.2917 42.4886 22.057 43.5713 21.5877 44.4566C21.129 45.342 20.489 46.014 19.6677 46.4726C18.8463 46.9313 17.8917 47.1606 16.8037 47.1606C16.2383 47.1606 15.6997 47.102 15.1877 46.9846C14.6757 46.8673 14.233 46.686 13.8597 46.4406L14.6277 44.8726C14.937 45.0753 15.273 45.2193 15.6357 45.3046C15.9983 45.3793 16.3717 45.4166 16.7557 45.4166C17.8117 45.4166 18.649 45.0913 19.2677 44.4406C19.8863 43.79 20.1957 42.83 20.1957 41.5606C20.1957 41.358 20.1903 41.1233 20.1797 40.8566C20.169 40.5793 20.1317 40.302 20.0677 40.0246L20.7077 40.7286C20.5263 41.166 20.265 41.534 19.9237 41.8326C19.5823 42.1206 19.1823 42.3393 18.7237 42.4886C18.265 42.638 17.7583 42.7126 17.2037 42.7126C16.4783 42.7126 15.8223 42.574 15.2357 42.2966C14.6597 42.0086 14.201 41.6086 13.8597 41.0966C13.5183 40.574 13.3477 39.966 13.3477 39.2726C13.3477 38.526 13.529 37.886 13.8917 37.3526C14.2543 36.8086 14.745 36.3873 15.3637 36.0886C15.993 35.79 16.6863 35.6406 17.4437 35.6406ZM17.5557 37.2726C17.129 37.2726 16.7503 37.3526 16.4197 37.5126C16.089 37.662 15.8277 37.8806 15.6357 38.1686C15.4543 38.446 15.3637 38.782 15.3637 39.1766C15.3637 39.7633 15.5663 40.2273 15.9717 40.5686C16.377 40.91 16.921 41.0806 17.6037 41.0806C18.0517 41.0806 18.4463 41.0006 18.7877 40.8406C19.129 40.67 19.3957 40.4406 19.5877 40.1526C19.7797 39.854 19.8757 39.5233 19.8757 39.1606C19.8757 38.8086 19.785 38.494 19.6037 38.2166C19.4223 37.9286 19.161 37.6993 18.8197 37.5286C18.4783 37.358 18.057 37.2726 17.5557 37.2726Z" fill="#00D1FF"/>
<path d="M25.4928 47.0006L30.1168 36.6326L30.6608 37.5606H24.3088L25.3008 36.5526V39.4646H23.3648V35.8006H32.0688V37.1926L27.7168 47.0006H25.4928Z" fill="#00D1FF"/>
<path d="M36.7502 47.1606C35.9608 47.1606 35.1875 47.0486 34.4302 46.8246C33.6835 46.59 33.0542 46.27 32.5422 45.8646L33.4382 44.2486C33.8435 44.5793 34.3342 44.846 34.9102 45.0486C35.4862 45.2513 36.0888 45.3526 36.7182 45.3526C37.4648 45.3526 38.0462 45.2033 38.4622 44.9046C38.8782 44.5953 39.0862 44.1793 39.0862 43.6566C39.0862 43.1446 38.8942 42.7393 38.5102 42.4406C38.1262 42.142 37.5075 41.9926 36.6542 41.9926H35.6302V40.5686L38.8302 36.7606L39.1022 37.5446H33.0862V35.8006H40.7182V37.1926L37.5182 41.0006L36.4302 40.3606H37.0542C38.4302 40.3606 39.4595 40.67 40.1422 41.2886C40.8355 41.8966 41.1822 42.6806 41.1822 43.6406C41.1822 44.27 41.0222 44.8513 40.7022 45.3846C40.3822 45.918 39.8915 46.35 39.2302 46.6806C38.5795 47.0006 37.7528 47.1606 36.7502 47.1606Z" fill="#00D1FF"/>
</svg>
