<svg width="93" height="85" viewBox="0 0 93 85" fill="none" xmlns="http://www.w3.org/2000/svg">
<mask id="path-1-outside-1_260_5077" maskUnits="userSpaceOnUse" x="0.106445" y="0" width="93" height="85" fill="black">
<rect fill="white" x="0.106445" width="93" height="85"/>
<path fill-rule="evenodd" clip-rule="evenodd" d="M22.3233 80.722L22.9849 80.9424L23.5446 80.7337L24.2338 80.1204L24.3385 80.0845L25.062 80.1365L25.953 80.0203L26.0291 80.032L26.864 80.4048C27.4189 80.0441 27.4218 80.0481 27.9453 79.6416C27.9453 79.6416 28.2262 79.5828 28.4317 79.5981C28.5983 79.6111 28.8439 79.621 28.8439 79.621L28.7031 78.7743C28.7031 78.7743 28.7069 78.6895 28.743 78.6209C28.9315 78.27 29.4751 78.2727 29.555 77.8913C29.6255 77.5602 29.515 77.1914 29.6997 76.9082L29.7625 76.8472L30.5412 76.4466L31.08 75.8319L31.891 75.2252L32.6335 74.6455L33.2142 73.9106L33.2513 73.877L34.069 73.3735L34.6887 72.7539L34.7182 72.731L35.5807 72.2361L35.9547 71.4096L35.9729 71.38L36.5688 70.6316L36.6906 69.5198C36.6982 69.4862 36.6982 69.4862 36.7134 69.4565L37.276 68.5996L37.6692 67.992L37.3646 67.2427L37.0885 66.257L37.0837 66.213L37.1228 65.0648L37.1237 64.0266L37.2389 62.8264L37.0105 61.8249C36.7182 61.0119 36.7534 60.9859 36.247 60.2873L35.7244 59.3621L35.7101 59.3231C35.6197 58.9237 35.6645 58.4782 35.9138 58.1587C35.9138 58.1587 35.9186 58.1484 35.9586 58.1103L36.7486 57.5001C36.9257 57.2618 37.0038 56.8795 36.7867 56.7499C36.6126 56.644 36.3974 56.6247 36.189 56.5798C36.1347 56.5686 36.1794 56.6094 35.9719 56.5197L35.1666 56.0288C35.1666 56.0288 34.5117 55.4931 34.6992 54.939C34.7896 54.6729 35.0476 54.4414 35.0581 54.2287C35.0647 54.0973 34.3622 54.0439 34.089 53.6558C33.8862 53.3677 33.9015 52.989 33.812 52.6763C33.7768 52.5506 33.732 52.4286 33.6911 52.3048C33.6797 52.2666 33.6797 52.2666 33.6683 52.2285C33.6045 52.0118 33.5531 51.7695 33.6701 51.5591C33.6797 51.5398 33.694 51.5245 33.7073 51.5084L34.4269 50.8618C34.4831 50.6429 34.2851 50.3862 34.0671 50.1812L33.3617 49.6338C33.3341 49.6051 33.3341 49.605 33.3151 49.5692L32.96 48.5762C32.96 48.5762 32.8182 47.8844 33.1733 47.4487C33.3703 47.2073 33.7044 46.9946 33.7387 46.8362L33.2799 46.1726C33.219 46.0439 33.238 46.0286 33.238 45.9716C33.2408 45.68 33.4569 45.4251 33.4655 45.1514L33.1228 44.403C33.021 44.0732 33.3846 43.6928 33.5464 43.3161L33.8424 42.3445L33.9215 42.2548L34.6326 41.9402C34.6706 41.9288 34.6706 41.9288 34.7106 41.9288L35.5654 42.0537L36.4155 42.353L36.9324 42.2873L36.9781 42.2892L37.7624 42.4427C37.7624 42.4427 37.812 42.4389 37.8672 42.5285L38.1451 43.1978C38.188 43.4105 38.0776 43.6546 38.1785 43.835C38.2831 44.0217 38.5373 44.0876 38.781 44.1284L38.8058 44.1311L38.6249 43.8758C38.5478 43.564 38.9904 43.4545 39.1913 43.3485C39.435 43.2141 39.6796 42.9957 39.7367 42.7879L38.9524 42.6429C38.9524 42.6429 38.8828 42.6201 38.8248 42.5657C38.5754 42.3312 38.6315 41.945 38.623 41.6427C38.6201 41.5617 38.6192 41.5578 38.6192 41.5578L38.425 40.6597L38.4221 40.6225L38.4612 39.8397C38.4859 39.7205 38.5192 39.7281 38.5526 39.7119C38.8124 39.588 39.0952 39.978 39.3036 40.2487C39.3693 40.3346 39.4597 40.4604 39.4597 40.4604C39.9357 41.268 39.9357 41.268 40.404 42.0794L40.9295 42.456C40.9647 42.4923 40.9647 42.4923 40.9847 42.538L41.2189 43.4783L41.4988 44.2276L41.4959 44.5098C41.5282 44.7274 41.7976 44.7902 42.0071 44.8961L42.861 45.2299L43.7995 44.9666C44.0937 44.8988 43.9652 44.8979 44.3031 44.9486C44.5077 44.9791 44.7229 45.0846 44.7971 45.2955C44.938 45.6979 44.6277 46.2422 45.0094 46.3404C45.2836 46.4109 45.5787 46.3615 45.8756 46.3454L45.9385 46.3422L47.1492 46.4243L48.2583 46.6617L49.1929 46.9471L50.0795 47.3491C50.2944 47.4635 50.5183 47.6151 50.7324 47.5784L51.5032 46.965L51.6203 46.9363C52.2135 47.0547 52.8142 47.2369 53.2616 46.86L53.931 46.1147L53.9983 46.0717L55.1236 45.7522L56.1089 45.6342L56.1574 45.6369L56.6989 45.7581L57.2311 45.5835L58.0867 45.426L58.9948 45.1218C59.1025 45.0276 59.1909 44.9123 59.2874 44.8046C59.3089 44.7795 59.3089 44.7795 59.3318 44.7557C59.4776 44.6054 59.7459 44.4937 59.7697 44.4919C59.7832 44.4905 59.7957 44.4905 59.8078 44.4905L60.5782 44.5776L61.0808 43.9319C61.3679 43.6887 61.7812 43.774 62.1145 43.8004L63.0159 43.669L63.7764 43.071L64.4809 42.4341L64.5325 42.4046L65.5967 42.0527L65.6317 42.0461L66.7826 41.9688L67.7186 41.5827L68.5751 41.2661L68.6123 41.2575L69.5739 41.1793C69.5739 41.1793 69.8718 41.2671 70.0504 41.3185C70.158 41.3471 70.325 41.33 70.325 41.33L70.757 40.9743C70.757 40.9743 70.8405 40.9266 70.9347 40.9266C71.3022 40.9266 71.5373 41.3252 71.8756 41.3948C72.1888 41.4587 72.48 41.2728 72.7676 41.144C72.7676 41.144 72.795 41.1278 72.8618 41.1049L73.9543 40.8237L75.0671 40.7655L75.9573 40.5958L76.6514 40.0752C76.6828 40.0571 76.6837 40.0571 76.7187 40.0475L77.7955 39.9084L78.7463 39.8788C79.6517 39.5251 79.6517 39.5231 80.5284 39.1036L80.6141 39.0912L81.5537 39.2504L82.6283 39.3038L83.7392 39.5251L84.79 39.6413L85.5954 39.6623L85.6277 39.6662L86.5264 39.9036L87.5952 40.0752C88.5302 40.0886 88.5311 40.0895 89.4621 39.997L89.5438 40.0142L90.4519 40.5109L91.3098 40.8246C91.4879 40.8961 91.6638 40.9991 91.8428 41.0087L91.802 40.714L91.4669 40.5767L90.5892 40.1047L89.7497 39.5708L88.8807 39.5336L88.3853 39.505L87.2802 39.5718C87.2403 39.5689 87.2403 39.5689 87.203 39.5546L86.3133 39.0664L85.5622 38.44L84.5428 38.1472L83.4754 37.7916L83.4336 37.7687L82.6274 37.149L81.8754 36.4729L81.8399 36.4243L81.4087 35.4403L80.9502 34.5202L80.2188 33.8595L80.178 33.7956L79.9133 32.9308L79.1595 32.3281L78.8006 31.8762L78.0679 31.3136C77.3576 30.958 77.3567 30.9609 76.637 30.6262L75.7832 30.0608L74.8872 29.8004C74.6408 29.668 74.5219 29.2646 74.316 29.1731L73.4805 29.4791C73.4805 29.4791 73.2481 29.4534 73.1193 29.2961C72.9654 29.1082 72.8883 28.8479 72.7093 28.723C72.6141 28.6573 72.4894 28.6887 72.3884 28.7154C72.2027 28.7659 72.1628 28.7869 72.0533 28.8212C71.8944 28.8689 71.7307 28.9023 71.5651 28.8851C71.2587 28.8537 70.989 28.6849 70.714 28.5638C70.6381 28.5314 70.6368 28.5323 70.6368 28.5323C69.525 28.4179 69.5214 28.4198 68.4095 28.5428L67.9164 28.5266L67.863 28.5142L67.1272 28.1824L66.1764 28.2196C65.8381 28.192 65.5451 27.8306 65.192 27.8459L64.4961 28.0356C64.4961 28.0356 64.4369 28.047 64.357 28.0203C64.064 27.924 63.9173 27.6065 63.7262 27.412L62.8495 26.8742L62.8122 26.8409L62.1868 26.0562L61.4814 25.3229L60.8815 24.482L60.3732 23.5847L59.8213 22.8877L59.7984 22.8467L59.4879 21.9819L59.0931 21.1209C59.0837 21.0885 59.0837 21.0885 59.0805 21.0551L59.1218 20.0635L59.1985 19.131C59.1721 18.9832 59.1236 18.8402 59.0828 18.6953C59.0729 18.66 59.0729 18.6609 59.0635 18.6257C59.0056 18.3987 59.0415 18.0707 59.05 18.0526C59.0568 18.0393 59.0644 18.0259 59.072 18.0126L59.5997 17.3232L59.6907 16.5118L59.7015 16.4718L60.0735 15.5945C60.1726 15.2465 60.0762 14.8747 59.9734 14.5181L59.7576 13.7877C59.4902 13.002 59.5481 12.961 59.02 12.3222L58.998 12.286L58.7198 11.6157L58.7104 11.5804L58.5722 10.5363L58.4591 9.74113C57.9858 9.09086 57.9772 9.08512 57.2957 8.65985L56.5343 8.11067L55.9003 7.41938L55.1483 6.81963L54.5915 6.25232L53.9211 6.10551C53.6977 6.01967 53.7165 5.71457 53.7309 5.50575C53.7453 5.31408 53.8139 5.11006 53.7412 4.93844C53.7044 4.84879 53.4787 4.906 53.2818 4.92224C52.9237 4.94988 53.0529 4.93651 52.9655 4.91843L52.1973 4.68861C52.0497 4.69243 51.9052 4.73725 51.7585 4.76682C51.5099 4.81447 51.4139 4.85835 51.2694 4.67242L51.2434 4.61804L51.1245 4.12511L50.5336 3.77519C50.3259 3.60639 50.4829 3.22883 50.5812 3L50.3124 3.16781L50.2581 3.18782L49.5644 3.29748L49.1162 3.88767L48.6904 4.82403L48.663 4.86405L47.9698 5.58966L47.9366 5.61541L47.0303 6.1274L46.2145 6.60036L45.3264 6.97218L44.9552 7.94192L44.9228 7.9915L44.3355 8.58739L44.2621 8.62652L43.3255 8.81339L42.7296 9.56377L42.7001 9.59141L41.8719 10.1778L41.197 10.7041L40.8162 11.692L40.4088 12.7389C40.3907 12.7684 40.3726 12.798 40.3545 12.8275C40.305 12.9038 40.2546 12.9801 40.2061 13.0573C40.1051 13.2204 40.0356 13.4721 40.0356 13.4721L40.5934 14.0347L40.623 14.0766L41.0161 14.951L41.0285 15.0101V16.0188L41.296 16.9742L41.7691 17.9325L42.1146 18.9718L42.701 19.644C42.8457 19.7126 43.0066 19.7403 43.1627 19.7803C43.3369 19.8251 43.3598 19.8356 43.4473 19.8728C43.8062 20.0263 44.0128 20.463 44.2783 20.6556C44.3002 20.6718 44.3402 20.6861 44.3402 20.6861L44.8628 20.3133C44.8628 20.3133 44.9599 20.2666 45.0618 20.2752C45.4445 20.3086 45.6377 20.7081 45.8442 20.9874L46.3983 21.8608C46.4164 21.9028 46.4164 21.9037 46.4192 21.9495L46.3412 22.8963L46.3335 22.9335L46.0708 23.6496C46.1079 23.8622 46.2545 24.727 46.2955 24.8566C46.3573 25.054 46.5201 25.3 46.5201 25.3C46.5144 25.3897 46.4839 25.4106 46.4592 25.4354L45.9652 25.7787C45.8109 25.8445 45.7986 25.8216 45.7272 25.8273C45.4197 25.8493 45.0865 25.7253 44.8685 25.8817L44.7295 26.1953L44.8409 26.5739C44.8409 26.5739 44.8999 26.6387 44.7724 26.7398L44.2631 27.0201C44.225 27.0344 44.225 27.0344 44.1851 27.0373L42.9314 26.9543L42.3498 26.9667L41.6291 27.4721C41.3036 28.171 41.3064 28.1729 41.0332 28.8937L41.1703 29.79L41.1694 29.8424L40.9809 30.7034L40.6668 31.573C40.5478 31.9353 40.4535 32.3329 40.1346 32.5331C40.1099 32.5484 40.0833 32.5618 40.0556 32.5722L39.5587 32.7019L39.1684 33.0261C39.1504 33.3712 39.6282 33.685 39.4826 34.1226C39.3122 34.6327 38.6021 34.5812 38.148 34.689C38.1242 34.6947 38.0928 34.7099 38.0928 34.7099L38.2308 35.3059C38.2308 35.3059 38.2479 35.467 38.0975 35.4927C37.8148 35.5404 37.6045 35.0828 37.2684 35.0704L36.9819 35.2201L36.9286 35.2363L36.0881 35.3126C35.9614 35.3821 35.8634 35.4918 35.7549 35.59C35.5502 35.7693 35.455 35.8694 35.2684 35.6997L34.8734 35.2382C34.7192 35.2935 34.5735 35.5805 34.5735 35.5805L34.3337 36.4424L34.3193 36.4758L33.8862 37.2271L33.8501 37.2691L33.0495 37.8879C33.0495 37.8879 32.4289 38.1844 32.0119 37.9527C31.7064 37.784 31.5388 37.4102 31.5483 37.0469C31.5483 37.0469 31.5455 37.0422 31.556 36.9859L31.752 36.3023L31.714 35.9294C31.6892 35.9914 31.6644 36.0534 31.6407 36.1154C31.6083 36.2002 31.575 36.2841 31.5417 36.3681C31.5198 36.4243 31.5293 36.4357 31.4579 36.5597L30.8468 37.3683C30.8468 37.3683 30.2432 37.9909 29.8397 37.7735C29.5065 37.5942 29.536 37.129 29.595 36.8334L29.773 36.1154C29.6702 36.1526 29.5702 36.1974 29.4684 36.2384C29.4236 36.2556 29.4246 36.2556 29.3799 36.2727C28.9667 36.4272 28.5079 36.5244 28.0938 36.3738C27.9729 36.3299 27.8482 36.2498 27.8111 36.1173L27.8244 36.0077L28.2766 35.2258C28.4327 34.8749 28.3937 34.3267 28.843 34.32L28.9086 34.3324L29.1733 34.4506C29.2771 34.5145 29.258 34.423 29.2837 34.6318C29.318 34.9207 29.0362 35.1257 28.8706 35.3488C28.8706 35.3488 29.5369 35.3164 29.7273 34.9197C29.832 34.7023 29.8225 34.4449 29.8815 34.2056L29.9129 34.135L30.5431 33.3455C30.6849 33.2149 31.1466 33.0919 31.2961 32.8116C31.2961 32.8116 30.9143 32.5742 30.4746 32.5208L29.3551 32.7181C28.9791 32.864 28.5898 33.0242 28.1766 32.9813L28.111 32.9641L27.2599 32.536L26.4489 32.0364C26.2899 32.0087 26.1272 32.0107 25.9663 32.002C25.8873 31.9973 25.9368 32.0116 25.7626 31.9801C25.6084 31.9515 25.4494 31.7818 25.4494 31.7818C25.437 31.7427 25.437 31.7427 25.4361 31.7008L25.537 30.9523C25.5132 30.7387 25.3114 30.6043 25.1448 30.4984L24.2395 30.1952L23.1448 30.3592L22.3976 30.3964C22.3595 30.3935 22.3595 30.3935 22.3242 30.3802L21.6855 30.0474L21.1677 29.6927C21.042 29.5888 20.944 29.4477 20.8345 29.3199C20.685 29.1464 20.6917 29.0691 20.5375 29.0691L20.0863 29.5192C20.0863 29.5192 20.0101 29.5716 19.9263 29.5678C19.6589 29.5574 19.5018 29.2703 19.301 29.0177L19.2933 29.0081C19.0515 28.8193 18.8383 28.5857 18.568 28.4418C18.2843 28.2911 17.9644 28.2215 17.6541 28.1366C16.9107 27.9345 16.5404 27.9393 15.7455 27.8649C15.7455 27.8649 14.964 27.6589 14.8888 27.1193L14.8545 26.6712L14.2605 26.2201L14.2187 26.1706L13.8113 25.3563C13.619 25.1246 13.2867 25.0912 13.0126 25.0665L12.0121 24.8671C12.0121 24.8671 11.7132 24.6393 11.5428 24.502C11.4819 24.4543 11.3753 24.4019 11.3753 24.4019L10.9298 24.7842C10.8964 24.8328 10.865 24.8815 10.8327 24.931C10.8032 24.9768 10.7737 25.0216 10.7442 25.0665C10.6109 25.2628 10.4481 25.5184 10.1968 25.4974L9.33817 25.322C9.01835 25.2705 8.70324 25.3839 8.42052 25.526L7.53716 25.9217C7.11257 26.058 7.01265 25.8874 6.74039 26.0972L6.55095 26.9648C6.52145 27.0716 6.50145 27.0993 6.46433 27.1612C6.16638 27.6589 5.50003 27.7457 5.09928 28.0699C5.04407 28.1147 4.98695 28.2024 4.98695 28.2024L5.21636 29.133C5.25349 29.5402 5.04597 29.954 4.7109 30.1924C4.7109 30.1924 4.70423 30.2 4.65378 30.2267L3.64379 30.6176C3.35632 30.7988 2.91272 31.1506 3.34489 31.3461C3.62285 31.471 4.03122 31.4843 4.07977 31.7933C4.12927 32.1041 3.80372 32.2881 3.59049 32.4788L3.55527 32.5103L3.01172 33.2263L2.97364 34.3229V35.2592C2.97745 35.2877 2.98221 35.3164 2.98602 35.3459C3.05265 35.7578 3.14023 36.1488 2.83942 36.409C2.62905 36.5921 2.32919 36.6427 2.10645 36.799L2.4815 37.4054C2.64999 37.6953 2.64523 38.0509 2.62048 38.3914L2.65856 39.4268C2.87655 40.0313 3.07074 40.6549 3.41438 41.205C3.83799 41.883 4.18258 42.1071 4.77467 42.6248L4.79752 42.6496L5.38771 43.4792L5.41341 43.5469L5.52954 44.5978L5.87795 45.5709L5.87985 45.6607L5.59999 46.5827L5.23921 47.4787L5.46767 48.2998L5.69708 49.1277L5.70184 49.1618L5.72849 50.1847L6.00836 50.7725L6.62328 51.2966C6.68991 51.3675 6.68516 51.3769 6.70422 51.4074C6.86889 51.6838 6.89079 52.0212 6.87459 52.338C6.84412 52.8136 6.74609 53.3323 6.8356 53.7136C6.85745 53.8043 6.86602 53.8254 6.90223 54.0026C6.98977 54.4625 6.70611 54.8551 6.37866 55.2365C6.33296 55.2899 6.28442 55.3805 6.28442 55.3805C6.51097 55.6044 6.728 55.7951 7.06501 56.0127C7.22775 56.1195 7.38676 56.2464 7.47336 56.4228C7.64184 56.7629 7.52953 57.1685 7.39721 57.5001L7.06689 58.2381C7.06689 59.2028 7.06402 59.2059 7.22299 60.1585L7.22205 60.2096L7.0288 61.1775L7.06501 61.6562L7.22586 62.1834L7.7418 62.8053L7.77321 62.9215L7.69801 63.3545L7.77891 64.1334L7.85415 65.3951L7.85034 65.4368L7.58378 66.5428L7.88933 67.52C8.02739 67.7901 8.13875 68.0768 8.3044 68.3317C8.64231 68.8531 9.18301 69.391 9.6028 69.8411L10.1578 70.598L10.669 71.5057L10.6852 71.5523L10.8841 72.7225V73.7895L11.4391 74.5742L12.1806 75.232L12.2025 75.2576L12.7793 76.0827L13.479 76.7835C14.1958 77.483 14.2006 77.4821 15.0468 78.0169L15.7608 78.6209L15.8055 78.6882L16.1158 79.721L16.3119 80.7041L16.3148 80.7364C16.2967 81.3134 16.1749 81.9339 16.3452 82.4383C16.3728 82.5195 16.4443 82.6186 16.4443 82.6186C17.2515 82.8676 17.2553 82.8587 18.0872 83L19.0344 82.655L19.0706 82.6473L19.9188 82.5688L20.8402 82.2346C21.26 81.5719 21.6046 80.6933 22.2824 80.7144C22.2957 80.7176 22.309 80.7203 22.3233 80.722Z"/>
</mask>
<path fill-rule="evenodd" clip-rule="evenodd" d="M22.3233 80.722L22.9849 80.9424L23.5446 80.7337L24.2338 80.1204L24.3385 80.0845L25.062 80.1365L25.953 80.0203L26.0291 80.032L26.864 80.4048C27.4189 80.0441 27.4218 80.0481 27.9453 79.6416C27.9453 79.6416 28.2262 79.5828 28.4317 79.5981C28.5983 79.6111 28.8439 79.621 28.8439 79.621L28.7031 78.7743C28.7031 78.7743 28.7069 78.6895 28.743 78.6209C28.9315 78.27 29.4751 78.2727 29.555 77.8913C29.6255 77.5602 29.515 77.1914 29.6997 76.9082L29.7625 76.8472L30.5412 76.4466L31.08 75.8319L31.891 75.2252L32.6335 74.6455L33.2142 73.9106L33.2513 73.877L34.069 73.3735L34.6887 72.7539L34.7182 72.731L35.5807 72.2361L35.9547 71.4096L35.9729 71.38L36.5688 70.6316L36.6906 69.5198C36.6982 69.4862 36.6982 69.4862 36.7134 69.4565L37.276 68.5996L37.6692 67.992L37.3646 67.2427L37.0885 66.257L37.0837 66.213L37.1228 65.0648L37.1237 64.0266L37.2389 62.8264L37.0105 61.8249C36.7182 61.0119 36.7534 60.9859 36.247 60.2873L35.7244 59.3621L35.7101 59.3231C35.6197 58.9237 35.6645 58.4782 35.9138 58.1587C35.9138 58.1587 35.9186 58.1484 35.9586 58.1103L36.7486 57.5001C36.9257 57.2618 37.0038 56.8795 36.7867 56.7499C36.6126 56.644 36.3974 56.6247 36.189 56.5798C36.1347 56.5686 36.1794 56.6094 35.9719 56.5197L35.1666 56.0288C35.1666 56.0288 34.5117 55.4931 34.6992 54.939C34.7896 54.6729 35.0476 54.4414 35.0581 54.2287C35.0647 54.0973 34.3622 54.0439 34.089 53.6558C33.8862 53.3677 33.9015 52.989 33.812 52.6763C33.7768 52.5506 33.732 52.4286 33.6911 52.3048C33.6797 52.2666 33.6797 52.2666 33.6683 52.2285C33.6045 52.0118 33.5531 51.7695 33.6701 51.5591C33.6797 51.5398 33.694 51.5245 33.7073 51.5084L34.4269 50.8618C34.4831 50.6429 34.2851 50.3862 34.0671 50.1812L33.3617 49.6338C33.3341 49.6051 33.3341 49.605 33.3151 49.5692L32.96 48.5762C32.96 48.5762 32.8182 47.8844 33.1733 47.4487C33.3703 47.2073 33.7044 46.9946 33.7387 46.8362L33.2799 46.1726C33.219 46.0439 33.238 46.0286 33.238 45.9716C33.2408 45.68 33.4569 45.4251 33.4655 45.1514L33.1228 44.403C33.021 44.0732 33.3846 43.6928 33.5464 43.3161L33.8424 42.3445L33.9215 42.2548L34.6326 41.9402C34.6706 41.9288 34.6706 41.9288 34.7106 41.9288L35.5654 42.0537L36.4155 42.353L36.9324 42.2873L36.9781 42.2892L37.7624 42.4427C37.7624 42.4427 37.812 42.4389 37.8672 42.5285L38.1451 43.1978C38.188 43.4105 38.0776 43.6546 38.1785 43.835C38.2831 44.0217 38.5373 44.0876 38.781 44.1284L38.8058 44.1311L38.6249 43.8758C38.5478 43.564 38.9904 43.4545 39.1913 43.3485C39.435 43.2141 39.6796 42.9957 39.7367 42.7879L38.9524 42.6429C38.9524 42.6429 38.8828 42.6201 38.8248 42.5657C38.5754 42.3312 38.6315 41.945 38.623 41.6427C38.6201 41.5617 38.6192 41.5578 38.6192 41.5578L38.425 40.6597L38.4221 40.6225L38.4612 39.8397C38.4859 39.7205 38.5192 39.7281 38.5526 39.7119C38.8124 39.588 39.0952 39.978 39.3036 40.2487C39.3693 40.3346 39.4597 40.4604 39.4597 40.4604C39.9357 41.268 39.9357 41.268 40.404 42.0794L40.9295 42.456C40.9647 42.4923 40.9647 42.4923 40.9847 42.538L41.2189 43.4783L41.4988 44.2276L41.4959 44.5098C41.5282 44.7274 41.7976 44.7902 42.0071 44.8961L42.861 45.2299L43.7995 44.9666C44.0937 44.8988 43.9652 44.8979 44.3031 44.9486C44.5077 44.9791 44.7229 45.0846 44.7971 45.2955C44.938 45.6979 44.6277 46.2422 45.0094 46.3404C45.2836 46.4109 45.5787 46.3615 45.8756 46.3454L45.9385 46.3422L47.1492 46.4243L48.2583 46.6617L49.1929 46.9471L50.0795 47.3491C50.2944 47.4635 50.5183 47.6151 50.7324 47.5784L51.5032 46.965L51.6203 46.9363C52.2135 47.0547 52.8142 47.2369 53.2616 46.86L53.931 46.1147L53.9983 46.0717L55.1236 45.7522L56.1089 45.6342L56.1574 45.6369L56.6989 45.7581L57.2311 45.5835L58.0867 45.426L58.9948 45.1218C59.1025 45.0276 59.1909 44.9123 59.2874 44.8046C59.3089 44.7795 59.3089 44.7795 59.3318 44.7557C59.4776 44.6054 59.7459 44.4937 59.7697 44.4919C59.7832 44.4905 59.7957 44.4905 59.8078 44.4905L60.5782 44.5776L61.0808 43.9319C61.3679 43.6887 61.7812 43.774 62.1145 43.8004L63.0159 43.669L63.7764 43.071L64.4809 42.4341L64.5325 42.4046L65.5967 42.0527L65.6317 42.0461L66.7826 41.9688L67.7186 41.5827L68.5751 41.2661L68.6123 41.2575L69.5739 41.1793C69.5739 41.1793 69.8718 41.2671 70.0504 41.3185C70.158 41.3471 70.325 41.33 70.325 41.33L70.757 40.9743C70.757 40.9743 70.8405 40.9266 70.9347 40.9266C71.3022 40.9266 71.5373 41.3252 71.8756 41.3948C72.1888 41.4587 72.48 41.2728 72.7676 41.144C72.7676 41.144 72.795 41.1278 72.8618 41.1049L73.9543 40.8237L75.0671 40.7655L75.9573 40.5958L76.6514 40.0752C76.6828 40.0571 76.6837 40.0571 76.7187 40.0475L77.7955 39.9084L78.7463 39.8788C79.6517 39.5251 79.6517 39.5231 80.5284 39.1036L80.6141 39.0912L81.5537 39.2504L82.6283 39.3038L83.7392 39.5251L84.79 39.6413L85.5954 39.6623L85.6277 39.6662L86.5264 39.9036L87.5952 40.0752C88.5302 40.0886 88.5311 40.0895 89.4621 39.997L89.5438 40.0142L90.4519 40.5109L91.3098 40.8246C91.4879 40.8961 91.6638 40.9991 91.8428 41.0087L91.802 40.714L91.4669 40.5767L90.5892 40.1047L89.7497 39.5708L88.8807 39.5336L88.3853 39.505L87.2802 39.5718C87.2403 39.5689 87.2403 39.5689 87.203 39.5546L86.3133 39.0664L85.5622 38.44L84.5428 38.1472L83.4754 37.7916L83.4336 37.7687L82.6274 37.149L81.8754 36.4729L81.8399 36.4243L81.4087 35.4403L80.9502 34.5202L80.2188 33.8595L80.178 33.7956L79.9133 32.9308L79.1595 32.3281L78.8006 31.8762L78.0679 31.3136C77.3576 30.958 77.3567 30.9609 76.637 30.6262L75.7832 30.0608L74.8872 29.8004C74.6408 29.668 74.5219 29.2646 74.316 29.1731L73.4805 29.4791C73.4805 29.4791 73.2481 29.4534 73.1193 29.2961C72.9654 29.1082 72.8883 28.8479 72.7093 28.723C72.6141 28.6573 72.4894 28.6887 72.3884 28.7154C72.2027 28.7659 72.1628 28.7869 72.0533 28.8212C71.8944 28.8689 71.7307 28.9023 71.5651 28.8851C71.2587 28.8537 70.989 28.6849 70.714 28.5638C70.6381 28.5314 70.6368 28.5323 70.6368 28.5323C69.525 28.4179 69.5214 28.4198 68.4095 28.5428L67.9164 28.5266L67.863 28.5142L67.1272 28.1824L66.1764 28.2196C65.8381 28.192 65.5451 27.8306 65.192 27.8459L64.4961 28.0356C64.4961 28.0356 64.4369 28.047 64.357 28.0203C64.064 27.924 63.9173 27.6065 63.7262 27.412L62.8495 26.8742L62.8122 26.8409L62.1868 26.0562L61.4814 25.3229L60.8815 24.482L60.3732 23.5847L59.8213 22.8877L59.7984 22.8467L59.4879 21.9819L59.0931 21.1209C59.0837 21.0885 59.0837 21.0885 59.0805 21.0551L59.1218 20.0635L59.1985 19.131C59.1721 18.9832 59.1236 18.8402 59.0828 18.6953C59.0729 18.66 59.0729 18.6609 59.0635 18.6257C59.0056 18.3987 59.0415 18.0707 59.05 18.0526C59.0568 18.0393 59.0644 18.0259 59.072 18.0126L59.5997 17.3232L59.6907 16.5118L59.7015 16.4718L60.0735 15.5945C60.1726 15.2465 60.0762 14.8747 59.9734 14.5181L59.7576 13.7877C59.4902 13.002 59.5481 12.961 59.02 12.3222L58.998 12.286L58.7198 11.6157L58.7104 11.5804L58.5722 10.5363L58.4591 9.74113C57.9858 9.09086 57.9772 9.08512 57.2957 8.65985L56.5343 8.11067L55.9003 7.41938L55.1483 6.81963L54.5915 6.25232L53.9211 6.10551C53.6977 6.01967 53.7165 5.71457 53.7309 5.50575C53.7453 5.31408 53.8139 5.11006 53.7412 4.93844C53.7044 4.84879 53.4787 4.906 53.2818 4.92224C52.9237 4.94988 53.0529 4.93651 52.9655 4.91843L52.1973 4.68861C52.0497 4.69243 51.9052 4.73725 51.7585 4.76682C51.5099 4.81447 51.4139 4.85835 51.2694 4.67242L51.2434 4.61804L51.1245 4.12511L50.5336 3.77519C50.3259 3.60639 50.4829 3.22883 50.5812 3L50.3124 3.16781L50.2581 3.18782L49.5644 3.29748L49.1162 3.88767L48.6904 4.82403L48.663 4.86405L47.9698 5.58966L47.9366 5.61541L47.0303 6.1274L46.2145 6.60036L45.3264 6.97218L44.9552 7.94192L44.9228 7.9915L44.3355 8.58739L44.2621 8.62652L43.3255 8.81339L42.7296 9.56377L42.7001 9.59141L41.8719 10.1778L41.197 10.7041L40.8162 11.692L40.4088 12.7389C40.3907 12.7684 40.3726 12.798 40.3545 12.8275C40.305 12.9038 40.2546 12.9801 40.2061 13.0573C40.1051 13.2204 40.0356 13.4721 40.0356 13.4721L40.5934 14.0347L40.623 14.0766L41.0161 14.951L41.0285 15.0101V16.0188L41.296 16.9742L41.7691 17.9325L42.1146 18.9718L42.701 19.644C42.8457 19.7126 43.0066 19.7403 43.1627 19.7803C43.3369 19.8251 43.3598 19.8356 43.4473 19.8728C43.8062 20.0263 44.0128 20.463 44.2783 20.6556C44.3002 20.6718 44.3402 20.6861 44.3402 20.6861L44.8628 20.3133C44.8628 20.3133 44.9599 20.2666 45.0618 20.2752C45.4445 20.3086 45.6377 20.7081 45.8442 20.9874L46.3983 21.8608C46.4164 21.9028 46.4164 21.9037 46.4192 21.9495L46.3412 22.8963L46.3335 22.9335L46.0708 23.6496C46.1079 23.8622 46.2545 24.727 46.2955 24.8566C46.3573 25.054 46.5201 25.3 46.5201 25.3C46.5144 25.3897 46.4839 25.4106 46.4592 25.4354L45.9652 25.7787C45.8109 25.8445 45.7986 25.8216 45.7272 25.8273C45.4197 25.8493 45.0865 25.7253 44.8685 25.8817L44.7295 26.1953L44.8409 26.5739C44.8409 26.5739 44.8999 26.6387 44.7724 26.7398L44.2631 27.0201C44.225 27.0344 44.225 27.0344 44.1851 27.0373L42.9314 26.9543L42.3498 26.9667L41.6291 27.4721C41.3036 28.171 41.3064 28.1729 41.0332 28.8937L41.1703 29.79L41.1694 29.8424L40.9809 30.7034L40.6668 31.573C40.5478 31.9353 40.4535 32.3329 40.1346 32.5331C40.1099 32.5484 40.0833 32.5618 40.0556 32.5722L39.5587 32.7019L39.1684 33.0261C39.1504 33.3712 39.6282 33.685 39.4826 34.1226C39.3122 34.6327 38.6021 34.5812 38.148 34.689C38.1242 34.6947 38.0928 34.7099 38.0928 34.7099L38.2308 35.3059C38.2308 35.3059 38.2479 35.467 38.0975 35.4927C37.8148 35.5404 37.6045 35.0828 37.2684 35.0704L36.9819 35.2201L36.9286 35.2363L36.0881 35.3126C35.9614 35.3821 35.8634 35.4918 35.7549 35.59C35.5502 35.7693 35.455 35.8694 35.2684 35.6997L34.8734 35.2382C34.7192 35.2935 34.5735 35.5805 34.5735 35.5805L34.3337 36.4424L34.3193 36.4758L33.8862 37.2271L33.8501 37.2691L33.0495 37.8879C33.0495 37.8879 32.4289 38.1844 32.0119 37.9527C31.7064 37.784 31.5388 37.4102 31.5483 37.0469C31.5483 37.0469 31.5455 37.0422 31.556 36.9859L31.752 36.3023L31.714 35.9294C31.6892 35.9914 31.6644 36.0534 31.6407 36.1154C31.6083 36.2002 31.575 36.2841 31.5417 36.3681C31.5198 36.4243 31.5293 36.4357 31.4579 36.5597L30.8468 37.3683C30.8468 37.3683 30.2432 37.9909 29.8397 37.7735C29.5065 37.5942 29.536 37.129 29.595 36.8334L29.773 36.1154C29.6702 36.1526 29.5702 36.1974 29.4684 36.2384C29.4236 36.2556 29.4246 36.2556 29.3799 36.2727C28.9667 36.4272 28.5079 36.5244 28.0938 36.3738C27.9729 36.3299 27.8482 36.2498 27.8111 36.1173L27.8244 36.0077L28.2766 35.2258C28.4327 34.8749 28.3937 34.3267 28.843 34.32L28.9086 34.3324L29.1733 34.4506C29.2771 34.5145 29.258 34.423 29.2837 34.6318C29.318 34.9207 29.0362 35.1257 28.8706 35.3488C28.8706 35.3488 29.5369 35.3164 29.7273 34.9197C29.832 34.7023 29.8225 34.4449 29.8815 34.2056L29.9129 34.135L30.5431 33.3455C30.6849 33.2149 31.1466 33.0919 31.2961 32.8116C31.2961 32.8116 30.9143 32.5742 30.4746 32.5208L29.3551 32.7181C28.9791 32.864 28.5898 33.0242 28.1766 32.9813L28.111 32.9641L27.2599 32.536L26.4489 32.0364C26.2899 32.0087 26.1272 32.0107 25.9663 32.002C25.8873 31.9973 25.9368 32.0116 25.7626 31.9801C25.6084 31.9515 25.4494 31.7818 25.4494 31.7818C25.437 31.7427 25.437 31.7427 25.4361 31.7008L25.537 30.9523C25.5132 30.7387 25.3114 30.6043 25.1448 30.4984L24.2395 30.1952L23.1448 30.3592L22.3976 30.3964C22.3595 30.3935 22.3595 30.3935 22.3242 30.3802L21.6855 30.0474L21.1677 29.6927C21.042 29.5888 20.944 29.4477 20.8345 29.3199C20.685 29.1464 20.6917 29.0691 20.5375 29.0691L20.0863 29.5192C20.0863 29.5192 20.0101 29.5716 19.9263 29.5678C19.6589 29.5574 19.5018 29.2703 19.301 29.0177L19.2933 29.0081C19.0515 28.8193 18.8383 28.5857 18.568 28.4418C18.2843 28.2911 17.9644 28.2215 17.6541 28.1366C16.9107 27.9345 16.5404 27.9393 15.7455 27.8649C15.7455 27.8649 14.964 27.6589 14.8888 27.1193L14.8545 26.6712L14.2605 26.2201L14.2187 26.1706L13.8113 25.3563C13.619 25.1246 13.2867 25.0912 13.0126 25.0665L12.0121 24.8671C12.0121 24.8671 11.7132 24.6393 11.5428 24.502C11.4819 24.4543 11.3753 24.4019 11.3753 24.4019L10.9298 24.7842C10.8964 24.8328 10.865 24.8815 10.8327 24.931C10.8032 24.9768 10.7737 25.0216 10.7442 25.0665C10.6109 25.2628 10.4481 25.5184 10.1968 25.4974L9.33817 25.322C9.01835 25.2705 8.70324 25.3839 8.42052 25.526L7.53716 25.9217C7.11257 26.058 7.01265 25.8874 6.74039 26.0972L6.55095 26.9648C6.52145 27.0716 6.50145 27.0993 6.46433 27.1612C6.16638 27.6589 5.50003 27.7457 5.09928 28.0699C5.04407 28.1147 4.98695 28.2024 4.98695 28.2024L5.21636 29.133C5.25349 29.5402 5.04597 29.954 4.7109 30.1924C4.7109 30.1924 4.70423 30.2 4.65378 30.2267L3.64379 30.6176C3.35632 30.7988 2.91272 31.1506 3.34489 31.3461C3.62285 31.471 4.03122 31.4843 4.07977 31.7933C4.12927 32.1041 3.80372 32.2881 3.59049 32.4788L3.55527 32.5103L3.01172 33.2263L2.97364 34.3229V35.2592C2.97745 35.2877 2.98221 35.3164 2.98602 35.3459C3.05265 35.7578 3.14023 36.1488 2.83942 36.409C2.62905 36.5921 2.32919 36.6427 2.10645 36.799L2.4815 37.4054C2.64999 37.6953 2.64523 38.0509 2.62048 38.3914L2.65856 39.4268C2.87655 40.0313 3.07074 40.6549 3.41438 41.205C3.83799 41.883 4.18258 42.1071 4.77467 42.6248L4.79752 42.6496L5.38771 43.4792L5.41341 43.5469L5.52954 44.5978L5.87795 45.5709L5.87985 45.6607L5.59999 46.5827L5.23921 47.4787L5.46767 48.2998L5.69708 49.1277L5.70184 49.1618L5.72849 50.1847L6.00836 50.7725L6.62328 51.2966C6.68991 51.3675 6.68516 51.3769 6.70422 51.4074C6.86889 51.6838 6.89079 52.0212 6.87459 52.338C6.84412 52.8136 6.74609 53.3323 6.8356 53.7136C6.85745 53.8043 6.86602 53.8254 6.90223 54.0026C6.98977 54.4625 6.70611 54.8551 6.37866 55.2365C6.33296 55.2899 6.28442 55.3805 6.28442 55.3805C6.51097 55.6044 6.728 55.7951 7.06501 56.0127C7.22775 56.1195 7.38676 56.2464 7.47336 56.4228C7.64184 56.7629 7.52953 57.1685 7.39721 57.5001L7.06689 58.2381C7.06689 59.2028 7.06402 59.2059 7.22299 60.1585L7.22205 60.2096L7.0288 61.1775L7.06501 61.6562L7.22586 62.1834L7.7418 62.8053L7.77321 62.9215L7.69801 63.3545L7.77891 64.1334L7.85415 65.3951L7.85034 65.4368L7.58378 66.5428L7.88933 67.52C8.02739 67.7901 8.13875 68.0768 8.3044 68.3317C8.64231 68.8531 9.18301 69.391 9.6028 69.8411L10.1578 70.598L10.669 71.5057L10.6852 71.5523L10.8841 72.7225V73.7895L11.4391 74.5742L12.1806 75.232L12.2025 75.2576L12.7793 76.0827L13.479 76.7835C14.1958 77.483 14.2006 77.4821 15.0468 78.0169L15.7608 78.6209L15.8055 78.6882L16.1158 79.721L16.3119 80.7041L16.3148 80.7364C16.2967 81.3134 16.1749 81.9339 16.3452 82.4383C16.3728 82.5195 16.4443 82.6186 16.4443 82.6186C17.2515 82.8676 17.2553 82.8587 18.0872 83L19.0344 82.655L19.0706 82.6473L19.9188 82.5688L20.8402 82.2346C21.26 81.5719 21.6046 80.6933 22.2824 80.7144C22.2957 80.7176 22.309 80.7203 22.3233 80.722Z" stroke="white" stroke-opacity="0.3" stroke-width="2" mask="url(#path-1-outside-1_260_5077)"/>
<path d="M38.5435 37.64C39.5675 37.64 40.4368 37.8587 41.1515 38.296C41.8768 38.7227 42.4315 39.3467 42.8155 40.168C43.1995 40.9893 43.3915 42.0027 43.3915 43.208C43.3915 44.488 43.1568 45.5707 42.6875 46.456C42.2288 47.3413 41.5888 48.0133 40.7675 48.472C39.9461 48.9307 38.9915 49.16 37.9035 49.16C37.3381 49.16 36.7995 49.1013 36.2875 48.984C35.7755 48.8667 35.3328 48.6853 34.9595 48.44L35.7275 46.872C36.0368 47.0747 36.3728 47.2187 36.7355 47.304C37.0981 47.3787 37.4715 47.416 37.8555 47.416C38.9115 47.416 39.7488 47.0907 40.3675 46.44C40.9861 45.7893 41.2955 44.8293 41.2955 43.56C41.2955 43.3573 41.2901 43.1227 41.2795 42.856C41.2688 42.5787 41.2315 42.3013 41.1675 42.024L41.8075 42.728C41.6261 43.1653 41.3648 43.5333 41.0235 43.832C40.6821 44.12 40.2821 44.3387 39.8235 44.488C39.3648 44.6373 38.8581 44.712 38.3035 44.712C37.5781 44.712 36.9221 44.5733 36.3355 44.296C35.7595 44.008 35.3008 43.608 34.9595 43.096C34.6181 42.5733 34.4475 41.9653 34.4475 41.272C34.4475 40.5253 34.6288 39.8853 34.9915 39.352C35.3541 38.808 35.8448 38.3867 36.4635 38.088C37.0928 37.7893 37.7861 37.64 38.5435 37.64ZM38.6555 39.272C38.2288 39.272 37.8501 39.352 37.5195 39.512C37.1888 39.6613 36.9275 39.88 36.7355 40.168C36.5541 40.4453 36.4635 40.7813 36.4635 41.176C36.4635 41.7627 36.6661 42.2267 37.0715 42.568C37.4768 42.9093 38.0208 43.08 38.7035 43.08C39.1515 43.08 39.5461 43 39.8875 42.84C40.2288 42.6693 40.4955 42.44 40.6875 42.152C40.8795 41.8533 40.9755 41.5227 40.9755 41.16C40.9755 40.808 40.8848 40.4933 40.7035 40.216C40.5221 39.928 40.2608 39.6987 39.9195 39.528C39.5781 39.3573 39.1568 39.272 38.6555 39.272ZM46.5926 49L51.2166 38.632L51.7606 39.56H45.4086L46.4006 38.552V41.464H44.4646V37.8H53.1686V39.192L48.8166 49H46.5926ZM56.4032 49V38.6L57.3152 39.544H54.0352V37.8H58.4832V49H56.4032Z" fill="#00D1FF"/>
</svg>
