<svg width="73" height="82" viewBox="0 0 73 82" fill="none" xmlns="http://www.w3.org/2000/svg">
<mask id="path-1-outside-1_291_3442" maskUnits="userSpaceOnUse" x="0.779297" y="0" width="72" height="82" fill="black">
<rect fill="white" x="0.779297" width="72" height="82"/>
<path fill-rule="evenodd" clip-rule="evenodd" d="M19.1745 1.84783C19.2925 1.93857 19.3991 2.04322 19.5083 2.14324C19.6203 2.24525 19.7375 2.34924 19.8806 2.40554C20.2628 2.55789 20.7145 2.36248 21.1259 2.45521C21.4669 2.53271 21.7571 2.746 22.0505 2.91688C22.0816 2.93477 23.207 3.50043 23.207 3.50043C23.2328 3.51897 24.0641 4.35355 24.0641 4.35355C24.3072 4.67811 24.5364 5.04509 24.8947 5.16429C25.3107 5.30205 25.7948 5.16561 26.1949 5.38753C26.6003 5.61273 26.7692 6.09889 27.1044 6.38701C27.5057 6.73145 28.0708 6.80165 28.592 6.89305C28.8034 6.93149 29.0067 6.98181 29.1934 7.10633C29.2061 7.11429 29.9214 7.91577 29.9214 7.91577C30.4692 8.43969 31.3336 8.56089 32.0138 8.26681C32.2689 8.15685 32.5417 8.00649 32.7788 8.11181C33.1644 8.28337 33.2021 8.97553 33.7095 9.00601C34.1394 9.03117 34.7017 8.65561 34.8918 8.97686C34.8984 9.23122 34.8931 9.24978 34.8872 9.26766C34.8163 9.45842 34.8017 9.49286 34.7878 9.5273C34.7024 9.72866 34.6891 9.76242 34.6758 9.79686C34.6076 9.97506 34.5195 10.1797 34.8017 10.2095C35.2163 10.2533 35.6714 10.1413 36.0006 10.4235C36.406 10.7712 36.3974 11.3773 36.4775 11.8509C36.551 12.2788 36.8067 12.6795 37.2187 12.8417C37.3631 12.898 37.53 12.9239 37.6784 12.8656C38.105 12.6973 38.2402 11.9801 38.6614 12.0529L39.1138 12.4801C39.2858 12.7126 39.3278 13.1133 39.2138 13.4876C39.115 13.8109 38.927 14.1705 39.1342 14.391C39.3714 14.6441 39.7502 14.7606 39.939 15.07C40.1894 15.4813 40.047 16.0761 40.4066 16.3463C40.6702 16.545 41.0106 16.6425 41.2246 16.8948C41.4478 17.1584 41.4858 17.5757 41.7738 17.736C42.1062 17.9208 42.5534 17.5658 42.8634 17.575C42.9818 17.7168 42.521 18.3706 42.521 18.3706C42.4966 18.6514 42.7198 18.7911 42.8722 18.9084C42.9414 18.9608 43.0118 19.0117 43.0818 19.0634C43.1418 19.1084 43.8258 19.7602 43.8258 19.7602C44.129 20.0185 44.5006 20.1894 44.7326 20.5014C44.9366 20.7756 44.9994 21.1227 45.0858 21.4466L45.5302 22.5978L45.8498 23.3794C45.9154 23.59 45.8958 23.5601 45.9878 23.8092C46.1202 24.1682 46.4874 24.4213 46.8818 24.2967C47.1786 24.2034 47.2106 23.8066 47.2298 23.4303C47.239 23.2714 47.2602 23.1098 47.327 22.9628C47.4822 22.6242 47.8058 22.405 48.0074 22.0884C48.0942 21.9526 48.165 21.8069 48.241 21.6658C48.3954 21.3836 48.6258 21.1174 48.9434 21.0379C49.2398 20.9637 49.5558 20.9782 49.8442 20.8829L50.6774 20.3523C50.7482 20.3106 50.821 20.2728 50.8966 20.2397C51.263 20.106 51.5442 20.0689 51.7854 20.186C52.1022 20.3391 52.279 20.7624 52.5306 20.8531C52.8254 20.959 53.1446 20.6855 53.4426 20.4146L53.883 19.8768C53.9254 19.8046 53.9658 19.7304 54.0082 19.6582C54.1258 19.4674 54.229 19.3111 54.403 19.2859C54.7362 19.2369 54.9502 19.6323 55.1894 19.6549C55.375 19.6721 55.4902 19.4814 55.5922 19.3641C55.7166 19.2223 55.735 19.2018 55.7538 19.1819C56.0026 18.9177 56.3642 18.8143 56.7162 18.7116C57.057 18.6083 57.223 18.2712 57.4294 17.8983C57.509 17.7585 57.6058 17.6188 57.7522 17.5651C58.2082 17.3988 58.633 17.9884 59.2318 17.9155C59.3642 17.8996 59.4926 17.8618 59.6226 17.8307C59.8418 17.7837 60.0194 17.7585 60.1526 17.8446C60.4226 18.0182 60.3874 18.397 60.3854 18.6639L60.399 19.4654C60.4698 19.8258 60.6962 20.1993 60.5434 20.5252C60.4278 20.7702 60.141 20.8723 59.9498 21.034L59.437 21.4943C59.0978 21.4042 59.109 21.1571 59.0882 20.977C59.0642 20.7789 59.0522 20.5782 59.035 20.3782C58.9874 19.9483 58.961 19.6595 58.7766 19.5317C58.3694 19.2475 57.6042 19.7629 57.3098 19.9709C56.9314 20.2384 56.791 20.8882 57.2958 21.2313C57.3618 21.277 57.4326 21.3168 57.5042 21.3538C57.6614 21.4334 57.7082 21.4572 57.7558 21.481C57.9062 21.5592 58.083 21.6486 58.0966 21.8202C58.115 22.0658 57.8634 22.2149 57.697 22.3421C57.4494 22.5229 57.3286 22.609 57.3286 22.609L56.8758 23.0634C56.7298 23.2965 56.5466 23.5483 56.9678 23.5966C57.075 23.6092 57.183 23.6151 57.291 23.6284C57.4514 23.6502 57.6254 23.6873 57.7462 23.8053C58.0794 24.1312 57.9018 24.7717 57.5506 24.9253C57.3678 25.0055 57.1598 24.9743 56.969 24.9796L56.1298 25.0684C56.1074 25.0684 55.0894 24.7001 55.0894 24.7001C54.9302 24.6769 54.7674 24.6902 54.6058 24.6928C54.3918 24.6902 54.2334 24.675 54.1202 24.5815C53.8262 24.3372 53.9454 23.8529 53.815 23.429C53.685 23.0058 53.0458 23.0004 52.6122 22.8647L51.425 22.4076C50.9998 22.2673 50.4866 22.1467 50.1986 22.4282C49.9382 22.6832 49.8846 23.1117 49.6102 23.3912C49.4186 23.586 49.1394 23.69 48.9742 23.8768C48.785 24.0921 49.1666 24.4338 49.4866 24.7127L50.1178 25.3095C50.2798 25.528 49.9918 25.5016 49.8638 25.4824C49.5202 25.4254 49.1458 25.3187 48.9006 25.4923C48.585 25.7162 48.5738 26.2189 48.7862 26.5037C48.995 26.7826 49.4286 26.7925 49.7374 27.0376C50.0286 27.2694 50.2098 27.6828 50.419 27.8576C50.419 27.8576 50.543 27.5277 50.637 27.3238C50.7362 27.1098 50.8894 26.9031 51.1158 26.8137C51.5206 26.6541 52.1814 26.7402 52.1006 27.1422C51.9874 27.706 50.8966 27.8927 50.819 28.4868C50.7718 28.8499 51.0754 29.2579 51.4338 29.3327C51.887 29.4274 52.3194 29.0565 52.5678 28.6034C52.6086 28.5272 52.6486 28.4511 52.6894 28.3749C52.8526 28.106 52.9586 27.9748 53.111 27.9411C53.5054 27.853 53.8182 28.2603 53.921 28.5517C54.095 29.0459 53.8462 29.6321 54.0886 30.0739C54.2986 30.4574 54.8046 30.6111 55.2714 30.3507C55.5022 30.2196 55.7426 30.0308 55.9498 30.1242C56.241 30.2561 56.2894 30.7607 56.0862 31.0019C55.8802 31.2456 55.4814 31.2323 55.2402 31.4477C54.9814 31.6781 54.9782 32.1385 54.6602 32.2782L53.9594 32.2253C53.5778 32.1974 53.2242 32.4419 52.8338 32.4729C52.4626 32.5027 52.0602 32.4167 51.775 32.634C51.4854 32.8545 51.315 33.2513 51.6318 33.5759C51.8734 33.8235 52.2994 34.0083 52.2002 34.2282C52.051 34.5601 51.2934 34.3693 50.8926 34.109C50.6634 33.9607 50.4886 33.7109 50.2746 33.5877C50.2746 33.5877 50.1926 33.8997 50.1374 34.1143C50.0554 34.4249 49.8866 34.7197 49.6214 34.9085C49.4474 35.0323 49.2074 35.1291 49.1626 35.2754C49.0838 35.5331 49.4154 35.8259 49.7434 36.1121L50.5662 36.8446C50.8118 37.2208 50.915 37.5586 51.1754 37.754C51.4986 37.9964 52.0034 37.9865 52.3306 37.7586C52.7798 37.4466 52.9566 36.8426 53.3426 36.471C53.5062 36.3133 53.7294 36.1822 53.9686 36.2352C54.2218 36.2915 54.437 36.5313 54.6714 36.5432C54.8974 36.5545 55.0358 36.3154 55.1726 36.1955C55.2814 36.102 55.4034 36.0159 55.5458 35.9875C55.7834 35.9398 56.0306 36.0378 56.2114 36.1875L56.7778 36.8433C57.099 36.975 57.3686 36.9247 57.5214 36.7333C57.7294 36.4737 57.8254 36.1106 58.1102 36.01C58.5602 35.8504 59.1458 36.3876 59.1158 36.8796C59.0978 37.1711 58.8954 37.4129 58.7098 37.6149L58.139 38.3024L57.8554 38.8284C57.8554 38.8284 57.6798 38.982 57.5042 39.0211C57.1302 39.104 56.7558 38.9257 56.3934 38.7681C56.0882 38.6396 55.6926 38.7694 55.515 39.0271C55.4078 39.182 55.7994 39.2649 56.039 39.3715C56.4146 39.5404 56.661 39.9776 56.971 40.0968C57.287 40.2193 57.6362 40.0591 57.9806 39.9948C58.091 40.1246 57.9898 40.2041 57.8878 40.2472C57.6342 40.3571 57.3386 40.4578 57.2014 40.677C57.085 40.8645 57.603 41.0429 57.5906 41.3849C57.5806 41.6561 57.3242 41.8297 57.1414 41.9825L56.571 42.5661C56.375 42.8821 56.2082 43.3213 56.3974 43.5689C56.5546 43.7741 56.8558 43.7537 57.0678 43.7293C57.5114 43.6797 57.9646 43.3013 58.2858 43.6161L58.5734 44.0817C58.7382 44.1597 58.9802 43.9345 59.155 43.8465C59.4806 43.6869 59.8598 43.7645 60.1974 43.8533L60.9134 44.0569C60.9486 44.3041 60.8334 44.3393 60.7454 44.3749C60.277 44.5625 59.675 44.7061 59.9066 45.1929C60.1138 45.6289 60.7114 45.7541 61.1306 46.0297C61.2182 46.0877 61.297 46.1745 61.3014 46.2853L60.8922 47.0329C60.7366 47.4477 61.0394 47.8869 61.3554 48.1149C61.883 48.4969 62.5554 48.8817 63.0126 48.6425C63.3426 48.4705 63.539 48.0381 63.8618 47.9141C64.3006 47.9545 64.279 48.4385 64.501 48.8069C64.683 49.1089 65.0634 49.3757 64.8574 49.6797L64.2942 50.0449C64.585 50.1693 64.9262 50.2417 65.0598 50.5193L65.087 50.7833C64.7902 51.1829 64.393 51.0225 64.0134 51.1013C63.6874 51.1697 63.7518 51.8421 64.051 52.0697C64.2166 52.1961 64.451 51.9425 64.6346 51.8121C64.7414 51.7385 64.869 51.6669 65.0022 51.6941C65.2382 51.7413 65.3546 52.0241 65.3234 52.2333C65.305 52.3597 65.2362 52.4717 65.1574 52.5697C65.1574 52.5697 65.7958 52.2413 65.9162 52.4917C66.029 52.7269 65.5806 53.0453 65.4998 53.3953C65.4726 53.5137 65.6526 53.4589 65.8022 53.4321C66.5874 53.2913 67.0782 52.3597 67.7206 52.1113C67.8022 52.0801 67.9198 52.0685 67.967 52.1705L67.671 52.9353L67.2458 53.9721L66.635 54.6809C66.4726 54.8873 66.301 55.1537 66.3534 55.3313C66.4494 55.6537 67.0582 55.6305 67.467 55.9725C67.879 56.3169 68.155 56.8745 68.1954 57.3997C68.2062 57.5453 68.1418 57.7185 67.9734 57.7513C67.7086 57.8033 67.3794 57.6721 67.2338 57.7953L67.1786 58.0973C67.263 58.1709 67.5782 58.0305 67.829 57.9629C68.0106 57.9157 68.2154 57.8873 68.3626 58.0053C68.6446 58.2317 68.6002 58.6489 68.583 58.9569C68.5586 59.2353 68.5518 59.2869 68.5434 59.3393C68.4214 59.8133 68.2602 60.0785 67.973 60.0997C67.6926 60.1201 67.4158 59.9657 67.127 59.9381C67.0166 59.9273 66.9058 60.1009 66.8954 60.3525C66.8766 60.8101 66.805 61.2933 66.8662 61.6937C66.8662 61.6937 67.0386 61.5317 67.1786 61.3993C67.333 61.2533 67.5066 61.1137 67.7158 61.0589C68.1238 60.9521 68.6014 61.1665 68.7546 61.5501C68.8858 61.8793 68.783 62.2449 68.7226 62.5769L68.7182 63.7749C68.7466 63.9173 68.7586 63.9705 68.7726 64.0229C68.8234 64.1885 68.8346 64.2197 68.8474 64.2501C68.963 64.4969 69.0842 64.6533 69.2638 64.7017L69.8222 64.7805C70.1958 65.0733 70.0858 65.5085 70.2278 65.7861C70.3986 66.1217 70.7562 66.3529 70.8298 66.7181C70.9594 67.3657 70.3986 68.0901 69.691 68.1697C69.5606 68.1849 69.4286 68.1825 69.2978 68.1713C69.421 68.4693 69.7654 68.7389 69.9182 69.1993C69.9838 69.4025 70.0526 69.6125 70.207 69.7561L71.0346 70.2549C71.0742 70.4045 70.1242 70.3165 70.1242 70.3165C69.6746 70.3377 69.3174 70.7737 69.0494 71.0789C68.9074 71.2397 68.7782 71.4193 68.7286 71.6265C68.5902 72.1997 68.8322 72.8149 68.7426 73.3857C68.6842 73.7581 68.4678 74.1225 68.103 74.2821C67.975 74.3385 67.8418 74.3801 67.7102 74.4253C67.4206 74.5333 67.2346 74.6517 67.169 74.8457C67.053 75.1877 67.0862 75.5617 66.9078 75.9229C66.7242 76.2957 66.2474 76.5569 65.823 76.3401C65.5022 76.1757 65.3494 75.7877 65.0606 75.6201C64.875 75.5129 64.5974 76.0273 64.7226 76.2045C64.8738 76.4161 65.3766 76.2161 65.5654 76.5025C65.719 76.7349 65.5242 77.0713 65.6202 77.3653C65.7262 77.6901 66.147 77.8173 66.4006 78.0409C65.839 78.0509 65.3486 77.8577 64.997 78.1005C64.7514 78.271 64.6054 78.5558 64.3762 78.7666C64.1266 78.9958 63.7834 79.175 63.7086 79.4606C63.6734 79.5938 63.6974 79.7349 63.7062 79.8745C63.651 80.5825 63.0822 80.9918 62.6522 80.7793L62.1778 80.3142C61.8654 80.2434 61.5738 81.0158 60.8154 80.9998C60.589 80.9946 60.3498 80.913 60.2102 80.7238L60.0102 80.2022C59.8702 79.8462 59.533 79.6189 59.2138 79.4445L58.4918 78.9718C58.4694 78.9518 58.1442 78.1637 58.1442 78.1637L57.8218 77.4833C57.5422 77.1601 57.003 76.9321 57.0798 76.5569C57.1474 76.2241 57.5322 76.1009 57.7594 75.9365C57.8686 75.8573 57.9746 75.7697 58.0574 75.6625C58.2906 75.3585 58.337 74.9597 58.5394 74.6325C58.6434 74.4641 58.7722 74.3133 58.8918 74.1569C59.0382 73.9641 59.1786 73.7417 59.123 73.5125C59.059 73.2429 58.9086 72.9977 58.8258 72.7257C58.699 72.3101 58.5978 71.8301 58.707 71.4757C58.731 71.3981 58.7918 71.3261 58.8814 71.3413C59.1754 71.3917 59.2058 71.7625 59.4594 72.0041C59.6998 72.2349 60.2102 72.1657 60.3218 71.8081L60.2326 71.1709C60.2346 70.8265 60.473 70.4629 60.8426 70.4609C61.0566 70.4597 61.2618 70.5637 61.4578 70.6649C61.3766 70.5033 61.3002 70.3273 61.3326 70.1517C61.3838 69.8789 61.7038 69.7409 61.839 69.5721C61.5926 69.3741 61.0466 69.5225 60.8354 69.2629L60.6278 68.8453C60.3466 68.8413 60.0062 69.3401 59.8046 69.1529L59.9662 68.5317C59.7582 68.7037 59.5682 68.8965 59.375 69.0853L58.5066 69.8641C57.6758 70.6333 57.6674 70.6393 57.1114 71.6245C57.1114 71.6245 56.7206 72.0361 56.441 72.1441C56.2198 72.2289 55.939 72.1657 55.8002 71.9465C55.6014 71.6333 55.5378 71.2485 55.2614 70.9637C55.0482 70.7437 54.7714 70.5953 54.5066 70.4337C54.2022 70.2389 53.9558 70.0245 53.909 69.7125C53.8698 69.4509 53.9606 69.1725 53.9234 68.9281C53.8918 68.7177 53.4446 68.8685 53.1114 68.9601L51.9478 69.2893C51.5458 69.4801 51.1806 69.7985 50.7374 69.7993C50.3706 69.7993 50.0426 69.5953 49.705 69.4781C48.6066 69.2765 48.6062 69.2793 47.5126 69.1105L46.5798 68.9461L45.6154 68.4169C44.8394 68.1421 43.9426 69.2097 43.5822 68.7733C43.4106 68.5653 43.5706 68.2181 43.431 68.0293L42.9262 67.8229C42.6966 67.6689 42.7706 67.3929 42.7914 67.1889C42.8102 66.9953 42.8122 66.9721 42.8138 66.9485C42.4674 67.1073 42.283 67.3585 42.0978 67.6037C41.9634 67.7705 41.8262 67.9001 41.6426 67.8637C41.6302 67.8613 41.2994 67.6861 41.2994 67.6861C41.391 68.1593 41.769 68.7493 41.4162 68.9721C41.2146 69.0993 40.967 68.9837 40.7598 68.9197C40.6874 68.8977 40.6158 68.8753 40.5438 68.8533C40.1298 68.7321 39.6402 68.7201 39.4146 68.3241C39.2238 67.9905 39.2766 67.5265 39.1142 67.2013C39.1142 67.2013 38.8986 67.4497 38.7474 67.6269C38.6878 67.6961 38.6254 67.7637 38.5574 67.8245C38.4998 67.8765 38.0214 68.0553 38.0214 68.0553C37.4214 67.9777 37.1292 67.4001 36.6602 67.1293C36.547 67.0637 36.4265 67.0101 36.3013 66.9729C35.7701 66.8153 35.1958 67.0517 34.6944 67.2721L33.5419 67.7677C33.1736 67.9189 32.7848 68.0525 32.5258 68.3573C32.2184 68.7189 32.1602 69.2389 32.0588 69.7153C31.8456 70.6377 31.0891 71.3525 30.1519 71.2665C29.4352 71.2001 28.7072 70.7981 28.4609 70.1173C28.3417 69.7881 28.3722 69.4113 28.2304 69.0965C28.0959 68.7985 27.5448 68.9973 27.1044 68.9741C27.0156 68.9693 26.9269 68.9569 26.8401 68.9357C26.7182 68.9065 26.5996 68.8601 26.4903 68.7977C26.4022 68.7469 26.3195 68.6853 26.2479 68.6129C25.8929 68.0865 25.9405 67.6393 26.0367 67.2645L26.3558 66.2177C26.434 65.7729 26.4235 65.2065 26.0359 65.1389C25.6981 65.0793 25.3266 65.1953 25.0351 64.9965C24.6767 64.7513 24.5742 64.1345 24.8828 63.8341C25.1073 63.6149 25.5306 63.6709 25.6876 63.4901C25.8346 63.3205 25.6869 63.0921 25.5902 62.9277C25.4451 62.6821 25.2166 62.4661 24.9251 62.4661C24.6681 62.4661 24.4171 62.5489 24.1569 62.5629C23.623 62.5913 22.8791 62.4445 23.0195 61.8977C23.1116 61.5409 23.4203 61.2713 23.562 60.9121C23.6945 60.5757 23.6759 60.1885 23.8933 59.8929L24.588 59.2009L24.91 58.6053L25.6386 57.6877C25.6551 57.6713 26.542 56.9817 26.542 56.9817C26.8394 56.8189 27.1719 56.7081 27.5051 56.7293C27.876 56.7533 28.2635 56.9473 28.5742 56.8453C28.9603 56.7181 29.0709 56.1441 29.2239 55.7529C29.3862 55.3505 29.6856 55.0081 30.1526 54.8853C30.3718 54.8277 30.6083 54.8085 30.8023 54.7289C30.8023 54.7289 30.3605 54.4497 30.2752 54.1345C30.1486 53.6693 30.6487 53.1189 31.1422 53.1665C31.5581 53.2065 31.8727 53.6817 31.7303 54.0957C31.635 54.3741 31.3482 54.6077 31.3091 54.8409C31.2806 55.0141 32.0092 54.9225 32.3443 54.6609C32.6338 54.4357 32.806 53.9881 33.1392 53.9997C33.4326 54.0113 33.5638 54.3477 33.6393 54.5781C33.7115 54.7993 33.736 55.0537 33.6008 55.2333C33.3823 55.5233 32.8795 55.5173 32.7 55.7897C32.4927 56.1053 32.6861 56.6945 33.061 56.7057C33.4028 56.7149 33.7439 56.5201 34.0982 56.6141C34.4427 56.7065 34.6818 57.0141 34.9084 57.3109C35.019 57.4533 35.0216 57.4513 35.0733 57.4897C35.3137 57.6681 35.6879 56.7213 36.1774 56.9029C36.4457 57.0029 36.6318 57.2737 36.908 57.3693C37.0856 57.4309 37.2962 57.4177 37.4485 57.3005C37.7552 57.0653 37.8546 56.5785 38.213 56.4565C38.533 56.3481 38.8594 56.5645 39.2222 56.5513C39.5994 56.5365 40.0398 56.3281 40.051 56.0149C40.0598 55.7649 39.739 55.5609 39.8186 55.3013C39.8866 55.0801 40.235 55.0721 40.3986 54.8881L40.3718 54.5133C40.3166 54.1841 40.3198 53.9569 40.2134 53.8317C40.0542 53.6449 39.6882 53.7501 39.4078 53.7937C39.3014 53.8105 39.1946 53.8277 39.0874 53.8417C38.8886 53.8633 38.8442 53.8669 38.7998 53.8689C38.4786 53.8689 38.2394 53.8265 38.1042 53.6421C37.905 53.3705 37.9458 52.9805 37.7678 52.6797C37.5956 52.3905 37.2319 52.2049 37.2286 51.8477C37.2246 51.5105 37.5022 51.2565 37.7029 51.0133C37.7029 51.0133 37.0398 51.3605 36.9286 51.1073C36.8504 50.9289 37.069 50.7429 37.1498 50.4297C37.2094 50.1985 36.8888 50.0925 36.7066 50.0309C36.614 49.9993 36.5205 49.9693 36.4284 49.9357C35.9952 49.7761 35.484 49.4797 35.6204 49.0585C35.7701 48.5981 36.3794 48.3265 36.5583 47.7645C36.6093 47.5545 36.5272 47.3881 36.3218 47.3345C36.088 47.2721 35.8688 47.2829 35.5999 47.2397C35.5032 47.2245 35.3932 47.2029 35.3899 47.0829L35.9344 46.5561C36.1536 46.2793 36.2032 45.8265 36.0098 45.5149C35.9681 45.4473 35.9032 45.3805 35.8198 45.3745C35.5124 45.3505 35.221 45.6685 34.9785 45.8329C34.5567 46.1129 34.0625 46.2377 33.5671 46.3549C33.3677 46.4037 33.1232 46.4861 33.1524 46.6581C33.2054 46.9749 33.483 47.2325 33.6015 47.5477C33.6373 47.6433 33.6532 47.7657 33.5731 47.8445L32.8789 47.9589C32.5119 48.0477 32.2947 48.4697 31.931 48.5513C31.6211 48.6201 31.2561 48.4585 31.1209 48.1725L30.9222 47.6417C30.601 47.8245 30.3837 48.2977 29.9327 48.1909C29.3935 48.0645 29.3378 47.3241 29.1034 47.0125L28.6748 47.4417C28.5158 47.5645 28.0886 47.4913 27.8224 47.3357L27.2097 46.9921C26.5778 46.8085 25.832 47.3761 25.0656 47.2417C25.0299 47.2353 24.2059 46.7793 24.2059 46.7793L23.4905 45.8865L22.9368 44.7845C22.1916 43.9485 22.1837 43.9517 21.2948 43.2709C20.9815 43.0425 20.6702 42.8057 20.3045 42.6813L19.3209 42.4469C18.9473 42.3045 18.6353 42.0241 18.2558 41.9229C17.8934 41.8269 17.4848 41.9245 17.1689 41.7085C16.786 41.4469 16.7409 40.9122 16.6019 40.5539C16.4906 40.2677 16.3396 39.9888 16.0965 39.8008L15.0016 39.251C14.3186 38.5628 14.3201 38.5615 13.6968 37.8613L13.396 36.7194C13.2708 36.3822 13.0165 36.116 12.7814 35.8504C12.729 35.7921 12.0819 34.9575 12.0819 34.9575L11.4447 33.9527L10.7598 32.9916L10.1193 31.9815L9.69671 30.7369L9.15095 29.7188C9.00455 29.2704 9.00919 28.8525 9.09199 28.455L9.50991 27.1953L9.83447 25.9493L10.2763 24.9333C10.5485 24.1119 10.4419 23.272 10.0008 22.6024L9.25491 21.7121C8.48195 20.8511 8.47799 20.8492 7.55595 20.1497C7.54203 20.137 6.75383 19.2528 6.75383 19.2528L6.13119 18.2275C6.01067 18.0189 5.98482 17.9757 5.95834 17.9327C5.76294 17.6393 5.61058 17.4592 5.40658 17.3584C5.01974 17.1664 4.53954 17.2326 4.1527 17.008C3.60294 16.6888 3.49234 15.9707 3.31218 15.4667C3.14922 15.0203 2.84254 14.6639 2.50542 14.2924C2.39546 14.1691 2.29214 14.0367 2.2259 13.8844C2.06694 13.5187 2.12786 13.1008 2.09078 12.7218L1.82186 11.5289C1.74634 11.0779 1.77747 10.6149 1.8669 10.1632L2.23582 8.94574L2.7399 7.89589L3.4791 6.96925L3.97586 6.10153L4.47794 5.32129L5.11714 4.31447L5.78014 3.82897L7.04791 3.50705L7.94079 2.95398L8.91511 2.436L9.64639 2.00679L10.4458 1.82928L11.5381 1.41L12.8184 1.20202L14.1757 1.26892L15.3785 1.01854C15.7613 0.972178 16.1561 1.01258 16.5198 1.14174C16.725 1.21527 16.9178 1.31793 17.1145 1.41265C17.5537 1.61335 17.9736 1.6054 18.4095 1.6107C18.683 1.616 18.9586 1.68422 19.1745 1.84783Z"/>
</mask>
<path fill-rule="evenodd" clip-rule="evenodd" d="M19.1745 1.84783C19.2925 1.93857 19.3991 2.04322 19.5083 2.14324C19.6203 2.24525 19.7375 2.34924 19.8806 2.40554C20.2628 2.55789 20.7145 2.36248 21.1259 2.45521C21.4669 2.53271 21.7571 2.746 22.0505 2.91688C22.0816 2.93477 23.207 3.50043 23.207 3.50043C23.2328 3.51897 24.0641 4.35355 24.0641 4.35355C24.3072 4.67811 24.5364 5.04509 24.8947 5.16429C25.3107 5.30205 25.7948 5.16561 26.1949 5.38753C26.6003 5.61273 26.7692 6.09889 27.1044 6.38701C27.5057 6.73145 28.0708 6.80165 28.592 6.89305C28.8034 6.93149 29.0067 6.98181 29.1934 7.10633C29.2061 7.11429 29.9214 7.91577 29.9214 7.91577C30.4692 8.43969 31.3336 8.56089 32.0138 8.26681C32.2689 8.15685 32.5417 8.00649 32.7788 8.11181C33.1644 8.28337 33.2021 8.97553 33.7095 9.00601C34.1394 9.03117 34.7017 8.65561 34.8918 8.97686C34.8984 9.23122 34.8931 9.24978 34.8872 9.26766C34.8163 9.45842 34.8017 9.49286 34.7878 9.5273C34.7024 9.72866 34.6891 9.76242 34.6758 9.79686C34.6076 9.97506 34.5195 10.1797 34.8017 10.2095C35.2163 10.2533 35.6714 10.1413 36.0006 10.4235C36.406 10.7712 36.3974 11.3773 36.4775 11.8509C36.551 12.2788 36.8067 12.6795 37.2187 12.8417C37.3631 12.898 37.53 12.9239 37.6784 12.8656C38.105 12.6973 38.2402 11.9801 38.6614 12.0529L39.1138 12.4801C39.2858 12.7126 39.3278 13.1133 39.2138 13.4876C39.115 13.8109 38.927 14.1705 39.1342 14.391C39.3714 14.6441 39.7502 14.7606 39.939 15.07C40.1894 15.4813 40.047 16.0761 40.4066 16.3463C40.6702 16.545 41.0106 16.6425 41.2246 16.8948C41.4478 17.1584 41.4858 17.5757 41.7738 17.736C42.1062 17.9208 42.5534 17.5658 42.8634 17.575C42.9818 17.7168 42.521 18.3706 42.521 18.3706C42.4966 18.6514 42.7198 18.7911 42.8722 18.9084C42.9414 18.9608 43.0118 19.0117 43.0818 19.0634C43.1418 19.1084 43.8258 19.7602 43.8258 19.7602C44.129 20.0185 44.5006 20.1894 44.7326 20.5014C44.9366 20.7756 44.9994 21.1227 45.0858 21.4466L45.5302 22.5978L45.8498 23.3794C45.9154 23.59 45.8958 23.5601 45.9878 23.8092C46.1202 24.1682 46.4874 24.4213 46.8818 24.2967C47.1786 24.2034 47.2106 23.8066 47.2298 23.4303C47.239 23.2714 47.2602 23.1098 47.327 22.9628C47.4822 22.6242 47.8058 22.405 48.0074 22.0884C48.0942 21.9526 48.165 21.8069 48.241 21.6658C48.3954 21.3836 48.6258 21.1174 48.9434 21.0379C49.2398 20.9637 49.5558 20.9782 49.8442 20.8829L50.6774 20.3523C50.7482 20.3106 50.821 20.2728 50.8966 20.2397C51.263 20.106 51.5442 20.0689 51.7854 20.186C52.1022 20.3391 52.279 20.7624 52.5306 20.8531C52.8254 20.959 53.1446 20.6855 53.4426 20.4146L53.883 19.8768C53.9254 19.8046 53.9658 19.7304 54.0082 19.6582C54.1258 19.4674 54.229 19.3111 54.403 19.2859C54.7362 19.2369 54.9502 19.6323 55.1894 19.6549C55.375 19.6721 55.4902 19.4814 55.5922 19.3641C55.7166 19.2223 55.735 19.2018 55.7538 19.1819C56.0026 18.9177 56.3642 18.8143 56.7162 18.7116C57.057 18.6083 57.223 18.2712 57.4294 17.8983C57.509 17.7585 57.6058 17.6188 57.7522 17.5651C58.2082 17.3988 58.633 17.9884 59.2318 17.9155C59.3642 17.8996 59.4926 17.8618 59.6226 17.8307C59.8418 17.7837 60.0194 17.7585 60.1526 17.8446C60.4226 18.0182 60.3874 18.397 60.3854 18.6639L60.399 19.4654C60.4698 19.8258 60.6962 20.1993 60.5434 20.5252C60.4278 20.7702 60.141 20.8723 59.9498 21.034L59.437 21.4943C59.0978 21.4042 59.109 21.1571 59.0882 20.977C59.0642 20.7789 59.0522 20.5782 59.035 20.3782C58.9874 19.9483 58.961 19.6595 58.7766 19.5317C58.3694 19.2475 57.6042 19.7629 57.3098 19.9709C56.9314 20.2384 56.791 20.8882 57.2958 21.2313C57.3618 21.277 57.4326 21.3168 57.5042 21.3538C57.6614 21.4334 57.7082 21.4572 57.7558 21.481C57.9062 21.5592 58.083 21.6486 58.0966 21.8202C58.115 22.0658 57.8634 22.2149 57.697 22.3421C57.4494 22.5229 57.3286 22.609 57.3286 22.609L56.8758 23.0634C56.7298 23.2965 56.5466 23.5483 56.9678 23.5966C57.075 23.6092 57.183 23.6151 57.291 23.6284C57.4514 23.6502 57.6254 23.6873 57.7462 23.8053C58.0794 24.1312 57.9018 24.7717 57.5506 24.9253C57.3678 25.0055 57.1598 24.9743 56.969 24.9796L56.1298 25.0684C56.1074 25.0684 55.0894 24.7001 55.0894 24.7001C54.9302 24.6769 54.7674 24.6902 54.6058 24.6928C54.3918 24.6902 54.2334 24.675 54.1202 24.5815C53.8262 24.3372 53.9454 23.8529 53.815 23.429C53.685 23.0058 53.0458 23.0004 52.6122 22.8647L51.425 22.4076C50.9998 22.2673 50.4866 22.1467 50.1986 22.4282C49.9382 22.6832 49.8846 23.1117 49.6102 23.3912C49.4186 23.586 49.1394 23.69 48.9742 23.8768C48.785 24.0921 49.1666 24.4338 49.4866 24.7127L50.1178 25.3095C50.2798 25.528 49.9918 25.5016 49.8638 25.4824C49.5202 25.4254 49.1458 25.3187 48.9006 25.4923C48.585 25.7162 48.5738 26.2189 48.7862 26.5037C48.995 26.7826 49.4286 26.7925 49.7374 27.0376C50.0286 27.2694 50.2098 27.6828 50.419 27.8576C50.419 27.8576 50.543 27.5277 50.637 27.3238C50.7362 27.1098 50.8894 26.9031 51.1158 26.8137C51.5206 26.6541 52.1814 26.7402 52.1006 27.1422C51.9874 27.706 50.8966 27.8927 50.819 28.4868C50.7718 28.8499 51.0754 29.2579 51.4338 29.3327C51.887 29.4274 52.3194 29.0565 52.5678 28.6034C52.6086 28.5272 52.6486 28.4511 52.6894 28.3749C52.8526 28.106 52.9586 27.9748 53.111 27.9411C53.5054 27.853 53.8182 28.2603 53.921 28.5517C54.095 29.0459 53.8462 29.6321 54.0886 30.0739C54.2986 30.4574 54.8046 30.6111 55.2714 30.3507C55.5022 30.2196 55.7426 30.0308 55.9498 30.1242C56.241 30.2561 56.2894 30.7607 56.0862 31.0019C55.8802 31.2456 55.4814 31.2323 55.2402 31.4477C54.9814 31.6781 54.9782 32.1385 54.6602 32.2782L53.9594 32.2253C53.5778 32.1974 53.2242 32.4419 52.8338 32.4729C52.4626 32.5027 52.0602 32.4167 51.775 32.634C51.4854 32.8545 51.315 33.2513 51.6318 33.5759C51.8734 33.8235 52.2994 34.0083 52.2002 34.2282C52.051 34.5601 51.2934 34.3693 50.8926 34.109C50.6634 33.9607 50.4886 33.7109 50.2746 33.5877C50.2746 33.5877 50.1926 33.8997 50.1374 34.1143C50.0554 34.4249 49.8866 34.7197 49.6214 34.9085C49.4474 35.0323 49.2074 35.1291 49.1626 35.2754C49.0838 35.5331 49.4154 35.8259 49.7434 36.1121L50.5662 36.8446C50.8118 37.2208 50.915 37.5586 51.1754 37.754C51.4986 37.9964 52.0034 37.9865 52.3306 37.7586C52.7798 37.4466 52.9566 36.8426 53.3426 36.471C53.5062 36.3133 53.7294 36.1822 53.9686 36.2352C54.2218 36.2915 54.437 36.5313 54.6714 36.5432C54.8974 36.5545 55.0358 36.3154 55.1726 36.1955C55.2814 36.102 55.4034 36.0159 55.5458 35.9875C55.7834 35.9398 56.0306 36.0378 56.2114 36.1875L56.7778 36.8433C57.099 36.975 57.3686 36.9247 57.5214 36.7333C57.7294 36.4737 57.8254 36.1106 58.1102 36.01C58.5602 35.8504 59.1458 36.3876 59.1158 36.8796C59.0978 37.1711 58.8954 37.4129 58.7098 37.6149L58.139 38.3024L57.8554 38.8284C57.8554 38.8284 57.6798 38.982 57.5042 39.0211C57.1302 39.104 56.7558 38.9257 56.3934 38.7681C56.0882 38.6396 55.6926 38.7694 55.515 39.0271C55.4078 39.182 55.7994 39.2649 56.039 39.3715C56.4146 39.5404 56.661 39.9776 56.971 40.0968C57.287 40.2193 57.6362 40.0591 57.9806 39.9948C58.091 40.1246 57.9898 40.2041 57.8878 40.2472C57.6342 40.3571 57.3386 40.4578 57.2014 40.677C57.085 40.8645 57.603 41.0429 57.5906 41.3849C57.5806 41.6561 57.3242 41.8297 57.1414 41.9825L56.571 42.5661C56.375 42.8821 56.2082 43.3213 56.3974 43.5689C56.5546 43.7741 56.8558 43.7537 57.0678 43.7293C57.5114 43.6797 57.9646 43.3013 58.2858 43.6161L58.5734 44.0817C58.7382 44.1597 58.9802 43.9345 59.155 43.8465C59.4806 43.6869 59.8598 43.7645 60.1974 43.8533L60.9134 44.0569C60.9486 44.3041 60.8334 44.3393 60.7454 44.3749C60.277 44.5625 59.675 44.7061 59.9066 45.1929C60.1138 45.6289 60.7114 45.7541 61.1306 46.0297C61.2182 46.0877 61.297 46.1745 61.3014 46.2853L60.8922 47.0329C60.7366 47.4477 61.0394 47.8869 61.3554 48.1149C61.883 48.4969 62.5554 48.8817 63.0126 48.6425C63.3426 48.4705 63.539 48.0381 63.8618 47.9141C64.3006 47.9545 64.279 48.4385 64.501 48.8069C64.683 49.1089 65.0634 49.3757 64.8574 49.6797L64.2942 50.0449C64.585 50.1693 64.9262 50.2417 65.0598 50.5193L65.087 50.7833C64.7902 51.1829 64.393 51.0225 64.0134 51.1013C63.6874 51.1697 63.7518 51.8421 64.051 52.0697C64.2166 52.1961 64.451 51.9425 64.6346 51.8121C64.7414 51.7385 64.869 51.6669 65.0022 51.6941C65.2382 51.7413 65.3546 52.0241 65.3234 52.2333C65.305 52.3597 65.2362 52.4717 65.1574 52.5697C65.1574 52.5697 65.7958 52.2413 65.9162 52.4917C66.029 52.7269 65.5806 53.0453 65.4998 53.3953C65.4726 53.5137 65.6526 53.4589 65.8022 53.4321C66.5874 53.2913 67.0782 52.3597 67.7206 52.1113C67.8022 52.0801 67.9198 52.0685 67.967 52.1705L67.671 52.9353L67.2458 53.9721L66.635 54.6809C66.4726 54.8873 66.301 55.1537 66.3534 55.3313C66.4494 55.6537 67.0582 55.6305 67.467 55.9725C67.879 56.3169 68.155 56.8745 68.1954 57.3997C68.2062 57.5453 68.1418 57.7185 67.9734 57.7513C67.7086 57.8033 67.3794 57.6721 67.2338 57.7953L67.1786 58.0973C67.263 58.1709 67.5782 58.0305 67.829 57.9629C68.0106 57.9157 68.2154 57.8873 68.3626 58.0053C68.6446 58.2317 68.6002 58.6489 68.583 58.9569C68.5586 59.2353 68.5518 59.2869 68.5434 59.3393C68.4214 59.8133 68.2602 60.0785 67.973 60.0997C67.6926 60.1201 67.4158 59.9657 67.127 59.9381C67.0166 59.9273 66.9058 60.1009 66.8954 60.3525C66.8766 60.8101 66.805 61.2933 66.8662 61.6937C66.8662 61.6937 67.0386 61.5317 67.1786 61.3993C67.333 61.2533 67.5066 61.1137 67.7158 61.0589C68.1238 60.9521 68.6014 61.1665 68.7546 61.5501C68.8858 61.8793 68.783 62.2449 68.7226 62.5769L68.7182 63.7749C68.7466 63.9173 68.7586 63.9705 68.7726 64.0229C68.8234 64.1885 68.8346 64.2197 68.8474 64.2501C68.963 64.4969 69.0842 64.6533 69.2638 64.7017L69.8222 64.7805C70.1958 65.0733 70.0858 65.5085 70.2278 65.7861C70.3986 66.1217 70.7562 66.3529 70.8298 66.7181C70.9594 67.3657 70.3986 68.0901 69.691 68.1697C69.5606 68.1849 69.4286 68.1825 69.2978 68.1713C69.421 68.4693 69.7654 68.7389 69.9182 69.1993C69.9838 69.4025 70.0526 69.6125 70.207 69.7561L71.0346 70.2549C71.0742 70.4045 70.1242 70.3165 70.1242 70.3165C69.6746 70.3377 69.3174 70.7737 69.0494 71.0789C68.9074 71.2397 68.7782 71.4193 68.7286 71.6265C68.5902 72.1997 68.8322 72.8149 68.7426 73.3857C68.6842 73.7581 68.4678 74.1225 68.103 74.2821C67.975 74.3385 67.8418 74.3801 67.7102 74.4253C67.4206 74.5333 67.2346 74.6517 67.169 74.8457C67.053 75.1877 67.0862 75.5617 66.9078 75.9229C66.7242 76.2957 66.2474 76.5569 65.823 76.3401C65.5022 76.1757 65.3494 75.7877 65.0606 75.6201C64.875 75.5129 64.5974 76.0273 64.7226 76.2045C64.8738 76.4161 65.3766 76.2161 65.5654 76.5025C65.719 76.7349 65.5242 77.0713 65.6202 77.3653C65.7262 77.6901 66.147 77.8173 66.4006 78.0409C65.839 78.0509 65.3486 77.8577 64.997 78.1005C64.7514 78.271 64.6054 78.5558 64.3762 78.7666C64.1266 78.9958 63.7834 79.175 63.7086 79.4606C63.6734 79.5938 63.6974 79.7349 63.7062 79.8745C63.651 80.5825 63.0822 80.9918 62.6522 80.7793L62.1778 80.3142C61.8654 80.2434 61.5738 81.0158 60.8154 80.9998C60.589 80.9946 60.3498 80.913 60.2102 80.7238L60.0102 80.2022C59.8702 79.8462 59.533 79.6189 59.2138 79.4445L58.4918 78.9718C58.4694 78.9518 58.1442 78.1637 58.1442 78.1637L57.8218 77.4833C57.5422 77.1601 57.003 76.9321 57.0798 76.5569C57.1474 76.2241 57.5322 76.1009 57.7594 75.9365C57.8686 75.8573 57.9746 75.7697 58.0574 75.6625C58.2906 75.3585 58.337 74.9597 58.5394 74.6325C58.6434 74.4641 58.7722 74.3133 58.8918 74.1569C59.0382 73.9641 59.1786 73.7417 59.123 73.5125C59.059 73.2429 58.9086 72.9977 58.8258 72.7257C58.699 72.3101 58.5978 71.8301 58.707 71.4757C58.731 71.3981 58.7918 71.3261 58.8814 71.3413C59.1754 71.3917 59.2058 71.7625 59.4594 72.0041C59.6998 72.2349 60.2102 72.1657 60.3218 71.8081L60.2326 71.1709C60.2346 70.8265 60.473 70.4629 60.8426 70.4609C61.0566 70.4597 61.2618 70.5637 61.4578 70.6649C61.3766 70.5033 61.3002 70.3273 61.3326 70.1517C61.3838 69.8789 61.7038 69.7409 61.839 69.5721C61.5926 69.3741 61.0466 69.5225 60.8354 69.2629L60.6278 68.8453C60.3466 68.8413 60.0062 69.3401 59.8046 69.1529L59.9662 68.5317C59.7582 68.7037 59.5682 68.8965 59.375 69.0853L58.5066 69.8641C57.6758 70.6333 57.6674 70.6393 57.1114 71.6245C57.1114 71.6245 56.7206 72.0361 56.441 72.1441C56.2198 72.2289 55.939 72.1657 55.8002 71.9465C55.6014 71.6333 55.5378 71.2485 55.2614 70.9637C55.0482 70.7437 54.7714 70.5953 54.5066 70.4337C54.2022 70.2389 53.9558 70.0245 53.909 69.7125C53.8698 69.4509 53.9606 69.1725 53.9234 68.9281C53.8918 68.7177 53.4446 68.8685 53.1114 68.9601L51.9478 69.2893C51.5458 69.4801 51.1806 69.7985 50.7374 69.7993C50.3706 69.7993 50.0426 69.5953 49.705 69.4781C48.6066 69.2765 48.6062 69.2793 47.5126 69.1105L46.5798 68.9461L45.6154 68.4169C44.8394 68.1421 43.9426 69.2097 43.5822 68.7733C43.4106 68.5653 43.5706 68.2181 43.431 68.0293L42.9262 67.8229C42.6966 67.6689 42.7706 67.3929 42.7914 67.1889C42.8102 66.9953 42.8122 66.9721 42.8138 66.9485C42.4674 67.1073 42.283 67.3585 42.0978 67.6037C41.9634 67.7705 41.8262 67.9001 41.6426 67.8637C41.6302 67.8613 41.2994 67.6861 41.2994 67.6861C41.391 68.1593 41.769 68.7493 41.4162 68.9721C41.2146 69.0993 40.967 68.9837 40.7598 68.9197C40.6874 68.8977 40.6158 68.8753 40.5438 68.8533C40.1298 68.7321 39.6402 68.7201 39.4146 68.3241C39.2238 67.9905 39.2766 67.5265 39.1142 67.2013C39.1142 67.2013 38.8986 67.4497 38.7474 67.6269C38.6878 67.6961 38.6254 67.7637 38.5574 67.8245C38.4998 67.8765 38.0214 68.0553 38.0214 68.0553C37.4214 67.9777 37.1292 67.4001 36.6602 67.1293C36.547 67.0637 36.4265 67.0101 36.3013 66.9729C35.7701 66.8153 35.1958 67.0517 34.6944 67.2721L33.5419 67.7677C33.1736 67.9189 32.7848 68.0525 32.5258 68.3573C32.2184 68.7189 32.1602 69.2389 32.0588 69.7153C31.8456 70.6377 31.0891 71.3525 30.1519 71.2665C29.4352 71.2001 28.7072 70.7981 28.4609 70.1173C28.3417 69.7881 28.3722 69.4113 28.2304 69.0965C28.0959 68.7985 27.5448 68.9973 27.1044 68.9741C27.0156 68.9693 26.9269 68.9569 26.8401 68.9357C26.7182 68.9065 26.5996 68.8601 26.4903 68.7977C26.4022 68.7469 26.3195 68.6853 26.2479 68.6129C25.8929 68.0865 25.9405 67.6393 26.0367 67.2645L26.3558 66.2177C26.434 65.7729 26.4235 65.2065 26.0359 65.1389C25.6981 65.0793 25.3266 65.1953 25.0351 64.9965C24.6767 64.7513 24.5742 64.1345 24.8828 63.8341C25.1073 63.6149 25.5306 63.6709 25.6876 63.4901C25.8346 63.3205 25.6869 63.0921 25.5902 62.9277C25.4451 62.6821 25.2166 62.4661 24.9251 62.4661C24.6681 62.4661 24.4171 62.5489 24.1569 62.5629C23.623 62.5913 22.8791 62.4445 23.0195 61.8977C23.1116 61.5409 23.4203 61.2713 23.562 60.9121C23.6945 60.5757 23.6759 60.1885 23.8933 59.8929L24.588 59.2009L24.91 58.6053L25.6386 57.6877C25.6551 57.6713 26.542 56.9817 26.542 56.9817C26.8394 56.8189 27.1719 56.7081 27.5051 56.7293C27.876 56.7533 28.2635 56.9473 28.5742 56.8453C28.9603 56.7181 29.0709 56.1441 29.2239 55.7529C29.3862 55.3505 29.6856 55.0081 30.1526 54.8853C30.3718 54.8277 30.6083 54.8085 30.8023 54.7289C30.8023 54.7289 30.3605 54.4497 30.2752 54.1345C30.1486 53.6693 30.6487 53.1189 31.1422 53.1665C31.5581 53.2065 31.8727 53.6817 31.7303 54.0957C31.635 54.3741 31.3482 54.6077 31.3091 54.8409C31.2806 55.0141 32.0092 54.9225 32.3443 54.6609C32.6338 54.4357 32.806 53.9881 33.1392 53.9997C33.4326 54.0113 33.5638 54.3477 33.6393 54.5781C33.7115 54.7993 33.736 55.0537 33.6008 55.2333C33.3823 55.5233 32.8795 55.5173 32.7 55.7897C32.4927 56.1053 32.6861 56.6945 33.061 56.7057C33.4028 56.7149 33.7439 56.5201 34.0982 56.6141C34.4427 56.7065 34.6818 57.0141 34.9084 57.3109C35.019 57.4533 35.0216 57.4513 35.0733 57.4897C35.3137 57.6681 35.6879 56.7213 36.1774 56.9029C36.4457 57.0029 36.6318 57.2737 36.908 57.3693C37.0856 57.4309 37.2962 57.4177 37.4485 57.3005C37.7552 57.0653 37.8546 56.5785 38.213 56.4565C38.533 56.3481 38.8594 56.5645 39.2222 56.5513C39.5994 56.5365 40.0398 56.3281 40.051 56.0149C40.0598 55.7649 39.739 55.5609 39.8186 55.3013C39.8866 55.0801 40.235 55.0721 40.3986 54.8881L40.3718 54.5133C40.3166 54.1841 40.3198 53.9569 40.2134 53.8317C40.0542 53.6449 39.6882 53.7501 39.4078 53.7937C39.3014 53.8105 39.1946 53.8277 39.0874 53.8417C38.8886 53.8633 38.8442 53.8669 38.7998 53.8689C38.4786 53.8689 38.2394 53.8265 38.1042 53.6421C37.905 53.3705 37.9458 52.9805 37.7678 52.6797C37.5956 52.3905 37.2319 52.2049 37.2286 51.8477C37.2246 51.5105 37.5022 51.2565 37.7029 51.0133C37.7029 51.0133 37.0398 51.3605 36.9286 51.1073C36.8504 50.9289 37.069 50.7429 37.1498 50.4297C37.2094 50.1985 36.8888 50.0925 36.7066 50.0309C36.614 49.9993 36.5205 49.9693 36.4284 49.9357C35.9952 49.7761 35.484 49.4797 35.6204 49.0585C35.7701 48.5981 36.3794 48.3265 36.5583 47.7645C36.6093 47.5545 36.5272 47.3881 36.3218 47.3345C36.088 47.2721 35.8688 47.2829 35.5999 47.2397C35.5032 47.2245 35.3932 47.2029 35.3899 47.0829L35.9344 46.5561C36.1536 46.2793 36.2032 45.8265 36.0098 45.5149C35.9681 45.4473 35.9032 45.3805 35.8198 45.3745C35.5124 45.3505 35.221 45.6685 34.9785 45.8329C34.5567 46.1129 34.0625 46.2377 33.5671 46.3549C33.3677 46.4037 33.1232 46.4861 33.1524 46.6581C33.2054 46.9749 33.483 47.2325 33.6015 47.5477C33.6373 47.6433 33.6532 47.7657 33.5731 47.8445L32.8789 47.9589C32.5119 48.0477 32.2947 48.4697 31.931 48.5513C31.6211 48.6201 31.2561 48.4585 31.1209 48.1725L30.9222 47.6417C30.601 47.8245 30.3837 48.2977 29.9327 48.1909C29.3935 48.0645 29.3378 47.3241 29.1034 47.0125L28.6748 47.4417C28.5158 47.5645 28.0886 47.4913 27.8224 47.3357L27.2097 46.9921C26.5778 46.8085 25.832 47.3761 25.0656 47.2417C25.0299 47.2353 24.2059 46.7793 24.2059 46.7793L23.4905 45.8865L22.9368 44.7845C22.1916 43.9485 22.1837 43.9517 21.2948 43.2709C20.9815 43.0425 20.6702 42.8057 20.3045 42.6813L19.3209 42.4469C18.9473 42.3045 18.6353 42.0241 18.2558 41.9229C17.8934 41.8269 17.4848 41.9245 17.1689 41.7085C16.786 41.4469 16.7409 40.9122 16.6019 40.5539C16.4906 40.2677 16.3396 39.9888 16.0965 39.8008L15.0016 39.251C14.3186 38.5628 14.3201 38.5615 13.6968 37.8613L13.396 36.7194C13.2708 36.3822 13.0165 36.116 12.7814 35.8504C12.729 35.7921 12.0819 34.9575 12.0819 34.9575L11.4447 33.9527L10.7598 32.9916L10.1193 31.9815L9.69671 30.7369L9.15095 29.7188C9.00455 29.2704 9.00919 28.8525 9.09199 28.455L9.50991 27.1953L9.83447 25.9493L10.2763 24.9333C10.5485 24.1119 10.4419 23.272 10.0008 22.6024L9.25491 21.7121C8.48195 20.8511 8.47799 20.8492 7.55595 20.1497C7.54203 20.137 6.75383 19.2528 6.75383 19.2528L6.13119 18.2275C6.01067 18.0189 5.98482 17.9757 5.95834 17.9327C5.76294 17.6393 5.61058 17.4592 5.40658 17.3584C5.01974 17.1664 4.53954 17.2326 4.1527 17.008C3.60294 16.6888 3.49234 15.9707 3.31218 15.4667C3.14922 15.0203 2.84254 14.6639 2.50542 14.2924C2.39546 14.1691 2.29214 14.0367 2.2259 13.8844C2.06694 13.5187 2.12786 13.1008 2.09078 12.7218L1.82186 11.5289C1.74634 11.0779 1.77747 10.6149 1.8669 10.1632L2.23582 8.94574L2.7399 7.89589L3.4791 6.96925L3.97586 6.10153L4.47794 5.32129L5.11714 4.31447L5.78014 3.82897L7.04791 3.50705L7.94079 2.95398L8.91511 2.436L9.64639 2.00679L10.4458 1.82928L11.5381 1.41L12.8184 1.20202L14.1757 1.26892L15.3785 1.01854C15.7613 0.972178 16.1561 1.01258 16.5198 1.14174C16.725 1.21527 16.9178 1.31793 17.1145 1.41265C17.5537 1.61335 17.9736 1.6054 18.4095 1.6107C18.683 1.616 18.9586 1.68422 19.1745 1.84783Z" stroke="#002133" stroke-opacity="0.3" stroke-width="2" mask="url(#path-1-outside-1_291_3442)"/>
<path d="M26.48 35.64C27.504 35.64 28.3733 35.8587 29.088 36.296C29.8133 36.7227 30.368 37.3467 30.752 38.168C31.136 38.9893 31.328 40.0027 31.328 41.208C31.328 42.488 31.0933 43.5707 30.624 44.456C30.1653 45.3413 29.5253 46.0133 28.704 46.472C27.8827 46.9307 26.928 47.16 25.84 47.16C25.2747 47.16 24.736 47.1013 24.224 46.984C23.712 46.8667 23.2693 46.6853 22.896 46.44L23.664 44.872C23.9733 45.0747 24.3093 45.2187 24.672 45.304C25.0347 45.3787 25.408 45.416 25.792 45.416C26.848 45.416 27.6853 45.0907 28.304 44.44C28.9227 43.7893 29.232 42.8293 29.232 41.56C29.232 41.3573 29.2267 41.1227 29.216 40.856C29.2053 40.5787 29.168 40.3013 29.104 40.024L29.744 40.728C29.5627 41.1653 29.3013 41.5333 28.96 41.832C28.6187 42.12 28.2187 42.3387 27.76 42.488C27.3013 42.6373 26.7947 42.712 26.24 42.712C25.5147 42.712 24.8587 42.5733 24.272 42.296C23.696 42.008 23.2373 41.608 22.896 41.096C22.5547 40.5733 22.384 39.9653 22.384 39.272C22.384 38.5253 22.5653 37.8853 22.928 37.352C23.2907 36.808 23.7813 36.3867 24.4 36.088C25.0293 35.7893 25.7227 35.64 26.48 35.64ZM26.592 37.272C26.1653 37.272 25.7867 37.352 25.456 37.512C25.1253 37.6613 24.864 37.88 24.672 38.168C24.4907 38.4453 24.4 38.7813 24.4 39.176C24.4 39.7627 24.6027 40.2267 25.008 40.568C25.4133 40.9093 25.9573 41.08 26.64 41.08C27.088 41.08 27.4827 41 27.824 40.84C28.1653 40.6693 28.432 40.44 28.624 40.152C28.816 39.8533 28.912 39.5227 28.912 39.16C28.912 38.808 28.8213 38.4933 28.64 38.216C28.4587 37.928 28.1973 37.6987 27.856 37.528C27.5147 37.3573 27.0933 37.272 26.592 37.272ZM34.5291 47L39.1531 36.632L39.6971 37.56H33.3451L34.3371 36.552V39.464H32.4011V35.8H41.1051V37.192L36.7531 47H34.5291ZM42.2475 47V45.608L46.6955 41.384C47.0688 41.032 47.3462 40.7227 47.5275 40.456C47.7088 40.1893 47.8262 39.944 47.8795 39.72C47.9435 39.4853 47.9755 39.2667 47.9755 39.064C47.9755 38.552 47.7995 38.1573 47.4475 37.88C47.0955 37.592 46.5782 37.448 45.8955 37.448C45.3515 37.448 44.8555 37.544 44.4075 37.736C43.9702 37.928 43.5915 38.2213 43.2715 38.616L41.8155 37.496C42.2528 36.9093 42.8395 36.456 43.5755 36.136C44.3222 35.8053 45.1542 35.64 46.0715 35.64C46.8822 35.64 47.5862 35.7733 48.1835 36.04C48.7915 36.296 49.2555 36.664 49.5755 37.144C49.9062 37.624 50.0715 38.1947 50.0715 38.856C50.0715 39.2187 50.0235 39.5813 49.9275 39.944C49.8315 40.296 49.6502 40.6693 49.3835 41.064C49.1168 41.4587 48.7275 41.9013 48.2155 42.392L44.3915 46.024L43.9595 45.24H50.5035V47H42.2475Z" fill="#00D1FF"/>
</svg>
