<svg width="93" height="85" viewBox="0 0 93 85" fill="none" xmlns="http://www.w3.org/2000/svg">
<mask id="path-1-outside-1_291_3439" maskUnits="userSpaceOnUse" x="0.0429688" y="0" width="93" height="85" fill="black">
<rect fill="white" x="0.0429688" width="93" height="85"/>
<path fill-rule="evenodd" clip-rule="evenodd" d="M22.2598 80.722L22.9214 80.9424L23.4811 80.7337L24.1703 80.1204L24.275 80.0845L24.9985 80.1365L25.8895 80.0203L25.9656 80.032L26.8005 80.4048C27.3555 80.0441 27.3583 80.0481 27.8818 79.6416C27.8818 79.6416 28.1627 79.5828 28.3683 79.5981C28.5349 79.6111 28.7805 79.621 28.7805 79.621L28.6396 78.7743C28.6396 78.7743 28.6434 78.6895 28.6796 78.6209C28.8681 78.27 29.4116 78.2727 29.4915 77.8913C29.562 77.5602 29.4516 77.1914 29.6362 76.9082L29.6991 76.8472L30.4777 76.4466L31.0165 75.8319L31.8276 75.2252L32.57 74.6455L33.1507 73.9106L33.1878 73.877L34.0056 73.3735L34.6252 72.7539L34.6547 72.731L35.5172 72.2361L35.8913 71.4096L35.9094 71.38L36.5053 70.6316L36.6271 69.5198C36.6347 69.4861 36.6347 69.4861 36.6499 69.4565L37.2125 68.5996L37.6057 67.992L37.3011 67.2427L37.025 66.257L37.0202 66.213L37.0593 65.0648L37.0602 64.0266L37.1754 62.8264L36.947 61.8249C36.6547 61.0119 36.69 60.9859 36.1835 60.2873L35.6609 59.3621L35.6466 59.3231C35.5562 58.9237 35.601 58.4782 35.8504 58.1587C35.8504 58.1587 35.8551 58.1484 35.8951 58.1103L36.6852 57.5001C36.8623 57.2618 36.9403 56.8795 36.7233 56.7499C36.5491 56.644 36.3339 56.6247 36.1255 56.5798C36.0712 56.5686 36.1159 56.6094 35.9084 56.5197L35.1031 56.0288C35.1031 56.0288 34.4482 55.4931 34.6357 54.939C34.7261 54.6729 34.9841 54.4414 34.9946 54.2287C35.0013 54.0973 34.2987 54.0439 34.0255 53.6558C33.8228 53.3677 33.838 52.989 33.7485 52.6763C33.7133 52.5506 33.6685 52.4286 33.6276 52.3048C33.6162 52.2666 33.6162 52.2666 33.6048 52.2285C33.541 52.0118 33.4896 51.7695 33.6067 51.5591C33.6162 51.5398 33.6305 51.5245 33.6438 51.5084L34.3635 50.8618C34.4196 50.6429 34.2216 50.3862 34.0036 50.1812L33.2982 49.6338C33.2707 49.6051 33.2707 49.605 33.2516 49.5692L32.8965 48.5762C32.8965 48.5762 32.7547 47.8844 33.1098 47.4487C33.3068 47.2073 33.641 46.9946 33.6752 46.8362L33.2164 46.1726C33.1555 46.0439 33.1745 46.0286 33.1745 45.9716C33.1774 45.68 33.3935 45.4251 33.402 45.1514L33.0593 44.403C32.9575 44.0733 33.3211 43.6928 33.4829 43.3161L33.779 42.3445L33.858 42.2548L34.5691 41.9402C34.6071 41.9288 34.6071 41.9288 34.6471 41.9288L35.5019 42.0537L36.352 42.353L36.8689 42.2873L36.9146 42.2892L37.699 42.4427C37.699 42.4427 37.7485 42.4389 37.8037 42.5285L38.0816 43.1978C38.1245 43.4105 38.0141 43.6546 38.115 43.835C38.2197 44.0217 38.4738 44.0876 38.7175 44.1284L38.7423 44.1311L38.5614 43.8758C38.4843 43.564 38.927 43.4545 39.1278 43.3485C39.3715 43.2141 39.6161 42.9957 39.6733 42.7879L38.8889 42.6429C38.8889 42.6429 38.8194 42.6201 38.7613 42.5657C38.5119 42.3312 38.5681 41.945 38.5595 41.6427C38.5567 41.5617 38.5557 41.5578 38.5557 41.5578L38.3615 40.6597L38.3587 40.6225L38.3977 39.8397C38.4224 39.7205 38.4558 39.7281 38.4891 39.7119C38.749 39.588 39.0317 39.978 39.2401 40.2487C39.3058 40.3346 39.3962 40.4604 39.3962 40.4604C39.8722 41.268 39.8722 41.268 40.3405 42.0794L40.866 42.456C40.9013 42.4923 40.9013 42.4923 40.9212 42.538L41.1554 43.4783L41.4353 44.2276L41.4324 44.5098C41.4648 44.7274 41.7341 44.7902 41.9436 44.8961L42.7975 45.23L43.736 44.9666C44.0302 44.8988 43.9017 44.8979 44.2396 44.9486C44.4443 44.9791 44.6594 45.0846 44.7337 45.2955C44.8746 45.6979 44.5642 46.2422 44.9459 46.3404C45.2201 46.4109 45.5152 46.3615 45.8122 46.3454L45.875 46.3422L47.0857 46.4243L48.1949 46.6617L49.1295 46.9471L50.0161 47.3491C50.231 47.4635 50.4549 47.6151 50.6689 47.5784L51.4397 46.965L51.5568 46.9363C52.15 47.0547 52.7508 47.2369 53.1981 46.86L53.8675 46.1148L53.9348 46.0717L55.0601 45.7522L56.0454 45.6342L56.0939 45.6369L56.6355 45.7581L57.1676 45.5835L58.0232 45.426L58.9314 45.1218C59.039 45.0276 59.1274 44.9123 59.2239 44.8046C59.2454 44.7795 59.2454 44.7795 59.2683 44.7557C59.4141 44.6054 59.6825 44.4937 59.7062 44.4919C59.7197 44.4905 59.7323 44.4905 59.7444 44.4905L60.5148 44.5776L61.0173 43.9319C61.3044 43.6887 61.7177 43.774 62.051 43.8005L62.9525 43.669L63.713 43.071L64.4174 42.4341L64.469 42.4046L65.5333 42.0527L65.5683 42.0461L66.7191 41.9688L67.6551 41.5827L68.5116 41.2661L68.5489 41.2575L69.5104 41.1793C69.5104 41.1793 69.8083 41.2671 69.9869 41.3185C70.0946 41.3471 70.2615 41.33 70.2615 41.33L70.6936 40.9743C70.6936 40.9743 70.777 40.9266 70.8712 40.9266C71.2387 40.9266 71.4738 41.3252 71.8121 41.3948C72.1253 41.4587 72.4165 41.2728 72.7041 41.144C72.7041 41.144 72.7315 41.1278 72.7983 41.1049L73.8909 40.8237L75.0036 40.7655L75.8938 40.5958L76.5879 40.0752C76.6193 40.0571 76.6202 40.0571 76.6552 40.0475L77.732 39.9084L78.6828 39.8788C79.5882 39.5251 79.5882 39.5231 80.465 39.1036L80.5507 39.0912L81.4902 39.2504L82.5648 39.3038L83.6757 39.5251L84.7265 39.6413L85.5319 39.6623L85.5642 39.6662L86.4629 39.9036L87.5317 40.0752C88.4668 40.0886 88.4677 40.0895 89.3987 39.997L89.4803 40.0142L90.3885 40.5109L91.2463 40.8246C91.4245 40.8961 91.6003 40.9991 91.7794 41.0087L91.7385 40.714L91.4034 40.5767L90.5258 40.1047L89.6863 39.5708L88.8172 39.5336L88.3218 39.505L87.2167 39.5718C87.1768 39.5689 87.1768 39.5689 87.1396 39.5546L86.2498 39.0664L85.4987 38.44L84.4793 38.1472L83.4119 37.7916L83.3702 37.7687L82.5639 37.149L81.8119 36.4729L81.7765 36.4243L81.3453 35.4403L80.8867 34.5202L80.1554 33.8595L80.1145 33.7956L79.8498 32.9308L79.096 32.3281L78.7371 31.8762L78.0044 31.3136C77.2941 30.958 77.2932 30.9609 76.5735 30.6262L75.7197 30.0608L74.8237 29.8004C74.5774 29.668 74.4585 29.2646 74.2525 29.1731L73.4171 29.4791C73.4171 29.4791 73.1846 29.4534 73.0559 29.2961C72.902 29.1082 72.8248 28.8479 72.6458 28.723C72.5507 28.6573 72.4259 28.6887 72.325 28.7154C72.1392 28.7659 72.0993 28.7869 71.9898 28.8212C71.831 28.8689 71.6672 28.9023 71.5016 28.8851C71.1952 28.8537 70.9255 28.6849 70.6505 28.5638C70.5747 28.5314 70.5733 28.5323 70.5733 28.5323C69.4615 28.4179 69.4579 28.4198 68.3461 28.5428L67.853 28.5266L67.7996 28.5142L67.0637 28.1824L66.113 28.2196C65.7747 28.192 65.4817 27.8306 65.1286 27.8459L64.4327 28.0356C64.4327 28.0356 64.3734 28.047 64.2936 28.0203C64.0006 27.924 63.8539 27.6065 63.6627 27.412L62.786 26.8742L62.7488 26.8409L62.1233 26.0562L61.418 25.3229L60.8181 24.482L60.3097 23.5847L59.7578 22.8877L59.735 22.8467L59.4245 21.9819L59.0296 21.1209C59.0202 21.0885 59.0202 21.0885 59.0171 21.0551L59.0583 20.0635L59.1351 19.131C59.1086 18.9832 59.0601 18.8402 59.0193 18.6953C59.0094 18.66 59.0094 18.6609 59 18.6257C58.9421 18.3987 58.978 18.0707 58.9866 18.0526C58.9933 18.0393 59.0009 18.0259 59.0085 18.0126L59.5362 17.3232L59.6273 16.5118L59.638 16.4718L60.01 15.5945C60.1092 15.2465 60.0127 14.8747 59.9099 14.5181L59.6941 13.7877C59.4267 13.002 59.4846 12.961 58.9565 12.3222L58.9345 12.286L58.6563 11.6157L58.6469 11.5804L58.5087 10.5363L58.3956 9.74113C57.9223 9.09086 57.9137 9.08512 57.2322 8.65985L56.4708 8.11067L55.8368 7.41938L55.0848 6.81963L54.528 6.25232L53.8577 6.10551C53.6342 6.01967 53.6531 5.71457 53.6674 5.50575C53.6818 5.31408 53.7504 5.11006 53.6777 4.93844C53.641 4.84879 53.4153 4.906 53.2183 4.92224C52.8602 4.94988 52.9895 4.93651 52.902 4.91843L52.1338 4.68861C51.9862 4.69243 51.8417 4.73725 51.695 4.76682C51.4464 4.81447 51.3504 4.85835 51.206 4.67242L51.1799 4.61804L51.061 4.12511L50.4701 3.77519C50.2624 3.60639 50.4194 3.22883 50.5177 3L50.2489 3.16781L50.1946 3.18782L49.501 3.29748L49.0527 3.88767L48.6269 4.82403L48.5996 4.86405L47.9063 5.58966L47.8731 5.61541L46.9668 6.1274L46.1511 6.60036L45.2629 6.97218L44.8917 7.94192L44.8593 7.9915L44.272 8.58739L44.1987 8.62652L43.262 8.81339L42.6661 9.56377L42.6366 9.59141L41.8084 10.1778L41.1335 10.7041L40.7527 11.692L40.3453 12.7389C40.3272 12.7684 40.3091 12.798 40.291 12.8275C40.2416 12.9038 40.1911 12.9801 40.1426 13.0573C40.0417 13.2204 39.9722 13.4721 39.9722 13.4721L40.53 14.0347L40.5595 14.0766L40.9526 14.951L40.965 15.0101V16.0188L41.2325 16.9742L41.7056 17.9325L42.0511 18.9718L42.6375 19.644C42.7822 19.7126 42.9431 19.7403 43.0992 19.7803C43.2734 19.8251 43.2963 19.8356 43.3839 19.8728C43.7427 20.0263 43.9493 20.463 44.2149 20.6556C44.2368 20.6718 44.2767 20.6861 44.2767 20.6861L44.7994 20.3133C44.7994 20.3133 44.8965 20.2666 44.9983 20.2752C45.381 20.3086 45.5742 20.7081 45.7808 20.9874L46.3348 21.8608C46.3529 21.9028 46.3529 21.9037 46.3557 21.9495L46.2777 22.8963L46.27 22.9335L46.0073 23.6496C46.0445 23.8622 46.191 24.727 46.232 24.8566C46.2939 25.054 46.4566 25.3 46.4566 25.3C46.4509 25.3897 46.4204 25.4106 46.3957 25.4354L45.9017 25.7787C45.7475 25.8445 45.7351 25.8216 45.6637 25.8273C45.3562 25.8493 45.023 25.7253 44.8051 25.8817L44.6661 26.1953L44.7775 26.5739C44.7775 26.5739 44.8365 26.6387 44.7089 26.7398L44.1997 27.0201C44.1616 27.0344 44.1616 27.0344 44.1216 27.0373L42.8679 26.9543L42.2863 26.9667L41.5657 27.4721C41.2401 28.171 41.243 28.1729 40.9698 28.8937L41.1068 29.79L41.1059 29.8424L40.9174 30.7034L40.6033 31.573C40.4843 31.9353 40.3901 32.3329 40.0711 32.5331C40.0464 32.5484 40.0198 32.5618 39.9921 32.5722L39.4953 32.7019L39.105 33.0261C39.0869 33.3712 39.5648 33.685 39.4191 34.1226C39.2487 34.6327 38.5386 34.5812 38.0845 34.689C38.0607 34.6947 38.0293 34.7099 38.0293 34.7099L38.1673 35.3059C38.1673 35.3059 38.1844 35.467 38.034 35.4927C37.7513 35.5404 37.541 35.0828 37.2049 35.0704L36.9184 35.2201L36.8651 35.2363L36.0246 35.3126C35.898 35.3821 35.7999 35.4918 35.6914 35.59C35.4867 35.7693 35.3915 35.8694 35.205 35.6997L34.8099 35.2382C34.6557 35.2935 34.51 35.5805 34.51 35.5805L34.2702 36.4424L34.2559 36.4758L33.8228 37.2271L33.7866 37.2691L32.986 37.8879C32.986 37.8879 32.3654 38.1844 31.9484 37.9527C31.6429 37.784 31.4753 37.4102 31.4849 37.0469C31.4849 37.0469 31.482 37.0422 31.4925 36.9859L31.6886 36.3023L31.6505 35.9294C31.6257 35.9914 31.601 36.0534 31.5772 36.1154C31.5448 36.2002 31.5115 36.2841 31.4782 36.3681C31.4563 36.4243 31.4658 36.4357 31.3944 36.5597L30.7833 37.3683C30.7833 37.3683 30.1798 37.9909 29.7762 37.7735C29.443 37.5942 29.4725 37.129 29.5315 36.8334L29.7095 36.1154C29.6067 36.1526 29.5068 36.1974 29.4049 36.2384C29.3602 36.2555 29.3611 36.2556 29.3164 36.2727C28.9033 36.4272 28.4445 36.5244 28.0304 36.3738C27.9094 36.3299 27.7848 36.2498 27.7476 36.1173L27.7609 36.0077L28.2131 35.2258C28.3692 34.8749 28.3302 34.3267 28.7795 34.32L28.8452 34.3324L29.1098 34.4506C29.2136 34.5145 29.1946 34.423 29.2203 34.6318C29.2545 34.9207 28.9727 35.1257 28.8071 35.3488C28.8071 35.3488 29.4735 35.3164 29.6638 34.9197C29.7686 34.7023 29.759 34.4449 29.818 34.2056L29.8495 34.135L30.4796 33.3455C30.6215 33.2149 31.0832 33.0919 31.2326 32.8116C31.2326 32.8116 30.8509 32.5742 30.4111 32.5208L29.2917 32.7181C28.9156 32.864 28.5263 33.0242 28.1131 32.9813L28.0475 32.9641L27.1964 32.536L26.3854 32.0364C26.2264 32.0087 26.0637 32.0107 25.9028 32.002C25.8238 31.9973 25.8733 32.0116 25.6991 31.9801C25.5449 31.9515 25.3859 31.7818 25.3859 31.7818C25.3735 31.7427 25.3735 31.7427 25.3726 31.7008L25.4735 30.9523C25.4497 30.7387 25.2479 30.6043 25.0813 30.4984L24.176 30.1952L23.0813 30.3592L22.3341 30.3964C22.296 30.3935 22.296 30.3935 22.2608 30.3802L21.622 30.0474L21.1042 29.6927C20.9785 29.5888 20.8805 29.4477 20.771 29.3199C20.6215 29.1464 20.6282 29.0691 20.474 29.0691L20.0228 29.5192C20.0228 29.5192 19.9466 29.5716 19.8629 29.5678C19.5954 29.5574 19.4383 29.2703 19.2375 29.0177L19.2299 29.0081C18.9881 28.8193 18.7749 28.5857 18.5045 28.4418C18.2208 28.2911 17.901 28.2215 17.5907 28.1366C16.8472 27.9345 16.4769 27.9393 15.682 27.8649C15.682 27.8649 14.9005 27.6589 14.8253 27.1193L14.7911 26.6712L14.197 26.2201L14.1552 26.1706L13.7478 25.3563C13.5555 25.1246 13.2233 25.0912 12.9491 25.0665L11.9486 24.8671C11.9486 24.8671 11.6497 24.6393 11.4793 24.502C11.4184 24.4543 11.3118 24.4019 11.3118 24.4019L10.8663 24.7842C10.833 24.8328 10.8016 24.8815 10.7692 24.931C10.7397 24.9768 10.7102 25.0216 10.6807 25.0665C10.5474 25.2628 10.3846 25.5184 10.1333 25.4974L9.27469 25.322C8.95487 25.2705 8.63976 25.3839 8.35705 25.526L7.47368 25.9217C7.04909 26.058 6.94917 25.8874 6.67691 26.0972L6.48748 26.9648C6.45797 27.0716 6.43798 27.0993 6.40085 27.1612C6.1029 27.6589 5.43656 27.7457 5.0358 28.0699C4.98059 28.1147 4.92348 28.2024 4.92348 28.2024L5.15289 29.133C5.19001 29.5402 4.98249 29.954 4.64742 30.1924C4.64742 30.1924 4.64075 30.2 4.5903 30.2267L3.58031 30.6176C3.29284 30.7988 2.84925 31.1506 3.28142 31.3461C3.55937 31.471 3.96775 31.4843 4.01629 31.7933C4.0658 32.1041 3.74024 32.2881 3.52701 32.4788L3.49179 32.5103L2.94824 33.2263L2.91017 34.3229V35.2592C2.91397 35.2877 2.91873 35.3164 2.92254 35.3459C2.98918 35.7578 3.07675 36.1488 2.77594 36.409C2.56557 36.5921 2.26572 36.6427 2.04297 36.799L2.41802 37.4054C2.58652 37.6953 2.58176 38.0509 2.55701 38.3914L2.59508 39.4268C2.81307 40.0313 3.00726 40.6549 3.3509 41.205C3.77451 41.883 4.1191 42.1071 4.7112 42.6248L4.73404 42.6496L5.32423 43.4792L5.34993 43.5469L5.46607 44.5978L5.81447 45.5709L5.81638 45.6607L5.53651 46.5827L5.17573 47.4787L5.40419 48.2998L5.6336 49.1277L5.63837 49.1618L5.66502 50.1847L5.94488 50.7725L6.55981 51.2966C6.62644 51.3675 6.62168 51.3769 6.64075 51.4074C6.80541 51.6838 6.82731 52.0212 6.81111 52.338C6.78065 52.8136 6.68261 53.3323 6.77212 53.7136C6.79397 53.8043 6.80254 53.8254 6.83875 54.0026C6.92629 54.4625 6.64263 54.8551 6.31518 55.2365C6.26949 55.2899 6.22094 55.3805 6.22094 55.3805C6.4475 55.6044 6.66453 55.7951 7.00153 56.0127C7.16427 56.1195 7.32328 56.2464 7.40988 56.4228C7.57836 56.7629 7.46605 57.1685 7.33374 57.5001L7.00342 58.2381C7.00342 59.2028 7.00055 59.2059 7.15951 60.1585L7.15857 60.2096L6.96532 61.1775L7.00153 61.6562L7.16239 62.1834L7.67833 62.8053L7.70973 62.9215L7.63453 63.3545L7.71543 64.1334L7.79068 65.3951L7.78686 65.4368L7.5203 66.5428L7.82585 67.52C7.96391 67.7901 8.07527 68.0768 8.24093 68.3317C8.57883 68.8531 9.11954 69.391 9.53932 69.8411L10.0943 70.598L10.6055 71.5057L10.6217 71.5523L10.8206 72.7225V73.7895L11.3756 74.5742L12.1171 75.232L12.139 75.2576L12.7159 76.0827L13.4155 76.7835C14.1323 77.483 14.1371 77.4821 14.9834 78.0169L15.6973 78.6209L15.742 78.6882L16.0523 79.721L16.2485 80.7041L16.2513 80.7364C16.2332 81.3134 16.1114 81.9339 16.2818 82.4383C16.3094 82.5195 16.3808 82.6186 16.3808 82.6186C17.188 82.8676 17.1918 82.8587 18.0238 83L18.9709 82.655L19.0071 82.6473L19.8553 82.5688L20.7767 82.2346C21.1965 81.5719 21.5411 80.6933 22.2189 80.7144C22.2322 80.7176 22.2455 80.7203 22.2598 80.722Z"/>
</mask>
<path fill-rule="evenodd" clip-rule="evenodd" d="M22.2598 80.722L22.9214 80.9424L23.4811 80.7337L24.1703 80.1204L24.275 80.0845L24.9985 80.1365L25.8895 80.0203L25.9656 80.032L26.8005 80.4048C27.3555 80.0441 27.3583 80.0481 27.8818 79.6416C27.8818 79.6416 28.1627 79.5828 28.3683 79.5981C28.5349 79.6111 28.7805 79.621 28.7805 79.621L28.6396 78.7743C28.6396 78.7743 28.6434 78.6895 28.6796 78.6209C28.8681 78.27 29.4116 78.2727 29.4915 77.8913C29.562 77.5602 29.4516 77.1914 29.6362 76.9082L29.6991 76.8472L30.4777 76.4466L31.0165 75.8319L31.8276 75.2252L32.57 74.6455L33.1507 73.9106L33.1878 73.877L34.0056 73.3735L34.6252 72.7539L34.6547 72.731L35.5172 72.2361L35.8913 71.4096L35.9094 71.38L36.5053 70.6316L36.6271 69.5198C36.6347 69.4861 36.6347 69.4861 36.6499 69.4565L37.2125 68.5996L37.6057 67.992L37.3011 67.2427L37.025 66.257L37.0202 66.213L37.0593 65.0648L37.0602 64.0266L37.1754 62.8264L36.947 61.8249C36.6547 61.0119 36.69 60.9859 36.1835 60.2873L35.6609 59.3621L35.6466 59.3231C35.5562 58.9237 35.601 58.4782 35.8504 58.1587C35.8504 58.1587 35.8551 58.1484 35.8951 58.1103L36.6852 57.5001C36.8623 57.2618 36.9403 56.8795 36.7233 56.7499C36.5491 56.644 36.3339 56.6247 36.1255 56.5798C36.0712 56.5686 36.1159 56.6094 35.9084 56.5197L35.1031 56.0288C35.1031 56.0288 34.4482 55.4931 34.6357 54.939C34.7261 54.6729 34.9841 54.4414 34.9946 54.2287C35.0013 54.0973 34.2987 54.0439 34.0255 53.6558C33.8228 53.3677 33.838 52.989 33.7485 52.6763C33.7133 52.5506 33.6685 52.4286 33.6276 52.3048C33.6162 52.2666 33.6162 52.2666 33.6048 52.2285C33.541 52.0118 33.4896 51.7695 33.6067 51.5591C33.6162 51.5398 33.6305 51.5245 33.6438 51.5084L34.3635 50.8618C34.4196 50.6429 34.2216 50.3862 34.0036 50.1812L33.2982 49.6338C33.2707 49.6051 33.2707 49.605 33.2516 49.5692L32.8965 48.5762C32.8965 48.5762 32.7547 47.8844 33.1098 47.4487C33.3068 47.2073 33.641 46.9946 33.6752 46.8362L33.2164 46.1726C33.1555 46.0439 33.1745 46.0286 33.1745 45.9716C33.1774 45.68 33.3935 45.4251 33.402 45.1514L33.0593 44.403C32.9575 44.0733 33.3211 43.6928 33.4829 43.3161L33.779 42.3445L33.858 42.2548L34.5691 41.9402C34.6071 41.9288 34.6071 41.9288 34.6471 41.9288L35.5019 42.0537L36.352 42.353L36.8689 42.2873L36.9146 42.2892L37.699 42.4427C37.699 42.4427 37.7485 42.4389 37.8037 42.5285L38.0816 43.1978C38.1245 43.4105 38.0141 43.6546 38.115 43.835C38.2197 44.0217 38.4738 44.0876 38.7175 44.1284L38.7423 44.1311L38.5614 43.8758C38.4843 43.564 38.927 43.4545 39.1278 43.3485C39.3715 43.2141 39.6161 42.9957 39.6733 42.7879L38.8889 42.6429C38.8889 42.6429 38.8194 42.6201 38.7613 42.5657C38.5119 42.3312 38.5681 41.945 38.5595 41.6427C38.5567 41.5617 38.5557 41.5578 38.5557 41.5578L38.3615 40.6597L38.3587 40.6225L38.3977 39.8397C38.4224 39.7205 38.4558 39.7281 38.4891 39.7119C38.749 39.588 39.0317 39.978 39.2401 40.2487C39.3058 40.3346 39.3962 40.4604 39.3962 40.4604C39.8722 41.268 39.8722 41.268 40.3405 42.0794L40.866 42.456C40.9013 42.4923 40.9013 42.4923 40.9212 42.538L41.1554 43.4783L41.4353 44.2276L41.4324 44.5098C41.4648 44.7274 41.7341 44.7902 41.9436 44.8961L42.7975 45.23L43.736 44.9666C44.0302 44.8988 43.9017 44.8979 44.2396 44.9486C44.4443 44.9791 44.6594 45.0846 44.7337 45.2955C44.8746 45.6979 44.5642 46.2422 44.9459 46.3404C45.2201 46.4109 45.5152 46.3615 45.8122 46.3454L45.875 46.3422L47.0857 46.4243L48.1949 46.6617L49.1295 46.9471L50.0161 47.3491C50.231 47.4635 50.4549 47.6151 50.6689 47.5784L51.4397 46.965L51.5568 46.9363C52.15 47.0547 52.7508 47.2369 53.1981 46.86L53.8675 46.1148L53.9348 46.0717L55.0601 45.7522L56.0454 45.6342L56.0939 45.6369L56.6355 45.7581L57.1676 45.5835L58.0232 45.426L58.9314 45.1218C59.039 45.0276 59.1274 44.9123 59.2239 44.8046C59.2454 44.7795 59.2454 44.7795 59.2683 44.7557C59.4141 44.6054 59.6825 44.4937 59.7062 44.4919C59.7197 44.4905 59.7323 44.4905 59.7444 44.4905L60.5148 44.5776L61.0173 43.9319C61.3044 43.6887 61.7177 43.774 62.051 43.8005L62.9525 43.669L63.713 43.071L64.4174 42.4341L64.469 42.4046L65.5333 42.0527L65.5683 42.0461L66.7191 41.9688L67.6551 41.5827L68.5116 41.2661L68.5489 41.2575L69.5104 41.1793C69.5104 41.1793 69.8083 41.2671 69.9869 41.3185C70.0946 41.3471 70.2615 41.33 70.2615 41.33L70.6936 40.9743C70.6936 40.9743 70.777 40.9266 70.8712 40.9266C71.2387 40.9266 71.4738 41.3252 71.8121 41.3948C72.1253 41.4587 72.4165 41.2728 72.7041 41.144C72.7041 41.144 72.7315 41.1278 72.7983 41.1049L73.8909 40.8237L75.0036 40.7655L75.8938 40.5958L76.5879 40.0752C76.6193 40.0571 76.6202 40.0571 76.6552 40.0475L77.732 39.9084L78.6828 39.8788C79.5882 39.5251 79.5882 39.5231 80.465 39.1036L80.5507 39.0912L81.4902 39.2504L82.5648 39.3038L83.6757 39.5251L84.7265 39.6413L85.5319 39.6623L85.5642 39.6662L86.4629 39.9036L87.5317 40.0752C88.4668 40.0886 88.4677 40.0895 89.3987 39.997L89.4803 40.0142L90.3885 40.5109L91.2463 40.8246C91.4245 40.8961 91.6003 40.9991 91.7794 41.0087L91.7385 40.714L91.4034 40.5767L90.5258 40.1047L89.6863 39.5708L88.8172 39.5336L88.3218 39.505L87.2167 39.5718C87.1768 39.5689 87.1768 39.5689 87.1396 39.5546L86.2498 39.0664L85.4987 38.44L84.4793 38.1472L83.4119 37.7916L83.3702 37.7687L82.5639 37.149L81.8119 36.4729L81.7765 36.4243L81.3453 35.4403L80.8867 34.5202L80.1554 33.8595L80.1145 33.7956L79.8498 32.9308L79.096 32.3281L78.7371 31.8762L78.0044 31.3136C77.2941 30.958 77.2932 30.9609 76.5735 30.6262L75.7197 30.0608L74.8237 29.8004C74.5774 29.668 74.4585 29.2646 74.2525 29.1731L73.4171 29.4791C73.4171 29.4791 73.1846 29.4534 73.0559 29.2961C72.902 29.1082 72.8248 28.8479 72.6458 28.723C72.5507 28.6573 72.4259 28.6887 72.325 28.7154C72.1392 28.7659 72.0993 28.7869 71.9898 28.8212C71.831 28.8689 71.6672 28.9023 71.5016 28.8851C71.1952 28.8537 70.9255 28.6849 70.6505 28.5638C70.5747 28.5314 70.5733 28.5323 70.5733 28.5323C69.4615 28.4179 69.4579 28.4198 68.3461 28.5428L67.853 28.5266L67.7996 28.5142L67.0637 28.1824L66.113 28.2196C65.7747 28.192 65.4817 27.8306 65.1286 27.8459L64.4327 28.0356C64.4327 28.0356 64.3734 28.047 64.2936 28.0203C64.0006 27.924 63.8539 27.6065 63.6627 27.412L62.786 26.8742L62.7488 26.8409L62.1233 26.0562L61.418 25.3229L60.8181 24.482L60.3097 23.5847L59.7578 22.8877L59.735 22.8467L59.4245 21.9819L59.0296 21.1209C59.0202 21.0885 59.0202 21.0885 59.0171 21.0551L59.0583 20.0635L59.1351 19.131C59.1086 18.9832 59.0601 18.8402 59.0193 18.6953C59.0094 18.66 59.0094 18.6609 59 18.6257C58.9421 18.3987 58.978 18.0707 58.9866 18.0526C58.9933 18.0393 59.0009 18.0259 59.0085 18.0126L59.5362 17.3232L59.6273 16.5118L59.638 16.4718L60.01 15.5945C60.1092 15.2465 60.0127 14.8747 59.9099 14.5181L59.6941 13.7877C59.4267 13.002 59.4846 12.961 58.9565 12.3222L58.9345 12.286L58.6563 11.6157L58.6469 11.5804L58.5087 10.5363L58.3956 9.74113C57.9223 9.09086 57.9137 9.08512 57.2322 8.65985L56.4708 8.11067L55.8368 7.41938L55.0848 6.81963L54.528 6.25232L53.8577 6.10551C53.6342 6.01967 53.6531 5.71457 53.6674 5.50575C53.6818 5.31408 53.7504 5.11006 53.6777 4.93844C53.641 4.84879 53.4153 4.906 53.2183 4.92224C52.8602 4.94988 52.9895 4.93651 52.902 4.91843L52.1338 4.68861C51.9862 4.69243 51.8417 4.73725 51.695 4.76682C51.4464 4.81447 51.3504 4.85835 51.206 4.67242L51.1799 4.61804L51.061 4.12511L50.4701 3.77519C50.2624 3.60639 50.4194 3.22883 50.5177 3L50.2489 3.16781L50.1946 3.18782L49.501 3.29748L49.0527 3.88767L48.6269 4.82403L48.5996 4.86405L47.9063 5.58966L47.8731 5.61541L46.9668 6.1274L46.1511 6.60036L45.2629 6.97218L44.8917 7.94192L44.8593 7.9915L44.272 8.58739L44.1987 8.62652L43.262 8.81339L42.6661 9.56377L42.6366 9.59141L41.8084 10.1778L41.1335 10.7041L40.7527 11.692L40.3453 12.7389C40.3272 12.7684 40.3091 12.798 40.291 12.8275C40.2416 12.9038 40.1911 12.9801 40.1426 13.0573C40.0417 13.2204 39.9722 13.4721 39.9722 13.4721L40.53 14.0347L40.5595 14.0766L40.9526 14.951L40.965 15.0101V16.0188L41.2325 16.9742L41.7056 17.9325L42.0511 18.9718L42.6375 19.644C42.7822 19.7126 42.9431 19.7403 43.0992 19.7803C43.2734 19.8251 43.2963 19.8356 43.3839 19.8728C43.7427 20.0263 43.9493 20.463 44.2149 20.6556C44.2368 20.6718 44.2767 20.6861 44.2767 20.6861L44.7994 20.3133C44.7994 20.3133 44.8965 20.2666 44.9983 20.2752C45.381 20.3086 45.5742 20.7081 45.7808 20.9874L46.3348 21.8608C46.3529 21.9028 46.3529 21.9037 46.3557 21.9495L46.2777 22.8963L46.27 22.9335L46.0073 23.6496C46.0445 23.8622 46.191 24.727 46.232 24.8566C46.2939 25.054 46.4566 25.3 46.4566 25.3C46.4509 25.3897 46.4204 25.4106 46.3957 25.4354L45.9017 25.7787C45.7475 25.8445 45.7351 25.8216 45.6637 25.8273C45.3562 25.8493 45.023 25.7253 44.8051 25.8817L44.6661 26.1953L44.7775 26.5739C44.7775 26.5739 44.8365 26.6387 44.7089 26.7398L44.1997 27.0201C44.1616 27.0344 44.1616 27.0344 44.1216 27.0373L42.8679 26.9543L42.2863 26.9667L41.5657 27.4721C41.2401 28.171 41.243 28.1729 40.9698 28.8937L41.1068 29.79L41.1059 29.8424L40.9174 30.7034L40.6033 31.573C40.4843 31.9353 40.3901 32.3329 40.0711 32.5331C40.0464 32.5484 40.0198 32.5618 39.9921 32.5722L39.4953 32.7019L39.105 33.0261C39.0869 33.3712 39.5648 33.685 39.4191 34.1226C39.2487 34.6327 38.5386 34.5812 38.0845 34.689C38.0607 34.6947 38.0293 34.7099 38.0293 34.7099L38.1673 35.3059C38.1673 35.3059 38.1844 35.467 38.034 35.4927C37.7513 35.5404 37.541 35.0828 37.2049 35.0704L36.9184 35.2201L36.8651 35.2363L36.0246 35.3126C35.898 35.3821 35.7999 35.4918 35.6914 35.59C35.4867 35.7693 35.3915 35.8694 35.205 35.6997L34.8099 35.2382C34.6557 35.2935 34.51 35.5805 34.51 35.5805L34.2702 36.4424L34.2559 36.4758L33.8228 37.2271L33.7866 37.2691L32.986 37.8879C32.986 37.8879 32.3654 38.1844 31.9484 37.9527C31.6429 37.784 31.4753 37.4102 31.4849 37.0469C31.4849 37.0469 31.482 37.0422 31.4925 36.9859L31.6886 36.3023L31.6505 35.9294C31.6257 35.9914 31.601 36.0534 31.5772 36.1154C31.5448 36.2002 31.5115 36.2841 31.4782 36.3681C31.4563 36.4243 31.4658 36.4357 31.3944 36.5597L30.7833 37.3683C30.7833 37.3683 30.1798 37.9909 29.7762 37.7735C29.443 37.5942 29.4725 37.129 29.5315 36.8334L29.7095 36.1154C29.6067 36.1526 29.5068 36.1974 29.4049 36.2384C29.3602 36.2555 29.3611 36.2556 29.3164 36.2727C28.9033 36.4272 28.4445 36.5244 28.0304 36.3738C27.9094 36.3299 27.7848 36.2498 27.7476 36.1173L27.7609 36.0077L28.2131 35.2258C28.3692 34.8749 28.3302 34.3267 28.7795 34.32L28.8452 34.3324L29.1098 34.4506C29.2136 34.5145 29.1946 34.423 29.2203 34.6318C29.2545 34.9207 28.9727 35.1257 28.8071 35.3488C28.8071 35.3488 29.4735 35.3164 29.6638 34.9197C29.7686 34.7023 29.759 34.4449 29.818 34.2056L29.8495 34.135L30.4796 33.3455C30.6215 33.2149 31.0832 33.0919 31.2326 32.8116C31.2326 32.8116 30.8509 32.5742 30.4111 32.5208L29.2917 32.7181C28.9156 32.864 28.5263 33.0242 28.1131 32.9813L28.0475 32.9641L27.1964 32.536L26.3854 32.0364C26.2264 32.0087 26.0637 32.0107 25.9028 32.002C25.8238 31.9973 25.8733 32.0116 25.6991 31.9801C25.5449 31.9515 25.3859 31.7818 25.3859 31.7818C25.3735 31.7427 25.3735 31.7427 25.3726 31.7008L25.4735 30.9523C25.4497 30.7387 25.2479 30.6043 25.0813 30.4984L24.176 30.1952L23.0813 30.3592L22.3341 30.3964C22.296 30.3935 22.296 30.3935 22.2608 30.3802L21.622 30.0474L21.1042 29.6927C20.9785 29.5888 20.8805 29.4477 20.771 29.3199C20.6215 29.1464 20.6282 29.0691 20.474 29.0691L20.0228 29.5192C20.0228 29.5192 19.9466 29.5716 19.8629 29.5678C19.5954 29.5574 19.4383 29.2703 19.2375 29.0177L19.2299 29.0081C18.9881 28.8193 18.7749 28.5857 18.5045 28.4418C18.2208 28.2911 17.901 28.2215 17.5907 28.1366C16.8472 27.9345 16.4769 27.9393 15.682 27.8649C15.682 27.8649 14.9005 27.6589 14.8253 27.1193L14.7911 26.6712L14.197 26.2201L14.1552 26.1706L13.7478 25.3563C13.5555 25.1246 13.2233 25.0912 12.9491 25.0665L11.9486 24.8671C11.9486 24.8671 11.6497 24.6393 11.4793 24.502C11.4184 24.4543 11.3118 24.4019 11.3118 24.4019L10.8663 24.7842C10.833 24.8328 10.8016 24.8815 10.7692 24.931C10.7397 24.9768 10.7102 25.0216 10.6807 25.0665C10.5474 25.2628 10.3846 25.5184 10.1333 25.4974L9.27469 25.322C8.95487 25.2705 8.63976 25.3839 8.35705 25.526L7.47368 25.9217C7.04909 26.058 6.94917 25.8874 6.67691 26.0972L6.48748 26.9648C6.45797 27.0716 6.43798 27.0993 6.40085 27.1612C6.1029 27.6589 5.43656 27.7457 5.0358 28.0699C4.98059 28.1147 4.92348 28.2024 4.92348 28.2024L5.15289 29.133C5.19001 29.5402 4.98249 29.954 4.64742 30.1924C4.64742 30.1924 4.64075 30.2 4.5903 30.2267L3.58031 30.6176C3.29284 30.7988 2.84925 31.1506 3.28142 31.3461C3.55937 31.471 3.96775 31.4843 4.01629 31.7933C4.0658 32.1041 3.74024 32.2881 3.52701 32.4788L3.49179 32.5103L2.94824 33.2263L2.91017 34.3229V35.2592C2.91397 35.2877 2.91873 35.3164 2.92254 35.3459C2.98918 35.7578 3.07675 36.1488 2.77594 36.409C2.56557 36.5921 2.26572 36.6427 2.04297 36.799L2.41802 37.4054C2.58652 37.6953 2.58176 38.0509 2.55701 38.3914L2.59508 39.4268C2.81307 40.0313 3.00726 40.6549 3.3509 41.205C3.77451 41.883 4.1191 42.1071 4.7112 42.6248L4.73404 42.6496L5.32423 43.4792L5.34993 43.5469L5.46607 44.5978L5.81447 45.5709L5.81638 45.6607L5.53651 46.5827L5.17573 47.4787L5.40419 48.2998L5.6336 49.1277L5.63837 49.1618L5.66502 50.1847L5.94488 50.7725L6.55981 51.2966C6.62644 51.3675 6.62168 51.3769 6.64075 51.4074C6.80541 51.6838 6.82731 52.0212 6.81111 52.338C6.78065 52.8136 6.68261 53.3323 6.77212 53.7136C6.79397 53.8043 6.80254 53.8254 6.83875 54.0026C6.92629 54.4625 6.64263 54.8551 6.31518 55.2365C6.26949 55.2899 6.22094 55.3805 6.22094 55.3805C6.4475 55.6044 6.66453 55.7951 7.00153 56.0127C7.16427 56.1195 7.32328 56.2464 7.40988 56.4228C7.57836 56.7629 7.46605 57.1685 7.33374 57.5001L7.00342 58.2381C7.00342 59.2028 7.00055 59.2059 7.15951 60.1585L7.15857 60.2096L6.96532 61.1775L7.00153 61.6562L7.16239 62.1834L7.67833 62.8053L7.70973 62.9215L7.63453 63.3545L7.71543 64.1334L7.79068 65.3951L7.78686 65.4368L7.5203 66.5428L7.82585 67.52C7.96391 67.7901 8.07527 68.0768 8.24093 68.3317C8.57883 68.8531 9.11954 69.391 9.53932 69.8411L10.0943 70.598L10.6055 71.5057L10.6217 71.5523L10.8206 72.7225V73.7895L11.3756 74.5742L12.1171 75.232L12.139 75.2576L12.7159 76.0827L13.4155 76.7835C14.1323 77.483 14.1371 77.4821 14.9834 78.0169L15.6973 78.6209L15.742 78.6882L16.0523 79.721L16.2485 80.7041L16.2513 80.7364C16.2332 81.3134 16.1114 81.9339 16.2818 82.4383C16.3094 82.5195 16.3808 82.6186 16.3808 82.6186C17.188 82.8676 17.1918 82.8587 18.0238 83L18.9709 82.655L19.0071 82.6473L19.8553 82.5688L20.7767 82.2346C21.1965 81.5719 21.5411 80.6933 22.2189 80.7144C22.2322 80.7176 22.2455 80.7203 22.2598 80.722Z" stroke="#002133" stroke-opacity="0.3" stroke-width="2" mask="url(#path-1-outside-1_291_3439)"/>
<path d="M38.48 37.64C39.504 37.64 40.3733 37.8587 41.088 38.296C41.8133 38.7227 42.368 39.3467 42.752 40.168C43.136 40.9893 43.328 42.0027 43.328 43.208C43.328 44.488 43.0933 45.5707 42.624 46.456C42.1653 47.3413 41.5253 48.0133 40.704 48.472C39.8827 48.9307 38.928 49.16 37.84 49.16C37.2747 49.16 36.736 49.1013 36.224 48.984C35.712 48.8667 35.2693 48.6853 34.896 48.44L35.664 46.872C35.9733 47.0747 36.3093 47.2187 36.672 47.304C37.0347 47.3787 37.408 47.416 37.792 47.416C38.848 47.416 39.6853 47.0907 40.304 46.44C40.9227 45.7893 41.232 44.8293 41.232 43.56C41.232 43.3573 41.2267 43.1227 41.216 42.856C41.2053 42.5787 41.168 42.3013 41.104 42.024L41.744 42.728C41.5627 43.1653 41.3013 43.5333 40.96 43.832C40.6187 44.12 40.2187 44.3387 39.76 44.488C39.3013 44.6373 38.7947 44.712 38.24 44.712C37.5147 44.712 36.8587 44.5733 36.272 44.296C35.696 44.008 35.2373 43.608 34.896 43.096C34.5547 42.5733 34.384 41.9653 34.384 41.272C34.384 40.5253 34.5653 39.8853 34.928 39.352C35.2907 38.808 35.7813 38.3867 36.4 38.088C37.0293 37.7893 37.7227 37.64 38.48 37.64ZM38.592 39.272C38.1653 39.272 37.7867 39.352 37.456 39.512C37.1253 39.6613 36.864 39.88 36.672 40.168C36.4907 40.4453 36.4 40.7813 36.4 41.176C36.4 41.7627 36.6027 42.2267 37.008 42.568C37.4133 42.9093 37.9573 43.08 38.64 43.08C39.088 43.08 39.4827 43 39.824 42.84C40.1653 42.6693 40.432 42.44 40.624 42.152C40.816 41.8533 40.912 41.5227 40.912 41.16C40.912 40.808 40.8213 40.4933 40.64 40.216C40.4587 39.928 40.1973 39.6987 39.856 39.528C39.5147 39.3573 39.0933 39.272 38.592 39.272ZM46.5291 49L51.1531 38.632L51.6971 39.56H45.3451L46.3371 38.552V41.464H44.4011V37.8H53.1051V39.192L48.7531 49H46.5291ZM56.3398 49V38.6L57.2518 39.544H53.9718V37.8H58.4198V49H56.3398Z" fill="#00D1FF"/>
</svg>
