<svg width="73" height="82" viewBox="0 0 73 82" fill="none" xmlns="http://www.w3.org/2000/svg">
<mask id="path-1-outside-1_260_5080" maskUnits="userSpaceOnUse" x="0.842773" y="0" width="72" height="82" fill="black">
<rect fill="white" x="0.842773" width="72" height="82"/>
<path fill-rule="evenodd" clip-rule="evenodd" d="M19.2379 1.84783C19.3559 1.93857 19.4625 2.04322 19.5718 2.14324C19.6837 2.24525 19.801 2.34924 19.944 2.40554C20.3263 2.55789 20.778 2.36248 21.1893 2.45521C21.5304 2.53271 21.8205 2.746 22.114 2.91688C22.1451 2.93477 23.2705 3.50043 23.2705 3.50043C23.2963 3.51897 24.1276 4.35355 24.1276 4.35355C24.3707 4.67811 24.5999 5.04509 24.9581 5.16429C25.3741 5.30205 25.8583 5.16561 26.2584 5.38753C26.6638 5.61273 26.8327 6.09889 27.1679 6.38701C27.5692 6.73145 28.1343 6.80165 28.6555 6.89305C28.8668 6.93149 29.0701 6.98181 29.2569 7.10633C29.2695 7.11429 29.9849 7.91577 29.9849 7.91577C30.5326 8.43969 31.397 8.56089 32.0772 8.26681C32.3324 8.15685 32.6052 8.00649 32.8423 8.11181C33.2278 8.28337 33.2656 8.97553 33.773 9.00601C34.2028 9.03117 34.7652 8.65561 34.9552 8.97686C34.9619 9.23122 34.9566 9.24978 34.9507 9.26766C34.8798 9.45842 34.8652 9.49286 34.8512 9.5273C34.7659 9.72866 34.7526 9.76242 34.7393 9.79686C34.6711 9.97506 34.583 10.1797 34.8652 10.2095C35.2798 10.2533 35.7349 10.1413 36.0641 10.4235C36.4694 10.7712 36.4608 11.3773 36.541 11.8509C36.6145 12.2788 36.8702 12.6795 37.2821 12.8417C37.4265 12.898 37.5935 12.9239 37.7418 12.8656C38.1684 12.6973 38.3036 11.9801 38.7248 12.0529L39.1772 12.4801C39.3493 12.7126 39.3912 13.1133 39.2772 13.4876C39.1784 13.8109 38.9904 14.1705 39.1977 14.391C39.4349 14.6441 39.8136 14.7606 40.0024 15.07C40.2528 15.4813 40.1105 16.0761 40.4701 16.3463C40.7337 16.545 41.0741 16.6425 41.2881 16.8948C41.5113 17.1584 41.5493 17.5757 41.8373 17.736C42.1697 17.9208 42.6169 17.5658 42.9269 17.575C43.0453 17.7168 42.5845 18.3706 42.5845 18.3706C42.5601 18.6514 42.7833 18.7911 42.9357 18.9084C43.0049 18.9608 43.0753 19.0117 43.1453 19.0634C43.2053 19.1084 43.8893 19.7602 43.8893 19.7602C44.1925 20.0185 44.5641 20.1894 44.7961 20.5014C45.0001 20.7756 45.0629 21.1227 45.1493 21.4466L45.5937 22.5978L45.9133 23.3794C45.9789 23.59 45.9593 23.5601 46.0513 23.8092C46.1837 24.1682 46.5509 24.4213 46.9453 24.2967C47.2421 24.2034 47.2741 23.8066 47.2933 23.4303C47.3025 23.2714 47.3237 23.1098 47.3905 22.9628C47.5457 22.6242 47.8693 22.405 48.0709 22.0884C48.1577 21.9526 48.2285 21.8069 48.3045 21.6658C48.4589 21.3836 48.6893 21.1174 49.0069 21.0379C49.3033 20.9637 49.6193 20.9782 49.9077 20.8829L50.7409 20.3523C50.8117 20.3106 50.8845 20.2728 50.9601 20.2397C51.3265 20.106 51.6077 20.0689 51.8489 20.186C52.1657 20.3391 52.3425 20.7624 52.5941 20.8531C52.8889 20.959 53.2081 20.6855 53.5061 20.4146L53.9465 19.8768C53.9889 19.8046 54.0293 19.7304 54.0717 19.6582C54.1893 19.4674 54.2925 19.3111 54.4665 19.2859C54.7997 19.2369 55.0137 19.6323 55.2529 19.6549C55.4385 19.6721 55.5537 19.4814 55.6557 19.3641C55.7801 19.2223 55.7985 19.2018 55.8173 19.1819C56.0661 18.9177 56.4277 18.8143 56.7797 18.7116C57.1205 18.6083 57.2865 18.2712 57.4929 17.8983C57.5725 17.7585 57.6693 17.6188 57.8157 17.5651C58.2717 17.3988 58.6965 17.9884 59.2953 17.9155C59.4277 17.8996 59.5561 17.8618 59.6861 17.8307C59.9053 17.7837 60.0829 17.7585 60.2161 17.8446C60.4861 18.0182 60.4509 18.397 60.4489 18.6639L60.4625 19.4654C60.5333 19.8258 60.7597 20.1993 60.6069 20.5252C60.4913 20.7702 60.2045 20.8723 60.0133 21.034L59.5005 21.4943C59.1613 21.4042 59.1725 21.1571 59.1517 20.977C59.1277 20.7789 59.1157 20.5782 59.0985 20.3782C59.0509 19.9483 59.0245 19.6595 58.8401 19.5317C58.4329 19.2475 57.6677 19.7629 57.3733 19.9709C56.9949 20.2384 56.8545 20.8882 57.3593 21.2313C57.4253 21.277 57.4961 21.3168 57.5677 21.3538C57.7249 21.4334 57.7717 21.4572 57.8193 21.481C57.9697 21.5592 58.1465 21.6486 58.1601 21.8202C58.1785 22.0658 57.9269 22.2149 57.7605 22.3421C57.5129 22.5229 57.3921 22.609 57.3921 22.609L56.9393 23.0634C56.7933 23.2965 56.6101 23.5483 57.0313 23.5966C57.1385 23.6092 57.2465 23.6151 57.3545 23.6284C57.5149 23.6502 57.6889 23.6873 57.8097 23.8053C58.1429 24.1312 57.9653 24.7717 57.6141 24.9253C57.4313 25.0055 57.2233 24.9743 57.0325 24.9796L56.1933 25.0684C56.1709 25.0684 55.1529 24.7001 55.1529 24.7001C54.9937 24.6769 54.8309 24.6902 54.6693 24.6928C54.4553 24.6902 54.2969 24.675 54.1837 24.5815C53.8897 24.3372 54.0089 23.8529 53.8785 23.429C53.7485 23.0058 53.1093 23.0004 52.6757 22.8647L51.4885 22.4076C51.0633 22.2673 50.5501 22.1467 50.2621 22.4282C50.0017 22.6832 49.9481 23.1117 49.6737 23.3912C49.4821 23.586 49.2029 23.69 49.0377 23.8768C48.8485 24.0921 49.2301 24.4338 49.5501 24.7127L50.1813 25.3095C50.3433 25.528 50.0553 25.5016 49.9273 25.4824C49.5837 25.4254 49.2093 25.3187 48.9641 25.4923C48.6485 25.7162 48.6373 26.2189 48.8497 26.5037C49.0585 26.7826 49.4921 26.7925 49.8009 27.0376C50.0921 27.2694 50.2733 27.6828 50.4825 27.8576C50.4825 27.8576 50.6065 27.5277 50.7005 27.3238C50.7997 27.1098 50.9529 26.9031 51.1793 26.8137C51.5841 26.6541 52.2449 26.7402 52.1641 27.1422C52.0509 27.706 50.9601 27.8927 50.8825 28.4868C50.8353 28.8499 51.1389 29.2579 51.4973 29.3327C51.9505 29.4274 52.3829 29.0565 52.6313 28.6034C52.6721 28.5272 52.7121 28.4511 52.7529 28.3749C52.9161 28.106 53.0221 27.9748 53.1745 27.9411C53.5689 27.853 53.8817 28.2603 53.9845 28.5517C54.1585 29.0459 53.9097 29.6321 54.1521 30.0739C54.3621 30.4574 54.8681 30.6111 55.3349 30.3507C55.5657 30.2196 55.8061 30.0308 56.0133 30.1242C56.3045 30.2561 56.3529 30.7607 56.1497 31.0019C55.9437 31.2456 55.5449 31.2323 55.3037 31.4477C55.0449 31.6781 55.0417 32.1385 54.7237 32.2782L54.0229 32.2253C53.6413 32.1974 53.2877 32.4419 52.8973 32.4729C52.5261 32.5027 52.1237 32.4167 51.8385 32.634C51.5489 32.8545 51.3785 33.2513 51.6953 33.5759C51.9369 33.8235 52.3629 34.0083 52.2637 34.2282C52.1145 34.5601 51.3569 34.3693 50.9561 34.109C50.7269 33.9607 50.5521 33.7109 50.3381 33.5877C50.3381 33.5877 50.2561 33.8997 50.2009 34.1143C50.1189 34.4249 49.9501 34.7197 49.6849 34.9085C49.5109 35.0323 49.2709 35.1291 49.2261 35.2754C49.1473 35.5331 49.4789 35.8259 49.8069 36.1121L50.6297 36.8446C50.8753 37.2208 50.9785 37.5586 51.2389 37.754C51.5621 37.9964 52.0669 37.9865 52.3941 37.7586C52.8433 37.4466 53.0201 36.8426 53.4061 36.471C53.5697 36.3133 53.7929 36.1822 54.0321 36.2352C54.2853 36.2915 54.5005 36.5313 54.7349 36.5432C54.9609 36.5545 55.0993 36.3154 55.2361 36.1955C55.3449 36.102 55.4669 36.0159 55.6093 35.9875C55.8469 35.9398 56.0941 36.0378 56.2749 36.1875L56.8413 36.8433C57.1625 36.975 57.4321 36.9247 57.5849 36.7333C57.7929 36.4737 57.8889 36.1106 58.1737 36.01C58.6237 35.8504 59.2093 36.3876 59.1793 36.8796C59.1613 37.1711 58.9589 37.4129 58.7733 37.6149L58.2025 38.3024L57.9189 38.8284C57.9189 38.8284 57.7433 38.982 57.5677 39.0211C57.1937 39.104 56.8193 38.9257 56.4569 38.7681C56.1517 38.6396 55.7561 38.7694 55.5785 39.0271C55.4713 39.182 55.8629 39.2649 56.1025 39.3715C56.4781 39.5404 56.7245 39.9776 57.0345 40.0968C57.3505 40.2193 57.6997 40.0591 58.0441 39.9948C58.1545 40.1246 58.0533 40.2041 57.9513 40.2472C57.6977 40.3571 57.4021 40.4578 57.2649 40.677C57.1485 40.8645 57.6665 41.0429 57.6541 41.3849C57.6441 41.6561 57.3877 41.8297 57.2049 41.9825L56.6345 42.5661C56.4385 42.8821 56.2717 43.3213 56.4609 43.5689C56.6181 43.7741 56.9193 43.7537 57.1313 43.7293C57.5749 43.6797 58.0281 43.3013 58.3493 43.6161L58.6369 44.0817C58.8017 44.1597 59.0437 43.9345 59.2185 43.8465C59.5441 43.6869 59.9233 43.7645 60.2609 43.8533L60.9769 44.0569C61.0121 44.3041 60.8969 44.3393 60.8089 44.3749C60.3405 44.5625 59.7385 44.7061 59.9701 45.1929C60.1773 45.6289 60.7749 45.7541 61.1941 46.0297C61.2817 46.0877 61.3605 46.1745 61.3649 46.2853L60.9557 47.0329C60.8001 47.4477 61.1029 47.8869 61.4189 48.1149C61.9465 48.4969 62.6189 48.8817 63.0761 48.6425C63.4061 48.4705 63.6025 48.0381 63.9253 47.9141C64.3641 47.9545 64.3425 48.4385 64.5645 48.8069C64.7465 49.1089 65.1269 49.3757 64.9209 49.6797L64.3577 50.0449C64.6485 50.1693 64.9897 50.2417 65.1233 50.5193L65.1505 50.7833C64.8537 51.1829 64.4565 51.0225 64.0769 51.1013C63.7509 51.1697 63.8153 51.8421 64.1145 52.0697C64.2801 52.1961 64.5145 51.9425 64.6981 51.8121C64.8049 51.7385 64.9325 51.6669 65.0657 51.6941C65.3017 51.7413 65.4181 52.0241 65.3869 52.2333C65.3685 52.3597 65.2997 52.4717 65.2209 52.5697C65.2209 52.5697 65.8593 52.2413 65.9797 52.4917C66.0925 52.7269 65.6441 53.0453 65.5633 53.3953C65.5361 53.5137 65.7161 53.4589 65.8657 53.4321C66.6509 53.2913 67.1417 52.3597 67.7841 52.1113C67.8657 52.0801 67.9833 52.0685 68.0305 52.1705L67.7345 52.9353L67.3093 53.9721L66.6985 54.6809C66.5361 54.8873 66.3645 55.1537 66.4169 55.3313C66.5129 55.6537 67.1217 55.6305 67.5305 55.9725C67.9425 56.3169 68.2185 56.8745 68.2589 57.3997C68.2697 57.5453 68.2053 57.7185 68.0369 57.7513C67.7721 57.8033 67.4429 57.6721 67.2973 57.7953L67.2421 58.0973C67.3265 58.1709 67.6417 58.0305 67.8925 57.9629C68.0741 57.9157 68.2789 57.8873 68.4261 58.0053C68.7081 58.2317 68.6637 58.6489 68.6465 58.9569C68.6221 59.2353 68.6153 59.2869 68.6069 59.3393C68.4849 59.8133 68.3237 60.0785 68.0365 60.0997C67.7561 60.1201 67.4793 59.9657 67.1905 59.9381C67.0801 59.9273 66.9693 60.1009 66.9589 60.3525C66.9401 60.8101 66.8685 61.2933 66.9297 61.6937C66.9297 61.6937 67.1021 61.5317 67.2421 61.3993C67.3965 61.2533 67.5701 61.1137 67.7793 61.0589C68.1873 60.9521 68.6649 61.1665 68.8181 61.5501C68.9493 61.8793 68.8465 62.2449 68.7861 62.5769L68.7817 63.7749C68.8101 63.9173 68.8221 63.9705 68.8361 64.0229C68.8869 64.1885 68.8981 64.2197 68.9109 64.2501C69.0265 64.4969 69.1477 64.6533 69.3273 64.7017L69.8857 64.7805C70.2593 65.0733 70.1493 65.5085 70.2913 65.7861C70.4621 66.1217 70.8197 66.3529 70.8933 66.7181C71.0229 67.3657 70.4621 68.0901 69.7545 68.1697C69.6241 68.1849 69.4921 68.1825 69.3613 68.1713C69.4845 68.4693 69.8289 68.7389 69.9817 69.1993C70.0473 69.4025 70.1161 69.6125 70.2705 69.7561L71.0981 70.2549C71.1377 70.4045 70.1877 70.3165 70.1877 70.3165C69.7381 70.3377 69.3809 70.7737 69.1129 71.0789C68.9709 71.2397 68.8417 71.4193 68.7921 71.6265C68.6537 72.1997 68.8957 72.8149 68.8061 73.3857C68.7477 73.7581 68.5313 74.1225 68.1665 74.2821C68.0385 74.3385 67.9053 74.3801 67.7737 74.4253C67.4841 74.5333 67.2981 74.6517 67.2325 74.8457C67.1165 75.1877 67.1497 75.5617 66.9713 75.9229C66.7877 76.2957 66.3109 76.5569 65.8865 76.3401C65.5657 76.1757 65.4129 75.7877 65.1241 75.6201C64.9385 75.5129 64.6609 76.0273 64.7861 76.2045C64.9373 76.4161 65.4401 76.2161 65.6289 76.5025C65.7825 76.7349 65.5877 77.0713 65.6837 77.3653C65.7897 77.6901 66.2105 77.8174 66.4641 78.0409C65.9025 78.0509 65.4121 77.8577 65.0605 78.1005C64.8149 78.271 64.6689 78.5557 64.4397 78.7665C64.1901 78.9958 63.8469 79.1749 63.7721 79.4606C63.7369 79.5938 63.7609 79.7349 63.7697 79.8745C63.7145 80.5826 63.1457 80.9918 62.7157 80.7794L62.2413 80.3142C61.9289 80.2434 61.6373 81.0158 60.8789 80.9998C60.6525 80.9946 60.4133 80.913 60.2737 80.7238L60.0737 80.2022C59.9337 79.8462 59.5965 79.6189 59.2773 79.4445L58.5553 78.9717C58.5329 78.9518 58.2077 78.1637 58.2077 78.1637L57.8853 77.4833C57.6057 77.1601 57.0665 76.9321 57.1433 76.5569C57.2109 76.2241 57.5957 76.1009 57.8229 75.9365C57.9321 75.8573 58.0381 75.7697 58.1209 75.6625C58.3541 75.3585 58.4005 74.9597 58.6029 74.6325C58.7069 74.4641 58.8357 74.3133 58.9553 74.1569C59.1017 73.9641 59.2421 73.7417 59.1865 73.5125C59.1225 73.2429 58.9721 72.9977 58.8893 72.7257C58.7625 72.3101 58.6613 71.8301 58.7705 71.4757C58.7945 71.3981 58.8553 71.3261 58.9449 71.3413C59.2389 71.3917 59.2693 71.7625 59.5229 72.0041C59.7633 72.2349 60.2737 72.1657 60.3853 71.8081L60.2961 71.1709C60.2981 70.8265 60.5365 70.4629 60.9061 70.4609C61.1201 70.4597 61.3253 70.5637 61.5213 70.6649C61.4401 70.5033 61.3637 70.3273 61.3961 70.1517C61.4473 69.8789 61.7673 69.7409 61.9025 69.5721C61.6561 69.3741 61.1101 69.5225 60.8989 69.2629L60.6913 68.8453C60.4101 68.8413 60.0697 69.3401 59.8681 69.1529L60.0297 68.5317C59.8217 68.7037 59.6317 68.8965 59.4385 69.0853L58.5701 69.8641C57.7393 70.6333 57.7309 70.6393 57.1749 71.6245C57.1749 71.6245 56.7841 72.0361 56.5045 72.1441C56.2833 72.2289 56.0025 72.1657 55.8637 71.9465C55.6649 71.6333 55.6013 71.2485 55.3249 70.9637C55.1117 70.7437 54.8349 70.5953 54.5701 70.4337C54.2657 70.2389 54.0193 70.0245 53.9725 69.7125C53.9333 69.4509 54.0241 69.1725 53.9869 68.9281C53.9553 68.7177 53.5081 68.8685 53.1749 68.9601L52.0113 69.2893C51.6093 69.4801 51.2441 69.7985 50.8009 69.7993C50.4341 69.7993 50.1061 69.5953 49.7685 69.4781C48.6701 69.2765 48.6697 69.2793 47.5761 69.1105L46.6433 68.9461L45.6789 68.4169C44.9029 68.1421 44.0061 69.2097 43.6457 68.7733C43.4741 68.5653 43.6341 68.2181 43.4945 68.0293L42.9897 67.8229C42.7601 67.6689 42.8341 67.3929 42.8549 67.1889C42.8737 66.9953 42.8757 66.9721 42.8773 66.9485C42.5309 67.1073 42.3465 67.3585 42.1613 67.6037C42.0269 67.7705 41.8897 67.9001 41.7061 67.8637C41.6937 67.8613 41.3629 67.6861 41.3629 67.6861C41.4545 68.1593 41.8325 68.7493 41.4797 68.9721C41.2781 69.0993 41.0305 68.9837 40.8233 68.9197C40.7509 68.8977 40.6793 68.8753 40.6073 68.8533C40.1933 68.7321 39.7037 68.7201 39.4781 68.3241C39.2873 67.9905 39.34 67.5265 39.1777 67.2013C39.1777 67.2013 38.962 67.4497 38.8108 67.6269C38.7512 67.6961 38.6888 67.7637 38.6208 67.8245C38.5632 67.8765 38.0848 68.0553 38.0848 68.0553C37.4848 67.9777 37.1927 67.4001 36.7237 67.1293C36.6105 67.0637 36.49 67.0101 36.3648 66.9729C35.8336 66.8153 35.2593 67.0517 34.7579 67.2721L33.6054 67.7677C33.237 67.9189 32.8483 68.0525 32.5892 68.3573C32.2819 68.7189 32.2237 69.2389 32.1223 69.7153C31.909 70.6377 31.1526 71.3525 30.2154 71.2665C29.4987 71.2001 28.7707 70.7981 28.5243 70.1173C28.4051 69.7881 28.4356 69.4113 28.2939 69.0965C28.1594 68.7985 27.6083 68.9973 27.1679 68.9741C27.0791 68.9693 26.9903 68.9569 26.9036 68.9357C26.7817 68.9065 26.6631 68.8601 26.5538 68.7977C26.4657 68.7469 26.383 68.6853 26.3114 68.6129C25.9563 68.0865 26.004 67.6393 26.1001 67.2645L26.4193 66.2177C26.4975 65.7729 26.487 65.2065 26.0994 65.1389C25.7616 65.0793 25.3901 65.1953 25.0986 64.9965C24.7402 64.7513 24.6377 64.1345 24.9463 63.8341C25.1708 63.6149 25.5941 63.6709 25.7511 63.4901C25.8981 63.3205 25.7503 63.0921 25.6537 62.9277C25.5086 62.6821 25.2801 62.4661 24.9886 62.4661C24.7316 62.4661 24.4806 62.5489 24.2203 62.5629C23.6865 62.5913 22.9425 62.4445 23.083 61.8977C23.1751 61.5409 23.4837 61.2713 23.6255 60.9121C23.7579 60.5757 23.7394 60.1885 23.9567 59.8929L24.6515 59.2009L24.9735 58.6053L25.7021 57.6877C25.7185 57.6713 26.6055 56.9817 26.6055 56.9817C26.9029 56.8189 27.2354 56.7081 27.5686 56.7293C27.9395 56.7533 28.3269 56.9473 28.6377 56.8453C29.0238 56.7181 29.1343 56.1441 29.2874 55.7529C29.4497 55.3505 29.749 55.0081 30.2161 54.8853C30.4353 54.8277 30.6718 54.8085 30.8658 54.7289C30.8658 54.7289 30.424 54.4497 30.3386 54.1345C30.212 53.6693 30.7122 53.1189 31.2057 53.1665C31.6216 53.2065 31.9362 53.6817 31.7938 54.0957C31.6984 54.3741 31.4116 54.6077 31.3726 54.8409C31.3441 55.0141 32.0727 54.9225 32.4078 54.6609C32.6973 54.4357 32.8694 53.9881 33.2026 53.9997C33.4961 54.0113 33.6272 54.3477 33.7028 54.5781C33.775 54.7993 33.7995 55.0537 33.6643 55.2333C33.4458 55.5233 32.943 55.5173 32.7635 55.7897C32.5562 56.1053 32.7496 56.6945 33.1244 56.7057C33.4663 56.7149 33.8074 56.5201 34.1617 56.6141C34.5062 56.7065 34.7453 57.0141 34.9718 57.3109C35.0824 57.4533 35.085 57.4513 35.1368 57.4897C35.3772 57.6681 35.7514 56.7213 36.2409 56.9029C36.5092 57.0029 36.6953 57.2737 36.9715 57.3693C37.149 57.4309 37.3597 57.4177 37.512 57.3005C37.8186 57.0653 37.918 56.5785 38.2764 56.4565C38.5965 56.3481 38.9228 56.5645 39.2856 56.5513C39.6628 56.5365 40.1032 56.3281 40.1144 56.0149C40.1232 55.7649 39.8025 55.5609 39.882 55.3013C39.9501 55.0801 40.2985 55.0721 40.4621 54.8881L40.4353 54.5133C40.3801 54.1841 40.3833 53.9569 40.2768 53.8317C40.1176 53.6449 39.7516 53.7501 39.4712 53.7937C39.3648 53.8105 39.258 53.8277 39.1508 53.8417C38.952 53.8633 38.9076 53.8669 38.8633 53.8689C38.542 53.8689 38.3028 53.8265 38.1676 53.6421C37.9684 53.3705 38.0092 52.9805 37.8313 52.6797C37.659 52.3905 37.2954 52.2049 37.292 51.8477C37.2881 51.5105 37.5656 51.2565 37.7664 51.0133C37.7664 51.0133 37.1033 51.3605 36.9921 51.1073C36.9139 50.9289 37.1324 50.7429 37.2132 50.4297C37.2729 50.1985 36.9523 50.0925 36.7701 50.0309C36.6774 49.9993 36.584 49.9693 36.4919 49.9357C36.0587 49.7761 35.5474 49.4797 35.6838 49.0585C35.8336 48.5981 36.4429 48.3265 36.6218 47.7645C36.6728 47.5545 36.5907 47.3881 36.3853 47.3345C36.1515 47.2721 35.9322 47.2829 35.6634 47.2397C35.5667 47.2245 35.4567 47.2029 35.4534 47.0829L35.9979 46.5561C36.2171 46.2793 36.2667 45.8265 36.0733 45.5149C36.0316 45.4473 35.9667 45.3805 35.8832 45.3745C35.5759 45.3505 35.2844 45.6685 35.042 45.8329C34.6202 46.1129 34.126 46.2377 33.6306 46.3549C33.4312 46.4037 33.1867 46.4861 33.2159 46.6581C33.2688 46.9749 33.5464 47.2325 33.665 47.5477C33.7008 47.6433 33.7166 47.7657 33.6366 47.8445L32.9424 47.9589C32.5754 48.0477 32.3582 48.4697 31.9945 48.5513C31.6846 48.6201 31.3196 48.4585 31.1844 48.1725L30.9857 47.6417C30.6645 47.8245 30.4472 48.2977 29.9962 48.1909C29.457 48.0645 29.4013 47.3241 29.1669 47.0125L28.7383 47.4417C28.5793 47.5645 28.1521 47.4913 27.8859 47.3357L27.2732 46.9921C26.6413 46.8085 25.8955 47.3761 25.1291 47.2417C25.0933 47.2353 24.2693 46.7793 24.2693 46.7793L23.554 45.8865L23.0003 44.7845C22.2551 43.9485 22.2472 43.9517 21.3583 43.2709C21.0449 43.0425 20.7337 42.8057 20.368 42.6813L19.3844 42.4469C19.0108 42.3045 18.6988 42.0241 18.3192 41.9229C17.9569 41.8269 17.5483 41.9245 17.2324 41.7085C16.8495 41.4469 16.8044 40.9122 16.6654 40.5539C16.5541 40.2677 16.4031 39.9888 16.16 39.8008L15.0651 39.251C14.3821 38.5628 14.3836 38.5615 13.7603 37.8613L13.4595 36.7194C13.3343 36.3822 13.08 36.116 12.8448 35.8504C12.7925 35.7921 12.1454 34.9575 12.1454 34.9575L11.5082 33.9527L10.8233 32.9916L10.1828 31.9815L9.76019 30.7369L9.21443 29.7188C9.06803 29.2704 9.07267 28.8525 9.15547 28.455L9.57339 27.1953L9.89795 25.9493L10.3397 24.9333C10.612 24.1119 10.5054 23.272 10.0642 22.6024L9.31839 21.7121C8.54543 20.8511 8.54147 20.8492 7.61942 20.1497C7.6055 20.137 6.8173 19.2528 6.8173 19.2528L6.19466 18.2275C6.07414 18.0189 6.0483 17.9757 6.02182 17.9327C5.82642 17.6393 5.67406 17.4592 5.47006 17.3584C5.08322 17.1664 4.60302 17.2326 4.21618 17.008C3.66642 16.6888 3.55582 15.9707 3.37566 15.4667C3.2127 15.0203 2.90601 14.6639 2.56889 14.2924C2.45893 14.1691 2.35561 14.0367 2.28937 13.8844C2.13041 13.5187 2.19133 13.1008 2.15425 12.7218L1.88533 11.5289C1.80982 11.0779 1.84095 10.6149 1.93037 10.1632L2.29929 8.94574L2.80337 7.89589L3.54258 6.96925L4.03934 6.10153L4.54142 5.32129L5.18062 4.31447L5.84362 3.82897L7.11138 3.50705L8.00427 2.95398L8.97859 2.436L9.70987 2.00679L10.5093 1.82928L11.6016 1.41L12.8819 1.20202L14.2392 1.26892L15.442 1.01854C15.8248 0.972178 16.2196 1.01258 16.5832 1.14174C16.7885 1.21527 16.9813 1.31793 17.178 1.41265C17.6172 1.61335 18.0371 1.6054 18.473 1.6107C18.7465 1.616 19.022 1.68422 19.2379 1.84783Z"/>
</mask>
<path fill-rule="evenodd" clip-rule="evenodd" d="M19.2379 1.84783C19.3559 1.93857 19.4625 2.04322 19.5718 2.14324C19.6837 2.24525 19.801 2.34924 19.944 2.40554C20.3263 2.55789 20.778 2.36248 21.1893 2.45521C21.5304 2.53271 21.8205 2.746 22.114 2.91688C22.1451 2.93477 23.2705 3.50043 23.2705 3.50043C23.2963 3.51897 24.1276 4.35355 24.1276 4.35355C24.3707 4.67811 24.5999 5.04509 24.9581 5.16429C25.3741 5.30205 25.8583 5.16561 26.2584 5.38753C26.6638 5.61273 26.8327 6.09889 27.1679 6.38701C27.5692 6.73145 28.1343 6.80165 28.6555 6.89305C28.8668 6.93149 29.0701 6.98181 29.2569 7.10633C29.2695 7.11429 29.9849 7.91577 29.9849 7.91577C30.5326 8.43969 31.397 8.56089 32.0772 8.26681C32.3324 8.15685 32.6052 8.00649 32.8423 8.11181C33.2278 8.28337 33.2656 8.97553 33.773 9.00601C34.2028 9.03117 34.7652 8.65561 34.9552 8.97686C34.9619 9.23122 34.9566 9.24978 34.9507 9.26766C34.8798 9.45842 34.8652 9.49286 34.8512 9.5273C34.7659 9.72866 34.7526 9.76242 34.7393 9.79686C34.6711 9.97506 34.583 10.1797 34.8652 10.2095C35.2798 10.2533 35.7349 10.1413 36.0641 10.4235C36.4694 10.7712 36.4608 11.3773 36.541 11.8509C36.6145 12.2788 36.8702 12.6795 37.2821 12.8417C37.4265 12.898 37.5935 12.9239 37.7418 12.8656C38.1684 12.6973 38.3036 11.9801 38.7248 12.0529L39.1772 12.4801C39.3493 12.7126 39.3912 13.1133 39.2772 13.4876C39.1784 13.8109 38.9904 14.1705 39.1977 14.391C39.4349 14.6441 39.8136 14.7606 40.0024 15.07C40.2528 15.4813 40.1105 16.0761 40.4701 16.3463C40.7337 16.545 41.0741 16.6425 41.2881 16.8948C41.5113 17.1584 41.5493 17.5757 41.8373 17.736C42.1697 17.9208 42.6169 17.5658 42.9269 17.575C43.0453 17.7168 42.5845 18.3706 42.5845 18.3706C42.5601 18.6514 42.7833 18.7911 42.9357 18.9084C43.0049 18.9608 43.0753 19.0117 43.1453 19.0634C43.2053 19.1084 43.8893 19.7602 43.8893 19.7602C44.1925 20.0185 44.5641 20.1894 44.7961 20.5014C45.0001 20.7756 45.0629 21.1227 45.1493 21.4466L45.5937 22.5978L45.9133 23.3794C45.9789 23.59 45.9593 23.5601 46.0513 23.8092C46.1837 24.1682 46.5509 24.4213 46.9453 24.2967C47.2421 24.2034 47.2741 23.8066 47.2933 23.4303C47.3025 23.2714 47.3237 23.1098 47.3905 22.9628C47.5457 22.6242 47.8693 22.405 48.0709 22.0884C48.1577 21.9526 48.2285 21.8069 48.3045 21.6658C48.4589 21.3836 48.6893 21.1174 49.0069 21.0379C49.3033 20.9637 49.6193 20.9782 49.9077 20.8829L50.7409 20.3523C50.8117 20.3106 50.8845 20.2728 50.9601 20.2397C51.3265 20.106 51.6077 20.0689 51.8489 20.186C52.1657 20.3391 52.3425 20.7624 52.5941 20.8531C52.8889 20.959 53.2081 20.6855 53.5061 20.4146L53.9465 19.8768C53.9889 19.8046 54.0293 19.7304 54.0717 19.6582C54.1893 19.4674 54.2925 19.3111 54.4665 19.2859C54.7997 19.2369 55.0137 19.6323 55.2529 19.6549C55.4385 19.6721 55.5537 19.4814 55.6557 19.3641C55.7801 19.2223 55.7985 19.2018 55.8173 19.1819C56.0661 18.9177 56.4277 18.8143 56.7797 18.7116C57.1205 18.6083 57.2865 18.2712 57.4929 17.8983C57.5725 17.7585 57.6693 17.6188 57.8157 17.5651C58.2717 17.3988 58.6965 17.9884 59.2953 17.9155C59.4277 17.8996 59.5561 17.8618 59.6861 17.8307C59.9053 17.7837 60.0829 17.7585 60.2161 17.8446C60.4861 18.0182 60.4509 18.397 60.4489 18.6639L60.4625 19.4654C60.5333 19.8258 60.7597 20.1993 60.6069 20.5252C60.4913 20.7702 60.2045 20.8723 60.0133 21.034L59.5005 21.4943C59.1613 21.4042 59.1725 21.1571 59.1517 20.977C59.1277 20.7789 59.1157 20.5782 59.0985 20.3782C59.0509 19.9483 59.0245 19.6595 58.8401 19.5317C58.4329 19.2475 57.6677 19.7629 57.3733 19.9709C56.9949 20.2384 56.8545 20.8882 57.3593 21.2313C57.4253 21.277 57.4961 21.3168 57.5677 21.3538C57.7249 21.4334 57.7717 21.4572 57.8193 21.481C57.9697 21.5592 58.1465 21.6486 58.1601 21.8202C58.1785 22.0658 57.9269 22.2149 57.7605 22.3421C57.5129 22.5229 57.3921 22.609 57.3921 22.609L56.9393 23.0634C56.7933 23.2965 56.6101 23.5483 57.0313 23.5966C57.1385 23.6092 57.2465 23.6151 57.3545 23.6284C57.5149 23.6502 57.6889 23.6873 57.8097 23.8053C58.1429 24.1312 57.9653 24.7717 57.6141 24.9253C57.4313 25.0055 57.2233 24.9743 57.0325 24.9796L56.1933 25.0684C56.1709 25.0684 55.1529 24.7001 55.1529 24.7001C54.9937 24.6769 54.8309 24.6902 54.6693 24.6928C54.4553 24.6902 54.2969 24.675 54.1837 24.5815C53.8897 24.3372 54.0089 23.8529 53.8785 23.429C53.7485 23.0058 53.1093 23.0004 52.6757 22.8647L51.4885 22.4076C51.0633 22.2673 50.5501 22.1467 50.2621 22.4282C50.0017 22.6832 49.9481 23.1117 49.6737 23.3912C49.4821 23.586 49.2029 23.69 49.0377 23.8768C48.8485 24.0921 49.2301 24.4338 49.5501 24.7127L50.1813 25.3095C50.3433 25.528 50.0553 25.5016 49.9273 25.4824C49.5837 25.4254 49.2093 25.3187 48.9641 25.4923C48.6485 25.7162 48.6373 26.2189 48.8497 26.5037C49.0585 26.7826 49.4921 26.7925 49.8009 27.0376C50.0921 27.2694 50.2733 27.6828 50.4825 27.8576C50.4825 27.8576 50.6065 27.5277 50.7005 27.3238C50.7997 27.1098 50.9529 26.9031 51.1793 26.8137C51.5841 26.6541 52.2449 26.7402 52.1641 27.1422C52.0509 27.706 50.9601 27.8927 50.8825 28.4868C50.8353 28.8499 51.1389 29.2579 51.4973 29.3327C51.9505 29.4274 52.3829 29.0565 52.6313 28.6034C52.6721 28.5272 52.7121 28.4511 52.7529 28.3749C52.9161 28.106 53.0221 27.9748 53.1745 27.9411C53.5689 27.853 53.8817 28.2603 53.9845 28.5517C54.1585 29.0459 53.9097 29.6321 54.1521 30.0739C54.3621 30.4574 54.8681 30.6111 55.3349 30.3507C55.5657 30.2196 55.8061 30.0308 56.0133 30.1242C56.3045 30.2561 56.3529 30.7607 56.1497 31.0019C55.9437 31.2456 55.5449 31.2323 55.3037 31.4477C55.0449 31.6781 55.0417 32.1385 54.7237 32.2782L54.0229 32.2253C53.6413 32.1974 53.2877 32.4419 52.8973 32.4729C52.5261 32.5027 52.1237 32.4167 51.8385 32.634C51.5489 32.8545 51.3785 33.2513 51.6953 33.5759C51.9369 33.8235 52.3629 34.0083 52.2637 34.2282C52.1145 34.5601 51.3569 34.3693 50.9561 34.109C50.7269 33.9607 50.5521 33.7109 50.3381 33.5877C50.3381 33.5877 50.2561 33.8997 50.2009 34.1143C50.1189 34.4249 49.9501 34.7197 49.6849 34.9085C49.5109 35.0323 49.2709 35.1291 49.2261 35.2754C49.1473 35.5331 49.4789 35.8259 49.8069 36.1121L50.6297 36.8446C50.8753 37.2208 50.9785 37.5586 51.2389 37.754C51.5621 37.9964 52.0669 37.9865 52.3941 37.7586C52.8433 37.4466 53.0201 36.8426 53.4061 36.471C53.5697 36.3133 53.7929 36.1822 54.0321 36.2352C54.2853 36.2915 54.5005 36.5313 54.7349 36.5432C54.9609 36.5545 55.0993 36.3154 55.2361 36.1955C55.3449 36.102 55.4669 36.0159 55.6093 35.9875C55.8469 35.9398 56.0941 36.0378 56.2749 36.1875L56.8413 36.8433C57.1625 36.975 57.4321 36.9247 57.5849 36.7333C57.7929 36.4737 57.8889 36.1106 58.1737 36.01C58.6237 35.8504 59.2093 36.3876 59.1793 36.8796C59.1613 37.1711 58.9589 37.4129 58.7733 37.6149L58.2025 38.3024L57.9189 38.8284C57.9189 38.8284 57.7433 38.982 57.5677 39.0211C57.1937 39.104 56.8193 38.9257 56.4569 38.7681C56.1517 38.6396 55.7561 38.7694 55.5785 39.0271C55.4713 39.182 55.8629 39.2649 56.1025 39.3715C56.4781 39.5404 56.7245 39.9776 57.0345 40.0968C57.3505 40.2193 57.6997 40.0591 58.0441 39.9948C58.1545 40.1246 58.0533 40.2041 57.9513 40.2472C57.6977 40.3571 57.4021 40.4578 57.2649 40.677C57.1485 40.8645 57.6665 41.0429 57.6541 41.3849C57.6441 41.6561 57.3877 41.8297 57.2049 41.9825L56.6345 42.5661C56.4385 42.8821 56.2717 43.3213 56.4609 43.5689C56.6181 43.7741 56.9193 43.7537 57.1313 43.7293C57.5749 43.6797 58.0281 43.3013 58.3493 43.6161L58.6369 44.0817C58.8017 44.1597 59.0437 43.9345 59.2185 43.8465C59.5441 43.6869 59.9233 43.7645 60.2609 43.8533L60.9769 44.0569C61.0121 44.3041 60.8969 44.3393 60.8089 44.3749C60.3405 44.5625 59.7385 44.7061 59.9701 45.1929C60.1773 45.6289 60.7749 45.7541 61.1941 46.0297C61.2817 46.0877 61.3605 46.1745 61.3649 46.2853L60.9557 47.0329C60.8001 47.4477 61.1029 47.8869 61.4189 48.1149C61.9465 48.4969 62.6189 48.8817 63.0761 48.6425C63.4061 48.4705 63.6025 48.0381 63.9253 47.9141C64.3641 47.9545 64.3425 48.4385 64.5645 48.8069C64.7465 49.1089 65.1269 49.3757 64.9209 49.6797L64.3577 50.0449C64.6485 50.1693 64.9897 50.2417 65.1233 50.5193L65.1505 50.7833C64.8537 51.1829 64.4565 51.0225 64.0769 51.1013C63.7509 51.1697 63.8153 51.8421 64.1145 52.0697C64.2801 52.1961 64.5145 51.9425 64.6981 51.8121C64.8049 51.7385 64.9325 51.6669 65.0657 51.6941C65.3017 51.7413 65.4181 52.0241 65.3869 52.2333C65.3685 52.3597 65.2997 52.4717 65.2209 52.5697C65.2209 52.5697 65.8593 52.2413 65.9797 52.4917C66.0925 52.7269 65.6441 53.0453 65.5633 53.3953C65.5361 53.5137 65.7161 53.4589 65.8657 53.4321C66.6509 53.2913 67.1417 52.3597 67.7841 52.1113C67.8657 52.0801 67.9833 52.0685 68.0305 52.1705L67.7345 52.9353L67.3093 53.9721L66.6985 54.6809C66.5361 54.8873 66.3645 55.1537 66.4169 55.3313C66.5129 55.6537 67.1217 55.6305 67.5305 55.9725C67.9425 56.3169 68.2185 56.8745 68.2589 57.3997C68.2697 57.5453 68.2053 57.7185 68.0369 57.7513C67.7721 57.8033 67.4429 57.6721 67.2973 57.7953L67.2421 58.0973C67.3265 58.1709 67.6417 58.0305 67.8925 57.9629C68.0741 57.9157 68.2789 57.8873 68.4261 58.0053C68.7081 58.2317 68.6637 58.6489 68.6465 58.9569C68.6221 59.2353 68.6153 59.2869 68.6069 59.3393C68.4849 59.8133 68.3237 60.0785 68.0365 60.0997C67.7561 60.1201 67.4793 59.9657 67.1905 59.9381C67.0801 59.9273 66.9693 60.1009 66.9589 60.3525C66.9401 60.8101 66.8685 61.2933 66.9297 61.6937C66.9297 61.6937 67.1021 61.5317 67.2421 61.3993C67.3965 61.2533 67.5701 61.1137 67.7793 61.0589C68.1873 60.9521 68.6649 61.1665 68.8181 61.5501C68.9493 61.8793 68.8465 62.2449 68.7861 62.5769L68.7817 63.7749C68.8101 63.9173 68.8221 63.9705 68.8361 64.0229C68.8869 64.1885 68.8981 64.2197 68.9109 64.2501C69.0265 64.4969 69.1477 64.6533 69.3273 64.7017L69.8857 64.7805C70.2593 65.0733 70.1493 65.5085 70.2913 65.7861C70.4621 66.1217 70.8197 66.3529 70.8933 66.7181C71.0229 67.3657 70.4621 68.0901 69.7545 68.1697C69.6241 68.1849 69.4921 68.1825 69.3613 68.1713C69.4845 68.4693 69.8289 68.7389 69.9817 69.1993C70.0473 69.4025 70.1161 69.6125 70.2705 69.7561L71.0981 70.2549C71.1377 70.4045 70.1877 70.3165 70.1877 70.3165C69.7381 70.3377 69.3809 70.7737 69.1129 71.0789C68.9709 71.2397 68.8417 71.4193 68.7921 71.6265C68.6537 72.1997 68.8957 72.8149 68.8061 73.3857C68.7477 73.7581 68.5313 74.1225 68.1665 74.2821C68.0385 74.3385 67.9053 74.3801 67.7737 74.4253C67.4841 74.5333 67.2981 74.6517 67.2325 74.8457C67.1165 75.1877 67.1497 75.5617 66.9713 75.9229C66.7877 76.2957 66.3109 76.5569 65.8865 76.3401C65.5657 76.1757 65.4129 75.7877 65.1241 75.6201C64.9385 75.5129 64.6609 76.0273 64.7861 76.2045C64.9373 76.4161 65.4401 76.2161 65.6289 76.5025C65.7825 76.7349 65.5877 77.0713 65.6837 77.3653C65.7897 77.6901 66.2105 77.8174 66.4641 78.0409C65.9025 78.0509 65.4121 77.8577 65.0605 78.1005C64.8149 78.271 64.6689 78.5557 64.4397 78.7665C64.1901 78.9958 63.8469 79.1749 63.7721 79.4606C63.7369 79.5938 63.7609 79.7349 63.7697 79.8745C63.7145 80.5826 63.1457 80.9918 62.7157 80.7794L62.2413 80.3142C61.9289 80.2434 61.6373 81.0158 60.8789 80.9998C60.6525 80.9946 60.4133 80.913 60.2737 80.7238L60.0737 80.2022C59.9337 79.8462 59.5965 79.6189 59.2773 79.4445L58.5553 78.9717C58.5329 78.9518 58.2077 78.1637 58.2077 78.1637L57.8853 77.4833C57.6057 77.1601 57.0665 76.9321 57.1433 76.5569C57.2109 76.2241 57.5957 76.1009 57.8229 75.9365C57.9321 75.8573 58.0381 75.7697 58.1209 75.6625C58.3541 75.3585 58.4005 74.9597 58.6029 74.6325C58.7069 74.4641 58.8357 74.3133 58.9553 74.1569C59.1017 73.9641 59.2421 73.7417 59.1865 73.5125C59.1225 73.2429 58.9721 72.9977 58.8893 72.7257C58.7625 72.3101 58.6613 71.8301 58.7705 71.4757C58.7945 71.3981 58.8553 71.3261 58.9449 71.3413C59.2389 71.3917 59.2693 71.7625 59.5229 72.0041C59.7633 72.2349 60.2737 72.1657 60.3853 71.8081L60.2961 71.1709C60.2981 70.8265 60.5365 70.4629 60.9061 70.4609C61.1201 70.4597 61.3253 70.5637 61.5213 70.6649C61.4401 70.5033 61.3637 70.3273 61.3961 70.1517C61.4473 69.8789 61.7673 69.7409 61.9025 69.5721C61.6561 69.3741 61.1101 69.5225 60.8989 69.2629L60.6913 68.8453C60.4101 68.8413 60.0697 69.3401 59.8681 69.1529L60.0297 68.5317C59.8217 68.7037 59.6317 68.8965 59.4385 69.0853L58.5701 69.8641C57.7393 70.6333 57.7309 70.6393 57.1749 71.6245C57.1749 71.6245 56.7841 72.0361 56.5045 72.1441C56.2833 72.2289 56.0025 72.1657 55.8637 71.9465C55.6649 71.6333 55.6013 71.2485 55.3249 70.9637C55.1117 70.7437 54.8349 70.5953 54.5701 70.4337C54.2657 70.2389 54.0193 70.0245 53.9725 69.7125C53.9333 69.4509 54.0241 69.1725 53.9869 68.9281C53.9553 68.7177 53.5081 68.8685 53.1749 68.9601L52.0113 69.2893C51.6093 69.4801 51.2441 69.7985 50.8009 69.7993C50.4341 69.7993 50.1061 69.5953 49.7685 69.4781C48.6701 69.2765 48.6697 69.2793 47.5761 69.1105L46.6433 68.9461L45.6789 68.4169C44.9029 68.1421 44.0061 69.2097 43.6457 68.7733C43.4741 68.5653 43.6341 68.2181 43.4945 68.0293L42.9897 67.8229C42.7601 67.6689 42.8341 67.3929 42.8549 67.1889C42.8737 66.9953 42.8757 66.9721 42.8773 66.9485C42.5309 67.1073 42.3465 67.3585 42.1613 67.6037C42.0269 67.7705 41.8897 67.9001 41.7061 67.8637C41.6937 67.8613 41.3629 67.6861 41.3629 67.6861C41.4545 68.1593 41.8325 68.7493 41.4797 68.9721C41.2781 69.0993 41.0305 68.9837 40.8233 68.9197C40.7509 68.8977 40.6793 68.8753 40.6073 68.8533C40.1933 68.7321 39.7037 68.7201 39.4781 68.3241C39.2873 67.9905 39.34 67.5265 39.1777 67.2013C39.1777 67.2013 38.962 67.4497 38.8108 67.6269C38.7512 67.6961 38.6888 67.7637 38.6208 67.8245C38.5632 67.8765 38.0848 68.0553 38.0848 68.0553C37.4848 67.9777 37.1927 67.4001 36.7237 67.1293C36.6105 67.0637 36.49 67.0101 36.3648 66.9729C35.8336 66.8153 35.2593 67.0517 34.7579 67.2721L33.6054 67.7677C33.237 67.9189 32.8483 68.0525 32.5892 68.3573C32.2819 68.7189 32.2237 69.2389 32.1223 69.7153C31.909 70.6377 31.1526 71.3525 30.2154 71.2665C29.4987 71.2001 28.7707 70.7981 28.5243 70.1173C28.4051 69.7881 28.4356 69.4113 28.2939 69.0965C28.1594 68.7985 27.6083 68.9973 27.1679 68.9741C27.0791 68.9693 26.9903 68.9569 26.9036 68.9357C26.7817 68.9065 26.6631 68.8601 26.5538 68.7977C26.4657 68.7469 26.383 68.6853 26.3114 68.6129C25.9563 68.0865 26.004 67.6393 26.1001 67.2645L26.4193 66.2177C26.4975 65.7729 26.487 65.2065 26.0994 65.1389C25.7616 65.0793 25.3901 65.1953 25.0986 64.9965C24.7402 64.7513 24.6377 64.1345 24.9463 63.8341C25.1708 63.6149 25.5941 63.6709 25.7511 63.4901C25.8981 63.3205 25.7503 63.0921 25.6537 62.9277C25.5086 62.6821 25.2801 62.4661 24.9886 62.4661C24.7316 62.4661 24.4806 62.5489 24.2203 62.5629C23.6865 62.5913 22.9425 62.4445 23.083 61.8977C23.1751 61.5409 23.4837 61.2713 23.6255 60.9121C23.7579 60.5757 23.7394 60.1885 23.9567 59.8929L24.6515 59.2009L24.9735 58.6053L25.7021 57.6877C25.7185 57.6713 26.6055 56.9817 26.6055 56.9817C26.9029 56.8189 27.2354 56.7081 27.5686 56.7293C27.9395 56.7533 28.3269 56.9473 28.6377 56.8453C29.0238 56.7181 29.1343 56.1441 29.2874 55.7529C29.4497 55.3505 29.749 55.0081 30.2161 54.8853C30.4353 54.8277 30.6718 54.8085 30.8658 54.7289C30.8658 54.7289 30.424 54.4497 30.3386 54.1345C30.212 53.6693 30.7122 53.1189 31.2057 53.1665C31.6216 53.2065 31.9362 53.6817 31.7938 54.0957C31.6984 54.3741 31.4116 54.6077 31.3726 54.8409C31.3441 55.0141 32.0727 54.9225 32.4078 54.6609C32.6973 54.4357 32.8694 53.9881 33.2026 53.9997C33.4961 54.0113 33.6272 54.3477 33.7028 54.5781C33.775 54.7993 33.7995 55.0537 33.6643 55.2333C33.4458 55.5233 32.943 55.5173 32.7635 55.7897C32.5562 56.1053 32.7496 56.6945 33.1244 56.7057C33.4663 56.7149 33.8074 56.5201 34.1617 56.6141C34.5062 56.7065 34.7453 57.0141 34.9718 57.3109C35.0824 57.4533 35.085 57.4513 35.1368 57.4897C35.3772 57.6681 35.7514 56.7213 36.2409 56.9029C36.5092 57.0029 36.6953 57.2737 36.9715 57.3693C37.149 57.4309 37.3597 57.4177 37.512 57.3005C37.8186 57.0653 37.918 56.5785 38.2764 56.4565C38.5965 56.3481 38.9228 56.5645 39.2856 56.5513C39.6628 56.5365 40.1032 56.3281 40.1144 56.0149C40.1232 55.7649 39.8025 55.5609 39.882 55.3013C39.9501 55.0801 40.2985 55.0721 40.4621 54.8881L40.4353 54.5133C40.3801 54.1841 40.3833 53.9569 40.2768 53.8317C40.1176 53.6449 39.7516 53.7501 39.4712 53.7937C39.3648 53.8105 39.258 53.8277 39.1508 53.8417C38.952 53.8633 38.9076 53.8669 38.8633 53.8689C38.542 53.8689 38.3028 53.8265 38.1676 53.6421C37.9684 53.3705 38.0092 52.9805 37.8313 52.6797C37.659 52.3905 37.2954 52.2049 37.292 51.8477C37.2881 51.5105 37.5656 51.2565 37.7664 51.0133C37.7664 51.0133 37.1033 51.3605 36.9921 51.1073C36.9139 50.9289 37.1324 50.7429 37.2132 50.4297C37.2729 50.1985 36.9523 50.0925 36.7701 50.0309C36.6774 49.9993 36.584 49.9693 36.4919 49.9357C36.0587 49.7761 35.5474 49.4797 35.6838 49.0585C35.8336 48.5981 36.4429 48.3265 36.6218 47.7645C36.6728 47.5545 36.5907 47.3881 36.3853 47.3345C36.1515 47.2721 35.9322 47.2829 35.6634 47.2397C35.5667 47.2245 35.4567 47.2029 35.4534 47.0829L35.9979 46.5561C36.2171 46.2793 36.2667 45.8265 36.0733 45.5149C36.0316 45.4473 35.9667 45.3805 35.8832 45.3745C35.5759 45.3505 35.2844 45.6685 35.042 45.8329C34.6202 46.1129 34.126 46.2377 33.6306 46.3549C33.4312 46.4037 33.1867 46.4861 33.2159 46.6581C33.2688 46.9749 33.5464 47.2325 33.665 47.5477C33.7008 47.6433 33.7166 47.7657 33.6366 47.8445L32.9424 47.9589C32.5754 48.0477 32.3582 48.4697 31.9945 48.5513C31.6846 48.6201 31.3196 48.4585 31.1844 48.1725L30.9857 47.6417C30.6645 47.8245 30.4472 48.2977 29.9962 48.1909C29.457 48.0645 29.4013 47.3241 29.1669 47.0125L28.7383 47.4417C28.5793 47.5645 28.1521 47.4913 27.8859 47.3357L27.2732 46.9921C26.6413 46.8085 25.8955 47.3761 25.1291 47.2417C25.0933 47.2353 24.2693 46.7793 24.2693 46.7793L23.554 45.8865L23.0003 44.7845C22.2551 43.9485 22.2472 43.9517 21.3583 43.2709C21.0449 43.0425 20.7337 42.8057 20.368 42.6813L19.3844 42.4469C19.0108 42.3045 18.6988 42.0241 18.3192 41.9229C17.9569 41.8269 17.5483 41.9245 17.2324 41.7085C16.8495 41.4469 16.8044 40.9122 16.6654 40.5539C16.5541 40.2677 16.4031 39.9888 16.16 39.8008L15.0651 39.251C14.3821 38.5628 14.3836 38.5615 13.7603 37.8613L13.4595 36.7194C13.3343 36.3822 13.08 36.116 12.8448 35.8504C12.7925 35.7921 12.1454 34.9575 12.1454 34.9575L11.5082 33.9527L10.8233 32.9916L10.1828 31.9815L9.76019 30.7369L9.21443 29.7188C9.06803 29.2704 9.07267 28.8525 9.15547 28.455L9.57339 27.1953L9.89795 25.9493L10.3397 24.9333C10.612 24.1119 10.5054 23.272 10.0642 22.6024L9.31839 21.7121C8.54543 20.8511 8.54147 20.8492 7.61942 20.1497C7.6055 20.137 6.8173 19.2528 6.8173 19.2528L6.19466 18.2275C6.07414 18.0189 6.0483 17.9757 6.02182 17.9327C5.82642 17.6393 5.67406 17.4592 5.47006 17.3584C5.08322 17.1664 4.60302 17.2326 4.21618 17.008C3.66642 16.6888 3.55582 15.9707 3.37566 15.4667C3.2127 15.0203 2.90601 14.6639 2.56889 14.2924C2.45893 14.1691 2.35561 14.0367 2.28937 13.8844C2.13041 13.5187 2.19133 13.1008 2.15425 12.7218L1.88533 11.5289C1.80982 11.0779 1.84095 10.6149 1.93037 10.1632L2.29929 8.94574L2.80337 7.89589L3.54258 6.96925L4.03934 6.10153L4.54142 5.32129L5.18062 4.31447L5.84362 3.82897L7.11138 3.50705L8.00427 2.95398L8.97859 2.436L9.70987 2.00679L10.5093 1.82928L11.6016 1.41L12.8819 1.20202L14.2392 1.26892L15.442 1.01854C15.8248 0.972178 16.2196 1.01258 16.5832 1.14174C16.7885 1.21527 16.9813 1.31793 17.178 1.41265C17.6172 1.61335 18.0371 1.6054 18.473 1.6107C18.7465 1.616 19.022 1.68422 19.2379 1.84783Z" stroke="white" stroke-opacity="0.3" stroke-width="2" mask="url(#path-1-outside-1_260_5080)"/>
<path d="M26.5435 35.64C27.5675 35.64 28.4368 35.8587 29.1515 36.296C29.8768 36.7227 30.4315 37.3467 30.8155 38.168C31.1995 38.9893 31.3915 40.0027 31.3915 41.208C31.3915 42.488 31.1568 43.5707 30.6875 44.456C30.2288 45.3413 29.5888 46.0133 28.7675 46.472C27.9461 46.9307 26.9915 47.16 25.9035 47.16C25.3381 47.16 24.7995 47.1013 24.2875 46.984C23.7755 46.8667 23.3328 46.6853 22.9595 46.44L23.7275 44.872C24.0368 45.0747 24.3728 45.2187 24.7355 45.304C25.0981 45.3787 25.4715 45.416 25.8555 45.416C26.9115 45.416 27.7488 45.0907 28.3675 44.44C28.9861 43.7893 29.2955 42.8293 29.2955 41.56C29.2955 41.3573 29.2901 41.1227 29.2795 40.856C29.2688 40.5787 29.2315 40.3013 29.1675 40.024L29.8075 40.728C29.6261 41.1653 29.3648 41.5333 29.0235 41.832C28.6821 42.12 28.2821 42.3387 27.8235 42.488C27.3648 42.6373 26.8581 42.712 26.3035 42.712C25.5781 42.712 24.9221 42.5733 24.3355 42.296C23.7595 42.008 23.3008 41.608 22.9595 41.096C22.6181 40.5733 22.4475 39.9653 22.4475 39.272C22.4475 38.5253 22.6288 37.8853 22.9915 37.352C23.3541 36.808 23.8448 36.3867 24.4635 36.088C25.0928 35.7893 25.7861 35.64 26.5435 35.64ZM26.6555 37.272C26.2288 37.272 25.8501 37.352 25.5195 37.512C25.1888 37.6613 24.9275 37.88 24.7355 38.168C24.5541 38.4453 24.4635 38.7813 24.4635 39.176C24.4635 39.7627 24.6661 40.2267 25.0715 40.568C25.4768 40.9093 26.0208 41.08 26.7035 41.08C27.1515 41.08 27.5461 41 27.8875 40.84C28.2288 40.6693 28.4955 40.44 28.6875 40.152C28.8795 39.8533 28.9755 39.5227 28.9755 39.16C28.9755 38.808 28.8848 38.4933 28.7035 38.216C28.5221 37.928 28.2608 37.6987 27.9195 37.528C27.5781 37.3573 27.1568 37.272 26.6555 37.272ZM34.5926 47L39.2166 36.632L39.7606 37.56H33.4086L34.4006 36.552V39.464H32.4646V35.8H41.1686V37.192L36.8166 47H34.5926ZM42.311 47V45.608L46.759 41.384C47.1323 41.032 47.4096 40.7227 47.591 40.456C47.7723 40.1893 47.8896 39.944 47.943 39.72C48.007 39.4853 48.039 39.2667 48.039 39.064C48.039 38.552 47.863 38.1573 47.511 37.88C47.159 37.592 46.6416 37.448 45.959 37.448C45.415 37.448 44.919 37.544 44.471 37.736C44.0336 37.928 43.655 38.2213 43.335 38.616L41.879 37.496C42.3163 36.9093 42.903 36.456 43.639 36.136C44.3856 35.8053 45.2176 35.64 46.135 35.64C46.9456 35.64 47.6496 35.7733 48.247 36.04C48.855 36.296 49.319 36.664 49.639 37.144C49.9696 37.624 50.135 38.1947 50.135 38.856C50.135 39.2187 50.087 39.5813 49.991 39.944C49.895 40.296 49.7136 40.6693 49.447 41.064C49.1803 41.4587 48.791 41.9013 48.279 42.392L44.455 46.024L44.023 45.24H50.567V47H42.311Z" fill="#00D1FF"/>
</svg>
