<svg width="41" height="41" viewBox="0 0 41 41" fill="none" xmlns="http://www.w3.org/2000/svg">
<path d="M7 12.5C7 11.6716 7.67157 11 8.5 11H32.5C33.3284 11 34 11.6716 34 12.5V12.5C34 13.3284 33.3284 14 32.5 14H8.5C7.67157 14 7 13.3284 7 12.5V12.5ZM7 20C7 19.1716 7.67157 18.5 8.5 18.5H32.5C33.3284 18.5 34 19.1716 34 20V20C34 20.8284 33.3284 21.5 32.5 21.5H8.5C7.67157 21.5 7 20.8284 7 20V20ZM7 27.5C7 26.6716 7.67157 26 8.5 26H32.5C33.3284 26 34 26.6716 34 27.5V27.5C34 28.3284 33.3284 29 32.5 29H8.5C7.67157 29 7 28.3284 7 27.5V27.5Z" fill="#002133"/>
</svg>
