<svg width="40" height="40" viewBox="0 0 40 40" fill="none" xmlns="http://www.w3.org/2000/svg">
<path d="M10 30L14.8255 25.1745M14.8255 25.1745C14.0001 24.3491 13.3453 23.3692 12.8986 22.2908C12.4519 21.2122 12.222 20.0563 12.222 18.889C12.222 17.7217 12.4519 16.5658 12.8986 15.4873C13.3453 14.4089 14.0001 13.429 14.8255 12.6035C15.6509 11.7781 16.6308 11.1234 17.7093 10.6766C18.7878 10.2299 19.9437 10 21.111 10C22.2783 10 23.4342 10.2299 24.5126 10.6766C25.5912 11.1234 26.571 11.7781 27.3965 12.6035C29.0635 14.2706 30 16.5315 30 18.889C30 21.2465 29.0635 23.5075 27.3965 25.1745C25.7295 26.8415 23.4685 27.778 21.111 27.778C18.7535 27.778 16.4925 26.8415 14.8255 25.1745Z" stroke="#002133" stroke-width="3" stroke-linecap="round" stroke-linejoin="round"/>
</svg>
