<svg width="40" height="40" viewBox="0 0 40 40" fill="none" xmlns="http://www.w3.org/2000/svg">
<path d="M8 32L13.7906 26.2094M13.7906 26.2094C12.8001 25.2189 12.0144 24.043 11.4783 22.7489C10.9423 21.4547 10.6664 20.0676 10.6664 18.6668C10.6664 17.266 10.9423 15.879 11.4783 14.5848C12.0144 13.2906 12.8001 12.1147 13.7906 11.1242C14.7811 10.1337 15.957 9.34802 17.2512 8.81196C18.5454 8.2759 19.9324 8 21.3332 8C22.734 8 24.121 8.2759 25.4152 8.81196C26.7094 9.34802 27.8853 10.1337 28.8758 11.1242C30.8762 13.1247 32 15.8378 32 18.6668C32 21.4958 30.8762 24.209 28.8758 26.2094C26.8754 28.2098 24.1622 29.3336 21.3332 29.3336C18.5042 29.3336 15.791 28.2098 13.7906 26.2094Z" stroke="#002133" stroke-width="3" stroke-linecap="round" stroke-linejoin="round"/>
</svg>
