<svg width="200" height="200" viewBox="0 0 200 200" fill="none" xmlns="http://www.w3.org/2000/svg">
<rect width="200" height="200" rx="100" fill="#1D5763" fill-opacity="0.2"/>
<path d="M47.128 109.288C45.816 109.288 44.592 109.072 43.456 108.64C42.336 108.208 41.36 107.6 40.528 106.816C39.712 106.032 39.072 105.112 38.608 104.056C38.16 103 37.936 101.848 37.936 100.6C37.936 99.352 38.16 98.2 38.608 97.144C39.072 96.088 39.72 95.168 40.552 94.384C41.384 93.6 42.36 92.992 43.48 92.56C44.6 92.128 45.816 91.912 47.128 91.912C48.456 91.912 49.672 92.128 50.776 92.56C51.896 92.992 52.864 93.6 53.68 94.384C54.512 95.152 55.16 96.064 55.624 97.12C56.088 98.176 56.32 99.336 56.32 100.6C56.32 101.848 56.088 103.008 55.624 104.08C55.16 105.136 54.512 106.056 53.68 106.84C52.864 107.608 51.896 108.208 50.776 108.64C49.672 109.072 48.456 109.288 47.128 109.288ZM52.624 112.864C51.968 112.864 51.344 112.792 50.752 112.648C50.176 112.504 49.6 112.272 49.024 111.952C48.464 111.632 47.872 111.2 47.248 110.656C46.64 110.112 45.976 109.44 45.256 108.64L49.336 107.608C49.768 108.2 50.168 108.672 50.536 109.024C50.904 109.376 51.256 109.624 51.592 109.768C51.944 109.912 52.312 109.984 52.696 109.984C53.72 109.984 54.632 109.568 55.432 108.736L57.16 110.8C56.024 112.176 54.512 112.864 52.624 112.864ZM47.128 105.976C47.88 105.976 48.568 105.848 49.192 105.592C49.832 105.336 50.392 104.968 50.872 104.488C51.352 104.008 51.72 103.44 51.976 102.784C52.248 102.112 52.384 101.384 52.384 100.6C52.384 99.8 52.248 99.072 51.976 98.416C51.72 97.76 51.352 97.192 50.872 96.712C50.392 96.232 49.832 95.864 49.192 95.608C48.568 95.352 47.88 95.224 47.128 95.224C46.376 95.224 45.68 95.352 45.04 95.608C44.4 95.864 43.84 96.232 43.36 96.712C42.896 97.192 42.528 97.76 42.256 98.416C42 99.072 41.872 99.8 41.872 100.6C41.872 101.384 42 102.112 42.256 102.784C42.528 103.44 42.896 104.008 43.36 104.488C43.84 104.968 44.4 105.336 45.04 105.592C45.68 105.848 46.376 105.976 47.128 105.976ZM66.706 109.288C64.322 109.288 62.458 108.624 61.114 107.296C59.77 105.968 59.098 104.072 59.098 101.608V92.2H62.986V101.464C62.986 103.064 63.314 104.216 63.97 104.92C64.626 105.624 65.546 105.976 66.73 105.976C67.914 105.976 68.834 105.624 69.49 104.92C70.146 104.216 70.474 103.064 70.474 101.464V92.2H74.314V101.608C74.314 104.072 73.642 105.968 72.298 107.296C70.954 108.624 69.09 109.288 66.706 109.288ZM75.5965 109L83.0845 92.2H86.9245L94.4365 109H90.3565L84.2125 94.168H85.7485L79.5805 109H75.5965ZM79.3405 105.4L80.3725 102.448H89.0125L90.0685 105.4H79.3405ZM96.1795 109V92.2H100.068V105.832H108.492V109H96.1795ZM110.664 109V92.2H114.552V109H110.664ZM126.699 109.288C125.371 109.288 124.139 109.072 123.003 108.64C121.883 108.208 120.907 107.6 120.075 106.816C119.259 106.032 118.619 105.112 118.155 104.056C117.707 103 117.483 101.848 117.483 100.6C117.483 99.352 117.707 98.2 118.155 97.144C118.619 96.088 119.267 95.168 120.099 94.384C120.931 93.6 121.907 92.992 123.027 92.56C124.147 92.128 125.363 91.912 126.675 91.912C128.003 91.912 129.219 92.128 130.323 92.56C131.443 92.992 132.411 93.6 133.227 94.384C134.059 95.168 134.707 96.088 135.171 97.144C135.635 98.184 135.867 99.336 135.867 100.6C135.867 101.848 135.635 103.008 135.171 104.08C134.707 105.136 134.059 106.056 133.227 106.84C132.411 107.608 131.443 108.208 130.323 108.64C129.219 109.072 128.011 109.288 126.699 109.288ZM126.675 105.976C127.427 105.976 128.115 105.848 128.739 105.592C129.379 105.336 129.939 104.968 130.419 104.488C130.899 104.008 131.267 103.44 131.523 102.784C131.795 102.128 131.931 101.4 131.931 100.6C131.931 99.8 131.795 99.072 131.523 98.416C131.267 97.76 130.899 97.192 130.419 96.712C129.955 96.232 129.403 95.864 128.763 95.608C128.123 95.352 127.427 95.224 126.675 95.224C125.923 95.224 125.227 95.352 124.587 95.608C123.963 95.864 123.411 96.232 122.931 96.712C122.451 97.192 122.075 97.76 121.803 98.416C121.547 99.072 121.419 99.8 121.419 100.6C121.419 101.384 121.547 102.112 121.803 102.784C122.075 103.44 122.443 104.008 122.907 104.488C123.387 104.968 123.947 105.336 124.587 105.592C125.227 105.848 125.923 105.976 126.675 105.976ZM138.789 109V92.2H146.061C147.565 92.2 148.861 92.448 149.949 92.944C151.037 93.424 151.877 94.12 152.469 95.032C153.061 95.944 153.357 97.032 153.357 98.296C153.357 99.544 153.061 100.624 152.469 101.536C151.877 102.448 151.037 103.152 149.949 103.648C148.861 104.128 147.565 104.368 146.061 104.368H140.949L142.677 102.616V109H138.789ZM142.677 103.048L140.949 101.2H145.845C147.045 101.2 147.941 100.944 148.533 100.432C149.125 99.92 149.421 99.208 149.421 98.296C149.421 97.368 149.125 96.648 148.533 96.136C147.941 95.624 147.045 95.368 145.845 95.368H140.949L142.677 93.52V103.048ZM156.133 109V92.2H160.021V109H156.133Z" fill="#1D5763"/>
</svg>
