<svg width="24" height="24" viewBox="0 0 24 24" fill="none" xmlns="http://www.w3.org/2000/svg">
    <path opacity="0.5" d="M2.99979 21.0002L7.34279 16.6572M7.34279 16.6572C6.59991 15.9143 6.01062 15.0324 5.60857 14.0618C5.20652 13.0911 4.99959 12.0508 4.99959 11.0002C4.99959 9.9496 5.20652 8.90929 5.60857 7.93866C6.01061 6.96803 6.59991 6.08609 7.34279 5.34321C8.08568 4.60032 8.96762 4.01103 9.93825 3.60898C10.9089 3.20693 11.9492 3 12.9998 3C14.0504 3 15.0907 3.20693 16.0613 3.60898C17.032 4.01103 17.9139 4.60032 18.6568 5.34321C20.1571 6.84354 21 8.87842 21 11.0002C21 13.122 20.1571 15.1569 18.6568 16.6572C17.1565 18.1575 15.1216 19.0004 12.9998 19.0004C10.878 19.0004 8.84312 18.1575 7.34279 16.6572Z" stroke="#002133" stroke-linecap="round" stroke-linejoin="round"/>
</svg>