<?xml version="1.0" standalone="no"?>
<!DOCTYPE svg PUBLIC "-//W3C//DTD SVG 20010904//EN"
 "http://www.w3.org/TR/2001/REC-SVG-20010904/DTD/svg10.dtd">
<svg version="1.0" xmlns="http://www.w3.org/2000/svg"
 width="402.000000pt" height="402.000000pt" viewBox="0 0 402.000000 402.000000"
 preserveAspectRatio="xMidYMid meet">
<metadata>
Created by potrace 1.14, written by Peter Selinger 2001-2017
</metadata>
<g transform="translate(0.000000,402.000000) scale(0.100000,-0.100000)"
fill="#000000" stroke="none">
<path d="M1618 4015 c-2 -2 -23 -5 -46 -6 -24 -2 -46 -7 -49 -12 -3 -4 12 -22
34 -40 95 -78 346 -342 425 -447 77 -104 188 -271 188 -285 0 -3 11 -22 23
-43 35 -56 122 -265 150 -362 33 -112 33 -110 55 -255 12 -74 6 -200 -13 -280
-41 -178 -158 -326 -312 -396 -29 -13 -53 -27 -53 -31 0 -15 117 -101 180
-133 94 -48 166 -66 270 -69 224 -7 452 138 564 359 129 255 97 598 -94 1000
-43 89 -150 271 -190 322 -11 14 -18 28 -15 31 5 5 200 -189 238 -236 107
-135 212 -329 262 -484 118 -363 53 -673 -192 -921 -31 -31 -72 -67 -90 -80
-18 -12 -33 -26 -33 -30 0 -10 203 -6 280 5 30 5 69 10 85 13 17 2 64 13 105
24 202 53 359 150 478 295 31 38 95 170 114 238 22 78 30 270 16 375 -25 174
-181 504 -303 639 -5 7 -26 31 -45 55 -165 205 -458 416 -754 543 -220 95
-440 154 -711 193 -97 14 -556 28 -567 18z"/>
<path d="M999 3749 c-190 -16 -361 -102 -518 -260 -245 -246 -402 -582 -455
-974 -14 -103 -16 -454 -3 -510 3 -11 8 -47 11 -80 4 -33 9 -67 11 -75 2 -8 7
-31 10 -50 37 -218 149 -529 276 -770 58 -109 210 -342 218 -335 3 3 7 18 9
33 7 58 73 316 105 414 209 630 603 1092 1011 1185 12 2 59 4 106 5 66 0 102
-6 162 -26 73 -24 175 -78 190 -100 24 -36 48 78 44 209 -10 282 -200 510
-476 571 -14 3 -68 7 -120 9 -268 12 -518 -121 -765 -405 -108 -124 -239 -339
-313 -510 -25 -60 -24 -16 2 90 41 162 129 369 200 473 14 21 26 42 26 47 0 4
3 10 8 12 4 2 22 24 40 50 152 218 399 391 607 426 55 9 231 9 280 -1 55 -10
162 -46 208 -69 20 -10 37 -14 37 -9 0 19 -102 187 -156 258 -61 79 -164 183
-234 236 -107 79 -257 142 -367 153 -32 3 -62 6 -68 8 -5 1 -44 -1 -86 -5z"/>
<path d="M1699 2111 c-267 -99 -413 -329 -387 -606 9 -107 24 -158 71 -250
109 -214 324 -362 636 -440 178 -44 270 -54 509 -51 111 1 202 1 202 0 0 -7
-233 -70 -295 -79 -22 -3 -64 -9 -93 -14 -51 -8 -295 -6 -357 3 -188 26 -393
100 -508 182 -65 47 -153 135 -193 195 -59 88 -123 246 -138 344 -2 17 -8 45
-12 63 l-7 33 -18 -31 c-217 -357 -272 -714 -149 -977 109 -234 356 -408 650
-458 121 -21 376 -27 445 -12 11 3 40 8 65 11 191 26 413 96 595 188 275 138
570 373 769 613 71 85 196 261 240 335 40 70 176 344 172 348 -2 2 -53 -12
-113 -32 -148 -48 -239 -73 -363 -96 -103 -20 -119 -23 -250 -39 -85 -11 -398
-11 -475 -1 -33 5 -82 11 -110 14 -275 32 -535 158 -667 321 -90 111 -128 222
-128 372 0 51 -3 93 -7 93 -5 -1 -42 -14 -84 -29z"/>
</g>
</svg>
